<?xml version="1.0" encoding="utf-8" standalone="no"?>
<!DOCTYPE svg PUBLIC "-//W3C//DTD SVG 1.1//EN"
  "http://www.w3.org/Graphics/SVG/1.1/DTD/svg11.dtd">
<!-- Created with matplotlib (https://matplotlib.org/) -->
<svg height="288pt" version="1.1" viewBox="0 0 432 288" width="432pt" xmlns="http://www.w3.org/2000/svg" xmlns:xlink="http://www.w3.org/1999/xlink">
 <defs>
  <style type="text/css">
*{stroke-linecap:butt;stroke-linejoin:round;}
  </style>
 </defs>
 <g id="figure_1">
  <g id="patch_1">
   <path d="M 0 288 
L 432 288 
L 432 0 
L 0 0 
z
" style="fill:#ffffff;"/>
  </g>
  <g id="axes_1">
   <g id="patch_2">
    <path d="M 54 252 
L 152.470588 252 
L 152.470588 34.56 
L 54 34.56 
z
" style="fill:#ffffff;"/>
   </g>
   <g id="matplotlib.axis_1">
    <g id="xtick_1">
     <g id="line2d_1">
      <path clip-path="url(#pe39a59a4e5)" d="M 58.475936 252 
L 58.475936 34.56 
" style="fill:none;stroke:#b0b0b0;stroke-linecap:square;stroke-width:0.8;"/>
     </g>
     <g id="line2d_2">
      <defs>
       <path d="M 0 0 
L 0 3.5 
" id="m8f621168b8" style="stroke:#000000;stroke-width:0.8;"/>
      </defs>
      <g>
       <use style="stroke:#000000;stroke-width:0.8;" x="58.475936" xlink:href="#m8f621168b8" y="252"/>
      </g>
     </g>
     <g id="text_1">
      <!-- 0 -->
      <defs>
       <path d="M 31.78125 66.40625 
Q 24.171875 66.40625 20.328125 58.90625 
Q 16.5 51.421875 16.5 36.375 
Q 16.5 21.390625 20.328125 13.890625 
Q 24.171875 6.390625 31.78125 6.390625 
Q 39.453125 6.390625 43.28125 13.890625 
Q 47.125 21.390625 47.125 36.375 
Q 47.125 51.421875 43.28125 58.90625 
Q 39.453125 66.40625 31.78125 66.40625 
z
M 31.78125 74.21875 
Q 44.046875 74.21875 50.515625 64.515625 
Q 56.984375 54.828125 56.984375 36.375 
Q 56.984375 17.96875 50.515625 8.265625 
Q 44.046875 -1.421875 31.78125 -1.421875 
Q 19.53125 -1.421875 13.0625 8.265625 
Q 6.59375 17.96875 6.59375 36.375 
Q 6.59375 54.828125 13.0625 64.515625 
Q 19.53125 74.21875 31.78125 74.21875 
z
" id="DejaVuSans-48"/>
      </defs>
      <g transform="translate(55.294686 266.598437)scale(0.1 -0.1)">
       <use xlink:href="#DejaVuSans-48"/>
      </g>
     </g>
    </g>
    <g id="xtick_2">
     <g id="line2d_3">
      <path clip-path="url(#pe39a59a4e5)" d="M 103.235294 252 
L 103.235294 34.56 
" style="fill:none;stroke:#b0b0b0;stroke-linecap:square;stroke-width:0.8;"/>
     </g>
     <g id="line2d_4">
      <g>
       <use style="stroke:#000000;stroke-width:0.8;" x="103.235294" xlink:href="#m8f621168b8" y="252"/>
      </g>
     </g>
     <g id="text_2">
      <!-- 5 -->
      <defs>
       <path d="M 10.796875 72.90625 
L 49.515625 72.90625 
L 49.515625 64.59375 
L 19.828125 64.59375 
L 19.828125 46.734375 
Q 21.96875 47.46875 24.109375 47.828125 
Q 26.265625 48.1875 28.421875 48.1875 
Q 40.625 48.1875 47.75 41.5 
Q 54.890625 34.8125 54.890625 23.390625 
Q 54.890625 11.625 47.5625 5.09375 
Q 40.234375 -1.421875 26.90625 -1.421875 
Q 22.3125 -1.421875 17.546875 -0.640625 
Q 12.796875 0.140625 7.71875 1.703125 
L 7.71875 11.625 
Q 12.109375 9.234375 16.796875 8.0625 
Q 21.484375 6.890625 26.703125 6.890625 
Q 35.15625 6.890625 40.078125 11.328125 
Q 45.015625 15.765625 45.015625 23.390625 
Q 45.015625 31 40.078125 35.4375 
Q 35.15625 39.890625 26.703125 39.890625 
Q 22.75 39.890625 18.8125 39.015625 
Q 14.890625 38.140625 10.796875 36.28125 
z
" id="DejaVuSans-53"/>
      </defs>
      <g transform="translate(100.054044 266.598437)scale(0.1 -0.1)">
       <use xlink:href="#DejaVuSans-53"/>
      </g>
     </g>
    </g>
    <g id="xtick_3">
     <g id="line2d_5">
      <path clip-path="url(#pe39a59a4e5)" d="M 147.994652 252 
L 147.994652 34.56 
" style="fill:none;stroke:#b0b0b0;stroke-linecap:square;stroke-width:0.8;"/>
     </g>
     <g id="line2d_6">
      <g>
       <use style="stroke:#000000;stroke-width:0.8;" x="147.994652" xlink:href="#m8f621168b8" y="252"/>
      </g>
     </g>
     <g id="text_3">
      <!-- 10 -->
      <defs>
       <path d="M 12.40625 8.296875 
L 28.515625 8.296875 
L 28.515625 63.921875 
L 10.984375 60.40625 
L 10.984375 69.390625 
L 28.421875 72.90625 
L 38.28125 72.90625 
L 38.28125 8.296875 
L 54.390625 8.296875 
L 54.390625 0 
L 12.40625 0 
z
" id="DejaVuSans-49"/>
      </defs>
      <g transform="translate(141.632152 266.598437)scale(0.1 -0.1)">
       <use xlink:href="#DejaVuSans-49"/>
       <use x="63.623047" xlink:href="#DejaVuSans-48"/>
      </g>
     </g>
    </g>
    <g id="text_4">
     <!-- M -->
     <defs>
      <path d="M 9.8125 72.90625 
L 24.515625 72.90625 
L 43.109375 23.296875 
L 61.8125 72.90625 
L 76.515625 72.90625 
L 76.515625 0 
L 66.890625 0 
L 66.890625 64.015625 
L 48.09375 14.015625 
L 38.1875 14.015625 
L 19.390625 64.015625 
L 19.390625 0 
L 9.8125 0 
z
" id="DejaVuSans-77"/>
     </defs>
     <g transform="translate(98.921232 280.276563)scale(0.1 -0.1)">
      <use xlink:href="#DejaVuSans-77"/>
     </g>
    </g>
   </g>
   <g id="matplotlib.axis_2">
    <g id="ytick_1">
     <g id="line2d_7">
      <path clip-path="url(#pe39a59a4e5)" d="M 54 242.116364 
L 152.470588 242.116364 
" style="fill:none;stroke:#b0b0b0;stroke-linecap:square;stroke-width:0.8;"/>
     </g>
     <g id="line2d_8">
      <defs>
       <path d="M 0 0 
L -3.5 0 
" id="m871280e497" style="stroke:#000000;stroke-width:0.8;"/>
      </defs>
      <g>
       <use style="stroke:#000000;stroke-width:0.8;" x="54" xlink:href="#m871280e497" y="242.116364"/>
      </g>
     </g>
     <g id="text_5">
      <!-- 0.0 -->
      <defs>
       <path d="M 10.6875 12.40625 
L 21 12.40625 
L 21 0 
L 10.6875 0 
z
" id="DejaVuSans-46"/>
      </defs>
      <g transform="translate(31.096875 245.915582)scale(0.1 -0.1)">
       <use xlink:href="#DejaVuSans-48"/>
       <use x="63.623047" xlink:href="#DejaVuSans-46"/>
       <use x="95.410156" xlink:href="#DejaVuSans-48"/>
      </g>
     </g>
    </g>
    <g id="ytick_2">
     <g id="line2d_9">
      <path clip-path="url(#pe39a59a4e5)" d="M 54 212.779554 
L 152.470588 212.779554 
" style="fill:none;stroke:#b0b0b0;stroke-linecap:square;stroke-width:0.8;"/>
     </g>
     <g id="line2d_10">
      <g>
       <use style="stroke:#000000;stroke-width:0.8;" x="54" xlink:href="#m871280e497" y="212.779554"/>
      </g>
     </g>
     <g id="text_6">
      <!-- 0.2 -->
      <defs>
       <path d="M 19.1875 8.296875 
L 53.609375 8.296875 
L 53.609375 0 
L 7.328125 0 
L 7.328125 8.296875 
Q 12.9375 14.109375 22.625 23.890625 
Q 32.328125 33.6875 34.8125 36.53125 
Q 39.546875 41.84375 41.421875 45.53125 
Q 43.3125 49.21875 43.3125 52.78125 
Q 43.3125 58.59375 39.234375 62.25 
Q 35.15625 65.921875 28.609375 65.921875 
Q 23.96875 65.921875 18.8125 64.3125 
Q 13.671875 62.703125 7.8125 59.421875 
L 7.8125 69.390625 
Q 13.765625 71.78125 18.9375 73 
Q 24.125 74.21875 28.421875 74.21875 
Q 39.75 74.21875 46.484375 68.546875 
Q 53.21875 62.890625 53.21875 53.421875 
Q 53.21875 48.921875 51.53125 44.890625 
Q 49.859375 40.875 45.40625 35.40625 
Q 44.1875 33.984375 37.640625 27.21875 
Q 31.109375 20.453125 19.1875 8.296875 
z
" id="DejaVuSans-50"/>
      </defs>
      <g transform="translate(31.096875 216.578772)scale(0.1 -0.1)">
       <use xlink:href="#DejaVuSans-48"/>
       <use x="63.623047" xlink:href="#DejaVuSans-46"/>
       <use x="95.410156" xlink:href="#DejaVuSans-50"/>
      </g>
     </g>
    </g>
    <g id="ytick_3">
     <g id="line2d_11">
      <path clip-path="url(#pe39a59a4e5)" d="M 54 183.442744 
L 152.470588 183.442744 
" style="fill:none;stroke:#b0b0b0;stroke-linecap:square;stroke-width:0.8;"/>
     </g>
     <g id="line2d_12">
      <g>
       <use style="stroke:#000000;stroke-width:0.8;" x="54" xlink:href="#m871280e497" y="183.442744"/>
      </g>
     </g>
     <g id="text_7">
      <!-- 0.4 -->
      <defs>
       <path d="M 37.796875 64.3125 
L 12.890625 25.390625 
L 37.796875 25.390625 
z
M 35.203125 72.90625 
L 47.609375 72.90625 
L 47.609375 25.390625 
L 58.015625 25.390625 
L 58.015625 17.1875 
L 47.609375 17.1875 
L 47.609375 0 
L 37.796875 0 
L 37.796875 17.1875 
L 4.890625 17.1875 
L 4.890625 26.703125 
z
" id="DejaVuSans-52"/>
      </defs>
      <g transform="translate(31.096875 187.241963)scale(0.1 -0.1)">
       <use xlink:href="#DejaVuSans-48"/>
       <use x="63.623047" xlink:href="#DejaVuSans-46"/>
       <use x="95.410156" xlink:href="#DejaVuSans-52"/>
      </g>
     </g>
    </g>
    <g id="ytick_4">
     <g id="line2d_13">
      <path clip-path="url(#pe39a59a4e5)" d="M 54 154.105934 
L 152.470588 154.105934 
" style="fill:none;stroke:#b0b0b0;stroke-linecap:square;stroke-width:0.8;"/>
     </g>
     <g id="line2d_14">
      <g>
       <use style="stroke:#000000;stroke-width:0.8;" x="54" xlink:href="#m871280e497" y="154.105934"/>
      </g>
     </g>
     <g id="text_8">
      <!-- 0.6 -->
      <defs>
       <path d="M 33.015625 40.375 
Q 26.375 40.375 22.484375 35.828125 
Q 18.609375 31.296875 18.609375 23.390625 
Q 18.609375 15.53125 22.484375 10.953125 
Q 26.375 6.390625 33.015625 6.390625 
Q 39.65625 6.390625 43.53125 10.953125 
Q 47.40625 15.53125 47.40625 23.390625 
Q 47.40625 31.296875 43.53125 35.828125 
Q 39.65625 40.375 33.015625 40.375 
z
M 52.59375 71.296875 
L 52.59375 62.3125 
Q 48.875 64.0625 45.09375 64.984375 
Q 41.3125 65.921875 37.59375 65.921875 
Q 27.828125 65.921875 22.671875 59.328125 
Q 17.53125 52.734375 16.796875 39.40625 
Q 19.671875 43.65625 24.015625 45.921875 
Q 28.375 48.1875 33.59375 48.1875 
Q 44.578125 48.1875 50.953125 41.515625 
Q 57.328125 34.859375 57.328125 23.390625 
Q 57.328125 12.15625 50.6875 5.359375 
Q 44.046875 -1.421875 33.015625 -1.421875 
Q 20.359375 -1.421875 13.671875 8.265625 
Q 6.984375 17.96875 6.984375 36.375 
Q 6.984375 53.65625 15.1875 63.9375 
Q 23.390625 74.21875 37.203125 74.21875 
Q 40.921875 74.21875 44.703125 73.484375 
Q 48.484375 72.75 52.59375 71.296875 
z
" id="DejaVuSans-54"/>
      </defs>
      <g transform="translate(31.096875 157.905153)scale(0.1 -0.1)">
       <use xlink:href="#DejaVuSans-48"/>
       <use x="63.623047" xlink:href="#DejaVuSans-46"/>
       <use x="95.410156" xlink:href="#DejaVuSans-54"/>
      </g>
     </g>
    </g>
    <g id="ytick_5">
     <g id="line2d_15">
      <path clip-path="url(#pe39a59a4e5)" d="M 54 124.769124 
L 152.470588 124.769124 
" style="fill:none;stroke:#b0b0b0;stroke-linecap:square;stroke-width:0.8;"/>
     </g>
     <g id="line2d_16">
      <g>
       <use style="stroke:#000000;stroke-width:0.8;" x="54" xlink:href="#m871280e497" y="124.769124"/>
      </g>
     </g>
     <g id="text_9">
      <!-- 0.8 -->
      <defs>
       <path d="M 31.78125 34.625 
Q 24.75 34.625 20.71875 30.859375 
Q 16.703125 27.09375 16.703125 20.515625 
Q 16.703125 13.921875 20.71875 10.15625 
Q 24.75 6.390625 31.78125 6.390625 
Q 38.8125 6.390625 42.859375 10.171875 
Q 46.921875 13.96875 46.921875 20.515625 
Q 46.921875 27.09375 42.890625 30.859375 
Q 38.875 34.625 31.78125 34.625 
z
M 21.921875 38.8125 
Q 15.578125 40.375 12.03125 44.71875 
Q 8.5 49.078125 8.5 55.328125 
Q 8.5 64.0625 14.71875 69.140625 
Q 20.953125 74.21875 31.78125 74.21875 
Q 42.671875 74.21875 48.875 69.140625 
Q 55.078125 64.0625 55.078125 55.328125 
Q 55.078125 49.078125 51.53125 44.71875 
Q 48 40.375 41.703125 38.8125 
Q 48.828125 37.15625 52.796875 32.3125 
Q 56.78125 27.484375 56.78125 20.515625 
Q 56.78125 9.90625 50.3125 4.234375 
Q 43.84375 -1.421875 31.78125 -1.421875 
Q 19.734375 -1.421875 13.25 4.234375 
Q 6.78125 9.90625 6.78125 20.515625 
Q 6.78125 27.484375 10.78125 32.3125 
Q 14.796875 37.15625 21.921875 38.8125 
z
M 18.3125 54.390625 
Q 18.3125 48.734375 21.84375 45.5625 
Q 25.390625 42.390625 31.78125 42.390625 
Q 38.140625 42.390625 41.71875 45.5625 
Q 45.3125 48.734375 45.3125 54.390625 
Q 45.3125 60.0625 41.71875 63.234375 
Q 38.140625 66.40625 31.78125 66.40625 
Q 25.390625 66.40625 21.84375 63.234375 
Q 18.3125 60.0625 18.3125 54.390625 
z
" id="DejaVuSans-56"/>
      </defs>
      <g transform="translate(31.096875 128.568343)scale(0.1 -0.1)">
       <use xlink:href="#DejaVuSans-48"/>
       <use x="63.623047" xlink:href="#DejaVuSans-46"/>
       <use x="95.410156" xlink:href="#DejaVuSans-56"/>
      </g>
     </g>
    </g>
    <g id="ytick_6">
     <g id="line2d_17">
      <path clip-path="url(#pe39a59a4e5)" d="M 54 95.432314 
L 152.470588 95.432314 
" style="fill:none;stroke:#b0b0b0;stroke-linecap:square;stroke-width:0.8;"/>
     </g>
     <g id="line2d_18">
      <g>
       <use style="stroke:#000000;stroke-width:0.8;" x="54" xlink:href="#m871280e497" y="95.432314"/>
      </g>
     </g>
     <g id="text_10">
      <!-- 1.0 -->
      <g transform="translate(31.096875 99.231533)scale(0.1 -0.1)">
       <use xlink:href="#DejaVuSans-49"/>
       <use x="63.623047" xlink:href="#DejaVuSans-46"/>
       <use x="95.410156" xlink:href="#DejaVuSans-48"/>
      </g>
     </g>
    </g>
    <g id="ytick_7">
     <g id="line2d_19">
      <path clip-path="url(#pe39a59a4e5)" d="M 54 66.095504 
L 152.470588 66.095504 
" style="fill:none;stroke:#b0b0b0;stroke-linecap:square;stroke-width:0.8;"/>
     </g>
     <g id="line2d_20">
      <g>
       <use style="stroke:#000000;stroke-width:0.8;" x="54" xlink:href="#m871280e497" y="66.095504"/>
      </g>
     </g>
     <g id="text_11">
      <!-- 1.2 -->
      <g transform="translate(31.096875 69.894723)scale(0.1 -0.1)">
       <use xlink:href="#DejaVuSans-49"/>
       <use x="63.623047" xlink:href="#DejaVuSans-46"/>
       <use x="95.410156" xlink:href="#DejaVuSans-50"/>
      </g>
     </g>
    </g>
    <g id="ytick_8">
     <g id="line2d_21">
      <path clip-path="url(#pe39a59a4e5)" d="M 54 36.758694 
L 152.470588 36.758694 
" style="fill:none;stroke:#b0b0b0;stroke-linecap:square;stroke-width:0.8;"/>
     </g>
     <g id="line2d_22">
      <g>
       <use style="stroke:#000000;stroke-width:0.8;" x="54" xlink:href="#m871280e497" y="36.758694"/>
      </g>
     </g>
     <g id="text_12">
      <!-- 1.4 -->
      <g transform="translate(31.096875 40.557913)scale(0.1 -0.1)">
       <use xlink:href="#DejaVuSans-49"/>
       <use x="63.623047" xlink:href="#DejaVuSans-46"/>
       <use x="95.410156" xlink:href="#DejaVuSans-52"/>
      </g>
     </g>
    </g>
    <g id="text_13">
     <!-- C -->
     <defs>
      <path d="M 64.40625 67.28125 
L 64.40625 56.890625 
Q 59.421875 61.53125 53.78125 63.8125 
Q 48.140625 66.109375 41.796875 66.109375 
Q 29.296875 66.109375 22.65625 58.46875 
Q 16.015625 50.828125 16.015625 36.375 
Q 16.015625 21.96875 22.65625 14.328125 
Q 29.296875 6.6875 41.796875 6.6875 
Q 48.140625 6.6875 53.78125 8.984375 
Q 59.421875 11.28125 64.40625 15.921875 
L 64.40625 5.609375 
Q 59.234375 2.09375 53.4375 0.328125 
Q 47.65625 -1.421875 41.21875 -1.421875 
Q 24.65625 -1.421875 15.125 8.703125 
Q 5.609375 18.84375 5.609375 36.375 
Q 5.609375 53.953125 15.125 64.078125 
Q 24.65625 74.21875 41.21875 74.21875 
Q 47.75 74.21875 53.53125 72.484375 
Q 59.328125 70.75 64.40625 67.28125 
z
" id="DejaVuSans-67"/>
     </defs>
     <g transform="translate(25.017187 146.771406)rotate(-90)scale(0.1 -0.1)">
      <use xlink:href="#DejaVuSans-67"/>
     </g>
    </g>
   </g>
   <g id="line2d_23">
    <path clip-path="url(#pe39a59a4e5)" d="M 58.475936 242.116364 
L 59.380165 227.314563 
L 60.284395 212.512763 
L 61.188624 197.710963 
L 62.092854 182.909163 
L 62.997083 168.107362 
L 63.901313 153.305562 
L 64.805542 138.503762 
L 65.709772 123.701962 
L 66.614001 108.900161 
L 67.51823 94.804532 
L 68.42246 92.370893 
L 69.326689 91.025283 
L 70.230919 89.953338 
L 71.135148 89.025721 
L 72.039378 88.19023 
L 72.943607 87.419652 
L 73.847837 86.698533 
L 74.752066 86.016122 
L 75.656296 85.365207 
L 76.560525 84.741067 
L 77.464754 84.139783 
L 78.368984 83.557302 
L 79.273213 82.993436 
L 80.177443 82.443361 
L 81.081672 81.906338 
L 81.985902 81.380459 
L 82.890131 80.862272 
L 83.794361 80.349471 
L 84.69859 79.84006 
L 85.60282 79.332592 
L 86.507049 78.826187 
L 87.411279 78.320271 
L 88.315508 77.814515 
L 89.219737 77.308841 
L 90.123967 76.803207 
L 91.028196 76.297584 
L 91.932426 75.791963 
L 92.836655 75.286345 
L 93.740885 74.780726 
L 94.645114 74.275108 
L 95.549344 73.76949 
L 96.453573 73.263872 
L 97.357803 72.758254 
L 98.262032 72.252635 
L 99.166262 71.747017 
L 100.070491 71.241399 
L 100.97472 70.735781 
L 101.87895 70.230163 
L 102.783179 69.724545 
L 103.687409 69.218926 
L 104.591638 68.713308 
L 105.495868 68.20769 
L 106.400097 67.702072 
L 107.304327 67.196454 
L 108.208556 66.690836 
L 109.112786 66.185217 
L 110.017015 65.679599 
L 110.921245 65.173981 
L 111.825474 64.668363 
L 112.729703 64.162745 
L 113.633933 63.657127 
L 114.538162 63.151508 
L 115.442392 62.64589 
L 116.346621 62.140272 
L 117.250851 61.634654 
L 118.15508 61.129036 
L 119.05931 60.623418 
L 119.963539 60.117799 
L 120.867769 59.612181 
L 121.771998 59.106563 
L 122.676228 58.600945 
L 123.580457 58.095327 
L 124.484686 57.589709 
L 125.388916 57.08409 
L 126.293145 56.578472 
L 127.197375 56.072854 
L 128.101604 55.567236 
L 129.005834 55.061618 
L 129.910063 54.556 
L 130.814293 54.050381 
L 131.718522 53.544763 
L 132.622752 53.039145 
L 133.526981 52.533527 
L 134.431211 52.027909 
L 135.33544 51.522291 
L 136.239669 51.016673 
L 137.143899 50.511054 
L 138.048128 50.005436 
L 138.952358 49.499818 
L 139.856587 48.9942 
L 140.760817 48.488582 
L 141.665046 47.982964 
L 142.569276 47.477345 
L 143.473505 46.971727 
L 144.377735 46.466109 
L 145.281964 45.960491 
L 146.186193 45.454873 
L 147.090423 44.949255 
L 147.994652 44.443636 
" style="fill:none;stroke:#1f77b4;stroke-linecap:square;stroke-width:1.5;"/>
   </g>
   <g id="line2d_24">
    <path clip-path="url(#pe39a59a4e5)" d="M 58.475936 242.116364 
L 59.380165 227.299793 
L 60.284395 212.483222 
L 61.188624 197.666652 
L 62.092854 182.850081 
L 62.997083 168.03351 
L 63.901313 153.21694 
L 64.805542 138.400369 
L 65.709772 123.583798 
L 66.614001 108.767228 
L 67.51823 94.623222 
L 68.42246 92.298292 
L 69.326689 90.972398 
L 70.230919 89.909507 
L 71.135148 88.986596 
L 72.039378 88.153115 
L 72.943607 87.46859 
L 73.847837 86.962972 
L 74.752066 86.457354 
L 75.656296 85.951736 
L 76.560525 85.446117 
L 77.464754 84.940499 
L 78.368984 84.434881 
L 79.273213 83.929263 
L 80.177443 83.423645 
L 81.081672 82.918027 
L 81.985902 82.412408 
L 82.890131 81.90679 
L 83.794361 81.401172 
L 84.69859 80.895554 
L 85.60282 80.389936 
L 86.507049 79.884318 
L 87.411279 79.378699 
L 88.315508 78.873081 
L 89.219737 78.367463 
L 90.123967 77.861845 
L 91.028196 77.356227 
L 91.932426 76.850609 
L 92.836655 76.34499 
L 93.740885 75.839372 
L 94.645114 75.333754 
L 95.549344 74.828136 
L 96.453573 74.322518 
L 97.357803 73.8169 
L 98.262032 73.311281 
L 99.166262 72.805663 
L 100.070491 72.300045 
L 100.97472 71.794427 
L 101.87895 71.288809 
L 102.783179 70.783191 
L 103.687409 70.277572 
L 104.591638 69.771954 
L 105.495868 69.266336 
L 106.400097 68.760718 
L 107.304327 68.2551 
L 108.208556 67.749482 
L 109.112786 67.243863 
L 110.017015 66.738245 
L 110.921245 66.232627 
L 111.825474 65.727009 
L 112.729703 65.221391 
L 113.633933 64.715773 
L 114.538162 64.210154 
L 115.442392 63.704536 
L 116.346621 63.198918 
L 117.250851 62.6933 
L 118.15508 62.187682 
L 119.05931 61.682064 
L 119.963539 61.176446 
L 120.867769 60.670827 
L 121.771998 60.165209 
L 122.676228 59.659591 
L 123.580457 59.153973 
L 124.484686 58.648355 
L 125.388916 58.142737 
L 126.293145 57.637118 
L 127.197375 57.1315 
L 128.101604 56.625882 
L 129.005834 56.120264 
L 129.910063 55.614646 
L 130.814293 55.109028 
L 131.718522 54.603409 
L 132.622752 54.097791 
L 133.526981 53.592173 
L 134.431211 53.086555 
L 135.33544 52.580937 
L 136.239669 52.075319 
L 137.143899 51.5697 
L 138.048128 51.064082 
L 138.952358 50.558464 
L 139.856587 50.052846 
L 140.760817 49.547228 
L 141.665046 49.04161 
L 142.569276 48.535991 
L 143.473505 48.030373 
L 144.377735 47.524755 
L 145.281964 47.019137 
L 146.186193 46.513519 
L 147.090423 46.007901 
L 147.994652 45.502282 
" style="fill:none;stroke:#ff7f0e;stroke-linecap:square;stroke-width:1.5;"/>
   </g>
   <g id="line2d_25">
    <path clip-path="url(#pe39a59a4e5)" d="M 58.475936 242.116364 
L 59.380165 227.299793 
L 60.284395 212.483222 
L 61.188624 197.666652 
L 62.092854 182.850081 
L 62.997083 168.03351 
L 63.901313 153.21694 
L 64.805542 138.400369 
L 65.709772 123.583798 
L 66.614001 108.767228 
L 67.51823 93.950657 
L 68.42246 88.938035 
L 69.326689 88.432417 
L 70.230919 87.926799 
L 71.135148 87.42118 
L 72.039378 86.915562 
L 72.943607 86.409944 
L 73.847837 85.904326 
L 74.752066 85.398708 
L 75.656296 84.89309 
L 76.560525 84.387471 
L 77.464754 83.881853 
L 78.368984 83.376235 
L 79.273213 82.870617 
L 80.177443 82.364999 
L 81.081672 81.859381 
L 81.985902 81.353762 
L 82.890131 80.848144 
L 83.794361 80.342526 
L 84.69859 79.836908 
L 85.60282 79.33129 
L 86.507049 78.825672 
L 87.411279 78.320053 
L 88.315508 77.814435 
L 89.219737 77.308817 
L 90.123967 76.803199 
L 91.028196 76.297581 
L 91.932426 75.791963 
L 92.836655 75.286344 
L 93.740885 74.780726 
L 94.645114 74.275108 
L 95.549344 73.76949 
L 96.453573 73.263872 
L 97.357803 72.758254 
L 98.262032 72.252635 
L 99.166262 71.747017 
L 100.070491 71.241399 
L 100.97472 70.735781 
L 101.87895 70.230163 
L 102.783179 69.724545 
L 103.687409 69.218926 
L 104.591638 68.713308 
L 105.495868 68.20769 
L 106.400097 67.702072 
L 107.304327 67.196454 
L 108.208556 66.690836 
L 109.112786 66.185217 
L 110.017015 65.679599 
L 110.921245 65.173981 
L 111.825474 64.668363 
L 112.729703 64.162745 
L 113.633933 63.657127 
L 114.538162 63.151508 
L 115.442392 62.64589 
L 116.346621 62.140272 
L 117.250851 61.634654 
L 118.15508 61.129036 
L 119.05931 60.623418 
L 119.963539 60.117799 
L 120.867769 59.612181 
L 121.771998 59.106563 
L 122.676228 58.600945 
L 123.580457 58.095327 
L 124.484686 57.589709 
L 125.388916 57.08409 
L 126.293145 56.578472 
L 127.197375 56.072854 
L 128.101604 55.567236 
L 129.005834 55.061618 
L 129.910063 54.556 
L 130.814293 54.050381 
L 131.718522 53.544763 
L 132.622752 53.039145 
L 133.526981 52.533527 
L 134.431211 52.027909 
L 135.33544 51.522291 
L 136.239669 51.016673 
L 137.143899 50.511054 
L 138.048128 50.005436 
L 138.952358 49.499818 
L 139.856587 48.9942 
L 140.760817 48.488582 
L 141.665046 47.982964 
L 142.569276 47.477345 
L 143.473505 46.971727 
L 144.377735 46.466109 
L 145.281964 45.960491 
L 146.186193 45.454873 
L 147.090423 44.949255 
L 147.994652 44.443636 
" style="fill:none;stroke:#2ca02c;stroke-linecap:square;stroke-width:1.5;"/>
   </g>
   <g id="patch_3">
    <path d="M 54 252 
L 54 34.56 
" style="fill:none;stroke:#000000;stroke-linecap:square;stroke-linejoin:miter;stroke-width:0.8;"/>
   </g>
   <g id="patch_4">
    <path d="M 152.470588 252 
L 152.470588 34.56 
" style="fill:none;stroke:#000000;stroke-linecap:square;stroke-linejoin:miter;stroke-width:0.8;"/>
   </g>
   <g id="patch_5">
    <path d="M 54 252 
L 152.470588 252 
" style="fill:none;stroke:#000000;stroke-linecap:square;stroke-linejoin:miter;stroke-width:0.8;"/>
   </g>
   <g id="patch_6">
    <path d="M 54 34.56 
L 152.470588 34.56 
" style="fill:none;stroke:#000000;stroke-linecap:square;stroke-linejoin:miter;stroke-width:0.8;"/>
   </g>
   <g id="text_14">
    <!-- Age = 55 -->
    <defs>
     <path d="M 34.1875 63.1875 
L 20.796875 26.90625 
L 47.609375 26.90625 
z
M 28.609375 72.90625 
L 39.796875 72.90625 
L 67.578125 0 
L 57.328125 0 
L 50.6875 18.703125 
L 17.828125 18.703125 
L 11.1875 0 
L 0.78125 0 
z
" id="DejaVuSans-65"/>
     <path d="M 45.40625 27.984375 
Q 45.40625 37.75 41.375 43.109375 
Q 37.359375 48.484375 30.078125 48.484375 
Q 22.859375 48.484375 18.828125 43.109375 
Q 14.796875 37.75 14.796875 27.984375 
Q 14.796875 18.265625 18.828125 12.890625 
Q 22.859375 7.515625 30.078125 7.515625 
Q 37.359375 7.515625 41.375 12.890625 
Q 45.40625 18.265625 45.40625 27.984375 
z
M 54.390625 6.78125 
Q 54.390625 -7.171875 48.1875 -13.984375 
Q 42 -20.796875 29.203125 -20.796875 
Q 24.46875 -20.796875 20.265625 -20.09375 
Q 16.0625 -19.390625 12.109375 -17.921875 
L 12.109375 -9.1875 
Q 16.0625 -11.328125 19.921875 -12.34375 
Q 23.78125 -13.375 27.78125 -13.375 
Q 36.625 -13.375 41.015625 -8.765625 
Q 45.40625 -4.15625 45.40625 5.171875 
L 45.40625 9.625 
Q 42.625 4.78125 38.28125 2.390625 
Q 33.9375 0 27.875 0 
Q 17.828125 0 11.671875 7.65625 
Q 5.515625 15.328125 5.515625 27.984375 
Q 5.515625 40.671875 11.671875 48.328125 
Q 17.828125 56 27.875 56 
Q 33.9375 56 38.28125 53.609375 
Q 42.625 51.21875 45.40625 46.390625 
L 45.40625 54.6875 
L 54.390625 54.6875 
z
" id="DejaVuSans-103"/>
     <path d="M 56.203125 29.59375 
L 56.203125 25.203125 
L 14.890625 25.203125 
Q 15.484375 15.921875 20.484375 11.0625 
Q 25.484375 6.203125 34.421875 6.203125 
Q 39.59375 6.203125 44.453125 7.46875 
Q 49.3125 8.734375 54.109375 11.28125 
L 54.109375 2.78125 
Q 49.265625 0.734375 44.1875 -0.34375 
Q 39.109375 -1.421875 33.890625 -1.421875 
Q 20.796875 -1.421875 13.15625 6.1875 
Q 5.515625 13.8125 5.515625 26.8125 
Q 5.515625 40.234375 12.765625 48.109375 
Q 20.015625 56 32.328125 56 
Q 43.359375 56 49.78125 48.890625 
Q 56.203125 41.796875 56.203125 29.59375 
z
M 47.21875 32.234375 
Q 47.125 39.59375 43.09375 43.984375 
Q 39.0625 48.390625 32.421875 48.390625 
Q 24.90625 48.390625 20.390625 44.140625 
Q 15.875 39.890625 15.1875 32.171875 
z
" id="DejaVuSans-101"/>
     <path id="DejaVuSans-32"/>
     <path d="M 10.59375 45.40625 
L 73.1875 45.40625 
L 73.1875 37.203125 
L 10.59375 37.203125 
z
M 10.59375 25.484375 
L 73.1875 25.484375 
L 73.1875 17.1875 
L 10.59375 17.1875 
z
" id="DejaVuSans-61"/>
    </defs>
    <g transform="translate(75.153419 28.56)scale(0.12 -0.12)">
     <use xlink:href="#DejaVuSans-65"/>
     <use x="68.408203" xlink:href="#DejaVuSans-103"/>
     <use x="131.884766" xlink:href="#DejaVuSans-101"/>
     <use x="193.408203" xlink:href="#DejaVuSans-32"/>
     <use x="225.195312" xlink:href="#DejaVuSans-61"/>
     <use x="308.984375" xlink:href="#DejaVuSans-32"/>
     <use x="340.771484" xlink:href="#DejaVuSans-53"/>
     <use x="404.394531" xlink:href="#DejaVuSans-53"/>
    </g>
   </g>
  </g>
  <g id="axes_2">
   <g id="patch_7">
    <path d="M 172.164706 252 
L 270.635294 252 
L 270.635294 34.56 
L 172.164706 34.56 
z
" style="fill:#ffffff;"/>
   </g>
   <g id="matplotlib.axis_3">
    <g id="xtick_4">
     <g id="line2d_26">
      <path clip-path="url(#p46c850e3b3)" d="M 176.640642 252 
L 176.640642 34.56 
" style="fill:none;stroke:#b0b0b0;stroke-linecap:square;stroke-width:0.8;"/>
     </g>
     <g id="line2d_27">
      <g>
       <use style="stroke:#000000;stroke-width:0.8;" x="176.640642" xlink:href="#m8f621168b8" y="252"/>
      </g>
     </g>
     <g id="text_15">
      <!-- 0 -->
      <g transform="translate(173.459392 266.598437)scale(0.1 -0.1)">
       <use xlink:href="#DejaVuSans-48"/>
      </g>
     </g>
    </g>
    <g id="xtick_5">
     <g id="line2d_28">
      <path clip-path="url(#p46c850e3b3)" d="M 221.4 252 
L 221.4 34.56 
" style="fill:none;stroke:#b0b0b0;stroke-linecap:square;stroke-width:0.8;"/>
     </g>
     <g id="line2d_29">
      <g>
       <use style="stroke:#000000;stroke-width:0.8;" x="221.4" xlink:href="#m8f621168b8" y="252"/>
      </g>
     </g>
     <g id="text_16">
      <!-- 5 -->
      <g transform="translate(218.21875 266.598437)scale(0.1 -0.1)">
       <use xlink:href="#DejaVuSans-53"/>
      </g>
     </g>
    </g>
    <g id="xtick_6">
     <g id="line2d_30">
      <path clip-path="url(#p46c850e3b3)" d="M 266.159358 252 
L 266.159358 34.56 
" style="fill:none;stroke:#b0b0b0;stroke-linecap:square;stroke-width:0.8;"/>
     </g>
     <g id="line2d_31">
      <g>
       <use style="stroke:#000000;stroke-width:0.8;" x="266.159358" xlink:href="#m8f621168b8" y="252"/>
      </g>
     </g>
     <g id="text_17">
      <!-- 10 -->
      <g transform="translate(259.796858 266.598437)scale(0.1 -0.1)">
       <use xlink:href="#DejaVuSans-49"/>
       <use x="63.623047" xlink:href="#DejaVuSans-48"/>
      </g>
     </g>
    </g>
    <g id="text_18">
     <!-- M -->
     <g transform="translate(217.085938 280.276563)scale(0.1 -0.1)">
      <use xlink:href="#DejaVuSans-77"/>
     </g>
    </g>
   </g>
   <g id="matplotlib.axis_4">
    <g id="ytick_9">
     <g id="line2d_32">
      <path clip-path="url(#p46c850e3b3)" d="M 172.164706 242.116364 
L 270.635294 242.116364 
" style="fill:none;stroke:#b0b0b0;stroke-linecap:square;stroke-width:0.8;"/>
     </g>
     <g id="line2d_33">
      <g>
       <use style="stroke:#000000;stroke-width:0.8;" x="172.164706" xlink:href="#m871280e497" y="242.116364"/>
      </g>
     </g>
     <g id="text_19">
      <!-- 0 -->
      <g transform="translate(158.802206 245.915582)scale(0.1 -0.1)">
       <use xlink:href="#DejaVuSans-48"/>
      </g>
     </g>
    </g>
    <g id="ytick_10">
     <g id="line2d_34">
      <path clip-path="url(#p46c850e3b3)" d="M 172.164706 206.501734 
L 270.635294 206.501734 
" style="fill:none;stroke:#b0b0b0;stroke-linecap:square;stroke-width:0.8;"/>
     </g>
     <g id="line2d_35">
      <g>
       <use style="stroke:#000000;stroke-width:0.8;" x="172.164706" xlink:href="#m871280e497" y="206.501734"/>
      </g>
     </g>
     <g id="text_20">
      <!-- 1 -->
      <g transform="translate(158.802206 210.300953)scale(0.1 -0.1)">
       <use xlink:href="#DejaVuSans-49"/>
      </g>
     </g>
    </g>
    <g id="ytick_11">
     <g id="line2d_36">
      <path clip-path="url(#p46c850e3b3)" d="M 172.164706 170.887105 
L 270.635294 170.887105 
" style="fill:none;stroke:#b0b0b0;stroke-linecap:square;stroke-width:0.8;"/>
     </g>
     <g id="line2d_37">
      <g>
       <use style="stroke:#000000;stroke-width:0.8;" x="172.164706" xlink:href="#m871280e497" y="170.887105"/>
      </g>
     </g>
     <g id="text_21">
      <!-- 2 -->
      <g transform="translate(158.802206 174.686323)scale(0.1 -0.1)">
       <use xlink:href="#DejaVuSans-50"/>
      </g>
     </g>
    </g>
    <g id="ytick_12">
     <g id="line2d_38">
      <path clip-path="url(#p46c850e3b3)" d="M 172.164706 135.272475 
L 270.635294 135.272475 
" style="fill:none;stroke:#b0b0b0;stroke-linecap:square;stroke-width:0.8;"/>
     </g>
     <g id="line2d_39">
      <g>
       <use style="stroke:#000000;stroke-width:0.8;" x="172.164706" xlink:href="#m871280e497" y="135.272475"/>
      </g>
     </g>
     <g id="text_22">
      <!-- 3 -->
      <defs>
       <path d="M 40.578125 39.3125 
Q 47.65625 37.796875 51.625 33 
Q 55.609375 28.21875 55.609375 21.1875 
Q 55.609375 10.40625 48.1875 4.484375 
Q 40.765625 -1.421875 27.09375 -1.421875 
Q 22.515625 -1.421875 17.65625 -0.515625 
Q 12.796875 0.390625 7.625 2.203125 
L 7.625 11.71875 
Q 11.71875 9.328125 16.59375 8.109375 
Q 21.484375 6.890625 26.8125 6.890625 
Q 36.078125 6.890625 40.9375 10.546875 
Q 45.796875 14.203125 45.796875 21.1875 
Q 45.796875 27.640625 41.28125 31.265625 
Q 36.765625 34.90625 28.71875 34.90625 
L 20.21875 34.90625 
L 20.21875 43.015625 
L 29.109375 43.015625 
Q 36.375 43.015625 40.234375 45.921875 
Q 44.09375 48.828125 44.09375 54.296875 
Q 44.09375 59.90625 40.109375 62.90625 
Q 36.140625 65.921875 28.71875 65.921875 
Q 24.65625 65.921875 20.015625 65.03125 
Q 15.375 64.15625 9.8125 62.3125 
L 9.8125 71.09375 
Q 15.4375 72.65625 20.34375 73.4375 
Q 25.25 74.21875 29.59375 74.21875 
Q 40.828125 74.21875 47.359375 69.109375 
Q 53.90625 64.015625 53.90625 55.328125 
Q 53.90625 49.265625 50.4375 45.09375 
Q 46.96875 40.921875 40.578125 39.3125 
z
" id="DejaVuSans-51"/>
      </defs>
      <g transform="translate(158.802206 139.071694)scale(0.1 -0.1)">
       <use xlink:href="#DejaVuSans-51"/>
      </g>
     </g>
    </g>
    <g id="ytick_13">
     <g id="line2d_40">
      <path clip-path="url(#p46c850e3b3)" d="M 172.164706 99.657846 
L 270.635294 99.657846 
" style="fill:none;stroke:#b0b0b0;stroke-linecap:square;stroke-width:0.8;"/>
     </g>
     <g id="line2d_41">
      <g>
       <use style="stroke:#000000;stroke-width:0.8;" x="172.164706" xlink:href="#m871280e497" y="99.657846"/>
      </g>
     </g>
     <g id="text_23">
      <!-- 4 -->
      <g transform="translate(158.802206 103.457065)scale(0.1 -0.1)">
       <use xlink:href="#DejaVuSans-52"/>
      </g>
     </g>
    </g>
    <g id="ytick_14">
     <g id="line2d_42">
      <path clip-path="url(#p46c850e3b3)" d="M 172.164706 64.043216 
L 270.635294 64.043216 
" style="fill:none;stroke:#b0b0b0;stroke-linecap:square;stroke-width:0.8;"/>
     </g>
     <g id="line2d_43">
      <g>
       <use style="stroke:#000000;stroke-width:0.8;" x="172.164706" xlink:href="#m871280e497" y="64.043216"/>
      </g>
     </g>
     <g id="text_24">
      <!-- 5 -->
      <g transform="translate(158.802206 67.842435)scale(0.1 -0.1)">
       <use xlink:href="#DejaVuSans-53"/>
      </g>
     </g>
    </g>
    <g id="text_25">
     <!-- C -->
     <g transform="translate(152.722518 146.771406)rotate(-90)scale(0.1 -0.1)">
      <use xlink:href="#DejaVuSans-67"/>
     </g>
    </g>
   </g>
   <g id="line2d_44">
    <path clip-path="url(#p46c850e3b3)" d="M 176.640642 242.116364 
L 177.544871 238.522509 
L 178.449101 234.928654 
L 179.35333 231.3348 
L 180.25756 227.740945 
L 181.161789 224.14709 
L 182.066018 220.553236 
L 182.970248 216.959381 
L 183.874477 213.365526 
L 184.778707 209.771672 
L 185.682936 206.282834 
L 186.587166 204.464416 
L 187.491395 202.645998 
L 188.395625 200.82758 
L 189.299854 199.009162 
L 190.204084 197.190744 
L 191.108313 195.372326 
L 192.012543 193.553908 
L 192.916772 191.73549 
L 193.821001 189.917072 
L 194.725231 188.098654 
L 195.62946 186.280236 
L 196.53369 184.461818 
L 197.437919 182.6434 
L 198.342149 180.824982 
L 199.246378 179.006564 
L 200.150608 177.188146 
L 201.054837 175.369728 
L 201.959067 173.551311 
L 202.863296 171.732893 
L 203.767526 169.914475 
L 204.671755 168.096057 
L 205.575984 166.277639 
L 206.480214 164.459221 
L 207.384443 162.640803 
L 208.288673 160.822385 
L 209.192902 159.003967 
L 210.097132 157.185549 
L 211.001361 155.367131 
L 211.905591 153.548713 
L 212.80982 151.730295 
L 213.71405 149.911877 
L 214.618279 148.093459 
L 215.522509 146.275041 
L 216.426738 144.456623 
L 217.330967 142.638205 
L 218.235197 140.819787 
L 219.139426 139.00137 
L 220.043656 137.182952 
L 220.947885 135.364534 
L 221.852115 133.546116 
L 222.756344 131.727698 
L 223.660574 129.90928 
L 224.564803 128.090862 
L 225.469033 126.272444 
L 226.373262 124.454026 
L 227.277491 122.635608 
L 228.181721 120.81719 
L 229.08595 118.998772 
L 229.99018 117.180354 
L 230.894409 115.361936 
L 231.798639 113.543518 
L 232.702868 111.7251 
L 233.607098 109.906682 
L 234.511327 108.088264 
L 235.415557 106.269847 
L 236.319786 104.451429 
L 237.224016 102.633011 
L 238.128245 100.814593 
L 239.032474 98.996175 
L 239.936704 97.177757 
L 240.840933 95.359339 
L 241.745163 93.540921 
L 242.649392 91.722503 
L 243.553622 89.904085 
L 244.457851 88.085667 
L 245.362081 86.267249 
L 246.26631 84.448831 
L 247.17054 82.630413 
L 248.074769 80.811995 
L 248.978999 78.993577 
L 249.883228 77.175159 
L 250.787457 75.356741 
L 251.691687 73.538323 
L 252.595916 71.719906 
L 253.500146 69.901488 
L 254.404375 68.08307 
L 255.308605 66.264652 
L 256.212834 64.446234 
L 257.117064 62.627816 
L 258.021293 60.809398 
L 258.925523 58.99098 
L 259.829752 57.172562 
L 260.733982 55.354144 
L 261.638211 53.535726 
L 262.54244 51.717308 
L 263.44667 49.89889 
L 264.350899 48.080472 
L 265.255129 46.262054 
L 266.159358 44.443636 
" style="fill:none;stroke:#1f77b4;stroke-linecap:square;stroke-width:1.5;"/>
   </g>
   <g id="line2d_45">
    <path clip-path="url(#p46c850e3b3)" d="M 176.640642 242.116364 
L 177.544871 238.518926 
L 178.449101 234.921489 
L 179.35333 231.324052 
L 180.25756 227.726614 
L 181.161789 224.474671 
L 182.066018 222.656254 
L 182.970248 220.837836 
L 183.874477 219.019418 
L 184.778707 217.201 
L 185.682936 215.382582 
L 186.587166 213.564164 
L 187.491395 211.745746 
L 188.395625 209.927328 
L 189.299854 208.10891 
L 190.204084 206.290492 
L 191.108313 204.472074 
L 192.012543 202.653656 
L 192.916772 200.835238 
L 193.821001 199.01682 
L 194.725231 197.198402 
L 195.62946 195.379984 
L 196.53369 193.561566 
L 197.437919 191.743148 
L 198.342149 189.924731 
L 199.246378 188.106313 
L 200.150608 186.287895 
L 201.054837 184.469477 
L 201.959067 182.651059 
L 202.863296 180.832641 
L 203.767526 179.014223 
L 204.671755 177.195805 
L 205.575984 175.377387 
L 206.480214 173.558969 
L 207.384443 171.740551 
L 208.288673 169.922133 
L 209.192902 168.103715 
L 210.097132 166.285297 
L 211.001361 164.466879 
L 211.905591 162.648461 
L 212.80982 160.830043 
L 213.71405 159.011625 
L 214.618279 157.193207 
L 215.522509 155.37479 
L 216.426738 153.556372 
L 217.330967 151.737954 
L 218.235197 149.919536 
L 219.139426 148.101118 
L 220.043656 146.2827 
L 220.947885 144.464282 
L 221.852115 142.645864 
L 222.756344 140.827446 
L 223.660574 139.009028 
L 224.564803 137.19061 
L 225.469033 135.372192 
L 226.373262 133.553774 
L 227.277491 131.735356 
L 228.181721 129.916938 
L 229.08595 128.09852 
L 229.99018 126.280102 
L 230.894409 124.461684 
L 231.798639 122.643267 
L 232.702868 120.824849 
L 233.607098 119.006431 
L 234.511327 117.188013 
L 235.415557 115.369595 
L 236.319786 113.551177 
L 237.224016 111.732759 
L 238.128245 109.914341 
L 239.032474 108.095923 
L 239.936704 106.277505 
L 240.840933 104.459087 
L 241.745163 102.640669 
L 242.649392 100.822251 
L 243.553622 99.003833 
L 244.457851 97.185415 
L 245.362081 95.366997 
L 246.26631 93.548579 
L 247.17054 91.730161 
L 248.074769 89.911744 
L 248.978999 88.093326 
L 249.883228 86.274908 
L 250.787457 84.45649 
L 251.691687 82.638072 
L 252.595916 80.819654 
L 253.500146 79.001236 
L 254.404375 77.182818 
L 255.308605 75.3644 
L 256.212834 73.545982 
L 257.117064 71.727564 
L 258.021293 69.909146 
L 258.925523 68.090728 
L 259.829752 66.27231 
L 260.733982 64.453892 
L 261.638211 62.635474 
L 262.54244 60.817056 
L 263.44667 58.998638 
L 264.350899 57.18022 
L 265.255129 55.361803 
L 266.159358 53.543385 
" style="fill:none;stroke:#ff7f0e;stroke-linecap:square;stroke-width:1.5;"/>
   </g>
   <g id="line2d_46">
    <path clip-path="url(#p46c850e3b3)" d="M 176.640642 242.116364 
L 177.544871 238.518926 
L 178.449101 234.921489 
L 179.35333 231.324052 
L 180.25756 227.726614 
L 181.161789 224.129177 
L 182.066018 220.53174 
L 182.970248 216.934302 
L 183.874477 213.336865 
L 184.778707 209.739428 
L 185.682936 206.282834 
L 186.587166 204.464416 
L 187.491395 202.645998 
L 188.395625 200.82758 
L 189.299854 199.009162 
L 190.204084 197.190744 
L 191.108313 195.372326 
L 192.012543 193.553908 
L 192.916772 191.73549 
L 193.821001 189.917072 
L 194.725231 188.098654 
L 195.62946 186.280236 
L 196.53369 184.461818 
L 197.437919 182.6434 
L 198.342149 180.824982 
L 199.246378 179.006564 
L 200.150608 177.188146 
L 201.054837 175.369728 
L 201.959067 173.551311 
L 202.863296 171.732893 
L 203.767526 169.914475 
L 204.671755 168.096057 
L 205.575984 166.277639 
L 206.480214 164.459221 
L 207.384443 162.640803 
L 208.288673 160.822385 
L 209.192902 159.003967 
L 210.097132 157.185549 
L 211.001361 155.367131 
L 211.905591 153.548713 
L 212.80982 151.730295 
L 213.71405 149.911877 
L 214.618279 148.093459 
L 215.522509 146.275041 
L 216.426738 144.456623 
L 217.330967 142.638205 
L 218.235197 140.819787 
L 219.139426 139.00137 
L 220.043656 137.182952 
L 220.947885 135.364534 
L 221.852115 133.546116 
L 222.756344 131.727698 
L 223.660574 129.90928 
L 224.564803 128.090862 
L 225.469033 126.272444 
L 226.373262 124.454026 
L 227.277491 122.635608 
L 228.181721 120.81719 
L 229.08595 118.998772 
L 229.99018 117.180354 
L 230.894409 115.361936 
L 231.798639 113.543518 
L 232.702868 111.7251 
L 233.607098 109.906682 
L 234.511327 108.088264 
L 235.415557 106.269847 
L 236.319786 104.451429 
L 237.224016 102.633011 
L 238.128245 100.814593 
L 239.032474 98.996175 
L 239.936704 97.177757 
L 240.840933 95.359339 
L 241.745163 93.540921 
L 242.649392 91.722503 
L 243.553622 89.904085 
L 244.457851 88.085667 
L 245.362081 86.267249 
L 246.26631 84.448831 
L 247.17054 82.630413 
L 248.074769 80.811995 
L 248.978999 78.993577 
L 249.883228 77.175159 
L 250.787457 75.356741 
L 251.691687 73.538323 
L 252.595916 71.719906 
L 253.500146 69.901488 
L 254.404375 68.08307 
L 255.308605 66.264652 
L 256.212834 64.446234 
L 257.117064 62.627816 
L 258.021293 60.809398 
L 258.925523 58.99098 
L 259.829752 57.172562 
L 260.733982 55.354144 
L 261.638211 53.535726 
L 262.54244 51.717308 
L 263.44667 49.89889 
L 264.350899 48.080472 
L 265.255129 46.262054 
L 266.159358 44.443636 
" style="fill:none;stroke:#2ca02c;stroke-linecap:square;stroke-width:1.5;"/>
   </g>
   <g id="patch_8">
    <path d="M 172.164706 252 
L 172.164706 34.56 
" style="fill:none;stroke:#000000;stroke-linecap:square;stroke-linejoin:miter;stroke-width:0.8;"/>
   </g>
   <g id="patch_9">
    <path d="M 270.635294 252 
L 270.635294 34.56 
" style="fill:none;stroke:#000000;stroke-linecap:square;stroke-linejoin:miter;stroke-width:0.8;"/>
   </g>
   <g id="patch_10">
    <path d="M 172.164706 252 
L 270.635294 252 
" style="fill:none;stroke:#000000;stroke-linecap:square;stroke-linejoin:miter;stroke-width:0.8;"/>
   </g>
   <g id="patch_11">
    <path d="M 172.164706 34.56 
L 270.635294 34.56 
" style="fill:none;stroke:#000000;stroke-linecap:square;stroke-linejoin:miter;stroke-width:0.8;"/>
   </g>
   <g id="text_26">
    <!-- Age = 99 -->
    <defs>
     <path d="M 10.984375 1.515625 
L 10.984375 10.5 
Q 14.703125 8.734375 18.5 7.8125 
Q 22.3125 6.890625 25.984375 6.890625 
Q 35.75 6.890625 40.890625 13.453125 
Q 46.046875 20.015625 46.78125 33.40625 
Q 43.953125 29.203125 39.59375 26.953125 
Q 35.25 24.703125 29.984375 24.703125 
Q 19.046875 24.703125 12.671875 31.3125 
Q 6.296875 37.9375 6.296875 49.421875 
Q 6.296875 60.640625 12.9375 67.421875 
Q 19.578125 74.21875 30.609375 74.21875 
Q 43.265625 74.21875 49.921875 64.515625 
Q 56.59375 54.828125 56.59375 36.375 
Q 56.59375 19.140625 48.40625 8.859375 
Q 40.234375 -1.421875 26.421875 -1.421875 
Q 22.703125 -1.421875 18.890625 -0.6875 
Q 15.09375 0.046875 10.984375 1.515625 
z
M 30.609375 32.421875 
Q 37.25 32.421875 41.125 36.953125 
Q 45.015625 41.5 45.015625 49.421875 
Q 45.015625 57.28125 41.125 61.84375 
Q 37.25 66.40625 30.609375 66.40625 
Q 23.96875 66.40625 20.09375 61.84375 
Q 16.21875 57.28125 16.21875 49.421875 
Q 16.21875 41.5 20.09375 36.953125 
Q 23.96875 32.421875 30.609375 32.421875 
z
" id="DejaVuSans-57"/>
    </defs>
    <g transform="translate(193.318125 28.56)scale(0.12 -0.12)">
     <use xlink:href="#DejaVuSans-65"/>
     <use x="68.408203" xlink:href="#DejaVuSans-103"/>
     <use x="131.884766" xlink:href="#DejaVuSans-101"/>
     <use x="193.408203" xlink:href="#DejaVuSans-32"/>
     <use x="225.195312" xlink:href="#DejaVuSans-61"/>
     <use x="308.984375" xlink:href="#DejaVuSans-32"/>
     <use x="340.771484" xlink:href="#DejaVuSans-57"/>
     <use x="404.394531" xlink:href="#DejaVuSans-57"/>
    </g>
   </g>
  </g>
  <g id="axes_3">
   <g id="patch_12">
    <path d="M 290.329412 252 
L 388.8 252 
L 388.8 34.56 
L 290.329412 34.56 
z
" style="fill:#ffffff;"/>
   </g>
   <g id="matplotlib.axis_5">
    <g id="xtick_7">
     <g id="line2d_47">
      <path clip-path="url(#pbcc5c1cf9e)" d="M 294.805348 252 
L 294.805348 34.56 
" style="fill:none;stroke:#b0b0b0;stroke-linecap:square;stroke-width:0.8;"/>
     </g>
     <g id="line2d_48">
      <g>
       <use style="stroke:#000000;stroke-width:0.8;" x="294.805348" xlink:href="#m8f621168b8" y="252"/>
      </g>
     </g>
     <g id="text_27">
      <!-- 0 -->
      <g transform="translate(291.624098 266.598437)scale(0.1 -0.1)">
       <use xlink:href="#DejaVuSans-48"/>
      </g>
     </g>
    </g>
    <g id="xtick_8">
     <g id="line2d_49">
      <path clip-path="url(#pbcc5c1cf9e)" d="M 339.564706 252 
L 339.564706 34.56 
" style="fill:none;stroke:#b0b0b0;stroke-linecap:square;stroke-width:0.8;"/>
     </g>
     <g id="line2d_50">
      <g>
       <use style="stroke:#000000;stroke-width:0.8;" x="339.564706" xlink:href="#m8f621168b8" y="252"/>
      </g>
     </g>
     <g id="text_28">
      <!-- 5 -->
      <g transform="translate(336.383456 266.598437)scale(0.1 -0.1)">
       <use xlink:href="#DejaVuSans-53"/>
      </g>
     </g>
    </g>
    <g id="xtick_9">
     <g id="line2d_51">
      <path clip-path="url(#pbcc5c1cf9e)" d="M 384.324064 252 
L 384.324064 34.56 
" style="fill:none;stroke:#b0b0b0;stroke-linecap:square;stroke-width:0.8;"/>
     </g>
     <g id="line2d_52">
      <g>
       <use style="stroke:#000000;stroke-width:0.8;" x="384.324064" xlink:href="#m8f621168b8" y="252"/>
      </g>
     </g>
     <g id="text_29">
      <!-- 10 -->
      <g transform="translate(377.961564 266.598437)scale(0.1 -0.1)">
       <use xlink:href="#DejaVuSans-49"/>
       <use x="63.623047" xlink:href="#DejaVuSans-48"/>
      </g>
     </g>
    </g>
    <g id="text_30">
     <!-- M -->
     <g transform="translate(335.250643 280.276563)scale(0.1 -0.1)">
      <use xlink:href="#DejaVuSans-77"/>
     </g>
    </g>
   </g>
   <g id="matplotlib.axis_6">
    <g id="ytick_15">
     <g id="line2d_53">
      <path clip-path="url(#pbcc5c1cf9e)" d="M 290.329412 242.116364 
L 388.8 242.116364 
" style="fill:none;stroke:#b0b0b0;stroke-linecap:square;stroke-width:0.8;"/>
     </g>
     <g id="line2d_54">
      <g>
       <use style="stroke:#000000;stroke-width:0.8;" x="290.329412" xlink:href="#m871280e497" y="242.116364"/>
      </g>
     </g>
     <g id="text_31">
      <!-- 0 -->
      <g transform="translate(276.966912 245.915582)scale(0.1 -0.1)">
       <use xlink:href="#DejaVuSans-48"/>
      </g>
     </g>
    </g>
    <g id="ytick_16">
     <g id="line2d_55">
      <path clip-path="url(#pbcc5c1cf9e)" d="M 290.329412 202.581818 
L 388.8 202.581818 
" style="fill:none;stroke:#b0b0b0;stroke-linecap:square;stroke-width:0.8;"/>
     </g>
     <g id="line2d_56">
      <g>
       <use style="stroke:#000000;stroke-width:0.8;" x="290.329412" xlink:href="#m871280e497" y="202.581818"/>
      </g>
     </g>
     <g id="text_32">
      <!-- 2 -->
      <g transform="translate(276.966912 206.381037)scale(0.1 -0.1)">
       <use xlink:href="#DejaVuSans-50"/>
      </g>
     </g>
    </g>
    <g id="ytick_17">
     <g id="line2d_57">
      <path clip-path="url(#pbcc5c1cf9e)" d="M 290.329412 163.047273 
L 388.8 163.047273 
" style="fill:none;stroke:#b0b0b0;stroke-linecap:square;stroke-width:0.8;"/>
     </g>
     <g id="line2d_58">
      <g>
       <use style="stroke:#000000;stroke-width:0.8;" x="290.329412" xlink:href="#m871280e497" y="163.047273"/>
      </g>
     </g>
     <g id="text_33">
      <!-- 4 -->
      <g transform="translate(276.966912 166.846491)scale(0.1 -0.1)">
       <use xlink:href="#DejaVuSans-52"/>
      </g>
     </g>
    </g>
    <g id="ytick_18">
     <g id="line2d_59">
      <path clip-path="url(#pbcc5c1cf9e)" d="M 290.329412 123.512727 
L 388.8 123.512727 
" style="fill:none;stroke:#b0b0b0;stroke-linecap:square;stroke-width:0.8;"/>
     </g>
     <g id="line2d_60">
      <g>
       <use style="stroke:#000000;stroke-width:0.8;" x="290.329412" xlink:href="#m871280e497" y="123.512727"/>
      </g>
     </g>
     <g id="text_34">
      <!-- 6 -->
      <g transform="translate(276.966912 127.311946)scale(0.1 -0.1)">
       <use xlink:href="#DejaVuSans-54"/>
      </g>
     </g>
    </g>
    <g id="ytick_19">
     <g id="line2d_61">
      <path clip-path="url(#pbcc5c1cf9e)" d="M 290.329412 83.978182 
L 388.8 83.978182 
" style="fill:none;stroke:#b0b0b0;stroke-linecap:square;stroke-width:0.8;"/>
     </g>
     <g id="line2d_62">
      <g>
       <use style="stroke:#000000;stroke-width:0.8;" x="290.329412" xlink:href="#m871280e497" y="83.978182"/>
      </g>
     </g>
     <g id="text_35">
      <!-- 8 -->
      <g transform="translate(276.966912 87.777401)scale(0.1 -0.1)">
       <use xlink:href="#DejaVuSans-56"/>
      </g>
     </g>
    </g>
    <g id="ytick_20">
     <g id="line2d_63">
      <path clip-path="url(#pbcc5c1cf9e)" d="M 290.329412 44.443636 
L 388.8 44.443636 
" style="fill:none;stroke:#b0b0b0;stroke-linecap:square;stroke-width:0.8;"/>
     </g>
     <g id="line2d_64">
      <g>
       <use style="stroke:#000000;stroke-width:0.8;" x="290.329412" xlink:href="#m871280e497" y="44.443636"/>
      </g>
     </g>
     <g id="text_36">
      <!-- 10 -->
      <g transform="translate(270.604412 48.242855)scale(0.1 -0.1)">
       <use xlink:href="#DejaVuSans-49"/>
       <use x="63.623047" xlink:href="#DejaVuSans-48"/>
      </g>
     </g>
    </g>
    <g id="text_37">
     <!-- C -->
     <g transform="translate(264.524724 146.771406)rotate(-90)scale(0.1 -0.1)">
      <use xlink:href="#DejaVuSans-67"/>
     </g>
    </g>
   </g>
   <g id="line2d_65">
    <path clip-path="url(#pbcc5c1cf9e)" d="M 294.805348 242.116364 
L 295.709577 240.119669 
L 296.613807 238.122975 
L 297.518036 236.126281 
L 298.422265 234.129587 
L 299.326495 232.132893 
L 300.230724 230.136198 
L 301.134954 228.139504 
L 302.039183 226.14281 
L 302.943413 224.146116 
L 303.847642 222.149421 
L 304.751872 220.152727 
L 305.656101 218.156033 
L 306.560331 216.159339 
L 307.46456 214.162645 
L 308.368789 212.16595 
L 309.273019 210.169256 
L 310.177248 208.172562 
L 311.081478 206.175868 
L 311.985707 204.179174 
L 312.889937 202.182479 
L 313.794166 200.185785 
L 314.698396 198.189091 
L 315.602625 196.192397 
L 316.506855 194.195702 
L 317.411084 192.199008 
L 318.315314 190.202314 
L 319.219543 188.20562 
L 320.123772 186.208926 
L 321.028002 184.212231 
L 321.932231 182.215537 
L 322.836461 180.218843 
L 323.74069 178.222149 
L 324.64492 176.225455 
L 325.549149 174.22876 
L 326.453379 172.232066 
L 327.357608 170.235372 
L 328.261838 168.238678 
L 329.166067 166.241983 
L 330.070297 164.245289 
L 330.974526 162.248595 
L 331.878755 160.251901 
L 332.782985 158.255207 
L 333.687214 156.258512 
L 334.591444 154.261818 
L 335.495673 152.265124 
L 336.399903 150.26843 
L 337.304132 148.271736 
L 338.208362 146.275041 
L 339.112591 144.278347 
L 340.016821 142.281653 
L 340.92105 140.284959 
L 341.82528 138.288264 
L 342.729509 136.29157 
L 343.633738 134.294876 
L 344.537968 132.298182 
L 345.442197 130.301488 
L 346.346427 128.304793 
L 347.250656 126.308099 
L 348.154886 124.311405 
L 349.059115 122.314711 
L 349.963345 120.318017 
L 350.867574 118.321322 
L 351.771804 116.324628 
L 352.676033 114.327934 
L 353.580263 112.33124 
L 354.484492 110.334545 
L 355.388721 108.337851 
L 356.292951 106.341157 
L 357.19718 104.344463 
L 358.10141 102.347769 
L 359.005639 100.351074 
L 359.909869 98.35438 
L 360.814098 96.357686 
L 361.718328 94.360992 
L 362.622557 92.364298 
L 363.526787 90.367603 
L 364.431016 88.370909 
L 365.335246 86.374215 
L 366.239475 84.377521 
L 367.143704 82.380826 
L 368.047934 80.384132 
L 368.952163 78.387438 
L 369.856393 76.390744 
L 370.760622 74.39405 
L 371.664852 72.397355 
L 372.569081 70.400661 
L 373.473311 68.403967 
L 374.37754 66.407273 
L 375.28177 64.410579 
L 376.185999 62.413884 
L 377.090228 60.41719 
L 377.994458 58.420496 
L 378.898687 56.423802 
L 379.802917 54.427107 
L 380.707146 52.430413 
L 381.611376 50.433719 
L 382.515605 48.437025 
L 383.419835 46.440331 
L 384.324064 44.443636 
" style="fill:none;stroke:#1f77b4;stroke-linecap:square;stroke-width:1.5;"/>
   </g>
   <g id="line2d_66">
    <path clip-path="url(#pbcc5c1cf9e)" d="M 294.805348 242.116364 
L 295.709577 240.119669 
L 296.613807 238.122975 
L 297.518036 236.126281 
L 298.422265 234.129587 
L 299.326495 232.132893 
L 300.230724 230.136198 
L 301.134954 228.139504 
L 302.039183 226.14281 
L 302.943413 224.146116 
L 303.847642 222.149421 
L 304.751872 220.152727 
L 305.656101 218.156033 
L 306.560331 216.159339 
L 307.46456 214.162645 
L 308.368789 212.16595 
L 309.273019 210.169256 
L 310.177248 208.172562 
L 311.081478 206.175868 
L 311.985707 204.179174 
L 312.889937 202.182479 
L 313.794166 200.185785 
L 314.698396 198.189091 
L 315.602625 196.192397 
L 316.506855 194.195702 
L 317.411084 192.199008 
L 318.315314 190.202314 
L 319.219543 188.20562 
L 320.123772 186.208926 
L 321.028002 184.212231 
L 321.932231 182.215537 
L 322.836461 180.218843 
L 323.74069 178.222149 
L 324.64492 176.225455 
L 325.549149 174.22876 
L 326.453379 172.232066 
L 327.357608 170.235372 
L 328.261838 168.238678 
L 329.166067 166.241983 
L 330.070297 164.245289 
L 330.974526 162.248595 
L 331.878755 160.251901 
L 332.782985 158.255207 
L 333.687214 156.258512 
L 334.591444 154.261818 
L 335.495673 152.265124 
L 336.399903 150.26843 
L 337.304132 148.271736 
L 338.208362 146.275041 
L 339.112591 144.278347 
L 340.016821 142.281653 
L 340.92105 140.284959 
L 341.82528 138.288264 
L 342.729509 136.29157 
L 343.633738 134.294876 
L 344.537968 132.298182 
L 345.442197 130.301488 
L 346.346427 128.304793 
L 347.250656 126.308099 
L 348.154886 124.311405 
L 349.059115 122.314711 
L 349.963345 120.318017 
L 350.867574 118.321322 
L 351.771804 116.324628 
L 352.676033 114.327934 
L 353.580263 112.33124 
L 354.484492 110.334545 
L 355.388721 108.337851 
L 356.292951 106.341157 
L 357.19718 104.344463 
L 358.10141 102.347769 
L 359.005639 100.351074 
L 359.909869 98.35438 
L 360.814098 96.357686 
L 361.718328 94.360992 
L 362.622557 92.364298 
L 363.526787 90.367603 
L 364.431016 88.370909 
L 365.335246 86.374215 
L 366.239475 84.377521 
L 367.143704 82.380826 
L 368.047934 80.384132 
L 368.952163 78.387438 
L 369.856393 76.390744 
L 370.760622 74.39405 
L 371.664852 72.397355 
L 372.569081 70.400661 
L 373.473311 68.403967 
L 374.37754 66.407273 
L 375.28177 64.410579 
L 376.185999 62.413884 
L 377.090228 60.41719 
L 377.994458 58.420496 
L 378.898687 56.423802 
L 379.802917 54.427107 
L 380.707146 52.430413 
L 381.611376 50.433719 
L 382.515605 48.437025 
L 383.419835 46.440331 
L 384.324064 44.443636 
" style="fill:none;stroke:#ff7f0e;stroke-linecap:square;stroke-width:1.5;"/>
   </g>
   <g id="line2d_67">
    <path clip-path="url(#pbcc5c1cf9e)" d="M 294.805348 242.116364 
L 295.709577 240.119669 
L 296.613807 238.122975 
L 297.518036 236.126281 
L 298.422265 234.129587 
L 299.326495 232.132893 
L 300.230724 230.136198 
L 301.134954 228.139504 
L 302.039183 226.14281 
L 302.943413 224.146116 
L 303.847642 222.149421 
L 304.751872 220.152727 
L 305.656101 218.156033 
L 306.560331 216.159339 
L 307.46456 214.162645 
L 308.368789 212.16595 
L 309.273019 210.169256 
L 310.177248 208.172562 
L 311.081478 206.175868 
L 311.985707 204.179174 
L 312.889937 202.182479 
L 313.794166 200.185785 
L 314.698396 198.189091 
L 315.602625 196.192397 
L 316.506855 194.195702 
L 317.411084 192.199008 
L 318.315314 190.202314 
L 319.219543 188.20562 
L 320.123772 186.208926 
L 321.028002 184.212231 
L 321.932231 182.215537 
L 322.836461 180.218843 
L 323.74069 178.222149 
L 324.64492 176.225455 
L 325.549149 174.22876 
L 326.453379 172.232066 
L 327.357608 170.235372 
L 328.261838 168.238678 
L 329.166067 166.241983 
L 330.070297 164.245289 
L 330.974526 162.248595 
L 331.878755 160.251901 
L 332.782985 158.255207 
L 333.687214 156.258512 
L 334.591444 154.261818 
L 335.495673 152.265124 
L 336.399903 150.26843 
L 337.304132 148.271736 
L 338.208362 146.275041 
L 339.112591 144.278347 
L 340.016821 142.281653 
L 340.92105 140.284959 
L 341.82528 138.288264 
L 342.729509 136.29157 
L 343.633738 134.294876 
L 344.537968 132.298182 
L 345.442197 130.301488 
L 346.346427 128.304793 
L 347.250656 126.308099 
L 348.154886 124.311405 
L 349.059115 122.314711 
L 349.963345 120.318017 
L 350.867574 118.321322 
L 351.771804 116.324628 
L 352.676033 114.327934 
L 353.580263 112.33124 
L 354.484492 110.334545 
L 355.388721 108.337851 
L 356.292951 106.341157 
L 357.19718 104.344463 
L 358.10141 102.347769 
L 359.005639 100.351074 
L 359.909869 98.35438 
L 360.814098 96.357686 
L 361.718328 94.360992 
L 362.622557 92.364298 
L 363.526787 90.367603 
L 364.431016 88.370909 
L 365.335246 86.374215 
L 366.239475 84.377521 
L 367.143704 82.380826 
L 368.047934 80.384132 
L 368.952163 78.387438 
L 369.856393 76.390744 
L 370.760622 74.39405 
L 371.664852 72.397355 
L 372.569081 70.400661 
L 373.473311 68.403967 
L 374.37754 66.407273 
L 375.28177 64.410579 
L 376.185999 62.413884 
L 377.090228 60.41719 
L 377.994458 58.420496 
L 378.898687 56.423802 
L 379.802917 54.427107 
L 380.707146 52.430413 
L 381.611376 50.433719 
L 382.515605 48.437025 
L 383.419835 46.440331 
L 384.324064 44.443636 
" style="fill:none;stroke:#2ca02c;stroke-linecap:square;stroke-width:1.5;"/>
   </g>
   <g id="patch_13">
    <path d="M 290.329412 252 
L 290.329412 34.56 
" style="fill:none;stroke:#000000;stroke-linecap:square;stroke-linejoin:miter;stroke-width:0.8;"/>
   </g>
   <g id="patch_14">
    <path d="M 388.8 252 
L 388.8 34.56 
" style="fill:none;stroke:#000000;stroke-linecap:square;stroke-linejoin:miter;stroke-width:0.8;"/>
   </g>
   <g id="patch_15">
    <path d="M 290.329412 252 
L 388.8 252 
" style="fill:none;stroke:#000000;stroke-linecap:square;stroke-linejoin:miter;stroke-width:0.8;"/>
   </g>
   <g id="patch_16">
    <path d="M 290.329412 34.56 
L 388.8 34.56 
" style="fill:none;stroke:#000000;stroke-linecap:square;stroke-linejoin:miter;stroke-width:0.8;"/>
   </g>
   <g id="text_38">
    <!-- Age = 100 -->
    <g transform="translate(307.665331 28.56)scale(0.12 -0.12)">
     <use xlink:href="#DejaVuSans-65"/>
     <use x="68.408203" xlink:href="#DejaVuSans-103"/>
     <use x="131.884766" xlink:href="#DejaVuSans-101"/>
     <use x="193.408203" xlink:href="#DejaVuSans-32"/>
     <use x="225.195312" xlink:href="#DejaVuSans-61"/>
     <use x="308.984375" xlink:href="#DejaVuSans-32"/>
     <use x="340.771484" xlink:href="#DejaVuSans-49"/>
     <use x="404.394531" xlink:href="#DejaVuSans-48"/>
     <use x="468.017578" xlink:href="#DejaVuSans-48"/>
    </g>
   </g>
   <g id="legend_1">
    <g id="patch_17">
     <path d="M 297.329412 86.594375 
L 352.682537 86.594375 
Q 354.682537 86.594375 354.682537 84.594375 
L 354.682537 41.56 
Q 354.682537 39.56 352.682537 39.56 
L 297.329412 39.56 
Q 295.329412 39.56 295.329412 41.56 
L 295.329412 84.594375 
Q 295.329412 86.594375 297.329412 86.594375 
z
" style="fill:#ffffff;opacity:0.8;stroke:#cccccc;stroke-linejoin:miter;"/>
    </g>
    <g id="line2d_68">
     <path d="M 299.329412 47.658438 
L 319.329412 47.658438 
" style="fill:none;stroke:#1f77b4;stroke-linecap:square;stroke-width:1.5;"/>
    </g>
    <g id="line2d_69"/>
    <g id="text_39">
     <!-- Port. -->
     <defs>
      <path d="M 19.671875 64.796875 
L 19.671875 37.40625 
L 32.078125 37.40625 
Q 38.96875 37.40625 42.71875 40.96875 
Q 46.484375 44.53125 46.484375 51.125 
Q 46.484375 57.671875 42.71875 61.234375 
Q 38.96875 64.796875 32.078125 64.796875 
z
M 9.8125 72.90625 
L 32.078125 72.90625 
Q 44.34375 72.90625 50.609375 67.359375 
Q 56.890625 61.8125 56.890625 51.125 
Q 56.890625 40.328125 50.609375 34.8125 
Q 44.34375 29.296875 32.078125 29.296875 
L 19.671875 29.296875 
L 19.671875 0 
L 9.8125 0 
z
" id="DejaVuSans-80"/>
      <path d="M 30.609375 48.390625 
Q 23.390625 48.390625 19.1875 42.75 
Q 14.984375 37.109375 14.984375 27.296875 
Q 14.984375 17.484375 19.15625 11.84375 
Q 23.34375 6.203125 30.609375 6.203125 
Q 37.796875 6.203125 41.984375 11.859375 
Q 46.1875 17.53125 46.1875 27.296875 
Q 46.1875 37.015625 41.984375 42.703125 
Q 37.796875 48.390625 30.609375 48.390625 
z
M 30.609375 56 
Q 42.328125 56 49.015625 48.375 
Q 55.71875 40.765625 55.71875 27.296875 
Q 55.71875 13.875 49.015625 6.21875 
Q 42.328125 -1.421875 30.609375 -1.421875 
Q 18.84375 -1.421875 12.171875 6.21875 
Q 5.515625 13.875 5.515625 27.296875 
Q 5.515625 40.765625 12.171875 48.375 
Q 18.84375 56 30.609375 56 
z
" id="DejaVuSans-111"/>
      <path d="M 41.109375 46.296875 
Q 39.59375 47.171875 37.8125 47.578125 
Q 36.03125 48 33.890625 48 
Q 26.265625 48 22.1875 43.046875 
Q 18.109375 38.09375 18.109375 28.8125 
L 18.109375 0 
L 9.078125 0 
L 9.078125 54.6875 
L 18.109375 54.6875 
L 18.109375 46.1875 
Q 20.953125 51.171875 25.484375 53.578125 
Q 30.03125 56 36.53125 56 
Q 37.453125 56 38.578125 55.875 
Q 39.703125 55.765625 41.0625 55.515625 
z
" id="DejaVuSans-114"/>
      <path d="M 18.3125 70.21875 
L 18.3125 54.6875 
L 36.8125 54.6875 
L 36.8125 47.703125 
L 18.3125 47.703125 
L 18.3125 18.015625 
Q 18.3125 11.328125 20.140625 9.421875 
Q 21.96875 7.515625 27.59375 7.515625 
L 36.8125 7.515625 
L 36.8125 0 
L 27.59375 0 
Q 17.1875 0 13.234375 3.875 
Q 9.28125 7.765625 9.28125 18.015625 
L 9.28125 47.703125 
L 2.6875 47.703125 
L 2.6875 54.6875 
L 9.28125 54.6875 
L 9.28125 70.21875 
z
" id="DejaVuSans-116"/>
     </defs>
     <g transform="translate(327.329412 51.158438)scale(0.1 -0.1)">
      <use xlink:href="#DejaVuSans-80"/>
      <use x="60.255859" xlink:href="#DejaVuSans-111"/>
      <use x="121.4375" xlink:href="#DejaVuSans-114"/>
      <use x="162.550781" xlink:href="#DejaVuSans-116"/>
      <use x="201.759766" xlink:href="#DejaVuSans-46"/>
     </g>
    </g>
    <g id="line2d_70">
     <path d="M 299.329412 62.336563 
L 319.329412 62.336563 
" style="fill:none;stroke:#ff7f0e;stroke-linecap:square;stroke-width:1.5;"/>
    </g>
    <g id="line2d_71"/>
    <g id="text_40">
     <!-- PF. -->
     <defs>
      <path d="M 9.8125 72.90625 
L 51.703125 72.90625 
L 51.703125 64.59375 
L 19.671875 64.59375 
L 19.671875 43.109375 
L 48.578125 43.109375 
L 48.578125 34.8125 
L 19.671875 34.8125 
L 19.671875 0 
L 9.8125 0 
z
" id="DejaVuSans-70"/>
     </defs>
     <g transform="translate(327.329412 65.836563)scale(0.1 -0.1)">
      <use xlink:href="#DejaVuSans-80"/>
      <use x="60.302734" xlink:href="#DejaVuSans-70"/>
      <use x="117.572266" xlink:href="#DejaVuSans-46"/>
     </g>
    </g>
    <g id="line2d_72">
     <path d="M 299.329412 77.014688 
L 319.329412 77.014688 
" style="fill:none;stroke:#2ca02c;stroke-linecap:square;stroke-width:1.5;"/>
    </g>
    <g id="line2d_73"/>
    <g id="text_41">
     <!-- True -->
     <defs>
      <path d="M -0.296875 72.90625 
L 61.375 72.90625 
L 61.375 64.59375 
L 35.5 64.59375 
L 35.5 0 
L 25.59375 0 
L 25.59375 64.59375 
L -0.296875 64.59375 
z
" id="DejaVuSans-84"/>
      <path d="M 8.5 21.578125 
L 8.5 54.6875 
L 17.484375 54.6875 
L 17.484375 21.921875 
Q 17.484375 14.15625 20.5 10.265625 
Q 23.53125 6.390625 29.59375 6.390625 
Q 36.859375 6.390625 41.078125 11.03125 
Q 45.3125 15.671875 45.3125 23.6875 
L 45.3125 54.6875 
L 54.296875 54.6875 
L 54.296875 0 
L 45.3125 0 
L 45.3125 8.40625 
Q 42.046875 3.421875 37.71875 1 
Q 33.40625 -1.421875 27.6875 -1.421875 
Q 18.265625 -1.421875 13.375 4.4375 
Q 8.5 10.296875 8.5 21.578125 
z
M 31.109375 56 
z
" id="DejaVuSans-117"/>
     </defs>
     <g transform="translate(327.329412 80.514688)scale(0.1 -0.1)">
      <use xlink:href="#DejaVuSans-84"/>
      <use x="60.865234" xlink:href="#DejaVuSans-114"/>
      <use x="101.978516" xlink:href="#DejaVuSans-117"/>
      <use x="165.357422" xlink:href="#DejaVuSans-101"/>
     </g>
    </g>
   </g>
  </g>
  <g id="text_42">
   <!-- Consumption Comparisons by Age (Levels) -->
   <defs>
    <path d="M 54.890625 33.015625 
L 54.890625 0 
L 45.90625 0 
L 45.90625 32.71875 
Q 45.90625 40.484375 42.875 44.328125 
Q 39.84375 48.1875 33.796875 48.1875 
Q 26.515625 48.1875 22.3125 43.546875 
Q 18.109375 38.921875 18.109375 30.90625 
L 18.109375 0 
L 9.078125 0 
L 9.078125 54.6875 
L 18.109375 54.6875 
L 18.109375 46.1875 
Q 21.34375 51.125 25.703125 53.5625 
Q 30.078125 56 35.796875 56 
Q 45.21875 56 50.046875 50.171875 
Q 54.890625 44.34375 54.890625 33.015625 
z
" id="DejaVuSans-110"/>
    <path d="M 44.28125 53.078125 
L 44.28125 44.578125 
Q 40.484375 46.53125 36.375 47.5 
Q 32.28125 48.484375 27.875 48.484375 
Q 21.1875 48.484375 17.84375 46.4375 
Q 14.5 44.390625 14.5 40.28125 
Q 14.5 37.15625 16.890625 35.375 
Q 19.28125 33.59375 26.515625 31.984375 
L 29.59375 31.296875 
Q 39.15625 29.25 43.1875 25.515625 
Q 47.21875 21.78125 47.21875 15.09375 
Q 47.21875 7.46875 41.1875 3.015625 
Q 35.15625 -1.421875 24.609375 -1.421875 
Q 20.21875 -1.421875 15.453125 -0.5625 
Q 10.6875 0.296875 5.421875 2 
L 5.421875 11.28125 
Q 10.40625 8.6875 15.234375 7.390625 
Q 20.0625 6.109375 24.8125 6.109375 
Q 31.15625 6.109375 34.5625 8.28125 
Q 37.984375 10.453125 37.984375 14.40625 
Q 37.984375 18.0625 35.515625 20.015625 
Q 33.0625 21.96875 24.703125 23.78125 
L 21.578125 24.515625 
Q 13.234375 26.265625 9.515625 29.90625 
Q 5.8125 33.546875 5.8125 39.890625 
Q 5.8125 47.609375 11.28125 51.796875 
Q 16.75 56 26.8125 56 
Q 31.78125 56 36.171875 55.265625 
Q 40.578125 54.546875 44.28125 53.078125 
z
" id="DejaVuSans-115"/>
    <path d="M 52 44.1875 
Q 55.375 50.25 60.0625 53.125 
Q 64.75 56 71.09375 56 
Q 79.640625 56 84.28125 50.015625 
Q 88.921875 44.046875 88.921875 33.015625 
L 88.921875 0 
L 79.890625 0 
L 79.890625 32.71875 
Q 79.890625 40.578125 77.09375 44.375 
Q 74.3125 48.1875 68.609375 48.1875 
Q 61.625 48.1875 57.5625 43.546875 
Q 53.515625 38.921875 53.515625 30.90625 
L 53.515625 0 
L 44.484375 0 
L 44.484375 32.71875 
Q 44.484375 40.625 41.703125 44.40625 
Q 38.921875 48.1875 33.109375 48.1875 
Q 26.21875 48.1875 22.15625 43.53125 
Q 18.109375 38.875 18.109375 30.90625 
L 18.109375 0 
L 9.078125 0 
L 9.078125 54.6875 
L 18.109375 54.6875 
L 18.109375 46.1875 
Q 21.1875 51.21875 25.484375 53.609375 
Q 29.78125 56 35.6875 56 
Q 41.65625 56 45.828125 52.96875 
Q 50 49.953125 52 44.1875 
z
" id="DejaVuSans-109"/>
    <path d="M 18.109375 8.203125 
L 18.109375 -20.796875 
L 9.078125 -20.796875 
L 9.078125 54.6875 
L 18.109375 54.6875 
L 18.109375 46.390625 
Q 20.953125 51.265625 25.265625 53.625 
Q 29.59375 56 35.59375 56 
Q 45.5625 56 51.78125 48.09375 
Q 58.015625 40.1875 58.015625 27.296875 
Q 58.015625 14.40625 51.78125 6.484375 
Q 45.5625 -1.421875 35.59375 -1.421875 
Q 29.59375 -1.421875 25.265625 0.953125 
Q 20.953125 3.328125 18.109375 8.203125 
z
M 48.6875 27.296875 
Q 48.6875 37.203125 44.609375 42.84375 
Q 40.53125 48.484375 33.40625 48.484375 
Q 26.265625 48.484375 22.1875 42.84375 
Q 18.109375 37.203125 18.109375 27.296875 
Q 18.109375 17.390625 22.1875 11.75 
Q 26.265625 6.109375 33.40625 6.109375 
Q 40.53125 6.109375 44.609375 11.75 
Q 48.6875 17.390625 48.6875 27.296875 
z
" id="DejaVuSans-112"/>
    <path d="M 9.421875 54.6875 
L 18.40625 54.6875 
L 18.40625 0 
L 9.421875 0 
z
M 9.421875 75.984375 
L 18.40625 75.984375 
L 18.40625 64.59375 
L 9.421875 64.59375 
z
" id="DejaVuSans-105"/>
    <path d="M 34.28125 27.484375 
Q 23.390625 27.484375 19.1875 25 
Q 14.984375 22.515625 14.984375 16.5 
Q 14.984375 11.71875 18.140625 8.90625 
Q 21.296875 6.109375 26.703125 6.109375 
Q 34.1875 6.109375 38.703125 11.40625 
Q 43.21875 16.703125 43.21875 25.484375 
L 43.21875 27.484375 
z
M 52.203125 31.203125 
L 52.203125 0 
L 43.21875 0 
L 43.21875 8.296875 
Q 40.140625 3.328125 35.546875 0.953125 
Q 30.953125 -1.421875 24.3125 -1.421875 
Q 15.921875 -1.421875 10.953125 3.296875 
Q 6 8.015625 6 15.921875 
Q 6 25.140625 12.171875 29.828125 
Q 18.359375 34.515625 30.609375 34.515625 
L 43.21875 34.515625 
L 43.21875 35.40625 
Q 43.21875 41.609375 39.140625 45 
Q 35.0625 48.390625 27.6875 48.390625 
Q 23 48.390625 18.546875 47.265625 
Q 14.109375 46.140625 10.015625 43.890625 
L 10.015625 52.203125 
Q 14.9375 54.109375 19.578125 55.046875 
Q 24.21875 56 28.609375 56 
Q 40.484375 56 46.34375 49.84375 
Q 52.203125 43.703125 52.203125 31.203125 
z
" id="DejaVuSans-97"/>
    <path d="M 48.6875 27.296875 
Q 48.6875 37.203125 44.609375 42.84375 
Q 40.53125 48.484375 33.40625 48.484375 
Q 26.265625 48.484375 22.1875 42.84375 
Q 18.109375 37.203125 18.109375 27.296875 
Q 18.109375 17.390625 22.1875 11.75 
Q 26.265625 6.109375 33.40625 6.109375 
Q 40.53125 6.109375 44.609375 11.75 
Q 48.6875 17.390625 48.6875 27.296875 
z
M 18.109375 46.390625 
Q 20.953125 51.265625 25.265625 53.625 
Q 29.59375 56 35.59375 56 
Q 45.5625 56 51.78125 48.09375 
Q 58.015625 40.1875 58.015625 27.296875 
Q 58.015625 14.40625 51.78125 6.484375 
Q 45.5625 -1.421875 35.59375 -1.421875 
Q 29.59375 -1.421875 25.265625 0.953125 
Q 20.953125 3.328125 18.109375 8.203125 
L 18.109375 0 
L 9.078125 0 
L 9.078125 75.984375 
L 18.109375 75.984375 
z
" id="DejaVuSans-98"/>
    <path d="M 32.171875 -5.078125 
Q 28.375 -14.84375 24.75 -17.8125 
Q 21.140625 -20.796875 15.09375 -20.796875 
L 7.90625 -20.796875 
L 7.90625 -13.28125 
L 13.1875 -13.28125 
Q 16.890625 -13.28125 18.9375 -11.515625 
Q 21 -9.765625 23.484375 -3.21875 
L 25.09375 0.875 
L 2.984375 54.6875 
L 12.5 54.6875 
L 29.59375 11.921875 
L 46.6875 54.6875 
L 56.203125 54.6875 
z
" id="DejaVuSans-121"/>
    <path d="M 31 75.875 
Q 24.46875 64.65625 21.28125 53.65625 
Q 18.109375 42.671875 18.109375 31.390625 
Q 18.109375 20.125 21.3125 9.0625 
Q 24.515625 -2 31 -13.1875 
L 23.1875 -13.1875 
Q 15.875 -1.703125 12.234375 9.375 
Q 8.59375 20.453125 8.59375 31.390625 
Q 8.59375 42.28125 12.203125 53.3125 
Q 15.828125 64.359375 23.1875 75.875 
z
" id="DejaVuSans-40"/>
    <path d="M 9.8125 72.90625 
L 19.671875 72.90625 
L 19.671875 8.296875 
L 55.171875 8.296875 
L 55.171875 0 
L 9.8125 0 
z
" id="DejaVuSans-76"/>
    <path d="M 2.984375 54.6875 
L 12.5 54.6875 
L 29.59375 8.796875 
L 46.6875 54.6875 
L 56.203125 54.6875 
L 35.6875 0 
L 23.484375 0 
z
" id="DejaVuSans-118"/>
    <path d="M 9.421875 75.984375 
L 18.40625 75.984375 
L 18.40625 0 
L 9.421875 0 
z
" id="DejaVuSans-108"/>
    <path d="M 8.015625 75.875 
L 15.828125 75.875 
Q 23.140625 64.359375 26.78125 53.3125 
Q 30.421875 42.28125 30.421875 31.390625 
Q 30.421875 20.453125 26.78125 9.375 
Q 23.140625 -1.703125 15.828125 -13.1875 
L 8.015625 -13.1875 
Q 14.5 -2 17.703125 9.0625 
Q 20.90625 20.125 20.90625 31.390625 
Q 20.90625 42.671875 17.703125 53.65625 
Q 14.5 64.65625 8.015625 75.875 
z
" id="DejaVuSans-41"/>
   </defs>
   <g transform="translate(86.867813 14.878125)scale(0.12 -0.12)">
    <use xlink:href="#DejaVuSans-67"/>
    <use x="69.824219" xlink:href="#DejaVuSans-111"/>
    <use x="131.005859" xlink:href="#DejaVuSans-110"/>
    <use x="194.384766" xlink:href="#DejaVuSans-115"/>
    <use x="246.484375" xlink:href="#DejaVuSans-117"/>
    <use x="309.863281" xlink:href="#DejaVuSans-109"/>
    <use x="407.275391" xlink:href="#DejaVuSans-112"/>
    <use x="470.751953" xlink:href="#DejaVuSans-116"/>
    <use x="509.960938" xlink:href="#DejaVuSans-105"/>
    <use x="537.744141" xlink:href="#DejaVuSans-111"/>
    <use x="598.925781" xlink:href="#DejaVuSans-110"/>
    <use x="662.304688" xlink:href="#DejaVuSans-32"/>
    <use x="694.091797" xlink:href="#DejaVuSans-67"/>
    <use x="763.916016" xlink:href="#DejaVuSans-111"/>
    <use x="825.097656" xlink:href="#DejaVuSans-109"/>
    <use x="922.509766" xlink:href="#DejaVuSans-112"/>
    <use x="985.986328" xlink:href="#DejaVuSans-97"/>
    <use x="1047.265625" xlink:href="#DejaVuSans-114"/>
    <use x="1088.378906" xlink:href="#DejaVuSans-105"/>
    <use x="1116.162109" xlink:href="#DejaVuSans-115"/>
    <use x="1168.261719" xlink:href="#DejaVuSans-111"/>
    <use x="1229.443359" xlink:href="#DejaVuSans-110"/>
    <use x="1292.822266" xlink:href="#DejaVuSans-115"/>
    <use x="1344.921875" xlink:href="#DejaVuSans-32"/>
    <use x="1376.708984" xlink:href="#DejaVuSans-98"/>
    <use x="1440.185547" xlink:href="#DejaVuSans-121"/>
    <use x="1499.365234" xlink:href="#DejaVuSans-32"/>
    <use x="1531.152344" xlink:href="#DejaVuSans-65"/>
    <use x="1599.560547" xlink:href="#DejaVuSans-103"/>
    <use x="1663.037109" xlink:href="#DejaVuSans-101"/>
    <use x="1724.560547" xlink:href="#DejaVuSans-32"/>
    <use x="1756.347656" xlink:href="#DejaVuSans-40"/>
    <use x="1795.361328" xlink:href="#DejaVuSans-76"/>
    <use x="1851.058594" xlink:href="#DejaVuSans-101"/>
    <use x="1912.582031" xlink:href="#DejaVuSans-118"/>
    <use x="1971.761719" xlink:href="#DejaVuSans-101"/>
    <use x="2033.285156" xlink:href="#DejaVuSans-108"/>
    <use x="2061.068359" xlink:href="#DejaVuSans-115"/>
    <use x="2113.167969" xlink:href="#DejaVuSans-41"/>
   </g>
  </g>
 </g>
 <defs>
  <clipPath id="pe39a59a4e5">
   <rect height="217.44" width="98.470588" x="54" y="34.56"/>
  </clipPath>
  <clipPath id="p46c850e3b3">
   <rect height="217.44" width="98.470588" x="172.164706" y="34.56"/>
  </clipPath>
  <clipPath id="pbcc5c1cf9e">
   <rect height="217.44" width="98.470588" x="290.329412" y="34.56"/>
  </clipPath>
 </defs>
</svg>
