<?xml version="1.0" encoding="utf-8" standalone="no"?>
<!DOCTYPE svg PUBLIC "-//W3C//DTD SVG 1.1//EN"
  "http://www.w3.org/Graphics/SVG/1.1/DTD/svg11.dtd">
<!-- Created with matplotlib (https://matplotlib.org/) -->
<svg height="288pt" version="1.1" viewBox="0 0 720 288" width="720pt" xmlns="http://www.w3.org/2000/svg" xmlns:xlink="http://www.w3.org/1999/xlink">
 <defs>
  <style type="text/css">
*{stroke-linecap:butt;stroke-linejoin:round;}
  </style>
 </defs>
 <g id="figure_1">
  <g id="patch_1">
   <path d="M 0 288 
L 720 288 
L 720 0 
L 0 0 
z
" style="fill:#ffffff;"/>
  </g>
  <g id="axes_1">
   <g id="patch_2">
    <path d="M 90 133.396364 
L 343.636364 133.396364 
L 343.636364 34.56 
L 90 34.56 
z
" style="fill:#ffffff;"/>
   </g>
   <g id="matplotlib.axis_1">
    <g id="xtick_1">
     <g id="line2d_1">
      <path clip-path="url(#p00ff969ce8)" d="M 99.22314 133.396364 
L 99.22314 34.56 
" style="fill:none;stroke:#b0b0b0;stroke-linecap:square;stroke-width:0.8;"/>
     </g>
     <g id="line2d_2">
      <defs>
       <path d="M 0 0 
L 0 3.5 
" id="m78666dffb2" style="stroke:#000000;stroke-width:0.8;"/>
      </defs>
      <g>
       <use style="stroke:#000000;stroke-width:0.8;" x="99.22314" xlink:href="#m78666dffb2" y="133.396364"/>
      </g>
     </g>
    </g>
    <g id="xtick_2">
     <g id="line2d_3">
      <path clip-path="url(#p00ff969ce8)" d="M 156.867769 133.396364 
L 156.867769 34.56 
" style="fill:none;stroke:#b0b0b0;stroke-linecap:square;stroke-width:0.8;"/>
     </g>
     <g id="line2d_4">
      <g>
       <use style="stroke:#000000;stroke-width:0.8;" x="156.867769" xlink:href="#m78666dffb2" y="133.396364"/>
      </g>
     </g>
    </g>
    <g id="xtick_3">
     <g id="line2d_5">
      <path clip-path="url(#p00ff969ce8)" d="M 214.512397 133.396364 
L 214.512397 34.56 
" style="fill:none;stroke:#b0b0b0;stroke-linecap:square;stroke-width:0.8;"/>
     </g>
     <g id="line2d_6">
      <g>
       <use style="stroke:#000000;stroke-width:0.8;" x="214.512397" xlink:href="#m78666dffb2" y="133.396364"/>
      </g>
     </g>
    </g>
    <g id="xtick_4">
     <g id="line2d_7">
      <path clip-path="url(#p00ff969ce8)" d="M 272.157025 133.396364 
L 272.157025 34.56 
" style="fill:none;stroke:#b0b0b0;stroke-linecap:square;stroke-width:0.8;"/>
     </g>
     <g id="line2d_8">
      <g>
       <use style="stroke:#000000;stroke-width:0.8;" x="272.157025" xlink:href="#m78666dffb2" y="133.396364"/>
      </g>
     </g>
    </g>
    <g id="xtick_5">
     <g id="line2d_9">
      <path clip-path="url(#p00ff969ce8)" d="M 329.801653 133.396364 
L 329.801653 34.56 
" style="fill:none;stroke:#b0b0b0;stroke-linecap:square;stroke-width:0.8;"/>
     </g>
     <g id="line2d_10">
      <g>
       <use style="stroke:#000000;stroke-width:0.8;" x="329.801653" xlink:href="#m78666dffb2" y="133.396364"/>
      </g>
     </g>
    </g>
   </g>
   <g id="matplotlib.axis_2">
    <g id="ytick_1">
     <g id="line2d_11">
      <path clip-path="url(#p00ff969ce8)" d="M 90 131.27786 
L 343.636364 131.27786 
" style="fill:none;stroke:#b0b0b0;stroke-linecap:square;stroke-width:0.8;"/>
     </g>
     <g id="line2d_12">
      <defs>
       <path d="M 0 0 
L -3.5 0 
" id="m6e53de17e7" style="stroke:#000000;stroke-width:0.8;"/>
      </defs>
      <g>
       <use style="stroke:#000000;stroke-width:0.8;" x="90" xlink:href="#m6e53de17e7" y="131.27786"/>
      </g>
     </g>
     <g id="text_1">
      <!-- 0 -->
      <defs>
       <path d="M 31.78125 66.40625 
Q 24.171875 66.40625 20.328125 58.90625 
Q 16.5 51.421875 16.5 36.375 
Q 16.5 21.390625 20.328125 13.890625 
Q 24.171875 6.390625 31.78125 6.390625 
Q 39.453125 6.390625 43.28125 13.890625 
Q 47.125 21.390625 47.125 36.375 
Q 47.125 51.421875 43.28125 58.90625 
Q 39.453125 66.40625 31.78125 66.40625 
z
M 31.78125 74.21875 
Q 44.046875 74.21875 50.515625 64.515625 
Q 56.984375 54.828125 56.984375 36.375 
Q 56.984375 17.96875 50.515625 8.265625 
Q 44.046875 -1.421875 31.78125 -1.421875 
Q 19.53125 -1.421875 13.0625 8.265625 
Q 6.59375 17.96875 6.59375 36.375 
Q 6.59375 54.828125 13.0625 64.515625 
Q 19.53125 74.21875 31.78125 74.21875 
z
" id="DejaVuSans-48"/>
      </defs>
      <g transform="translate(76.6375 135.077079)scale(0.1 -0.1)">
       <use xlink:href="#DejaVuSans-48"/>
      </g>
     </g>
    </g>
    <g id="ytick_2">
     <g id="line2d_13">
      <path clip-path="url(#p00ff969ce8)" d="M 90 101.573406 
L 343.636364 101.573406 
" style="fill:none;stroke:#b0b0b0;stroke-linecap:square;stroke-width:0.8;"/>
     </g>
     <g id="line2d_14">
      <g>
       <use style="stroke:#000000;stroke-width:0.8;" x="90" xlink:href="#m6e53de17e7" y="101.573406"/>
      </g>
     </g>
     <g id="text_2">
      <!-- 50 -->
      <defs>
       <path d="M 10.796875 72.90625 
L 49.515625 72.90625 
L 49.515625 64.59375 
L 19.828125 64.59375 
L 19.828125 46.734375 
Q 21.96875 47.46875 24.109375 47.828125 
Q 26.265625 48.1875 28.421875 48.1875 
Q 40.625 48.1875 47.75 41.5 
Q 54.890625 34.8125 54.890625 23.390625 
Q 54.890625 11.625 47.5625 5.09375 
Q 40.234375 -1.421875 26.90625 -1.421875 
Q 22.3125 -1.421875 17.546875 -0.640625 
Q 12.796875 0.140625 7.71875 1.703125 
L 7.71875 11.625 
Q 12.109375 9.234375 16.796875 8.0625 
Q 21.484375 6.890625 26.703125 6.890625 
Q 35.15625 6.890625 40.078125 11.328125 
Q 45.015625 15.765625 45.015625 23.390625 
Q 45.015625 31 40.078125 35.4375 
Q 35.15625 39.890625 26.703125 39.890625 
Q 22.75 39.890625 18.8125 39.015625 
Q 14.890625 38.140625 10.796875 36.28125 
z
" id="DejaVuSans-53"/>
      </defs>
      <g transform="translate(70.275 105.372625)scale(0.1 -0.1)">
       <use xlink:href="#DejaVuSans-53"/>
       <use x="63.623047" xlink:href="#DejaVuSans-48"/>
      </g>
     </g>
    </g>
    <g id="ytick_3">
     <g id="line2d_15">
      <path clip-path="url(#p00ff969ce8)" d="M 90 71.868952 
L 343.636364 71.868952 
" style="fill:none;stroke:#b0b0b0;stroke-linecap:square;stroke-width:0.8;"/>
     </g>
     <g id="line2d_16">
      <g>
       <use style="stroke:#000000;stroke-width:0.8;" x="90" xlink:href="#m6e53de17e7" y="71.868952"/>
      </g>
     </g>
     <g id="text_3">
      <!-- 100 -->
      <defs>
       <path d="M 12.40625 8.296875 
L 28.515625 8.296875 
L 28.515625 63.921875 
L 10.984375 60.40625 
L 10.984375 69.390625 
L 28.421875 72.90625 
L 38.28125 72.90625 
L 38.28125 8.296875 
L 54.390625 8.296875 
L 54.390625 0 
L 12.40625 0 
z
" id="DejaVuSans-49"/>
      </defs>
      <g transform="translate(63.9125 75.66817)scale(0.1 -0.1)">
       <use xlink:href="#DejaVuSans-49"/>
       <use x="63.623047" xlink:href="#DejaVuSans-48"/>
       <use x="127.246094" xlink:href="#DejaVuSans-48"/>
      </g>
     </g>
    </g>
    <g id="ytick_4">
     <g id="line2d_17">
      <path clip-path="url(#p00ff969ce8)" d="M 90 42.164497 
L 343.636364 42.164497 
" style="fill:none;stroke:#b0b0b0;stroke-linecap:square;stroke-width:0.8;"/>
     </g>
     <g id="line2d_18">
      <g>
       <use style="stroke:#000000;stroke-width:0.8;" x="90" xlink:href="#m6e53de17e7" y="42.164497"/>
      </g>
     </g>
     <g id="text_4">
      <!-- 150 -->
      <g transform="translate(63.9125 45.963716)scale(0.1 -0.1)">
       <use xlink:href="#DejaVuSans-49"/>
       <use x="63.623047" xlink:href="#DejaVuSans-53"/>
       <use x="127.246094" xlink:href="#DejaVuSans-48"/>
      </g>
     </g>
    </g>
   </g>
   <g id="line2d_19">
    <path clip-path="url(#p00ff969ce8)" d="M 101.528926 128.901504 
L 109.599174 120.732779 
L 110.752066 120.13869 
L 111.904959 119.841645 
L 112.481405 119.544601 
L 113.057851 119.396079 
L 113.634298 119.099034 
L 114.210744 118.950512 
L 114.78719 118.653467 
L 115.363636 118.504945 
L 115.940083 118.2079 
L 117.092975 117.910856 
L 117.669421 117.613811 
L 118.245868 117.465289 
L 118.822314 117.168245 
L 119.39876 117.019722 
L 119.975207 116.722678 
L 121.128099 116.425633 
L 121.704545 116.128589 
L 122.280992 115.980066 
L 122.857438 115.683022 
L 124.010331 115.385977 
L 124.586777 115.088933 
L 125.163223 114.940411 
L 125.739669 114.643366 
L 126.316116 114.494844 
L 126.892562 114.197799 
L 127.469008 114.049277 
L 128.045455 114.791888 
L 128.621901 114.494844 
L 129.198347 114.049277 
L 129.774793 113.900755 
L 130.35124 113.455188 
L 131.504132 112.861099 
L 132.080579 112.415532 
L 132.657025 112.26701 
L 133.809917 111.672921 
L 134.96281 111.375876 
L 135.539256 111.078831 
L 136.692149 110.781787 
L 137.268595 110.33622 
L 137.845041 110.039176 
L 138.421488 110.33622 
L 140.727273 109.148042 
L 141.303719 109.148042 
L 142.456612 108.553953 
L 143.609504 108.256908 
L 144.18595 107.959864 
L 144.762397 107.811341 
L 145.338843 107.514297 
L 145.915289 107.365775 
L 146.491736 107.06873 
L 147.068182 106.920208 
L 147.644628 106.623163 
L 148.797521 106.326119 
L 149.373967 106.029074 
L 149.950413 105.880552 
L 150.52686 105.583507 
L 151.679752 105.286463 
L 152.256198 104.989418 
L 152.832645 104.840896 
L 153.409091 104.543851 
L 154.561983 104.246807 
L 155.13843 103.949762 
L 155.714876 103.80124 
L 156.291322 103.504196 
L 156.867769 103.355673 
L 157.444215 103.058629 
L 158.597107 102.761584 
L 159.173554 102.46454 
L 159.75 102.316017 
L 160.326446 102.018973 
L 160.902893 101.870451 
L 161.479339 101.573406 
L 162.632231 101.276361 
L 163.208678 100.979317 
L 163.785124 100.830795 
L 164.36157 100.53375 
L 165.514463 100.236706 
L 166.090909 99.939661 
L 166.667355 99.791139 
L 167.243802 99.494094 
L 168.396694 99.19705 
L 168.97314 98.900005 
L 169.549587 98.751483 
L 170.126033 98.454438 
L 170.702479 98.305916 
L 171.278926 98.008871 
L 172.431818 97.711827 
L 173.008264 97.414782 
L 173.584711 97.26626 
L 174.161157 96.969216 
L 174.737603 96.820693 
L 175.31405 96.523649 
L 176.466942 96.226604 
L 177.043388 95.92956 
L 177.619835 95.781037 
L 178.196281 95.483993 
L 179.349174 95.186948 
L 179.92562 94.889904 
L 180.502066 94.741381 
L 181.078512 94.444337 
L 182.231405 94.147292 
L 182.807851 93.850248 
L 183.384298 93.701726 
L 183.960744 93.404681 
L 184.53719 93.256159 
L 185.113636 92.959114 
L 186.266529 92.66207 
L 186.842975 92.365025 
L 187.419421 92.216503 
L 187.995868 91.919458 
L 189.14876 91.622414 
L 189.725207 91.325369 
L 190.301653 91.176847 
L 190.878099 90.879802 
L 191.454545 90.73128 
L 192.030992 90.434236 
L 193.183884 90.137191 
L 193.760331 89.840147 
L 194.336777 89.691624 
L 194.913223 89.39458 
L 196.066116 89.097535 
L 196.642562 88.800491 
L 197.219008 88.651968 
L 197.795455 88.354924 
L 198.371901 88.206402 
L 198.948347 87.909357 
L 200.10124 87.612312 
L 200.677686 87.315268 
L 201.254132 87.166746 
L 201.830579 86.869701 
L 202.983471 86.572657 
L 203.559917 86.275612 
L 204.136364 86.12709 
L 204.71281 85.830045 
L 205.289256 85.681523 
L 205.865702 85.384478 
L 207.018595 85.087434 
L 207.595041 84.790389 
L 208.171488 84.641867 
L 208.747934 84.344822 
L 209.900826 84.047778 
L 210.477273 83.750733 
L 211.053719 83.602211 
L 211.630165 83.305167 
L 212.206612 83.156644 
L 212.783058 82.8596 
L 213.93595 82.562555 
L 214.512397 82.265511 
L 215.088843 82.116988 
L 215.665289 81.819944 
L 216.818182 81.522899 
L 217.394628 81.225855 
L 217.971074 81.077332 
L 218.547521 80.780288 
L 219.123967 80.631766 
L 219.700413 80.334721 
L 220.853306 80.037677 
L 221.429752 79.740632 
L 222.006198 79.59211 
L 222.582645 79.295065 
L 223.735537 78.998021 
L 224.311983 78.700976 
L 224.88843 78.552454 
L 225.464876 78.255409 
L 226.041322 78.106887 
L 226.617769 77.809842 
L 227.770661 77.512798 
L 228.347107 77.215753 
L 228.923554 77.067231 
L 229.5 76.770187 
L 230.652893 76.473142 
L 231.229339 76.176097 
L 231.805785 76.027575 
L 232.382231 75.730531 
L 232.958678 75.582008 
L 233.535124 75.284964 
L 234.688017 74.987919 
L 235.264463 74.690875 
L 235.840909 74.542352 
L 236.417355 74.245308 
L 237.570248 73.948263 
L 238.146694 73.651219 
L 238.72314 73.502697 
L 239.299587 73.205652 
L 239.876033 73.05713 
L 240.452479 72.760085 
L 241.605372 72.463041 
L 242.181818 72.165996 
L 242.758264 72.017474 
L 243.334711 71.720429 
L 244.487603 71.423385 
L 245.06405 71.12634 
L 245.640496 70.977818 
L 246.216942 70.680773 
L 246.793388 70.532251 
L 247.369835 70.235207 
L 248.522727 69.938162 
L 249.099174 69.641117 
L 249.67562 69.492595 
L 250.252066 69.195551 
L 251.404959 68.898506 
L 251.981405 68.601462 
L 252.557851 68.452939 
L 253.134298 68.155895 
L 253.710744 68.007372 
L 254.28719 67.710328 
L 255.440083 67.413283 
L 256.016529 67.116239 
L 256.592975 66.967717 
L 257.169421 66.670672 
L 258.322314 66.373628 
L 258.89876 66.076583 
L 259.475207 65.928061 
L 260.051653 65.631016 
L 260.628099 65.482494 
L 261.204545 65.185449 
L 262.357438 64.888405 
L 262.933884 64.59136 
L 263.510331 64.442838 
L 264.086777 64.145793 
L 265.239669 63.848749 
L 265.816116 63.551704 
L 266.392562 63.403182 
L 266.969008 63.106138 
L 267.545455 62.957615 
L 268.121901 62.660571 
L 269.274793 62.363526 
L 269.85124 62.066482 
L 270.427686 61.917959 
L 271.004132 61.620915 
L 272.157025 61.32387 
L 272.733471 61.026826 
L 273.309917 60.878303 
L 273.886364 60.581259 
L 274.46281 60.432737 
L 275.039256 60.135692 
L 276.192149 59.838648 
L 276.768595 59.541603 
L 277.345041 59.393081 
L 277.921488 59.096036 
L 279.07438 58.798992 
L 279.650826 58.501947 
L 280.227273 58.353425 
L 280.803719 58.05638 
L 281.380165 57.907858 
L 281.956612 57.610813 
L 283.109504 57.313769 
L 283.68595 57.016724 
L 284.262397 56.868202 
L 284.838843 56.571158 
L 285.991736 56.274113 
L 286.568182 55.977068 
L 287.144628 55.828546 
L 287.721074 55.531502 
L 288.297521 55.382979 
L 288.873967 55.085935 
L 290.02686 54.78889 
L 290.603306 54.491846 
L 291.179752 54.343323 
L 291.756198 54.046279 
L 292.909091 53.749234 
L 293.485537 53.45219 
L 294.061983 53.303668 
L 294.63843 53.006623 
L 295.214876 52.858101 
L 295.791322 52.561056 
L 296.944215 52.264012 
L 297.520661 51.966967 
L 298.097107 51.818445 
L 298.673554 51.5214 
L 299.826446 51.224356 
L 300.402893 50.927311 
L 300.979339 50.778789 
L 301.555785 50.481744 
L 302.132231 50.333222 
L 302.708678 50.036178 
L 303.86157 49.739133 
L 304.438017 49.442088 
L 305.014463 49.293566 
L 305.590909 48.996522 
L 306.743802 48.699477 
L 307.320248 48.402433 
L 307.896694 48.25391 
L 308.47314 47.956866 
L 309.049587 47.808343 
L 309.626033 47.511299 
L 310.778926 47.214254 
L 311.355372 46.91721 
L 311.931818 46.768688 
L 312.508264 46.471643 
L 313.661157 46.174598 
L 314.237603 45.877554 
L 314.81405 45.729032 
L 315.390496 45.431987 
L 315.966942 45.283465 
L 316.543388 44.98642 
L 317.696281 44.689376 
L 318.272727 44.392331 
L 318.849174 44.243809 
L 319.42562 43.946764 
L 320.578512 43.64972 
L 321.154959 43.352675 
L 321.731405 43.204153 
L 322.307851 42.907109 
L 322.884298 42.758586 
L 323.460744 42.461542 
L 324.613636 42.164497 
L 325.190083 41.867453 
L 325.766529 41.71893 
L 326.342975 41.421886 
L 327.495868 41.124841 
L 328.072314 40.827797 
L 328.64876 40.679274 
L 329.225207 40.38223 
L 329.801653 40.233708 
L 330.378099 39.936663 
L 331.530992 39.639619 
L 332.107438 39.342574 
L 332.107438 39.342574 
" style="fill:none;stroke:#1f77b4;stroke-linecap:square;stroke-width:1.5;"/>
   </g>
   <g id="line2d_20">
    <path clip-path="url(#p00ff969ce8)" d="M 101.528926 128.903802 
L 109.599174 120.734375 
L 110.752066 120.223509 
L 121.704545 116.110745 
L 332.107438 39.052562 
L 332.107438 39.052562 
" style="fill:none;stroke:#ff7f0e;stroke-linecap:square;stroke-width:1.5;"/>
   </g>
   <g id="patch_3">
    <path d="M 90 133.396364 
L 90 34.56 
" style="fill:none;stroke:#000000;stroke-linecap:square;stroke-linejoin:miter;stroke-width:0.8;"/>
   </g>
   <g id="patch_4">
    <path d="M 343.636364 133.396364 
L 343.636364 34.56 
" style="fill:none;stroke:#000000;stroke-linecap:square;stroke-linejoin:miter;stroke-width:0.8;"/>
   </g>
   <g id="patch_5">
    <path d="M 90 133.396364 
L 343.636364 133.396364 
" style="fill:none;stroke:#000000;stroke-linecap:square;stroke-linejoin:miter;stroke-width:0.8;"/>
   </g>
   <g id="patch_6">
    <path d="M 90 34.56 
L 343.636364 34.56 
" style="fill:none;stroke:#000000;stroke-linecap:square;stroke-linejoin:miter;stroke-width:0.8;"/>
   </g>
   <g id="text_5">
    <!-- Cons. Functions -->
    <defs>
     <path d="M 64.40625 67.28125 
L 64.40625 56.890625 
Q 59.421875 61.53125 53.78125 63.8125 
Q 48.140625 66.109375 41.796875 66.109375 
Q 29.296875 66.109375 22.65625 58.46875 
Q 16.015625 50.828125 16.015625 36.375 
Q 16.015625 21.96875 22.65625 14.328125 
Q 29.296875 6.6875 41.796875 6.6875 
Q 48.140625 6.6875 53.78125 8.984375 
Q 59.421875 11.28125 64.40625 15.921875 
L 64.40625 5.609375 
Q 59.234375 2.09375 53.4375 0.328125 
Q 47.65625 -1.421875 41.21875 -1.421875 
Q 24.65625 -1.421875 15.125 8.703125 
Q 5.609375 18.84375 5.609375 36.375 
Q 5.609375 53.953125 15.125 64.078125 
Q 24.65625 74.21875 41.21875 74.21875 
Q 47.75 74.21875 53.53125 72.484375 
Q 59.328125 70.75 64.40625 67.28125 
z
" id="DejaVuSans-67"/>
     <path d="M 30.609375 48.390625 
Q 23.390625 48.390625 19.1875 42.75 
Q 14.984375 37.109375 14.984375 27.296875 
Q 14.984375 17.484375 19.15625 11.84375 
Q 23.34375 6.203125 30.609375 6.203125 
Q 37.796875 6.203125 41.984375 11.859375 
Q 46.1875 17.53125 46.1875 27.296875 
Q 46.1875 37.015625 41.984375 42.703125 
Q 37.796875 48.390625 30.609375 48.390625 
z
M 30.609375 56 
Q 42.328125 56 49.015625 48.375 
Q 55.71875 40.765625 55.71875 27.296875 
Q 55.71875 13.875 49.015625 6.21875 
Q 42.328125 -1.421875 30.609375 -1.421875 
Q 18.84375 -1.421875 12.171875 6.21875 
Q 5.515625 13.875 5.515625 27.296875 
Q 5.515625 40.765625 12.171875 48.375 
Q 18.84375 56 30.609375 56 
z
" id="DejaVuSans-111"/>
     <path d="M 54.890625 33.015625 
L 54.890625 0 
L 45.90625 0 
L 45.90625 32.71875 
Q 45.90625 40.484375 42.875 44.328125 
Q 39.84375 48.1875 33.796875 48.1875 
Q 26.515625 48.1875 22.3125 43.546875 
Q 18.109375 38.921875 18.109375 30.90625 
L 18.109375 0 
L 9.078125 0 
L 9.078125 54.6875 
L 18.109375 54.6875 
L 18.109375 46.1875 
Q 21.34375 51.125 25.703125 53.5625 
Q 30.078125 56 35.796875 56 
Q 45.21875 56 50.046875 50.171875 
Q 54.890625 44.34375 54.890625 33.015625 
z
" id="DejaVuSans-110"/>
     <path d="M 44.28125 53.078125 
L 44.28125 44.578125 
Q 40.484375 46.53125 36.375 47.5 
Q 32.28125 48.484375 27.875 48.484375 
Q 21.1875 48.484375 17.84375 46.4375 
Q 14.5 44.390625 14.5 40.28125 
Q 14.5 37.15625 16.890625 35.375 
Q 19.28125 33.59375 26.515625 31.984375 
L 29.59375 31.296875 
Q 39.15625 29.25 43.1875 25.515625 
Q 47.21875 21.78125 47.21875 15.09375 
Q 47.21875 7.46875 41.1875 3.015625 
Q 35.15625 -1.421875 24.609375 -1.421875 
Q 20.21875 -1.421875 15.453125 -0.5625 
Q 10.6875 0.296875 5.421875 2 
L 5.421875 11.28125 
Q 10.40625 8.6875 15.234375 7.390625 
Q 20.0625 6.109375 24.8125 6.109375 
Q 31.15625 6.109375 34.5625 8.28125 
Q 37.984375 10.453125 37.984375 14.40625 
Q 37.984375 18.0625 35.515625 20.015625 
Q 33.0625 21.96875 24.703125 23.78125 
L 21.578125 24.515625 
Q 13.234375 26.265625 9.515625 29.90625 
Q 5.8125 33.546875 5.8125 39.890625 
Q 5.8125 47.609375 11.28125 51.796875 
Q 16.75 56 26.8125 56 
Q 31.78125 56 36.171875 55.265625 
Q 40.578125 54.546875 44.28125 53.078125 
z
" id="DejaVuSans-115"/>
     <path d="M 10.6875 12.40625 
L 21 12.40625 
L 21 0 
L 10.6875 0 
z
" id="DejaVuSans-46"/>
     <path id="DejaVuSans-32"/>
     <path d="M 9.8125 72.90625 
L 51.703125 72.90625 
L 51.703125 64.59375 
L 19.671875 64.59375 
L 19.671875 43.109375 
L 48.578125 43.109375 
L 48.578125 34.8125 
L 19.671875 34.8125 
L 19.671875 0 
L 9.8125 0 
z
" id="DejaVuSans-70"/>
     <path d="M 8.5 21.578125 
L 8.5 54.6875 
L 17.484375 54.6875 
L 17.484375 21.921875 
Q 17.484375 14.15625 20.5 10.265625 
Q 23.53125 6.390625 29.59375 6.390625 
Q 36.859375 6.390625 41.078125 11.03125 
Q 45.3125 15.671875 45.3125 23.6875 
L 45.3125 54.6875 
L 54.296875 54.6875 
L 54.296875 0 
L 45.3125 0 
L 45.3125 8.40625 
Q 42.046875 3.421875 37.71875 1 
Q 33.40625 -1.421875 27.6875 -1.421875 
Q 18.265625 -1.421875 13.375 4.4375 
Q 8.5 10.296875 8.5 21.578125 
z
M 31.109375 56 
z
" id="DejaVuSans-117"/>
     <path d="M 48.78125 52.59375 
L 48.78125 44.1875 
Q 44.96875 46.296875 41.140625 47.34375 
Q 37.3125 48.390625 33.40625 48.390625 
Q 24.65625 48.390625 19.8125 42.84375 
Q 14.984375 37.3125 14.984375 27.296875 
Q 14.984375 17.28125 19.8125 11.734375 
Q 24.65625 6.203125 33.40625 6.203125 
Q 37.3125 6.203125 41.140625 7.25 
Q 44.96875 8.296875 48.78125 10.40625 
L 48.78125 2.09375 
Q 45.015625 0.34375 40.984375 -0.53125 
Q 36.96875 -1.421875 32.421875 -1.421875 
Q 20.0625 -1.421875 12.78125 6.34375 
Q 5.515625 14.109375 5.515625 27.296875 
Q 5.515625 40.671875 12.859375 48.328125 
Q 20.21875 56 33.015625 56 
Q 37.15625 56 41.109375 55.140625 
Q 45.0625 54.296875 48.78125 52.59375 
z
" id="DejaVuSans-99"/>
     <path d="M 18.3125 70.21875 
L 18.3125 54.6875 
L 36.8125 54.6875 
L 36.8125 47.703125 
L 18.3125 47.703125 
L 18.3125 18.015625 
Q 18.3125 11.328125 20.140625 9.421875 
Q 21.96875 7.515625 27.59375 7.515625 
L 36.8125 7.515625 
L 36.8125 0 
L 27.59375 0 
Q 17.1875 0 13.234375 3.875 
Q 9.28125 7.765625 9.28125 18.015625 
L 9.28125 47.703125 
L 2.6875 47.703125 
L 2.6875 54.6875 
L 9.28125 54.6875 
L 9.28125 70.21875 
z
" id="DejaVuSans-116"/>
     <path d="M 9.421875 54.6875 
L 18.40625 54.6875 
L 18.40625 0 
L 9.421875 0 
z
M 9.421875 75.984375 
L 18.40625 75.984375 
L 18.40625 64.59375 
L 9.421875 64.59375 
z
" id="DejaVuSans-105"/>
    </defs>
    <g transform="translate(169.246619 28.56)scale(0.12 -0.12)">
     <use xlink:href="#DejaVuSans-67"/>
     <use x="69.824219" xlink:href="#DejaVuSans-111"/>
     <use x="131.005859" xlink:href="#DejaVuSans-110"/>
     <use x="194.384766" xlink:href="#DejaVuSans-115"/>
     <use x="246.484375" xlink:href="#DejaVuSans-46"/>
     <use x="278.271484" xlink:href="#DejaVuSans-32"/>
     <use x="310.058594" xlink:href="#DejaVuSans-70"/>
     <use x="367.5" xlink:href="#DejaVuSans-117"/>
     <use x="430.878906" xlink:href="#DejaVuSans-110"/>
     <use x="494.257812" xlink:href="#DejaVuSans-99"/>
     <use x="549.238281" xlink:href="#DejaVuSans-116"/>
     <use x="588.447266" xlink:href="#DejaVuSans-105"/>
     <use x="616.230469" xlink:href="#DejaVuSans-111"/>
     <use x="677.412109" xlink:href="#DejaVuSans-110"/>
     <use x="740.791016" xlink:href="#DejaVuSans-115"/>
    </g>
   </g>
   <g id="legend_1">
    <g id="patch_7">
     <path d="M 97 71.91625 
L 156.867188 71.91625 
Q 158.867188 71.91625 158.867188 69.91625 
L 158.867188 41.56 
Q 158.867188 39.56 156.867188 39.56 
L 97 39.56 
Q 95 39.56 95 41.56 
L 95 69.91625 
Q 95 71.91625 97 71.91625 
z
" style="fill:#ffffff;opacity:0.8;stroke:#cccccc;stroke-linejoin:miter;"/>
    </g>
    <g id="line2d_21">
     <path d="M 99 47.658437 
L 119 47.658437 
" style="fill:none;stroke:#1f77b4;stroke-linecap:square;stroke-width:1.5;"/>
    </g>
    <g id="line2d_22"/>
    <g id="text_6">
     <!-- CGM -->
     <defs>
      <path d="M 59.515625 10.40625 
L 59.515625 29.984375 
L 43.40625 29.984375 
L 43.40625 38.09375 
L 69.28125 38.09375 
L 69.28125 6.78125 
Q 63.578125 2.734375 56.6875 0.65625 
Q 49.8125 -1.421875 42 -1.421875 
Q 24.90625 -1.421875 15.25 8.5625 
Q 5.609375 18.5625 5.609375 36.375 
Q 5.609375 54.25 15.25 64.234375 
Q 24.90625 74.21875 42 74.21875 
Q 49.125 74.21875 55.546875 72.453125 
Q 61.96875 70.703125 67.390625 67.28125 
L 67.390625 56.78125 
Q 61.921875 61.421875 55.765625 63.765625 
Q 49.609375 66.109375 42.828125 66.109375 
Q 29.4375 66.109375 22.71875 58.640625 
Q 16.015625 51.171875 16.015625 36.375 
Q 16.015625 21.625 22.71875 14.15625 
Q 29.4375 6.6875 42.828125 6.6875 
Q 48.046875 6.6875 52.140625 7.59375 
Q 56.25 8.5 59.515625 10.40625 
z
" id="DejaVuSans-71"/>
      <path d="M 9.8125 72.90625 
L 24.515625 72.90625 
L 43.109375 23.296875 
L 61.8125 72.90625 
L 76.515625 72.90625 
L 76.515625 0 
L 66.890625 0 
L 66.890625 64.015625 
L 48.09375 14.015625 
L 38.1875 14.015625 
L 19.390625 64.015625 
L 19.390625 0 
L 9.8125 0 
z
" id="DejaVuSans-77"/>
     </defs>
     <g transform="translate(127 51.158437)scale(0.1 -0.1)">
      <use xlink:href="#DejaVuSans-67"/>
      <use x="69.824219" xlink:href="#DejaVuSans-71"/>
      <use x="147.314453" xlink:href="#DejaVuSans-77"/>
     </g>
    </g>
    <g id="line2d_23">
     <path d="M 99 62.336562 
L 119 62.336562 
" style="fill:none;stroke:#ff7f0e;stroke-linecap:square;stroke-width:1.5;"/>
    </g>
    <g id="line2d_24"/>
    <g id="text_7">
     <!-- HARK -->
     <defs>
      <path d="M 9.8125 72.90625 
L 19.671875 72.90625 
L 19.671875 43.015625 
L 55.515625 43.015625 
L 55.515625 72.90625 
L 65.375 72.90625 
L 65.375 0 
L 55.515625 0 
L 55.515625 34.71875 
L 19.671875 34.71875 
L 19.671875 0 
L 9.8125 0 
z
" id="DejaVuSans-72"/>
      <path d="M 34.1875 63.1875 
L 20.796875 26.90625 
L 47.609375 26.90625 
z
M 28.609375 72.90625 
L 39.796875 72.90625 
L 67.578125 0 
L 57.328125 0 
L 50.6875 18.703125 
L 17.828125 18.703125 
L 11.1875 0 
L 0.78125 0 
z
" id="DejaVuSans-65"/>
      <path d="M 44.390625 34.1875 
Q 47.5625 33.109375 50.5625 29.59375 
Q 53.5625 26.078125 56.59375 19.921875 
L 66.609375 0 
L 56 0 
L 46.6875 18.703125 
Q 43.0625 26.03125 39.671875 28.421875 
Q 36.28125 30.8125 30.421875 30.8125 
L 19.671875 30.8125 
L 19.671875 0 
L 9.8125 0 
L 9.8125 72.90625 
L 32.078125 72.90625 
Q 44.578125 72.90625 50.734375 67.671875 
Q 56.890625 62.453125 56.890625 51.90625 
Q 56.890625 45.015625 53.6875 40.46875 
Q 50.484375 35.9375 44.390625 34.1875 
z
M 19.671875 64.796875 
L 19.671875 38.921875 
L 32.078125 38.921875 
Q 39.203125 38.921875 42.84375 42.21875 
Q 46.484375 45.515625 46.484375 51.90625 
Q 46.484375 58.296875 42.84375 61.546875 
Q 39.203125 64.796875 32.078125 64.796875 
z
" id="DejaVuSans-82"/>
      <path d="M 9.8125 72.90625 
L 19.671875 72.90625 
L 19.671875 42.09375 
L 52.390625 72.90625 
L 65.09375 72.90625 
L 28.90625 38.921875 
L 67.671875 0 
L 54.6875 0 
L 19.671875 35.109375 
L 19.671875 0 
L 9.8125 0 
z
" id="DejaVuSans-75"/>
     </defs>
     <g transform="translate(127 65.836562)scale(0.1 -0.1)">
      <use xlink:href="#DejaVuSans-72"/>
      <use x="75.195312" xlink:href="#DejaVuSans-65"/>
      <use x="143.603516" xlink:href="#DejaVuSans-82"/>
      <use x="213.085938" xlink:href="#DejaVuSans-75"/>
     </g>
    </g>
   </g>
  </g>
  <g id="axes_2">
   <g id="patch_8">
    <path d="M 394.363636 133.396364 
L 648 133.396364 
L 648 34.56 
L 394.363636 34.56 
z
" style="fill:#ffffff;"/>
   </g>
   <g id="matplotlib.axis_3">
    <g id="xtick_6">
     <g id="line2d_25">
      <path clip-path="url(#p8a866f255a)" d="M 403.586777 133.396364 
L 403.586777 34.56 
" style="fill:none;stroke:#b0b0b0;stroke-linecap:square;stroke-width:0.8;"/>
     </g>
     <g id="line2d_26">
      <g>
       <use style="stroke:#000000;stroke-width:0.8;" x="403.586777" xlink:href="#m78666dffb2" y="133.396364"/>
      </g>
     </g>
    </g>
    <g id="xtick_7">
     <g id="line2d_27">
      <path clip-path="url(#p8a866f255a)" d="M 461.231405 133.396364 
L 461.231405 34.56 
" style="fill:none;stroke:#b0b0b0;stroke-linecap:square;stroke-width:0.8;"/>
     </g>
     <g id="line2d_28">
      <g>
       <use style="stroke:#000000;stroke-width:0.8;" x="461.231405" xlink:href="#m78666dffb2" y="133.396364"/>
      </g>
     </g>
    </g>
    <g id="xtick_8">
     <g id="line2d_29">
      <path clip-path="url(#p8a866f255a)" d="M 518.876033 133.396364 
L 518.876033 34.56 
" style="fill:none;stroke:#b0b0b0;stroke-linecap:square;stroke-width:0.8;"/>
     </g>
     <g id="line2d_30">
      <g>
       <use style="stroke:#000000;stroke-width:0.8;" x="518.876033" xlink:href="#m78666dffb2" y="133.396364"/>
      </g>
     </g>
    </g>
    <g id="xtick_9">
     <g id="line2d_31">
      <path clip-path="url(#p8a866f255a)" d="M 576.520661 133.396364 
L 576.520661 34.56 
" style="fill:none;stroke:#b0b0b0;stroke-linecap:square;stroke-width:0.8;"/>
     </g>
     <g id="line2d_32">
      <g>
       <use style="stroke:#000000;stroke-width:0.8;" x="576.520661" xlink:href="#m78666dffb2" y="133.396364"/>
      </g>
     </g>
    </g>
    <g id="xtick_10">
     <g id="line2d_33">
      <path clip-path="url(#p8a866f255a)" d="M 634.165289 133.396364 
L 634.165289 34.56 
" style="fill:none;stroke:#b0b0b0;stroke-linecap:square;stroke-width:0.8;"/>
     </g>
     <g id="line2d_34">
      <g>
       <use style="stroke:#000000;stroke-width:0.8;" x="634.165289" xlink:href="#m78666dffb2" y="133.396364"/>
      </g>
     </g>
    </g>
   </g>
   <g id="matplotlib.axis_4">
    <g id="ytick_5">
     <g id="line2d_35">
      <path clip-path="url(#p8a866f255a)" d="M 394.363636 97.268555 
L 648 97.268555 
" style="fill:none;stroke:#b0b0b0;stroke-linecap:square;stroke-width:0.8;"/>
     </g>
     <g id="line2d_36">
      <g>
       <use style="stroke:#000000;stroke-width:0.8;" x="394.363636" xlink:href="#m6e53de17e7" y="97.268555"/>
      </g>
     </g>
     <g id="text_8">
      <!-- −1 -->
      <defs>
       <path d="M 10.59375 35.5 
L 73.1875 35.5 
L 73.1875 27.203125 
L 10.59375 27.203125 
z
" id="DejaVuSans-8722"/>
      </defs>
      <g transform="translate(372.621449 101.067773)scale(0.1 -0.1)">
       <use xlink:href="#DejaVuSans-8722"/>
       <use x="83.789062" xlink:href="#DejaVuSans-49"/>
      </g>
     </g>
    </g>
    <g id="ytick_6">
     <g id="line2d_37">
      <path clip-path="url(#p8a866f255a)" d="M 394.363636 51.398699 
L 648 51.398699 
" style="fill:none;stroke:#b0b0b0;stroke-linecap:square;stroke-width:0.8;"/>
     </g>
     <g id="line2d_38">
      <g>
       <use style="stroke:#000000;stroke-width:0.8;" x="394.363636" xlink:href="#m6e53de17e7" y="51.398699"/>
      </g>
     </g>
     <g id="text_9">
      <!-- 0 -->
      <g transform="translate(381.001136 55.197918)scale(0.1 -0.1)">
       <use xlink:href="#DejaVuSans-48"/>
      </g>
     </g>
    </g>
   </g>
   <g id="line2d_39">
    <path clip-path="url(#p8a866f255a)" d="M 405.892562 51.221303 
L 413.386364 50.644766 
L 413.96281 51.275453 
L 414.539256 50.518385 
L 415.115702 44.849813 
L 416.268595 56.186456 
L 416.845041 50.298332 
L 417.421488 55.82253 
L 417.997934 49.827063 
L 418.57438 55.249182 
L 419.150826 49.156343 
L 419.727273 54.485975 
L 420.303719 48.304935 
L 421.456612 58.756279 
L 422.033058 52.456449 
L 422.609504 57.580539 
L 423.18595 51.204239 
L 423.762397 56.23468 
L 424.338843 49.661344 
L 425.491736 59.386051 
L 426.068182 52.776414 
L 426.644628 57.631327 
L 427.221074 51.004558 
L 428.373967 60.670539 
L 428.950413 54.036034 
L 429.52686 58.869035 
L 430.103306 52.234538 
L 430.679752 57.067543 
L 431.256198 50.433039 
L 431.832645 55.266044 
L 432.409091 128.903802 
L 432.985537 122.269307 
L 433.561983 104.167385 
L 434.13843 109.000362 
L 434.714876 90.898397 
L 435.867769 77.629473 
L 436.444215 59.5275 
L 437.020661 64.360471 
L 438.173554 51.091558 
L 439.326446 60.757483 
L 439.902893 54.122998 
L 441.055785 63.789004 
L 441.632231 45.68706 
L 442.208678 39.052562 
L 442.785124 78.28792 
L 445.090909 51.750038 
L 445.667355 68.05049 
L 446.820248 54.78149 
L 447.97314 64.44744 
L 448.549587 57.812962 
L 449.126033 62.645956 
L 449.702479 56.011495 
L 450.278926 60.844504 
L 450.855372 54.210028 
L 451.431818 59.042999 
L 452.008264 52.408502 
L 453.161157 62.074444 
L 453.737603 55.439958 
L 454.31405 60.27294 
L 454.890496 53.638461 
L 456.043388 63.304443 
L 456.619835 56.669972 
L 457.196281 61.502969 
L 457.772727 54.868507 
L 458.92562 64.534477 
L 459.502066 57.899985 
L 460.078512 62.732956 
L 460.654959 56.098466 
L 461.231405 60.931441 
L 461.807851 54.296953 
L 462.960744 63.962914 
L 463.53719 57.328433 
L 464.113636 62.161417 
L 464.690083 55.526937 
L 465.266529 60.359922 
L 465.842975 53.725445 
L 466.995868 63.391423 
L 467.572314 56.756951 
L 468.14876 61.589945 
L 468.725207 54.955478 
L 469.878099 64.621465 
L 470.454545 57.986987 
L 471.030992 62.819964 
L 471.607438 56.185476 
L 472.760331 65.851427 
L 473.336777 59.21694 
L 473.913223 64.049918 
L 474.489669 57.415433 
L 475.066116 62.248412 
L 475.642562 55.613928 
L 476.795455 65.279889 
L 477.371901 58.645406 
L 477.948347 63.478387 
L 478.524793 56.843903 
L 479.10124 61.676886 
L 479.677686 55.042404 
L 480.830579 64.708371 
L 481.407025 58.073893 
L 481.983471 62.906878 
L 482.559917 56.272401 
L 483.71281 65.938375 
L 484.289256 59.3039 
L 484.865702 64.136888 
L 485.442149 57.502414 
L 486.595041 67.168395 
L 487.171488 60.533922 
L 487.747934 65.366914 
L 488.32438 58.732443 
L 488.900826 63.565436 
L 489.477273 56.930965 
L 490.630165 66.596935 
L 491.206612 59.962452 
L 491.783058 64.795431 
L 492.359504 58.160946 
L 493.512397 67.826905 
L 494.088843 61.19242 
L 494.665289 66.0254 
L 495.241736 59.390917 
L 495.818182 64.223897 
L 496.394628 57.589413 
L 497.547521 67.255375 
L 498.123967 60.620891 
L 498.700413 65.453872 
L 499.27686 58.819388 
L 500.429752 68.485349 
L 501.006198 61.850865 
L 501.582645 66.683846 
L 502.159091 60.049363 
L 502.735537 64.882344 
L 503.311983 58.247862 
L 504.464876 67.913825 
L 505.041322 61.279343 
L 505.617769 66.112325 
L 506.194215 59.477844 
L 507.347107 69.143809 
L 507.923554 62.509328 
L 508.5 67.342311 
L 509.076446 60.707831 
L 509.652893 65.540814 
L 510.229339 58.906334 
L 511.382231 68.572302 
L 511.958678 61.937822 
L 512.535124 66.770807 
L 513.11157 60.136327 
L 514.264463 69.802298 
L 514.840909 63.167819 
L 515.417355 68.000804 
L 515.993802 61.366326 
L 516.570248 66.199312 
L 517.146694 59.564833 
L 518.299587 69.230806 
L 518.876033 62.596328 
L 519.452479 67.429315 
L 520.028926 60.794838 
L 521.181818 70.460811 
L 521.758264 63.826335 
L 522.334711 68.659322 
L 522.911157 62.024845 
L 523.487603 66.857833 
L 524.06405 60.223357 
L 525.216942 69.889332 
L 525.793388 63.254856 
L 526.369835 68.087844 
L 526.946281 61.453369 
L 528.099174 71.119345 
L 528.67562 64.48487 
L 529.252066 69.317858 
L 529.828512 62.683383 
L 530.404959 67.516372 
L 530.981405 60.881895 
L 532.134298 70.547868 
L 532.710744 63.913391 
L 533.28719 68.746376 
L 533.863636 62.111894 
L 535.016529 71.777858 
L 535.592975 65.143377 
L 536.169421 69.976359 
L 536.745868 63.341877 
L 537.322314 68.174859 
L 537.89876 61.540377 
L 539.051653 71.206341 
L 539.628099 64.571859 
L 540.204545 69.404841 
L 540.780992 62.77036 
L 541.933884 72.436324 
L 542.510331 65.801842 
L 543.086777 70.634825 
L 543.663223 64.000343 
L 544.239669 68.833325 
L 544.816116 62.198843 
L 545.969008 71.864807 
L 546.545455 65.230325 
L 547.121901 70.063306 
L 547.698347 63.428824 
L 548.85124 73.094788 
L 549.427686 66.460306 
L 550.004132 71.293288 
L 550.580579 64.658806 
L 551.157025 69.491788 
L 551.733471 62.857307 
L 552.886364 72.523271 
L 553.46281 65.888789 
L 554.039256 70.721772 
L 554.615702 64.08729 
L 555.768595 73.753254 
L 556.345041 67.118773 
L 556.921488 71.951755 
L 557.497934 65.317274 
L 558.07438 70.150256 
L 558.650826 63.515775 
L 559.803719 73.18174 
L 560.380165 66.547259 
L 560.956612 71.380241 
L 561.533058 64.74576 
L 562.68595 74.411725 
L 563.262397 67.777244 
L 563.838843 72.610227 
L 564.415289 65.975746 
L 564.991736 70.808729 
L 565.568182 64.174248 
L 566.721074 73.840214 
L 567.297521 67.205733 
L 567.873967 72.038716 
L 568.450413 65.404235 
L 569.603306 75.070201 
L 570.179752 68.43572 
L 570.756198 73.268703 
L 571.332645 66.634222 
L 571.909091 71.467206 
L 572.485537 64.832725 
L 573.63843 74.498692 
L 574.214876 67.864211 
L 574.791322 72.697194 
L 575.367769 66.062714 
L 576.520661 75.72868 
L 577.097107 69.0942 
L 577.673554 73.927183 
L 578.25 67.292703 
L 578.826446 72.125686 
L 579.402893 65.491206 
L 580.555785 75.157173 
L 581.132231 68.522693 
L 581.708678 73.355676 
L 582.285124 66.721196 
L 583.438017 76.387163 
L 584.014463 69.752683 
L 584.590909 74.585667 
L 585.167355 67.951187 
L 585.743802 72.784171 
L 586.320248 66.149691 
L 587.47314 75.815658 
L 588.049587 69.181178 
L 588.626033 74.014162 
L 589.202479 67.379682 
L 590.355372 77.04565 
L 590.931818 70.41117 
L 591.508264 75.244154 
L 592.084711 68.609674 
L 592.661157 73.442658 
L 593.237603 66.808178 
L 594.390496 76.474146 
L 594.966942 69.839666 
L 595.543388 74.672651 
L 596.119835 68.038171 
L 597.272727 77.704139 
L 597.849174 71.069659 
L 598.42562 75.902644 
L 599.002066 69.268164 
L 599.578512 74.101148 
L 600.154959 67.466668 
L 601.307851 77.132637 
L 601.884298 70.498157 
L 602.460744 75.331142 
L 603.03719 68.696662 
L 604.190083 78.362631 
L 604.766529 71.728151 
L 605.342975 76.561136 
L 605.919421 69.926656 
L 606.495868 74.759641 
L 607.072314 68.125161 
L 608.225207 77.79113 
L 608.801653 71.156651 
L 609.378099 75.989635 
L 609.954545 69.355156 
L 611.107438 79.021125 
L 611.683884 72.386645 
L 612.260331 77.21963 
L 612.836777 70.585151 
L 613.413223 75.418135 
L 613.989669 68.783656 
L 615.142562 78.449625 
L 615.719008 71.815146 
L 616.295455 76.64813 
L 616.871901 70.013651 
L 618.024793 79.67962 
L 618.60124 73.045141 
L 619.177686 77.878126 
L 619.754132 71.243647 
L 620.330579 76.076631 
L 620.907025 69.442152 
L 622.059917 79.108122 
L 622.636364 72.473643 
L 623.21281 77.306627 
L 623.789256 70.672148 
L 624.942149 80.338118 
L 625.518595 73.703639 
L 626.095041 78.536623 
L 626.671488 71.902144 
L 627.247934 76.735129 
L 627.82438 70.10065 
L 628.977273 79.76662 
L 629.553719 73.132141 
L 630.130165 77.965126 
L 630.706612 71.330647 
L 631.859504 80.996616 
L 632.43595 74.362137 
L 633.012397 79.195122 
L 633.588843 72.560643 
L 634.165289 77.393628 
L 634.741736 70.759149 
L 635.894628 80.425119 
L 636.471074 73.79064 
L 636.471074 73.79064 
" style="fill:none;stroke:#1f77b4;stroke-linecap:square;stroke-width:1.5;"/>
   </g>
   <g id="patch_9">
    <path d="M 394.363636 133.396364 
L 394.363636 34.56 
" style="fill:none;stroke:#000000;stroke-linecap:square;stroke-linejoin:miter;stroke-width:0.8;"/>
   </g>
   <g id="patch_10">
    <path d="M 648 133.396364 
L 648 34.56 
" style="fill:none;stroke:#000000;stroke-linecap:square;stroke-linejoin:miter;stroke-width:0.8;"/>
   </g>
   <g id="patch_11">
    <path d="M 394.363636 133.396364 
L 648 133.396364 
" style="fill:none;stroke:#000000;stroke-linecap:square;stroke-linejoin:miter;stroke-width:0.8;"/>
   </g>
   <g id="patch_12">
    <path d="M 394.363636 34.56 
L 648 34.56 
" style="fill:none;stroke:#000000;stroke-linecap:square;stroke-linejoin:miter;stroke-width:0.8;"/>
   </g>
   <g id="text_10">
    <!-- Cons. Difference -->
    <defs>
     <path d="M 19.671875 64.796875 
L 19.671875 8.109375 
L 31.59375 8.109375 
Q 46.6875 8.109375 53.6875 14.9375 
Q 60.6875 21.78125 60.6875 36.53125 
Q 60.6875 51.171875 53.6875 57.984375 
Q 46.6875 64.796875 31.59375 64.796875 
z
M 9.8125 72.90625 
L 30.078125 72.90625 
Q 51.265625 72.90625 61.171875 64.09375 
Q 71.09375 55.28125 71.09375 36.53125 
Q 71.09375 17.671875 61.125 8.828125 
Q 51.171875 0 30.078125 0 
L 9.8125 0 
z
" id="DejaVuSans-68"/>
     <path d="M 37.109375 75.984375 
L 37.109375 68.5 
L 28.515625 68.5 
Q 23.6875 68.5 21.796875 66.546875 
Q 19.921875 64.59375 19.921875 59.515625 
L 19.921875 54.6875 
L 34.71875 54.6875 
L 34.71875 47.703125 
L 19.921875 47.703125 
L 19.921875 0 
L 10.890625 0 
L 10.890625 47.703125 
L 2.296875 47.703125 
L 2.296875 54.6875 
L 10.890625 54.6875 
L 10.890625 58.5 
Q 10.890625 67.625 15.140625 71.796875 
Q 19.390625 75.984375 28.609375 75.984375 
z
" id="DejaVuSans-102"/>
     <path d="M 56.203125 29.59375 
L 56.203125 25.203125 
L 14.890625 25.203125 
Q 15.484375 15.921875 20.484375 11.0625 
Q 25.484375 6.203125 34.421875 6.203125 
Q 39.59375 6.203125 44.453125 7.46875 
Q 49.3125 8.734375 54.109375 11.28125 
L 54.109375 2.78125 
Q 49.265625 0.734375 44.1875 -0.34375 
Q 39.109375 -1.421875 33.890625 -1.421875 
Q 20.796875 -1.421875 13.15625 6.1875 
Q 5.515625 13.8125 5.515625 26.8125 
Q 5.515625 40.234375 12.765625 48.109375 
Q 20.015625 56 32.328125 56 
Q 43.359375 56 49.78125 48.890625 
Q 56.203125 41.796875 56.203125 29.59375 
z
M 47.21875 32.234375 
Q 47.125 39.59375 43.09375 43.984375 
Q 39.0625 48.390625 32.421875 48.390625 
Q 24.90625 48.390625 20.390625 44.140625 
Q 15.875 39.890625 15.1875 32.171875 
z
" id="DejaVuSans-101"/>
     <path d="M 41.109375 46.296875 
Q 39.59375 47.171875 37.8125 47.578125 
Q 36.03125 48 33.890625 48 
Q 26.265625 48 22.1875 43.046875 
Q 18.109375 38.09375 18.109375 28.8125 
L 18.109375 0 
L 9.078125 0 
L 9.078125 54.6875 
L 18.109375 54.6875 
L 18.109375 46.1875 
Q 20.953125 51.171875 25.484375 53.578125 
Q 30.03125 56 36.53125 56 
Q 37.453125 56 38.578125 55.875 
Q 39.703125 55.765625 41.0625 55.515625 
z
" id="DejaVuSans-114"/>
    </defs>
    <g transform="translate(471.425881 28.56)scale(0.12 -0.12)">
     <use xlink:href="#DejaVuSans-67"/>
     <use x="69.824219" xlink:href="#DejaVuSans-111"/>
     <use x="131.005859" xlink:href="#DejaVuSans-110"/>
     <use x="194.384766" xlink:href="#DejaVuSans-115"/>
     <use x="246.484375" xlink:href="#DejaVuSans-46"/>
     <use x="278.271484" xlink:href="#DejaVuSans-32"/>
     <use x="310.058594" xlink:href="#DejaVuSans-68"/>
     <use x="387.060547" xlink:href="#DejaVuSans-105"/>
     <use x="414.84375" xlink:href="#DejaVuSans-102"/>
     <use x="450.048828" xlink:href="#DejaVuSans-102"/>
     <use x="485.253906" xlink:href="#DejaVuSans-101"/>
     <use x="546.777344" xlink:href="#DejaVuSans-114"/>
     <use x="587.859375" xlink:href="#DejaVuSans-101"/>
     <use x="649.382812" xlink:href="#DejaVuSans-110"/>
     <use x="712.761719" xlink:href="#DejaVuSans-99"/>
     <use x="767.742188" xlink:href="#DejaVuSans-101"/>
    </g>
   </g>
   <g id="legend_2">
    <g id="patch_13">
     <path d="M 547.809375 57.238125 
L 641 57.238125 
Q 643 57.238125 643 55.238125 
L 643 41.56 
Q 643 39.56 641 39.56 
L 547.809375 39.56 
Q 545.809375 39.56 545.809375 41.56 
L 545.809375 55.238125 
Q 545.809375 57.238125 547.809375 57.238125 
z
" style="fill:#ffffff;opacity:0.8;stroke:#cccccc;stroke-linejoin:miter;"/>
    </g>
    <g id="line2d_40">
     <path d="M 549.809375 47.658437 
L 569.809375 47.658437 
" style="fill:none;stroke:#1f77b4;stroke-linecap:square;stroke-width:1.5;"/>
    </g>
    <g id="line2d_41"/>
    <g id="text_11">
     <!-- CGM - HARK -->
     <defs>
      <path d="M 4.890625 31.390625 
L 31.203125 31.390625 
L 31.203125 23.390625 
L 4.890625 23.390625 
z
" id="DejaVuSans-45"/>
     </defs>
     <g transform="translate(577.809375 51.158437)scale(0.1 -0.1)">
      <use xlink:href="#DejaVuSans-67"/>
      <use x="69.824219" xlink:href="#DejaVuSans-71"/>
      <use x="147.314453" xlink:href="#DejaVuSans-77"/>
      <use x="233.59375" xlink:href="#DejaVuSans-32"/>
      <use x="265.380859" xlink:href="#DejaVuSans-45"/>
      <use x="301.464844" xlink:href="#DejaVuSans-32"/>
      <use x="333.251953" xlink:href="#DejaVuSans-72"/>
      <use x="408.447266" xlink:href="#DejaVuSans-65"/>
      <use x="476.855469" xlink:href="#DejaVuSans-82"/>
      <use x="546.337891" xlink:href="#DejaVuSans-75"/>
     </g>
    </g>
   </g>
  </g>
  <g id="axes_3">
   <g id="patch_14">
    <path d="M 90 252 
L 343.636364 252 
L 343.636364 153.163636 
L 90 153.163636 
z
" style="fill:#ffffff;"/>
   </g>
   <g id="matplotlib.axis_5">
    <g id="xtick_11">
     <g id="line2d_42">
      <path clip-path="url(#p4e817bf8ce)" d="M 99.22314 252 
L 99.22314 153.163636 
" style="fill:none;stroke:#b0b0b0;stroke-linecap:square;stroke-width:0.8;"/>
     </g>
     <g id="line2d_43">
      <g>
       <use style="stroke:#000000;stroke-width:0.8;" x="99.22314" xlink:href="#m78666dffb2" y="252"/>
      </g>
     </g>
     <g id="text_12">
      <!-- 0 -->
      <g transform="translate(96.04189 266.598437)scale(0.1 -0.1)">
       <use xlink:href="#DejaVuSans-48"/>
      </g>
     </g>
    </g>
    <g id="xtick_12">
     <g id="line2d_44">
      <path clip-path="url(#p4e817bf8ce)" d="M 156.867769 252 
L 156.867769 153.163636 
" style="fill:none;stroke:#b0b0b0;stroke-linecap:square;stroke-width:0.8;"/>
     </g>
     <g id="line2d_45">
      <g>
       <use style="stroke:#000000;stroke-width:0.8;" x="156.867769" xlink:href="#m78666dffb2" y="252"/>
      </g>
     </g>
     <g id="text_13">
      <!-- 100 -->
      <g transform="translate(147.324019 266.598437)scale(0.1 -0.1)">
       <use xlink:href="#DejaVuSans-49"/>
       <use x="63.623047" xlink:href="#DejaVuSans-48"/>
       <use x="127.246094" xlink:href="#DejaVuSans-48"/>
      </g>
     </g>
    </g>
    <g id="xtick_13">
     <g id="line2d_46">
      <path clip-path="url(#p4e817bf8ce)" d="M 214.512397 252 
L 214.512397 153.163636 
" style="fill:none;stroke:#b0b0b0;stroke-linecap:square;stroke-width:0.8;"/>
     </g>
     <g id="line2d_47">
      <g>
       <use style="stroke:#000000;stroke-width:0.8;" x="214.512397" xlink:href="#m78666dffb2" y="252"/>
      </g>
     </g>
     <g id="text_14">
      <!-- 200 -->
      <defs>
       <path d="M 19.1875 8.296875 
L 53.609375 8.296875 
L 53.609375 0 
L 7.328125 0 
L 7.328125 8.296875 
Q 12.9375 14.109375 22.625 23.890625 
Q 32.328125 33.6875 34.8125 36.53125 
Q 39.546875 41.84375 41.421875 45.53125 
Q 43.3125 49.21875 43.3125 52.78125 
Q 43.3125 58.59375 39.234375 62.25 
Q 35.15625 65.921875 28.609375 65.921875 
Q 23.96875 65.921875 18.8125 64.3125 
Q 13.671875 62.703125 7.8125 59.421875 
L 7.8125 69.390625 
Q 13.765625 71.78125 18.9375 73 
Q 24.125 74.21875 28.421875 74.21875 
Q 39.75 74.21875 46.484375 68.546875 
Q 53.21875 62.890625 53.21875 53.421875 
Q 53.21875 48.921875 51.53125 44.890625 
Q 49.859375 40.875 45.40625 35.40625 
Q 44.1875 33.984375 37.640625 27.21875 
Q 31.109375 20.453125 19.1875 8.296875 
z
" id="DejaVuSans-50"/>
      </defs>
      <g transform="translate(204.968647 266.598437)scale(0.1 -0.1)">
       <use xlink:href="#DejaVuSans-50"/>
       <use x="63.623047" xlink:href="#DejaVuSans-48"/>
       <use x="127.246094" xlink:href="#DejaVuSans-48"/>
      </g>
     </g>
    </g>
    <g id="xtick_14">
     <g id="line2d_48">
      <path clip-path="url(#p4e817bf8ce)" d="M 272.157025 252 
L 272.157025 153.163636 
" style="fill:none;stroke:#b0b0b0;stroke-linecap:square;stroke-width:0.8;"/>
     </g>
     <g id="line2d_49">
      <g>
       <use style="stroke:#000000;stroke-width:0.8;" x="272.157025" xlink:href="#m78666dffb2" y="252"/>
      </g>
     </g>
     <g id="text_15">
      <!-- 300 -->
      <defs>
       <path d="M 40.578125 39.3125 
Q 47.65625 37.796875 51.625 33 
Q 55.609375 28.21875 55.609375 21.1875 
Q 55.609375 10.40625 48.1875 4.484375 
Q 40.765625 -1.421875 27.09375 -1.421875 
Q 22.515625 -1.421875 17.65625 -0.515625 
Q 12.796875 0.390625 7.625 2.203125 
L 7.625 11.71875 
Q 11.71875 9.328125 16.59375 8.109375 
Q 21.484375 6.890625 26.8125 6.890625 
Q 36.078125 6.890625 40.9375 10.546875 
Q 45.796875 14.203125 45.796875 21.1875 
Q 45.796875 27.640625 41.28125 31.265625 
Q 36.765625 34.90625 28.71875 34.90625 
L 20.21875 34.90625 
L 20.21875 43.015625 
L 29.109375 43.015625 
Q 36.375 43.015625 40.234375 45.921875 
Q 44.09375 48.828125 44.09375 54.296875 
Q 44.09375 59.90625 40.109375 62.90625 
Q 36.140625 65.921875 28.71875 65.921875 
Q 24.65625 65.921875 20.015625 65.03125 
Q 15.375 64.15625 9.8125 62.3125 
L 9.8125 71.09375 
Q 15.4375 72.65625 20.34375 73.4375 
Q 25.25 74.21875 29.59375 74.21875 
Q 40.828125 74.21875 47.359375 69.109375 
Q 53.90625 64.015625 53.90625 55.328125 
Q 53.90625 49.265625 50.4375 45.09375 
Q 46.96875 40.921875 40.578125 39.3125 
z
" id="DejaVuSans-51"/>
      </defs>
      <g transform="translate(262.613275 266.598437)scale(0.1 -0.1)">
       <use xlink:href="#DejaVuSans-51"/>
       <use x="63.623047" xlink:href="#DejaVuSans-48"/>
       <use x="127.246094" xlink:href="#DejaVuSans-48"/>
      </g>
     </g>
    </g>
    <g id="xtick_15">
     <g id="line2d_50">
      <path clip-path="url(#p4e817bf8ce)" d="M 329.801653 252 
L 329.801653 153.163636 
" style="fill:none;stroke:#b0b0b0;stroke-linecap:square;stroke-width:0.8;"/>
     </g>
     <g id="line2d_51">
      <g>
       <use style="stroke:#000000;stroke-width:0.8;" x="329.801653" xlink:href="#m78666dffb2" y="252"/>
      </g>
     </g>
     <g id="text_16">
      <!-- 400 -->
      <defs>
       <path d="M 37.796875 64.3125 
L 12.890625 25.390625 
L 37.796875 25.390625 
z
M 35.203125 72.90625 
L 47.609375 72.90625 
L 47.609375 25.390625 
L 58.015625 25.390625 
L 58.015625 17.1875 
L 47.609375 17.1875 
L 47.609375 0 
L 37.796875 0 
L 37.796875 17.1875 
L 4.890625 17.1875 
L 4.890625 26.703125 
z
" id="DejaVuSans-52"/>
      </defs>
      <g transform="translate(320.257903 266.598437)scale(0.1 -0.1)">
       <use xlink:href="#DejaVuSans-52"/>
       <use x="63.623047" xlink:href="#DejaVuSans-48"/>
       <use x="127.246094" xlink:href="#DejaVuSans-48"/>
      </g>
     </g>
    </g>
   </g>
   <g id="matplotlib.axis_6">
    <g id="ytick_7">
     <g id="line2d_52">
      <path clip-path="url(#p4e817bf8ce)" d="M 90 247.507438 
L 343.636364 247.507438 
" style="fill:none;stroke:#b0b0b0;stroke-linecap:square;stroke-width:0.8;"/>
     </g>
     <g id="line2d_53">
      <g>
       <use style="stroke:#000000;stroke-width:0.8;" x="90" xlink:href="#m6e53de17e7" y="247.507438"/>
      </g>
     </g>
     <g id="text_17">
      <!-- 0.0 -->
      <g transform="translate(67.096875 251.306657)scale(0.1 -0.1)">
       <use xlink:href="#DejaVuSans-48"/>
       <use x="63.623047" xlink:href="#DejaVuSans-46"/>
       <use x="95.410156" xlink:href="#DejaVuSans-48"/>
      </g>
     </g>
    </g>
    <g id="ytick_8">
     <g id="line2d_54">
      <path clip-path="url(#p4e817bf8ce)" d="M 90 202.581818 
L 343.636364 202.581818 
" style="fill:none;stroke:#b0b0b0;stroke-linecap:square;stroke-width:0.8;"/>
     </g>
     <g id="line2d_55">
      <g>
       <use style="stroke:#000000;stroke-width:0.8;" x="90" xlink:href="#m6e53de17e7" y="202.581818"/>
      </g>
     </g>
     <g id="text_18">
      <!-- 0.5 -->
      <g transform="translate(67.096875 206.381037)scale(0.1 -0.1)">
       <use xlink:href="#DejaVuSans-48"/>
       <use x="63.623047" xlink:href="#DejaVuSans-46"/>
       <use x="95.410156" xlink:href="#DejaVuSans-53"/>
      </g>
     </g>
    </g>
    <g id="ytick_9">
     <g id="line2d_56">
      <path clip-path="url(#p4e817bf8ce)" d="M 90 157.656198 
L 343.636364 157.656198 
" style="fill:none;stroke:#b0b0b0;stroke-linecap:square;stroke-width:0.8;"/>
     </g>
     <g id="line2d_57">
      <g>
       <use style="stroke:#000000;stroke-width:0.8;" x="90" xlink:href="#m6e53de17e7" y="157.656198"/>
      </g>
     </g>
     <g id="text_19">
      <!-- 1.0 -->
      <g transform="translate(67.096875 161.455417)scale(0.1 -0.1)">
       <use xlink:href="#DejaVuSans-49"/>
       <use x="63.623047" xlink:href="#DejaVuSans-46"/>
       <use x="95.410156" xlink:href="#DejaVuSans-48"/>
      </g>
     </g>
    </g>
   </g>
   <g id="line2d_58">
    <path clip-path="url(#p4e817bf8ce)" d="M 101.528926 247.507438 
L 109.022727 247.507438 
L 109.599174 157.656198 
L 114.78719 157.656198 
L 115.363636 158.554711 
L 117.092975 175.626446 
L 117.669421 178.321983 
L 118.245868 182.814545 
L 118.822314 184.61157 
L 119.39876 188.20562 
L 119.975207 190.002645 
L 121.128099 195.393719 
L 121.704545 196.292231 
L 122.857438 199.886281 
L 123.433884 200.784793 
L 124.010331 202.581818 
L 127.469008 207.972893 
L 128.045455 210.66843 
L 128.621901 211.566942 
L 129.198347 211.566942 
L 129.774793 212.465455 
L 130.927686 212.465455 
L 131.504132 213.363967 
L 132.080579 213.363967 
L 132.657025 214.262479 
L 133.233471 214.262479 
L 133.809917 215.160992 
L 134.386364 214.262479 
L 134.96281 218.755041 
L 135.539256 222.349091 
L 136.115702 210.66843 
L 137.268595 216.059504 
L 137.845041 221.450579 
L 138.421488 210.66843 
L 138.997934 216.958017 
L 139.57438 216.958017 
L 140.727273 209.769917 
L 141.303719 224.146116 
L 142.456612 220.552066 
L 143.033058 219.653554 
L 143.609504 223.247603 
L 144.18595 223.247603 
L 144.762397 221.450579 
L 145.338843 220.552066 
L 145.915289 220.552066 
L 146.491736 221.450579 
L 149.950413 221.450579 
L 150.52686 222.349091 
L 153.985537 222.349091 
L 154.561983 223.247603 
L 158.020661 223.247603 
L 158.597107 224.146116 
L 163.785124 224.146116 
L 164.36157 225.044628 
L 170.126033 225.044628 
L 170.702479 225.94314 
L 178.772727 225.94314 
L 179.349174 226.841653 
L 190.878099 226.841653 
L 191.454545 227.740165 
L 207.018595 227.740165 
L 207.595041 228.638678 
L 231.805785 228.638678 
L 232.382231 229.53719 
L 273.309917 229.53719 
L 273.886364 230.435702 
L 332.107438 230.435702 
L 332.107438 230.435702 
" style="fill:none;stroke:#1f77b4;stroke-linecap:square;stroke-width:1.5;"/>
   </g>
   <g id="line2d_59">
    <path clip-path="url(#p4e817bf8ce)" d="M 101.528926 157.656198 
L 104.987603 157.656198 
L 105.56405 159.137829 
L 106.716942 168.953016 
L 107.869835 176.289172 
L 109.022727 182.041238 
L 110.17562 186.582718 
L 111.328512 190.258785 
L 112.481405 193.296862 
L 113.634298 195.846863 
L 115.363636 198.989587 
L 117.092975 201.523756 
L 118.822314 203.612108 
L 120.551653 205.360555 
L 122.280992 206.846756 
L 124.586777 208.5148 
L 126.892562 209.902102 
L 129.774793 211.344098 
L 132.657025 212.537367 
L 136.115702 213.721937 
L 140.150826 214.853024 
L 144.762397 215.898543 
L 150.52686 216.940225 
L 156.867769 217.848032 
L 164.36157 218.692215 
L 174.161157 219.538792 
L 185.690083 220.291702 
L 199.524793 220.967154 
L 217.394628 221.604694 
L 240.452479 222.187999 
L 269.274793 222.693821 
L 307.320248 223.149047 
L 332.107438 223.365781 
L 332.107438 223.365781 
" style="fill:none;stroke:#ff7f0e;stroke-linecap:square;stroke-width:1.5;"/>
   </g>
   <g id="patch_15">
    <path d="M 90 252 
L 90 153.163636 
" style="fill:none;stroke:#000000;stroke-linecap:square;stroke-linejoin:miter;stroke-width:0.8;"/>
   </g>
   <g id="patch_16">
    <path d="M 343.636364 252 
L 343.636364 153.163636 
" style="fill:none;stroke:#000000;stroke-linecap:square;stroke-linejoin:miter;stroke-width:0.8;"/>
   </g>
   <g id="patch_17">
    <path d="M 90 252 
L 343.636364 252 
" style="fill:none;stroke:#000000;stroke-linecap:square;stroke-linejoin:miter;stroke-width:0.8;"/>
   </g>
   <g id="patch_18">
    <path d="M 90 153.163636 
L 343.636364 153.163636 
" style="fill:none;stroke:#000000;stroke-linecap:square;stroke-linejoin:miter;stroke-width:0.8;"/>
   </g>
   <g id="text_20">
    <!-- Risky Sh. Functions -->
    <defs>
     <path d="M 9.078125 75.984375 
L 18.109375 75.984375 
L 18.109375 31.109375 
L 44.921875 54.6875 
L 56.390625 54.6875 
L 27.390625 29.109375 
L 57.625 0 
L 45.90625 0 
L 18.109375 26.703125 
L 18.109375 0 
L 9.078125 0 
z
" id="DejaVuSans-107"/>
     <path d="M 32.171875 -5.078125 
Q 28.375 -14.84375 24.75 -17.8125 
Q 21.140625 -20.796875 15.09375 -20.796875 
L 7.90625 -20.796875 
L 7.90625 -13.28125 
L 13.1875 -13.28125 
Q 16.890625 -13.28125 18.9375 -11.515625 
Q 21 -9.765625 23.484375 -3.21875 
L 25.09375 0.875 
L 2.984375 54.6875 
L 12.5 54.6875 
L 29.59375 11.921875 
L 46.6875 54.6875 
L 56.203125 54.6875 
z
" id="DejaVuSans-121"/>
     <path d="M 53.515625 70.515625 
L 53.515625 60.890625 
Q 47.90625 63.578125 42.921875 64.890625 
Q 37.9375 66.21875 33.296875 66.21875 
Q 25.25 66.21875 20.875 63.09375 
Q 16.5 59.96875 16.5 54.203125 
Q 16.5 49.359375 19.40625 46.890625 
Q 22.3125 44.4375 30.421875 42.921875 
L 36.375 41.703125 
Q 47.40625 39.59375 52.65625 34.296875 
Q 57.90625 29 57.90625 20.125 
Q 57.90625 9.515625 50.796875 4.046875 
Q 43.703125 -1.421875 29.984375 -1.421875 
Q 24.8125 -1.421875 18.96875 -0.25 
Q 13.140625 0.921875 6.890625 3.21875 
L 6.890625 13.375 
Q 12.890625 10.015625 18.65625 8.296875 
Q 24.421875 6.59375 29.984375 6.59375 
Q 38.421875 6.59375 43.015625 9.90625 
Q 47.609375 13.234375 47.609375 19.390625 
Q 47.609375 24.75 44.3125 27.78125 
Q 41.015625 30.8125 33.5 32.328125 
L 27.484375 33.5 
Q 16.453125 35.6875 11.515625 40.375 
Q 6.59375 45.0625 6.59375 53.421875 
Q 6.59375 63.09375 13.40625 68.65625 
Q 20.21875 74.21875 32.171875 74.21875 
Q 37.3125 74.21875 42.625 73.28125 
Q 47.953125 72.359375 53.515625 70.515625 
z
" id="DejaVuSans-83"/>
     <path d="M 54.890625 33.015625 
L 54.890625 0 
L 45.90625 0 
L 45.90625 32.71875 
Q 45.90625 40.484375 42.875 44.328125 
Q 39.84375 48.1875 33.796875 48.1875 
Q 26.515625 48.1875 22.3125 43.546875 
Q 18.109375 38.921875 18.109375 30.90625 
L 18.109375 0 
L 9.078125 0 
L 9.078125 75.984375 
L 18.109375 75.984375 
L 18.109375 46.1875 
Q 21.34375 51.125 25.703125 53.5625 
Q 30.078125 56 35.796875 56 
Q 45.21875 56 50.046875 50.171875 
Q 54.890625 44.34375 54.890625 33.015625 
z
" id="DejaVuSans-104"/>
    </defs>
    <g transform="translate(158.532869 147.163636)scale(0.12 -0.12)">
     <use xlink:href="#DejaVuSans-82"/>
     <use x="69.482422" xlink:href="#DejaVuSans-105"/>
     <use x="97.265625" xlink:href="#DejaVuSans-115"/>
     <use x="149.365234" xlink:href="#DejaVuSans-107"/>
     <use x="207.228516" xlink:href="#DejaVuSans-121"/>
     <use x="266.408203" xlink:href="#DejaVuSans-32"/>
     <use x="298.195312" xlink:href="#DejaVuSans-83"/>
     <use x="361.671875" xlink:href="#DejaVuSans-104"/>
     <use x="425.050781" xlink:href="#DejaVuSans-46"/>
     <use x="456.837891" xlink:href="#DejaVuSans-32"/>
     <use x="488.625" xlink:href="#DejaVuSans-70"/>
     <use x="546.066406" xlink:href="#DejaVuSans-117"/>
     <use x="609.445312" xlink:href="#DejaVuSans-110"/>
     <use x="672.824219" xlink:href="#DejaVuSans-99"/>
     <use x="727.804688" xlink:href="#DejaVuSans-116"/>
     <use x="767.013672" xlink:href="#DejaVuSans-105"/>
     <use x="794.796875" xlink:href="#DejaVuSans-111"/>
     <use x="855.978516" xlink:href="#DejaVuSans-110"/>
     <use x="919.357422" xlink:href="#DejaVuSans-115"/>
    </g>
   </g>
   <g id="legend_3">
    <g id="patch_19">
     <path d="M 276.769176 190.519886 
L 336.636364 190.519886 
Q 338.636364 190.519886 338.636364 188.519886 
L 338.636364 160.163636 
Q 338.636364 158.163636 336.636364 158.163636 
L 276.769176 158.163636 
Q 274.769176 158.163636 274.769176 160.163636 
L 274.769176 188.519886 
Q 274.769176 190.519886 276.769176 190.519886 
z
" style="fill:#ffffff;opacity:0.8;stroke:#cccccc;stroke-linejoin:miter;"/>
    </g>
    <g id="line2d_60">
     <path d="M 278.769176 166.262074 
L 298.769176 166.262074 
" style="fill:none;stroke:#1f77b4;stroke-linecap:square;stroke-width:1.5;"/>
    </g>
    <g id="line2d_61"/>
    <g id="text_21">
     <!-- CGM -->
     <g transform="translate(306.769176 169.762074)scale(0.1 -0.1)">
      <use xlink:href="#DejaVuSans-67"/>
      <use x="69.824219" xlink:href="#DejaVuSans-71"/>
      <use x="147.314453" xlink:href="#DejaVuSans-77"/>
     </g>
    </g>
    <g id="line2d_62">
     <path d="M 278.769176 180.940199 
L 298.769176 180.940199 
" style="fill:none;stroke:#ff7f0e;stroke-linecap:square;stroke-width:1.5;"/>
    </g>
    <g id="line2d_63"/>
    <g id="text_22">
     <!-- HARK -->
     <g transform="translate(306.769176 184.440199)scale(0.1 -0.1)">
      <use xlink:href="#DejaVuSans-72"/>
      <use x="75.195312" xlink:href="#DejaVuSans-65"/>
      <use x="143.603516" xlink:href="#DejaVuSans-82"/>
      <use x="213.085938" xlink:href="#DejaVuSans-75"/>
     </g>
    </g>
   </g>
  </g>
  <g id="axes_4">
   <g id="patch_20">
    <path d="M 394.363636 252 
L 648 252 
L 648 153.163636 
L 394.363636 153.163636 
z
" style="fill:#ffffff;"/>
   </g>
   <g id="matplotlib.axis_7">
    <g id="xtick_16">
     <g id="line2d_64">
      <path clip-path="url(#p28164413ac)" d="M 403.586777 252 
L 403.586777 153.163636 
" style="fill:none;stroke:#b0b0b0;stroke-linecap:square;stroke-width:0.8;"/>
     </g>
     <g id="line2d_65">
      <g>
       <use style="stroke:#000000;stroke-width:0.8;" x="403.586777" xlink:href="#m78666dffb2" y="252"/>
      </g>
     </g>
     <g id="text_23">
      <!-- 0 -->
      <g transform="translate(400.405527 266.598437)scale(0.1 -0.1)">
       <use xlink:href="#DejaVuSans-48"/>
      </g>
     </g>
    </g>
    <g id="xtick_17">
     <g id="line2d_66">
      <path clip-path="url(#p28164413ac)" d="M 461.231405 252 
L 461.231405 153.163636 
" style="fill:none;stroke:#b0b0b0;stroke-linecap:square;stroke-width:0.8;"/>
     </g>
     <g id="line2d_67">
      <g>
       <use style="stroke:#000000;stroke-width:0.8;" x="461.231405" xlink:href="#m78666dffb2" y="252"/>
      </g>
     </g>
     <g id="text_24">
      <!-- 100 -->
      <g transform="translate(451.687655 266.598437)scale(0.1 -0.1)">
       <use xlink:href="#DejaVuSans-49"/>
       <use x="63.623047" xlink:href="#DejaVuSans-48"/>
       <use x="127.246094" xlink:href="#DejaVuSans-48"/>
      </g>
     </g>
    </g>
    <g id="xtick_18">
     <g id="line2d_68">
      <path clip-path="url(#p28164413ac)" d="M 518.876033 252 
L 518.876033 153.163636 
" style="fill:none;stroke:#b0b0b0;stroke-linecap:square;stroke-width:0.8;"/>
     </g>
     <g id="line2d_69">
      <g>
       <use style="stroke:#000000;stroke-width:0.8;" x="518.876033" xlink:href="#m78666dffb2" y="252"/>
      </g>
     </g>
     <g id="text_25">
      <!-- 200 -->
      <g transform="translate(509.332283 266.598437)scale(0.1 -0.1)">
       <use xlink:href="#DejaVuSans-50"/>
       <use x="63.623047" xlink:href="#DejaVuSans-48"/>
       <use x="127.246094" xlink:href="#DejaVuSans-48"/>
      </g>
     </g>
    </g>
    <g id="xtick_19">
     <g id="line2d_70">
      <path clip-path="url(#p28164413ac)" d="M 576.520661 252 
L 576.520661 153.163636 
" style="fill:none;stroke:#b0b0b0;stroke-linecap:square;stroke-width:0.8;"/>
     </g>
     <g id="line2d_71">
      <g>
       <use style="stroke:#000000;stroke-width:0.8;" x="576.520661" xlink:href="#m78666dffb2" y="252"/>
      </g>
     </g>
     <g id="text_26">
      <!-- 300 -->
      <g transform="translate(566.976911 266.598437)scale(0.1 -0.1)">
       <use xlink:href="#DejaVuSans-51"/>
       <use x="63.623047" xlink:href="#DejaVuSans-48"/>
       <use x="127.246094" xlink:href="#DejaVuSans-48"/>
      </g>
     </g>
    </g>
    <g id="xtick_20">
     <g id="line2d_72">
      <path clip-path="url(#p28164413ac)" d="M 634.165289 252 
L 634.165289 153.163636 
" style="fill:none;stroke:#b0b0b0;stroke-linecap:square;stroke-width:0.8;"/>
     </g>
     <g id="line2d_73">
      <g>
       <use style="stroke:#000000;stroke-width:0.8;" x="634.165289" xlink:href="#m78666dffb2" y="252"/>
      </g>
     </g>
     <g id="text_27">
      <!-- 400 -->
      <g transform="translate(624.621539 266.598437)scale(0.1 -0.1)">
       <use xlink:href="#DejaVuSans-52"/>
       <use x="63.623047" xlink:href="#DejaVuSans-48"/>
       <use x="127.246094" xlink:href="#DejaVuSans-48"/>
      </g>
     </g>
    </g>
   </g>
   <g id="matplotlib.axis_8">
    <g id="ytick_10">
     <g id="line2d_74">
      <path clip-path="url(#p28164413ac)" d="M 394.363636 247.507438 
L 648 247.507438 
" style="fill:none;stroke:#b0b0b0;stroke-linecap:square;stroke-width:0.8;"/>
     </g>
     <g id="line2d_75">
      <g>
       <use style="stroke:#000000;stroke-width:0.8;" x="394.363636" xlink:href="#m6e53de17e7" y="247.507438"/>
      </g>
     </g>
     <g id="text_28">
      <!-- −1.0 -->
      <g transform="translate(363.080824 251.306657)scale(0.1 -0.1)">
       <use xlink:href="#DejaVuSans-8722"/>
       <use x="83.789062" xlink:href="#DejaVuSans-49"/>
       <use x="147.412109" xlink:href="#DejaVuSans-46"/>
       <use x="179.199219" xlink:href="#DejaVuSans-48"/>
      </g>
     </g>
    </g>
    <g id="ytick_11">
     <g id="line2d_76">
      <path clip-path="url(#p28164413ac)" d="M 394.363636 216.524684 
L 648 216.524684 
" style="fill:none;stroke:#b0b0b0;stroke-linecap:square;stroke-width:0.8;"/>
     </g>
     <g id="line2d_77">
      <g>
       <use style="stroke:#000000;stroke-width:0.8;" x="394.363636" xlink:href="#m6e53de17e7" y="216.524684"/>
      </g>
     </g>
     <g id="text_29">
      <!-- −0.5 -->
      <g transform="translate(363.080824 220.323903)scale(0.1 -0.1)">
       <use xlink:href="#DejaVuSans-8722"/>
       <use x="83.789062" xlink:href="#DejaVuSans-48"/>
       <use x="147.412109" xlink:href="#DejaVuSans-46"/>
       <use x="179.199219" xlink:href="#DejaVuSans-53"/>
      </g>
     </g>
    </g>
    <g id="ytick_12">
     <g id="line2d_78">
      <path clip-path="url(#p28164413ac)" d="M 394.363636 185.541931 
L 648 185.541931 
" style="fill:none;stroke:#b0b0b0;stroke-linecap:square;stroke-width:0.8;"/>
     </g>
     <g id="line2d_79">
      <g>
       <use style="stroke:#000000;stroke-width:0.8;" x="394.363636" xlink:href="#m6e53de17e7" y="185.541931"/>
      </g>
     </g>
     <g id="text_30">
      <!-- 0.0 -->
      <g transform="translate(371.460511 189.34115)scale(0.1 -0.1)">
       <use xlink:href="#DejaVuSans-48"/>
       <use x="63.623047" xlink:href="#DejaVuSans-46"/>
       <use x="95.410156" xlink:href="#DejaVuSans-48"/>
      </g>
     </g>
    </g>
    <g id="ytick_13">
     <g id="line2d_80">
      <path clip-path="url(#p28164413ac)" d="M 394.363636 154.559177 
L 648 154.559177 
" style="fill:none;stroke:#b0b0b0;stroke-linecap:square;stroke-width:0.8;"/>
     </g>
     <g id="line2d_81">
      <g>
       <use style="stroke:#000000;stroke-width:0.8;" x="394.363636" xlink:href="#m6e53de17e7" y="154.559177"/>
      </g>
     </g>
     <g id="text_31">
      <!-- 0.5 -->
      <g transform="translate(371.460511 158.358396)scale(0.1 -0.1)">
       <use xlink:href="#DejaVuSans-48"/>
       <use x="63.623047" xlink:href="#DejaVuSans-46"/>
       <use x="95.410156" xlink:href="#DejaVuSans-53"/>
      </g>
     </g>
    </g>
   </g>
   <g id="line2d_82">
    <path clip-path="url(#p28164413ac)" d="M 405.892562 247.507438 
L 409.35124 247.507438 
L 409.927686 246.485638 
L 411.080579 239.716638 
L 412.233471 234.657291 
L 413.386364 230.690404 
L 413.96281 167.071791 
L 415.115702 164.261371 
L 416.268595 161.963157 
L 417.421488 160.046874 
L 419.150826 157.70616 
L 419.727273 157.656198 
L 420.303719 160.750981 
L 421.456612 167.681967 
L 422.033058 169.030251 
L 422.609504 171.649325 
L 423.18595 172.438294 
L 423.762397 174.492439 
L 424.338843 175.330148 
L 425.491736 178.308624 
L 426.068182 178.586821 
L 427.221074 180.43398 
L 427.797521 180.758877 
L 428.373967 181.718513 
L 431.256198 183.591805 
L 431.832645 183.996605 
L 432.409091 185.64897 
L 432.985537 186.07033 
L 433.561983 185.879437 
L 434.13843 186.31527 
L 435.291322 185.96757 
L 435.867769 186.423067 
L 436.444215 186.264796 
L 437.020661 186.731647 
L 437.597107 186.584052 
L 438.173554 187.061072 
L 438.75 186.303501 
L 439.326446 189.268297 
L 439.902893 191.617408 
L 440.479339 183.436093 
L 441.632231 186.9144 
L 442.208678 190.517953 
L 442.785124 182.971031 
L 443.36157 187.2007 
L 443.938017 187.095758 
L 445.090909 181.937586 
L 445.667355 191.756043 
L 446.820248 189.092477 
L 447.396694 188.384045 
L 447.97314 190.776618 
L 448.549587 190.692495 
L 449.126033 189.370867 
L 449.702479 188.671589 
L 450.278926 188.593835 
L 450.855372 189.137235 
L 454.31405 188.716755 
L 454.890496 189.272131 
L 458.349174 188.912246 
L 458.92562 189.476764 
L 462.384298 189.166454 
L 462.960744 189.737939 
L 468.14876 189.343498 
L 468.725207 189.922844 
L 474.489669 189.55973 
L 475.066116 190.146509 
L 483.136364 189.73314 
L 483.71281 190.326073 
L 495.241736 189.867804 
L 495.818182 190.467647 
L 511.382231 190.010752 
L 511.958678 190.61599 
L 535.592975 190.134364 
L 536.169421 190.12479 
L 536.745868 190.73509 
L 570.756198 190.290893 
L 577.673554 190.221789 
L 578.25 190.835828 
L 627.247934 190.469401 
L 636.471074 190.417671 
L 636.471074 190.417671 
" style="fill:none;stroke:#1f77b4;stroke-linecap:square;stroke-width:1.5;"/>
   </g>
   <g id="patch_21">
    <path d="M 394.363636 252 
L 394.363636 153.163636 
" style="fill:none;stroke:#000000;stroke-linecap:square;stroke-linejoin:miter;stroke-width:0.8;"/>
   </g>
   <g id="patch_22">
    <path d="M 648 252 
L 648 153.163636 
" style="fill:none;stroke:#000000;stroke-linecap:square;stroke-linejoin:miter;stroke-width:0.8;"/>
   </g>
   <g id="patch_23">
    <path d="M 394.363636 252 
L 648 252 
" style="fill:none;stroke:#000000;stroke-linecap:square;stroke-linejoin:miter;stroke-width:0.8;"/>
   </g>
   <g id="patch_24">
    <path d="M 394.363636 153.163636 
L 648 153.163636 
" style="fill:none;stroke:#000000;stroke-linecap:square;stroke-linejoin:miter;stroke-width:0.8;"/>
   </g>
   <g id="text_32">
    <!-- Risky Sh. Difference -->
    <g transform="translate(460.712131 147.163636)scale(0.12 -0.12)">
     <use xlink:href="#DejaVuSans-82"/>
     <use x="69.482422" xlink:href="#DejaVuSans-105"/>
     <use x="97.265625" xlink:href="#DejaVuSans-115"/>
     <use x="149.365234" xlink:href="#DejaVuSans-107"/>
     <use x="207.228516" xlink:href="#DejaVuSans-121"/>
     <use x="266.408203" xlink:href="#DejaVuSans-32"/>
     <use x="298.195312" xlink:href="#DejaVuSans-83"/>
     <use x="361.671875" xlink:href="#DejaVuSans-104"/>
     <use x="425.050781" xlink:href="#DejaVuSans-46"/>
     <use x="456.837891" xlink:href="#DejaVuSans-32"/>
     <use x="488.625" xlink:href="#DejaVuSans-68"/>
     <use x="565.626953" xlink:href="#DejaVuSans-105"/>
     <use x="593.410156" xlink:href="#DejaVuSans-102"/>
     <use x="628.615234" xlink:href="#DejaVuSans-102"/>
     <use x="663.820312" xlink:href="#DejaVuSans-101"/>
     <use x="725.34375" xlink:href="#DejaVuSans-114"/>
     <use x="766.425781" xlink:href="#DejaVuSans-101"/>
     <use x="827.949219" xlink:href="#DejaVuSans-110"/>
     <use x="891.328125" xlink:href="#DejaVuSans-99"/>
     <use x="946.308594" xlink:href="#DejaVuSans-101"/>
    </g>
   </g>
   <g id="legend_4">
    <g id="patch_25">
     <path d="M 547.809375 175.841761 
L 641 175.841761 
Q 643 175.841761 643 173.841761 
L 643 160.163636 
Q 643 158.163636 641 158.163636 
L 547.809375 158.163636 
Q 545.809375 158.163636 545.809375 160.163636 
L 545.809375 173.841761 
Q 545.809375 175.841761 547.809375 175.841761 
z
" style="fill:#ffffff;opacity:0.8;stroke:#cccccc;stroke-linejoin:miter;"/>
    </g>
    <g id="line2d_83">
     <path d="M 549.809375 166.262074 
L 569.809375 166.262074 
" style="fill:none;stroke:#1f77b4;stroke-linecap:square;stroke-width:1.5;"/>
    </g>
    <g id="line2d_84"/>
    <g id="text_33">
     <!-- CGM - HARK -->
     <g transform="translate(577.809375 169.762074)scale(0.1 -0.1)">
      <use xlink:href="#DejaVuSans-67"/>
      <use x="69.824219" xlink:href="#DejaVuSans-71"/>
      <use x="147.314453" xlink:href="#DejaVuSans-77"/>
      <use x="233.59375" xlink:href="#DejaVuSans-32"/>
      <use x="265.380859" xlink:href="#DejaVuSans-45"/>
      <use x="301.464844" xlink:href="#DejaVuSans-32"/>
      <use x="333.251953" xlink:href="#DejaVuSans-72"/>
      <use x="408.447266" xlink:href="#DejaVuSans-65"/>
      <use x="476.855469" xlink:href="#DejaVuSans-82"/>
      <use x="546.337891" xlink:href="#DejaVuSans-75"/>
     </g>
    </g>
   </g>
  </g>
  <g id="text_34">
   <!-- Year 98 -->
   <defs>
    <path d="M -0.203125 72.90625 
L 10.40625 72.90625 
L 30.609375 42.921875 
L 50.6875 72.90625 
L 61.28125 72.90625 
L 35.5 34.71875 
L 35.5 0 
L 25.59375 0 
L 25.59375 34.71875 
z
" id="DejaVuSans-89"/>
    <path d="M 34.28125 27.484375 
Q 23.390625 27.484375 19.1875 25 
Q 14.984375 22.515625 14.984375 16.5 
Q 14.984375 11.71875 18.140625 8.90625 
Q 21.296875 6.109375 26.703125 6.109375 
Q 34.1875 6.109375 38.703125 11.40625 
Q 43.21875 16.703125 43.21875 25.484375 
L 43.21875 27.484375 
z
M 52.203125 31.203125 
L 52.203125 0 
L 43.21875 0 
L 43.21875 8.296875 
Q 40.140625 3.328125 35.546875 0.953125 
Q 30.953125 -1.421875 24.3125 -1.421875 
Q 15.921875 -1.421875 10.953125 3.296875 
Q 6 8.015625 6 15.921875 
Q 6 25.140625 12.171875 29.828125 
Q 18.359375 34.515625 30.609375 34.515625 
L 43.21875 34.515625 
L 43.21875 35.40625 
Q 43.21875 41.609375 39.140625 45 
Q 35.0625 48.390625 27.6875 48.390625 
Q 23 48.390625 18.546875 47.265625 
Q 14.109375 46.140625 10.015625 43.890625 
L 10.015625 52.203125 
Q 14.9375 54.109375 19.578125 55.046875 
Q 24.21875 56 28.609375 56 
Q 40.484375 56 46.34375 49.84375 
Q 52.203125 43.703125 52.203125 31.203125 
z
" id="DejaVuSans-97"/>
    <path d="M 10.984375 1.515625 
L 10.984375 10.5 
Q 14.703125 8.734375 18.5 7.8125 
Q 22.3125 6.890625 25.984375 6.890625 
Q 35.75 6.890625 40.890625 13.453125 
Q 46.046875 20.015625 46.78125 33.40625 
Q 43.953125 29.203125 39.59375 26.953125 
Q 35.25 24.703125 29.984375 24.703125 
Q 19.046875 24.703125 12.671875 31.3125 
Q 6.296875 37.9375 6.296875 49.421875 
Q 6.296875 60.640625 12.9375 67.421875 
Q 19.578125 74.21875 30.609375 74.21875 
Q 43.265625 74.21875 49.921875 64.515625 
Q 56.59375 54.828125 56.59375 36.375 
Q 56.59375 19.140625 48.40625 8.859375 
Q 40.234375 -1.421875 26.421875 -1.421875 
Q 22.703125 -1.421875 18.890625 -0.6875 
Q 15.09375 0.046875 10.984375 1.515625 
z
M 30.609375 32.421875 
Q 37.25 32.421875 41.125 36.953125 
Q 45.015625 41.5 45.015625 49.421875 
Q 45.015625 57.28125 41.125 61.84375 
Q 37.25 66.40625 30.609375 66.40625 
Q 23.96875 66.40625 20.09375 61.84375 
Q 16.21875 57.28125 16.21875 49.421875 
Q 16.21875 41.5 20.09375 36.953125 
Q 23.96875 32.421875 30.609375 32.421875 
z
" id="DejaVuSans-57"/>
    <path d="M 31.78125 34.625 
Q 24.75 34.625 20.71875 30.859375 
Q 16.703125 27.09375 16.703125 20.515625 
Q 16.703125 13.921875 20.71875 10.15625 
Q 24.75 6.390625 31.78125 6.390625 
Q 38.8125 6.390625 42.859375 10.171875 
Q 46.921875 13.96875 46.921875 20.515625 
Q 46.921875 27.09375 42.890625 30.859375 
Q 38.875 34.625 31.78125 34.625 
z
M 21.921875 38.8125 
Q 15.578125 40.375 12.03125 44.71875 
Q 8.5 49.078125 8.5 55.328125 
Q 8.5 64.0625 14.71875 69.140625 
Q 20.953125 74.21875 31.78125 74.21875 
Q 42.671875 74.21875 48.875 69.140625 
Q 55.078125 64.0625 55.078125 55.328125 
Q 55.078125 49.078125 51.53125 44.71875 
Q 48 40.375 41.703125 38.8125 
Q 48.828125 37.15625 52.796875 32.3125 
Q 56.78125 27.484375 56.78125 20.515625 
Q 56.78125 9.90625 50.3125 4.234375 
Q 43.84375 -1.421875 31.78125 -1.421875 
Q 19.734375 -1.421875 13.25 4.234375 
Q 6.78125 9.90625 6.78125 20.515625 
Q 6.78125 27.484375 10.78125 32.3125 
Q 14.796875 37.15625 21.921875 38.8125 
z
M 18.3125 54.390625 
Q 18.3125 48.734375 21.84375 45.5625 
Q 25.390625 42.390625 31.78125 42.390625 
Q 38.140625 42.390625 41.71875 45.5625 
Q 45.3125 48.734375 45.3125 54.390625 
Q 45.3125 60.0625 41.71875 63.234375 
Q 38.140625 66.40625 31.78125 66.40625 
Q 25.390625 66.40625 21.84375 63.234375 
Q 18.3125 60.0625 18.3125 54.390625 
z
" id="DejaVuSans-56"/>
   </defs>
   <g transform="translate(336.970312 14.878125)scale(0.12 -0.12)">
    <use xlink:href="#DejaVuSans-89"/>
    <use x="60.880859" xlink:href="#DejaVuSans-101"/>
    <use x="122.404297" xlink:href="#DejaVuSans-97"/>
    <use x="183.683594" xlink:href="#DejaVuSans-114"/>
    <use x="224.796875" xlink:href="#DejaVuSans-32"/>
    <use x="256.583984" xlink:href="#DejaVuSans-57"/>
    <use x="320.207031" xlink:href="#DejaVuSans-56"/>
   </g>
  </g>
 </g>
 <defs>
  <clipPath id="p00ff969ce8">
   <rect height="98.836364" width="253.636364" x="90" y="34.56"/>
  </clipPath>
  <clipPath id="p8a866f255a">
   <rect height="98.836364" width="253.636364" x="394.363636" y="34.56"/>
  </clipPath>
  <clipPath id="p4e817bf8ce">
   <rect height="98.836364" width="253.636364" x="90" y="153.163636"/>
  </clipPath>
  <clipPath id="p28164413ac">
   <rect height="98.836364" width="253.636364" x="394.363636" y="153.163636"/>
  </clipPath>
 </defs>
</svg>
