<?xml version="1.0" encoding="utf-8" standalone="no"?>
<!DOCTYPE svg PUBLIC "-//W3C//DTD SVG 1.1//EN"
  "http://www.w3.org/Graphics/SVG/1.1/DTD/svg11.dtd">
<!-- Created with matplotlib (https://matplotlib.org/) -->
<svg height="288pt" version="1.1" viewBox="0 0 720 288" width="720pt" xmlns="http://www.w3.org/2000/svg" xmlns:xlink="http://www.w3.org/1999/xlink">
 <defs>
  <style type="text/css">
*{stroke-linecap:butt;stroke-linejoin:round;}
  </style>
 </defs>
 <g id="figure_1">
  <g id="patch_1">
   <path d="M 0 288 
L 720 288 
L 720 0 
L 0 0 
z
" style="fill:#ffffff;"/>
  </g>
  <g id="axes_1">
   <g id="patch_2">
    <path d="M 90 133.396364 
L 343.636364 133.396364 
L 343.636364 34.56 
L 90 34.56 
z
" style="fill:#ffffff;"/>
   </g>
   <g id="matplotlib.axis_1">
    <g id="xtick_1">
     <g id="line2d_1">
      <path clip-path="url(#p06057f6822)" d="M 99.22314 133.396364 
L 99.22314 34.56 
" style="fill:none;stroke:#b0b0b0;stroke-linecap:square;stroke-width:0.8;"/>
     </g>
     <g id="line2d_2">
      <defs>
       <path d="M 0 0 
L 0 3.5 
" id="mbe15c9ff48" style="stroke:#000000;stroke-width:0.8;"/>
      </defs>
      <g>
       <use style="stroke:#000000;stroke-width:0.8;" x="99.22314" xlink:href="#mbe15c9ff48" y="133.396364"/>
      </g>
     </g>
    </g>
    <g id="xtick_2">
     <g id="line2d_3">
      <path clip-path="url(#p06057f6822)" d="M 156.867769 133.396364 
L 156.867769 34.56 
" style="fill:none;stroke:#b0b0b0;stroke-linecap:square;stroke-width:0.8;"/>
     </g>
     <g id="line2d_4">
      <g>
       <use style="stroke:#000000;stroke-width:0.8;" x="156.867769" xlink:href="#mbe15c9ff48" y="133.396364"/>
      </g>
     </g>
    </g>
    <g id="xtick_3">
     <g id="line2d_5">
      <path clip-path="url(#p06057f6822)" d="M 214.512397 133.396364 
L 214.512397 34.56 
" style="fill:none;stroke:#b0b0b0;stroke-linecap:square;stroke-width:0.8;"/>
     </g>
     <g id="line2d_6">
      <g>
       <use style="stroke:#000000;stroke-width:0.8;" x="214.512397" xlink:href="#mbe15c9ff48" y="133.396364"/>
      </g>
     </g>
    </g>
    <g id="xtick_4">
     <g id="line2d_7">
      <path clip-path="url(#p06057f6822)" d="M 272.157025 133.396364 
L 272.157025 34.56 
" style="fill:none;stroke:#b0b0b0;stroke-linecap:square;stroke-width:0.8;"/>
     </g>
     <g id="line2d_8">
      <g>
       <use style="stroke:#000000;stroke-width:0.8;" x="272.157025" xlink:href="#mbe15c9ff48" y="133.396364"/>
      </g>
     </g>
    </g>
    <g id="xtick_5">
     <g id="line2d_9">
      <path clip-path="url(#p06057f6822)" d="M 329.801653 133.396364 
L 329.801653 34.56 
" style="fill:none;stroke:#b0b0b0;stroke-linecap:square;stroke-width:0.8;"/>
     </g>
     <g id="line2d_10">
      <g>
       <use style="stroke:#000000;stroke-width:0.8;" x="329.801653" xlink:href="#mbe15c9ff48" y="133.396364"/>
      </g>
     </g>
    </g>
   </g>
   <g id="matplotlib.axis_2">
    <g id="ytick_1">
     <g id="line2d_11">
      <path clip-path="url(#p06057f6822)" d="M 90 130.999912 
L 343.636364 130.999912 
" style="fill:none;stroke:#b0b0b0;stroke-linecap:square;stroke-width:0.8;"/>
     </g>
     <g id="line2d_12">
      <defs>
       <path d="M 0 0 
L -3.5 0 
" id="m4a57f0906f" style="stroke:#000000;stroke-width:0.8;"/>
      </defs>
      <g>
       <use style="stroke:#000000;stroke-width:0.8;" x="90" xlink:href="#m4a57f0906f" y="130.999912"/>
      </g>
     </g>
     <g id="text_1">
      <!-- 0 -->
      <defs>
       <path d="M 31.78125 66.40625 
Q 24.171875 66.40625 20.328125 58.90625 
Q 16.5 51.421875 16.5 36.375 
Q 16.5 21.390625 20.328125 13.890625 
Q 24.171875 6.390625 31.78125 6.390625 
Q 39.453125 6.390625 43.28125 13.890625 
Q 47.125 21.390625 47.125 36.375 
Q 47.125 51.421875 43.28125 58.90625 
Q 39.453125 66.40625 31.78125 66.40625 
z
M 31.78125 74.21875 
Q 44.046875 74.21875 50.515625 64.515625 
Q 56.984375 54.828125 56.984375 36.375 
Q 56.984375 17.96875 50.515625 8.265625 
Q 44.046875 -1.421875 31.78125 -1.421875 
Q 19.53125 -1.421875 13.0625 8.265625 
Q 6.59375 17.96875 6.59375 36.375 
Q 6.59375 54.828125 13.0625 64.515625 
Q 19.53125 74.21875 31.78125 74.21875 
z
" id="DejaVuSans-48"/>
      </defs>
      <g transform="translate(76.6375 134.799131)scale(0.1 -0.1)">
       <use xlink:href="#DejaVuSans-48"/>
      </g>
     </g>
    </g>
    <g id="ytick_2">
     <g id="line2d_13">
      <path clip-path="url(#p06057f6822)" d="M 90 104.773172 
L 343.636364 104.773172 
" style="fill:none;stroke:#b0b0b0;stroke-linecap:square;stroke-width:0.8;"/>
     </g>
     <g id="line2d_14">
      <g>
       <use style="stroke:#000000;stroke-width:0.8;" x="90" xlink:href="#m4a57f0906f" y="104.773172"/>
      </g>
     </g>
     <g id="text_2">
      <!-- 50 -->
      <defs>
       <path d="M 10.796875 72.90625 
L 49.515625 72.90625 
L 49.515625 64.59375 
L 19.828125 64.59375 
L 19.828125 46.734375 
Q 21.96875 47.46875 24.109375 47.828125 
Q 26.265625 48.1875 28.421875 48.1875 
Q 40.625 48.1875 47.75 41.5 
Q 54.890625 34.8125 54.890625 23.390625 
Q 54.890625 11.625 47.5625 5.09375 
Q 40.234375 -1.421875 26.90625 -1.421875 
Q 22.3125 -1.421875 17.546875 -0.640625 
Q 12.796875 0.140625 7.71875 1.703125 
L 7.71875 11.625 
Q 12.109375 9.234375 16.796875 8.0625 
Q 21.484375 6.890625 26.703125 6.890625 
Q 35.15625 6.890625 40.078125 11.328125 
Q 45.015625 15.765625 45.015625 23.390625 
Q 45.015625 31 40.078125 35.4375 
Q 35.15625 39.890625 26.703125 39.890625 
Q 22.75 39.890625 18.8125 39.015625 
Q 14.890625 38.140625 10.796875 36.28125 
z
" id="DejaVuSans-53"/>
      </defs>
      <g transform="translate(70.275 108.572391)scale(0.1 -0.1)">
       <use xlink:href="#DejaVuSans-53"/>
       <use x="63.623047" xlink:href="#DejaVuSans-48"/>
      </g>
     </g>
    </g>
    <g id="ytick_3">
     <g id="line2d_15">
      <path clip-path="url(#p06057f6822)" d="M 90 78.546432 
L 343.636364 78.546432 
" style="fill:none;stroke:#b0b0b0;stroke-linecap:square;stroke-width:0.8;"/>
     </g>
     <g id="line2d_16">
      <g>
       <use style="stroke:#000000;stroke-width:0.8;" x="90" xlink:href="#m4a57f0906f" y="78.546432"/>
      </g>
     </g>
     <g id="text_3">
      <!-- 100 -->
      <defs>
       <path d="M 12.40625 8.296875 
L 28.515625 8.296875 
L 28.515625 63.921875 
L 10.984375 60.40625 
L 10.984375 69.390625 
L 28.421875 72.90625 
L 38.28125 72.90625 
L 38.28125 8.296875 
L 54.390625 8.296875 
L 54.390625 0 
L 12.40625 0 
z
" id="DejaVuSans-49"/>
      </defs>
      <g transform="translate(63.9125 82.345651)scale(0.1 -0.1)">
       <use xlink:href="#DejaVuSans-49"/>
       <use x="63.623047" xlink:href="#DejaVuSans-48"/>
       <use x="127.246094" xlink:href="#DejaVuSans-48"/>
      </g>
     </g>
    </g>
    <g id="ytick_4">
     <g id="line2d_17">
      <path clip-path="url(#p06057f6822)" d="M 90 52.319692 
L 343.636364 52.319692 
" style="fill:none;stroke:#b0b0b0;stroke-linecap:square;stroke-width:0.8;"/>
     </g>
     <g id="line2d_18">
      <g>
       <use style="stroke:#000000;stroke-width:0.8;" x="90" xlink:href="#m4a57f0906f" y="52.319692"/>
      </g>
     </g>
     <g id="text_4">
      <!-- 150 -->
      <g transform="translate(63.9125 56.11891)scale(0.1 -0.1)">
       <use xlink:href="#DejaVuSans-49"/>
       <use x="63.623047" xlink:href="#DejaVuSans-53"/>
       <use x="127.246094" xlink:href="#DejaVuSans-48"/>
      </g>
     </g>
    </g>
   </g>
   <g id="line2d_19">
    <path clip-path="url(#p06057f6822)" d="M 101.528926 128.901773 
L 109.599174 121.68942 
L 110.752066 121.164885 
L 111.904959 120.902617 
L 112.481405 120.64035 
L 113.057851 120.509216 
L 113.634298 120.246949 
L 114.210744 120.115815 
L 114.78719 119.853548 
L 115.363636 119.722414 
L 115.940083 119.460147 
L 117.092975 119.197879 
L 117.669421 118.935612 
L 118.245868 118.804478 
L 118.822314 118.542211 
L 119.39876 118.411077 
L 119.975207 118.14881 
L 121.128099 117.886542 
L 121.704545 117.624275 
L 122.280992 117.493141 
L 122.857438 117.230874 
L 124.010331 116.968606 
L 124.586777 116.706339 
L 125.163223 116.575205 
L 125.739669 116.312938 
L 126.316116 116.181804 
L 126.892562 115.919537 
L 127.469008 115.788403 
L 128.045455 116.444071 
L 128.621901 116.181804 
L 129.198347 115.788403 
L 129.774793 115.657269 
L 130.927686 115.001601 
L 131.504132 114.739333 
L 132.080579 114.345932 
L 132.657025 114.214799 
L 133.809917 113.690264 
L 134.96281 113.427996 
L 135.539256 113.165729 
L 136.692149 112.903462 
L 137.845041 112.247793 
L 138.421488 112.51006 
L 140.727273 111.460991 
L 141.303719 111.460991 
L 142.456612 110.936456 
L 143.609504 110.674189 
L 144.18595 110.411921 
L 144.762397 110.280788 
L 145.338843 110.01852 
L 145.915289 109.887386 
L 146.491736 109.625119 
L 147.068182 109.493985 
L 147.644628 109.231718 
L 148.797521 108.96945 
L 149.373967 108.707183 
L 149.950413 108.576049 
L 150.52686 108.313782 
L 151.679752 108.051515 
L 152.256198 107.789247 
L 152.832645 107.658113 
L 153.409091 107.395846 
L 154.561983 107.133579 
L 155.13843 106.871311 
L 155.714876 106.740178 
L 156.291322 106.47791 
L 156.867769 106.346776 
L 157.444215 106.084509 
L 158.597107 105.822242 
L 159.173554 105.559974 
L 159.75 105.428841 
L 160.326446 105.166573 
L 160.902893 105.035439 
L 161.479339 104.773172 
L 162.632231 104.510905 
L 163.208678 104.248637 
L 163.785124 104.117504 
L 164.36157 103.855236 
L 165.514463 103.592969 
L 166.090909 103.330701 
L 166.667355 103.199568 
L 167.243802 102.9373 
L 168.396694 102.675033 
L 168.97314 102.412765 
L 169.549587 102.281632 
L 170.126033 102.019364 
L 170.702479 101.888231 
L 171.278926 101.625963 
L 172.431818 101.363696 
L 173.008264 101.101428 
L 173.584711 100.970295 
L 174.161157 100.708027 
L 174.737603 100.576894 
L 175.31405 100.314626 
L 176.466942 100.052359 
L 177.043388 99.790091 
L 177.619835 99.658958 
L 178.196281 99.39669 
L 179.349174 99.134423 
L 179.92562 98.872156 
L 180.502066 98.741022 
L 181.078512 98.478754 
L 182.231405 98.216487 
L 182.807851 97.95422 
L 183.384298 97.823086 
L 183.960744 97.560818 
L 184.53719 97.429685 
L 185.113636 97.167417 
L 186.266529 96.90515 
L 186.842975 96.642883 
L 187.419421 96.511749 
L 187.995868 96.249481 
L 189.14876 95.987214 
L 189.725207 95.724947 
L 190.301653 95.593813 
L 190.878099 95.331546 
L 191.454545 95.200412 
L 192.030992 94.938144 
L 193.183884 94.675877 
L 193.760331 94.41361 
L 194.336777 94.282476 
L 194.913223 94.020209 
L 196.066116 93.757941 
L 196.642562 93.495674 
L 197.219008 93.36454 
L 197.795455 93.102273 
L 198.371901 92.971139 
L 198.948347 92.708872 
L 200.10124 92.446604 
L 200.677686 92.184337 
L 201.254132 92.053203 
L 201.830579 91.790936 
L 202.983471 91.528668 
L 203.559917 91.266401 
L 204.136364 91.135267 
L 204.71281 90.873 
L 205.289256 90.741866 
L 205.865702 90.479599 
L 207.018595 90.217331 
L 207.595041 89.955064 
L 208.171488 89.82393 
L 208.747934 89.561663 
L 209.900826 89.299395 
L 210.477273 89.037128 
L 211.053719 88.905994 
L 211.630165 88.643727 
L 212.206612 88.512593 
L 212.783058 88.250326 
L 213.93595 87.988058 
L 214.512397 87.725791 
L 215.088843 87.594657 
L 215.665289 87.33239 
L 216.818182 87.070122 
L 217.394628 86.807855 
L 217.971074 86.676721 
L 218.547521 86.414454 
L 219.123967 86.28332 
L 219.700413 86.021053 
L 220.853306 85.758785 
L 221.429752 85.496518 
L 222.006198 85.365384 
L 222.582645 85.103117 
L 223.735537 84.840849 
L 224.311983 84.578582 
L 224.88843 84.447448 
L 225.464876 84.185181 
L 226.041322 84.054047 
L 226.617769 83.79178 
L 227.770661 83.529512 
L 228.347107 83.267245 
L 228.923554 83.136111 
L 229.5 82.873844 
L 230.652893 82.611577 
L 231.229339 82.349309 
L 231.805785 82.218175 
L 232.382231 81.955908 
L 232.958678 81.824774 
L 233.535124 81.562507 
L 234.688017 81.30024 
L 235.264463 81.037972 
L 235.840909 80.906838 
L 236.417355 80.644571 
L 237.570248 80.382304 
L 238.146694 80.120036 
L 238.72314 79.988903 
L 239.299587 79.726635 
L 239.876033 79.595501 
L 240.452479 79.333234 
L 241.605372 79.070967 
L 242.181818 78.808699 
L 242.758264 78.677566 
L 243.334711 78.415298 
L 244.487603 78.153031 
L 245.06405 77.890763 
L 245.640496 77.75963 
L 246.216942 77.497362 
L 246.793388 77.366229 
L 247.369835 77.103961 
L 248.522727 76.841694 
L 249.099174 76.579426 
L 249.67562 76.448293 
L 250.252066 76.186025 
L 251.404959 75.923758 
L 251.981405 75.66149 
L 252.557851 75.530357 
L 253.134298 75.268089 
L 253.710744 75.136956 
L 254.28719 74.874688 
L 255.440083 74.612421 
L 256.016529 74.350153 
L 256.592975 74.21902 
L 257.169421 73.956752 
L 258.322314 73.694485 
L 258.89876 73.432217 
L 259.475207 73.301084 
L 260.051653 73.038816 
L 260.628099 72.907683 
L 261.204545 72.645415 
L 262.357438 72.383148 
L 262.933884 72.12088 
L 263.510331 71.989747 
L 264.086777 71.727479 
L 265.239669 71.465212 
L 265.816116 71.202945 
L 266.392562 71.071811 
L 266.969008 70.809543 
L 267.545455 70.67841 
L 268.121901 70.416142 
L 269.274793 70.153875 
L 269.85124 69.891608 
L 270.427686 69.760474 
L 271.004132 69.498206 
L 272.157025 69.235939 
L 272.733471 68.973672 
L 273.309917 68.842538 
L 273.886364 68.580271 
L 274.46281 68.449137 
L 275.039256 68.186869 
L 276.192149 67.924602 
L 276.768595 67.662335 
L 277.345041 67.531201 
L 277.921488 67.268934 
L 279.07438 67.006666 
L 279.650826 66.744399 
L 280.227273 66.613265 
L 280.803719 66.350998 
L 281.380165 66.219864 
L 281.956612 65.957597 
L 283.109504 65.695329 
L 283.68595 65.433062 
L 284.262397 65.301928 
L 284.838843 65.039661 
L 285.991736 64.777393 
L 286.568182 64.515126 
L 287.144628 64.383992 
L 287.721074 64.121725 
L 288.297521 63.990591 
L 288.873967 63.728324 
L 290.02686 63.466056 
L 290.603306 63.203789 
L 291.179752 63.072655 
L 291.756198 62.810388 
L 292.909091 62.54812 
L 293.485537 62.285853 
L 294.061983 62.154719 
L 294.63843 61.892452 
L 295.214876 61.761318 
L 295.791322 61.499051 
L 296.944215 61.236783 
L 297.520661 60.974516 
L 298.097107 60.843382 
L 298.673554 60.581115 
L 299.826446 60.318847 
L 300.402893 60.05658 
L 300.979339 59.925446 
L 301.555785 59.663179 
L 302.132231 59.532045 
L 302.708678 59.269778 
L 303.86157 59.00751 
L 304.438017 58.745243 
L 305.014463 58.614109 
L 305.590909 58.351842 
L 306.743802 58.089574 
L 307.320248 57.827307 
L 307.896694 57.696173 
L 308.47314 57.433906 
L 309.049587 57.302772 
L 309.626033 57.040505 
L 310.778926 56.778237 
L 311.355372 56.51597 
L 311.931818 56.384836 
L 312.508264 56.122569 
L 313.661157 55.860302 
L 314.237603 55.598034 
L 314.81405 55.4669 
L 315.390496 55.204633 
L 315.966942 55.073499 
L 316.543388 54.811232 
L 317.696281 54.548964 
L 318.272727 54.286697 
L 318.849174 54.155563 
L 319.42562 53.893296 
L 320.578512 53.631029 
L 321.154959 53.368761 
L 321.731405 53.237627 
L 322.307851 52.97536 
L 322.884298 52.844226 
L 323.460744 52.581959 
L 324.613636 52.319692 
L 325.190083 52.057424 
L 325.766529 51.92629 
L 326.342975 51.664023 
L 327.495868 51.401756 
L 328.072314 51.139488 
L 328.64876 51.008355 
L 329.225207 50.746087 
L 329.801653 50.614953 
L 330.378099 50.352686 
L 331.530992 50.090419 
L 332.107438 49.828151 
L 332.107438 49.828151 
" style="fill:none;stroke:#1f77b4;stroke-linecap:square;stroke-width:1.5;"/>
   </g>
   <g id="line2d_20">
    <path clip-path="url(#p06057f6822)" d="M 101.528926 128.903802 
L 126.892562 105.954333 
L 129.198347 104.935131 
L 147.644628 98.740765 
L 170.126033 91.431031 
L 332.107438 39.052562 
L 332.107438 39.052562 
" style="fill:none;stroke:#ff7f0e;stroke-linecap:square;stroke-width:1.5;"/>
   </g>
   <g id="patch_3">
    <path d="M 90 133.396364 
L 90 34.56 
" style="fill:none;stroke:#000000;stroke-linecap:square;stroke-linejoin:miter;stroke-width:0.8;"/>
   </g>
   <g id="patch_4">
    <path d="M 343.636364 133.396364 
L 343.636364 34.56 
" style="fill:none;stroke:#000000;stroke-linecap:square;stroke-linejoin:miter;stroke-width:0.8;"/>
   </g>
   <g id="patch_5">
    <path d="M 90 133.396364 
L 343.636364 133.396364 
" style="fill:none;stroke:#000000;stroke-linecap:square;stroke-linejoin:miter;stroke-width:0.8;"/>
   </g>
   <g id="patch_6">
    <path d="M 90 34.56 
L 343.636364 34.56 
" style="fill:none;stroke:#000000;stroke-linecap:square;stroke-linejoin:miter;stroke-width:0.8;"/>
   </g>
   <g id="text_5">
    <!-- Cons. Functions -->
    <defs>
     <path d="M 64.40625 67.28125 
L 64.40625 56.890625 
Q 59.421875 61.53125 53.78125 63.8125 
Q 48.140625 66.109375 41.796875 66.109375 
Q 29.296875 66.109375 22.65625 58.46875 
Q 16.015625 50.828125 16.015625 36.375 
Q 16.015625 21.96875 22.65625 14.328125 
Q 29.296875 6.6875 41.796875 6.6875 
Q 48.140625 6.6875 53.78125 8.984375 
Q 59.421875 11.28125 64.40625 15.921875 
L 64.40625 5.609375 
Q 59.234375 2.09375 53.4375 0.328125 
Q 47.65625 -1.421875 41.21875 -1.421875 
Q 24.65625 -1.421875 15.125 8.703125 
Q 5.609375 18.84375 5.609375 36.375 
Q 5.609375 53.953125 15.125 64.078125 
Q 24.65625 74.21875 41.21875 74.21875 
Q 47.75 74.21875 53.53125 72.484375 
Q 59.328125 70.75 64.40625 67.28125 
z
" id="DejaVuSans-67"/>
     <path d="M 30.609375 48.390625 
Q 23.390625 48.390625 19.1875 42.75 
Q 14.984375 37.109375 14.984375 27.296875 
Q 14.984375 17.484375 19.15625 11.84375 
Q 23.34375 6.203125 30.609375 6.203125 
Q 37.796875 6.203125 41.984375 11.859375 
Q 46.1875 17.53125 46.1875 27.296875 
Q 46.1875 37.015625 41.984375 42.703125 
Q 37.796875 48.390625 30.609375 48.390625 
z
M 30.609375 56 
Q 42.328125 56 49.015625 48.375 
Q 55.71875 40.765625 55.71875 27.296875 
Q 55.71875 13.875 49.015625 6.21875 
Q 42.328125 -1.421875 30.609375 -1.421875 
Q 18.84375 -1.421875 12.171875 6.21875 
Q 5.515625 13.875 5.515625 27.296875 
Q 5.515625 40.765625 12.171875 48.375 
Q 18.84375 56 30.609375 56 
z
" id="DejaVuSans-111"/>
     <path d="M 54.890625 33.015625 
L 54.890625 0 
L 45.90625 0 
L 45.90625 32.71875 
Q 45.90625 40.484375 42.875 44.328125 
Q 39.84375 48.1875 33.796875 48.1875 
Q 26.515625 48.1875 22.3125 43.546875 
Q 18.109375 38.921875 18.109375 30.90625 
L 18.109375 0 
L 9.078125 0 
L 9.078125 54.6875 
L 18.109375 54.6875 
L 18.109375 46.1875 
Q 21.34375 51.125 25.703125 53.5625 
Q 30.078125 56 35.796875 56 
Q 45.21875 56 50.046875 50.171875 
Q 54.890625 44.34375 54.890625 33.015625 
z
" id="DejaVuSans-110"/>
     <path d="M 44.28125 53.078125 
L 44.28125 44.578125 
Q 40.484375 46.53125 36.375 47.5 
Q 32.28125 48.484375 27.875 48.484375 
Q 21.1875 48.484375 17.84375 46.4375 
Q 14.5 44.390625 14.5 40.28125 
Q 14.5 37.15625 16.890625 35.375 
Q 19.28125 33.59375 26.515625 31.984375 
L 29.59375 31.296875 
Q 39.15625 29.25 43.1875 25.515625 
Q 47.21875 21.78125 47.21875 15.09375 
Q 47.21875 7.46875 41.1875 3.015625 
Q 35.15625 -1.421875 24.609375 -1.421875 
Q 20.21875 -1.421875 15.453125 -0.5625 
Q 10.6875 0.296875 5.421875 2 
L 5.421875 11.28125 
Q 10.40625 8.6875 15.234375 7.390625 
Q 20.0625 6.109375 24.8125 6.109375 
Q 31.15625 6.109375 34.5625 8.28125 
Q 37.984375 10.453125 37.984375 14.40625 
Q 37.984375 18.0625 35.515625 20.015625 
Q 33.0625 21.96875 24.703125 23.78125 
L 21.578125 24.515625 
Q 13.234375 26.265625 9.515625 29.90625 
Q 5.8125 33.546875 5.8125 39.890625 
Q 5.8125 47.609375 11.28125 51.796875 
Q 16.75 56 26.8125 56 
Q 31.78125 56 36.171875 55.265625 
Q 40.578125 54.546875 44.28125 53.078125 
z
" id="DejaVuSans-115"/>
     <path d="M 10.6875 12.40625 
L 21 12.40625 
L 21 0 
L 10.6875 0 
z
" id="DejaVuSans-46"/>
     <path id="DejaVuSans-32"/>
     <path d="M 9.8125 72.90625 
L 51.703125 72.90625 
L 51.703125 64.59375 
L 19.671875 64.59375 
L 19.671875 43.109375 
L 48.578125 43.109375 
L 48.578125 34.8125 
L 19.671875 34.8125 
L 19.671875 0 
L 9.8125 0 
z
" id="DejaVuSans-70"/>
     <path d="M 8.5 21.578125 
L 8.5 54.6875 
L 17.484375 54.6875 
L 17.484375 21.921875 
Q 17.484375 14.15625 20.5 10.265625 
Q 23.53125 6.390625 29.59375 6.390625 
Q 36.859375 6.390625 41.078125 11.03125 
Q 45.3125 15.671875 45.3125 23.6875 
L 45.3125 54.6875 
L 54.296875 54.6875 
L 54.296875 0 
L 45.3125 0 
L 45.3125 8.40625 
Q 42.046875 3.421875 37.71875 1 
Q 33.40625 -1.421875 27.6875 -1.421875 
Q 18.265625 -1.421875 13.375 4.4375 
Q 8.5 10.296875 8.5 21.578125 
z
M 31.109375 56 
z
" id="DejaVuSans-117"/>
     <path d="M 48.78125 52.59375 
L 48.78125 44.1875 
Q 44.96875 46.296875 41.140625 47.34375 
Q 37.3125 48.390625 33.40625 48.390625 
Q 24.65625 48.390625 19.8125 42.84375 
Q 14.984375 37.3125 14.984375 27.296875 
Q 14.984375 17.28125 19.8125 11.734375 
Q 24.65625 6.203125 33.40625 6.203125 
Q 37.3125 6.203125 41.140625 7.25 
Q 44.96875 8.296875 48.78125 10.40625 
L 48.78125 2.09375 
Q 45.015625 0.34375 40.984375 -0.53125 
Q 36.96875 -1.421875 32.421875 -1.421875 
Q 20.0625 -1.421875 12.78125 6.34375 
Q 5.515625 14.109375 5.515625 27.296875 
Q 5.515625 40.671875 12.859375 48.328125 
Q 20.21875 56 33.015625 56 
Q 37.15625 56 41.109375 55.140625 
Q 45.0625 54.296875 48.78125 52.59375 
z
" id="DejaVuSans-99"/>
     <path d="M 18.3125 70.21875 
L 18.3125 54.6875 
L 36.8125 54.6875 
L 36.8125 47.703125 
L 18.3125 47.703125 
L 18.3125 18.015625 
Q 18.3125 11.328125 20.140625 9.421875 
Q 21.96875 7.515625 27.59375 7.515625 
L 36.8125 7.515625 
L 36.8125 0 
L 27.59375 0 
Q 17.1875 0 13.234375 3.875 
Q 9.28125 7.765625 9.28125 18.015625 
L 9.28125 47.703125 
L 2.6875 47.703125 
L 2.6875 54.6875 
L 9.28125 54.6875 
L 9.28125 70.21875 
z
" id="DejaVuSans-116"/>
     <path d="M 9.421875 54.6875 
L 18.40625 54.6875 
L 18.40625 0 
L 9.421875 0 
z
M 9.421875 75.984375 
L 18.40625 75.984375 
L 18.40625 64.59375 
L 9.421875 64.59375 
z
" id="DejaVuSans-105"/>
    </defs>
    <g transform="translate(169.246619 28.56)scale(0.12 -0.12)">
     <use xlink:href="#DejaVuSans-67"/>
     <use x="69.824219" xlink:href="#DejaVuSans-111"/>
     <use x="131.005859" xlink:href="#DejaVuSans-110"/>
     <use x="194.384766" xlink:href="#DejaVuSans-115"/>
     <use x="246.484375" xlink:href="#DejaVuSans-46"/>
     <use x="278.271484" xlink:href="#DejaVuSans-32"/>
     <use x="310.058594" xlink:href="#DejaVuSans-70"/>
     <use x="367.5" xlink:href="#DejaVuSans-117"/>
     <use x="430.878906" xlink:href="#DejaVuSans-110"/>
     <use x="494.257812" xlink:href="#DejaVuSans-99"/>
     <use x="549.238281" xlink:href="#DejaVuSans-116"/>
     <use x="588.447266" xlink:href="#DejaVuSans-105"/>
     <use x="616.230469" xlink:href="#DejaVuSans-111"/>
     <use x="677.412109" xlink:href="#DejaVuSans-110"/>
     <use x="740.791016" xlink:href="#DejaVuSans-115"/>
    </g>
   </g>
   <g id="legend_1">
    <g id="patch_7">
     <path d="M 97 71.91625 
L 156.867188 71.91625 
Q 158.867188 71.91625 158.867188 69.91625 
L 158.867188 41.56 
Q 158.867188 39.56 156.867188 39.56 
L 97 39.56 
Q 95 39.56 95 41.56 
L 95 69.91625 
Q 95 71.91625 97 71.91625 
z
" style="fill:#ffffff;opacity:0.8;stroke:#cccccc;stroke-linejoin:miter;"/>
    </g>
    <g id="line2d_21">
     <path d="M 99 47.658437 
L 119 47.658437 
" style="fill:none;stroke:#1f77b4;stroke-linecap:square;stroke-width:1.5;"/>
    </g>
    <g id="line2d_22"/>
    <g id="text_6">
     <!-- CGM -->
     <defs>
      <path d="M 59.515625 10.40625 
L 59.515625 29.984375 
L 43.40625 29.984375 
L 43.40625 38.09375 
L 69.28125 38.09375 
L 69.28125 6.78125 
Q 63.578125 2.734375 56.6875 0.65625 
Q 49.8125 -1.421875 42 -1.421875 
Q 24.90625 -1.421875 15.25 8.5625 
Q 5.609375 18.5625 5.609375 36.375 
Q 5.609375 54.25 15.25 64.234375 
Q 24.90625 74.21875 42 74.21875 
Q 49.125 74.21875 55.546875 72.453125 
Q 61.96875 70.703125 67.390625 67.28125 
L 67.390625 56.78125 
Q 61.921875 61.421875 55.765625 63.765625 
Q 49.609375 66.109375 42.828125 66.109375 
Q 29.4375 66.109375 22.71875 58.640625 
Q 16.015625 51.171875 16.015625 36.375 
Q 16.015625 21.625 22.71875 14.15625 
Q 29.4375 6.6875 42.828125 6.6875 
Q 48.046875 6.6875 52.140625 7.59375 
Q 56.25 8.5 59.515625 10.40625 
z
" id="DejaVuSans-71"/>
      <path d="M 9.8125 72.90625 
L 24.515625 72.90625 
L 43.109375 23.296875 
L 61.8125 72.90625 
L 76.515625 72.90625 
L 76.515625 0 
L 66.890625 0 
L 66.890625 64.015625 
L 48.09375 14.015625 
L 38.1875 14.015625 
L 19.390625 64.015625 
L 19.390625 0 
L 9.8125 0 
z
" id="DejaVuSans-77"/>
     </defs>
     <g transform="translate(127 51.158437)scale(0.1 -0.1)">
      <use xlink:href="#DejaVuSans-67"/>
      <use x="69.824219" xlink:href="#DejaVuSans-71"/>
      <use x="147.314453" xlink:href="#DejaVuSans-77"/>
     </g>
    </g>
    <g id="line2d_23">
     <path d="M 99 62.336562 
L 119 62.336562 
" style="fill:none;stroke:#ff7f0e;stroke-linecap:square;stroke-width:1.5;"/>
    </g>
    <g id="line2d_24"/>
    <g id="text_7">
     <!-- HARK -->
     <defs>
      <path d="M 9.8125 72.90625 
L 19.671875 72.90625 
L 19.671875 43.015625 
L 55.515625 43.015625 
L 55.515625 72.90625 
L 65.375 72.90625 
L 65.375 0 
L 55.515625 0 
L 55.515625 34.71875 
L 19.671875 34.71875 
L 19.671875 0 
L 9.8125 0 
z
" id="DejaVuSans-72"/>
      <path d="M 34.1875 63.1875 
L 20.796875 26.90625 
L 47.609375 26.90625 
z
M 28.609375 72.90625 
L 39.796875 72.90625 
L 67.578125 0 
L 57.328125 0 
L 50.6875 18.703125 
L 17.828125 18.703125 
L 11.1875 0 
L 0.78125 0 
z
" id="DejaVuSans-65"/>
      <path d="M 44.390625 34.1875 
Q 47.5625 33.109375 50.5625 29.59375 
Q 53.5625 26.078125 56.59375 19.921875 
L 66.609375 0 
L 56 0 
L 46.6875 18.703125 
Q 43.0625 26.03125 39.671875 28.421875 
Q 36.28125 30.8125 30.421875 30.8125 
L 19.671875 30.8125 
L 19.671875 0 
L 9.8125 0 
L 9.8125 72.90625 
L 32.078125 72.90625 
Q 44.578125 72.90625 50.734375 67.671875 
Q 56.890625 62.453125 56.890625 51.90625 
Q 56.890625 45.015625 53.6875 40.46875 
Q 50.484375 35.9375 44.390625 34.1875 
z
M 19.671875 64.796875 
L 19.671875 38.921875 
L 32.078125 38.921875 
Q 39.203125 38.921875 42.84375 42.21875 
Q 46.484375 45.515625 46.484375 51.90625 
Q 46.484375 58.296875 42.84375 61.546875 
Q 39.203125 64.796875 32.078125 64.796875 
z
" id="DejaVuSans-82"/>
      <path d="M 9.8125 72.90625 
L 19.671875 72.90625 
L 19.671875 42.09375 
L 52.390625 72.90625 
L 65.09375 72.90625 
L 28.90625 38.921875 
L 67.671875 0 
L 54.6875 0 
L 19.671875 35.109375 
L 19.671875 0 
L 9.8125 0 
z
" id="DejaVuSans-75"/>
     </defs>
     <g transform="translate(127 65.836562)scale(0.1 -0.1)">
      <use xlink:href="#DejaVuSans-72"/>
      <use x="75.195312" xlink:href="#DejaVuSans-65"/>
      <use x="143.603516" xlink:href="#DejaVuSans-82"/>
      <use x="213.085938" xlink:href="#DejaVuSans-75"/>
     </g>
    </g>
   </g>
  </g>
  <g id="axes_2">
   <g id="patch_8">
    <path d="M 394.363636 133.396364 
L 648 133.396364 
L 648 34.56 
L 394.363636 34.56 
z
" style="fill:#ffffff;"/>
   </g>
   <g id="matplotlib.axis_3">
    <g id="xtick_6">
     <g id="line2d_25">
      <path clip-path="url(#p13e9314fea)" d="M 403.586777 133.396364 
L 403.586777 34.56 
" style="fill:none;stroke:#b0b0b0;stroke-linecap:square;stroke-width:0.8;"/>
     </g>
     <g id="line2d_26">
      <g>
       <use style="stroke:#000000;stroke-width:0.8;" x="403.586777" xlink:href="#mbe15c9ff48" y="133.396364"/>
      </g>
     </g>
    </g>
    <g id="xtick_7">
     <g id="line2d_27">
      <path clip-path="url(#p13e9314fea)" d="M 461.231405 133.396364 
L 461.231405 34.56 
" style="fill:none;stroke:#b0b0b0;stroke-linecap:square;stroke-width:0.8;"/>
     </g>
     <g id="line2d_28">
      <g>
       <use style="stroke:#000000;stroke-width:0.8;" x="461.231405" xlink:href="#mbe15c9ff48" y="133.396364"/>
      </g>
     </g>
    </g>
    <g id="xtick_8">
     <g id="line2d_29">
      <path clip-path="url(#p13e9314fea)" d="M 518.876033 133.396364 
L 518.876033 34.56 
" style="fill:none;stroke:#b0b0b0;stroke-linecap:square;stroke-width:0.8;"/>
     </g>
     <g id="line2d_30">
      <g>
       <use style="stroke:#000000;stroke-width:0.8;" x="518.876033" xlink:href="#mbe15c9ff48" y="133.396364"/>
      </g>
     </g>
    </g>
    <g id="xtick_9">
     <g id="line2d_31">
      <path clip-path="url(#p13e9314fea)" d="M 576.520661 133.396364 
L 576.520661 34.56 
" style="fill:none;stroke:#b0b0b0;stroke-linecap:square;stroke-width:0.8;"/>
     </g>
     <g id="line2d_32">
      <g>
       <use style="stroke:#000000;stroke-width:0.8;" x="576.520661" xlink:href="#mbe15c9ff48" y="133.396364"/>
      </g>
     </g>
    </g>
    <g id="xtick_10">
     <g id="line2d_33">
      <path clip-path="url(#p13e9314fea)" d="M 634.165289 133.396364 
L 634.165289 34.56 
" style="fill:none;stroke:#b0b0b0;stroke-linecap:square;stroke-width:0.8;"/>
     </g>
     <g id="line2d_34">
      <g>
       <use style="stroke:#000000;stroke-width:0.8;" x="634.165289" xlink:href="#mbe15c9ff48" y="133.396364"/>
      </g>
     </g>
    </g>
   </g>
   <g id="matplotlib.axis_4">
    <g id="ytick_5">
     <g id="line2d_35">
      <path clip-path="url(#p13e9314fea)" d="M 394.363636 124.380771 
L 648 124.380771 
" style="fill:none;stroke:#b0b0b0;stroke-linecap:square;stroke-width:0.8;"/>
     </g>
     <g id="line2d_36">
      <g>
       <use style="stroke:#000000;stroke-width:0.8;" x="394.363636" xlink:href="#m4a57f0906f" y="124.380771"/>
      </g>
     </g>
     <g id="text_8">
      <!-- −20 -->
      <defs>
       <path d="M 10.59375 35.5 
L 73.1875 35.5 
L 73.1875 27.203125 
L 10.59375 27.203125 
z
" id="DejaVuSans-8722"/>
       <path d="M 19.1875 8.296875 
L 53.609375 8.296875 
L 53.609375 0 
L 7.328125 0 
L 7.328125 8.296875 
Q 12.9375 14.109375 22.625 23.890625 
Q 32.328125 33.6875 34.8125 36.53125 
Q 39.546875 41.84375 41.421875 45.53125 
Q 43.3125 49.21875 43.3125 52.78125 
Q 43.3125 58.59375 39.234375 62.25 
Q 35.15625 65.921875 28.609375 65.921875 
Q 23.96875 65.921875 18.8125 64.3125 
Q 13.671875 62.703125 7.8125 59.421875 
L 7.8125 69.390625 
Q 13.765625 71.78125 18.9375 73 
Q 24.125 74.21875 28.421875 74.21875 
Q 39.75 74.21875 46.484375 68.546875 
Q 53.21875 62.890625 53.21875 53.421875 
Q 53.21875 48.921875 51.53125 44.890625 
Q 49.859375 40.875 45.40625 35.40625 
Q 44.1875 33.984375 37.640625 27.21875 
Q 31.109375 20.453125 19.1875 8.296875 
z
" id="DejaVuSans-50"/>
      </defs>
      <g transform="translate(366.258949 128.179989)scale(0.1 -0.1)">
       <use xlink:href="#DejaVuSans-8722"/>
       <use x="83.789062" xlink:href="#DejaVuSans-50"/>
       <use x="147.412109" xlink:href="#DejaVuSans-48"/>
      </g>
     </g>
    </g>
    <g id="ytick_6">
     <g id="line2d_37">
      <path clip-path="url(#p13e9314fea)" d="M 394.363636 81.7517 
L 648 81.7517 
" style="fill:none;stroke:#b0b0b0;stroke-linecap:square;stroke-width:0.8;"/>
     </g>
     <g id="line2d_38">
      <g>
       <use style="stroke:#000000;stroke-width:0.8;" x="394.363636" xlink:href="#m4a57f0906f" y="81.7517"/>
      </g>
     </g>
     <g id="text_9">
      <!-- −10 -->
      <g transform="translate(366.258949 85.550918)scale(0.1 -0.1)">
       <use xlink:href="#DejaVuSans-8722"/>
       <use x="83.789062" xlink:href="#DejaVuSans-49"/>
       <use x="147.412109" xlink:href="#DejaVuSans-48"/>
      </g>
     </g>
    </g>
    <g id="ytick_7">
     <g id="line2d_39">
      <path clip-path="url(#p13e9314fea)" d="M 394.363636 39.122629 
L 648 39.122629 
" style="fill:none;stroke:#b0b0b0;stroke-linecap:square;stroke-width:0.8;"/>
     </g>
     <g id="line2d_40">
      <g>
       <use style="stroke:#000000;stroke-width:0.8;" x="394.363636" xlink:href="#m4a57f0906f" y="39.122629"/>
      </g>
     </g>
     <g id="text_10">
      <!-- 0 -->
      <g transform="translate(381.001136 42.921847)scale(0.1 -0.1)">
       <use xlink:href="#DejaVuSans-48"/>
      </g>
     </g>
    </g>
   </g>
   <g id="line2d_41">
    <path clip-path="url(#p13e9314fea)" d="M 405.892562 39.106142 
L 413.386364 39.052562 
L 413.96281 40.114167 
L 415.115702 44.368831 
L 416.268595 50.754949 
L 416.845041 52.882281 
L 417.421488 56.075339 
L 417.997934 58.202671 
L 418.57438 61.39573 
L 419.150826 63.523062 
L 419.727273 66.716121 
L 420.303719 68.843453 
L 421.456612 75.22957 
L 422.033058 77.356902 
L 422.609504 80.549961 
L 423.18595 82.677293 
L 423.762397 85.870352 
L 424.338843 87.997684 
L 425.491736 94.383801 
L 426.068182 96.511133 
L 426.644628 99.704192 
L 427.221074 101.831524 
L 428.373967 108.217642 
L 428.950413 110.344974 
L 429.52686 113.538032 
L 430.103306 115.665364 
L 430.679752 118.858423 
L 431.832645 121.311002 
L 432.409091 128.903802 
L 432.985537 128.858578 
L 433.561983 127.327431 
L 434.13843 127.864283 
L 434.714876 126.267382 
L 435.867769 125.198369 
L 436.444215 123.594881 
L 437.020661 124.120733 
L 438.173554 123.034863 
L 439.326446 124.07251 
L 439.902893 123.52274 
L 441.055785 124.54907 
L 441.632231 122.928065 
L 442.208678 122.371025 
L 442.785124 126.075179 
L 445.090909 123.823406 
L 445.667355 125.38789 
L 446.820248 124.249324 
L 447.97314 125.236197 
L 448.549587 124.661736 
L 449.126033 125.151558 
L 449.702479 124.574266 
L 450.278926 125.061288 
L 450.855372 124.481237 
L 451.431818 124.965575 
L 452.008264 124.38286 
L 453.161157 125.345074 
L 453.737603 124.758433 
L 454.31405 125.235694 
L 454.890496 124.64594 
L 456.043388 125.594515 
L 456.619835 125.001472 
L 457.196281 125.473042 
L 457.772727 124.877821 
L 458.92562 125.798254 
L 459.502066 125.187628 
L 460.078512 125.640285 
L 460.654959 125.026662 
L 461.231405 125.478658 
L 461.807851 124.864814 
L 462.960744 125.768282 
L 463.53719 125.154127 
L 464.113636 125.605604 
L 464.690083 124.991252 
L 465.266529 125.442529 
L 465.842975 124.827978 
L 466.995868 125.729415 
L 467.572314 125.113074 
L 468.14876 125.562232 
L 468.725207 124.945657 
L 469.878099 125.843959 
L 470.454545 125.227387 
L 471.030992 125.676542 
L 471.607438 125.059965 
L 472.760331 125.958267 
L 473.336777 125.341697 
L 473.913223 125.790851 
L 474.489669 125.174273 
L 475.066116 125.623424 
L 475.642562 125.006849 
L 476.795455 125.905158 
L 477.371901 125.288585 
L 477.948347 125.737735 
L 478.524793 125.121158 
L 479.10124 125.570309 
L 479.677686 124.953736 
L 480.830579 125.852047 
L 481.407025 125.235471 
L 481.983471 125.684622 
L 482.559917 125.068045 
L 483.71281 125.966349 
L 484.289256 125.349777 
L 484.865702 125.798932 
L 485.442149 125.18236 
L 486.595041 126.080662 
L 487.171488 125.464085 
L 487.747934 125.913235 
L 488.32438 125.29666 
L 488.900826 125.745813 
L 489.477273 125.129241 
L 490.630165 126.027552 
L 491.206612 125.410979 
L 491.783058 125.860129 
L 492.359504 125.243552 
L 493.512397 126.141852 
L 494.088843 125.525277 
L 494.665289 125.97443 
L 495.241736 125.357857 
L 495.818182 125.807011 
L 496.394628 125.19044 
L 497.547521 126.088751 
L 498.123967 125.472174 
L 498.700413 125.921325 
L 499.27686 125.304748 
L 500.429752 126.203049 
L 501.006198 125.586474 
L 501.582645 126.035626 
L 502.159091 125.419052 
L 502.735537 125.868204 
L 503.311983 125.25163 
L 504.464876 126.149939 
L 505.041322 125.533368 
L 505.617769 125.982523 
L 506.194215 125.365949 
L 507.347107 126.264253 
L 507.923554 125.647677 
L 508.5 126.096827 
L 509.076446 125.480251 
L 509.652893 125.929402 
L 510.229339 125.312826 
L 511.382231 126.21113 
L 511.958678 125.594555 
L 512.535124 126.043708 
L 513.11157 125.427134 
L 514.264463 126.325442 
L 514.840909 125.70887 
L 515.417355 126.158025 
L 515.993802 125.541453 
L 516.570248 125.990608 
L 517.146694 125.374035 
L 518.299587 126.272338 
L 518.876033 125.655762 
L 519.452479 126.104912 
L 520.028926 125.488336 
L 521.181818 126.386638 
L 521.758264 125.770062 
L 522.334711 126.219213 
L 522.911157 125.602638 
L 523.487603 126.05179 
L 524.06405 125.435216 
L 525.216942 126.333521 
L 525.793388 125.716947 
L 526.369835 126.1661 
L 526.946281 125.549527 
L 528.099174 126.447835 
L 528.67562 125.831263 
L 529.252066 126.280417 
L 529.828512 125.663845 
L 530.404959 126.113 
L 530.981405 125.496428 
L 532.134298 126.394732 
L 532.710744 125.778157 
L 533.28719 126.227308 
L 533.863636 125.610732 
L 535.016529 126.509034 
L 535.592975 125.892458 
L 536.169421 126.34161 
L 536.745868 125.725034 
L 537.322314 126.174185 
L 537.89876 125.55761 
L 539.051653 126.455914 
L 539.628099 125.839339 
L 540.204545 126.288491 
L 540.780992 125.671917 
L 541.933884 126.570222 
L 542.510331 125.953647 
L 543.086777 126.4028 
L 543.663223 125.786226 
L 544.239669 126.235379 
L 544.816116 125.618806 
L 545.969008 126.517112 
L 546.545455 125.900539 
L 547.121901 126.349692 
L 547.698347 125.733119 
L 548.85124 126.631427 
L 549.427686 126.014854 
L 550.004132 126.464008 
L 550.580579 125.847435 
L 551.157025 126.29659 
L 551.733471 125.680016 
L 552.886364 126.578321 
L 553.46281 125.961747 
L 554.039256 126.410898 
L 554.615702 125.794323 
L 555.768595 126.692626 
L 556.345041 126.07605 
L 556.921488 126.525202 
L 557.497934 125.908626 
L 558.07438 126.357778 
L 558.650826 125.741203 
L 559.803719 126.639506 
L 560.380165 126.022931 
L 560.956612 126.472083 
L 561.533058 125.855508 
L 562.68595 126.753812 
L 563.262397 126.137237 
L 563.838843 126.586389 
L 564.415289 125.969815 
L 564.991736 126.418967 
L 565.568182 125.802393 
L 566.721074 126.700698 
L 567.297521 126.084123 
L 567.873967 126.533276 
L 568.450413 125.916702 
L 569.603306 126.815007 
L 570.179752 126.198433 
L 570.756198 126.647585 
L 571.332645 126.031011 
L 571.909091 126.480164 
L 572.485537 125.86359 
L 573.63843 126.761896 
L 574.214876 126.145322 
L 574.791322 126.594475 
L 575.367769 125.977901 
L 576.520661 126.876208 
L 577.097107 126.259634 
L 577.673554 126.708787 
L 578.25 126.092214 
L 578.826446 126.541368 
L 579.402893 125.924794 
L 580.555785 126.823102 
L 581.132231 126.206529 
L 581.708678 126.655683 
L 582.285124 126.039109 
L 583.438017 126.937416 
L 584.014463 126.320842 
L 584.590909 126.769995 
L 585.167355 126.153421 
L 585.743802 126.602572 
L 586.320248 125.985998 
L 587.47314 126.884301 
L 588.049587 126.267726 
L 588.626033 126.716878 
L 589.202479 126.100303 
L 590.355372 126.998606 
L 590.931818 126.382031 
L 591.508264 126.831183 
L 592.084711 126.214608 
L 592.661157 126.66376 
L 593.237603 126.047185 
L 594.390496 126.945489 
L 594.966942 126.328914 
L 595.543388 126.778066 
L 596.119835 126.161492 
L 597.272727 127.059796 
L 597.849174 126.443221 
L 598.42562 126.892373 
L 599.002066 126.275799 
L 599.578512 126.724951 
L 600.154959 126.108376 
L 601.307851 127.006681 
L 601.884298 126.390106 
L 602.460744 126.839259 
L 603.03719 126.222684 
L 604.190083 127.120988 
L 604.766529 126.504414 
L 605.342975 126.953566 
L 605.919421 126.336991 
L 606.495868 126.786144 
L 607.072314 126.169569 
L 608.225207 127.067874 
L 608.801653 126.451299 
L 609.378099 126.900452 
L 609.954545 126.283877 
L 611.107438 127.182182 
L 611.683884 126.565608 
L 612.260331 127.014761 
L 612.836777 126.398186 
L 613.413223 126.847339 
L 613.989669 126.230765 
L 615.142562 127.12907 
L 615.719008 126.512496 
L 616.295455 126.961648 
L 616.871901 126.345074 
L 618.024793 127.24338 
L 618.60124 126.626806 
L 619.177686 127.075959 
L 619.754132 126.459385 
L 620.330579 126.908537 
L 620.907025 126.291964 
L 622.059917 127.190269 
L 622.636364 126.573696 
L 623.21281 127.022849 
L 623.789256 126.406275 
L 624.942149 127.304581 
L 625.518595 126.688007 
L 626.095041 127.13716 
L 626.671488 126.520586 
L 627.247934 126.969739 
L 627.82438 126.353166 
L 628.977273 127.251472 
L 629.553719 126.634899 
L 630.130165 127.084052 
L 630.706612 126.467478 
L 631.859504 127.365785 
L 632.43595 126.749211 
L 633.012397 127.198365 
L 633.588843 126.581791 
L 634.165289 127.030945 
L 634.741736 126.414371 
L 635.894628 127.312678 
L 636.471074 126.696104 
L 636.471074 126.696104 
" style="fill:none;stroke:#1f77b4;stroke-linecap:square;stroke-width:1.5;"/>
   </g>
   <g id="patch_9">
    <path d="M 394.363636 133.396364 
L 394.363636 34.56 
" style="fill:none;stroke:#000000;stroke-linecap:square;stroke-linejoin:miter;stroke-width:0.8;"/>
   </g>
   <g id="patch_10">
    <path d="M 648 133.396364 
L 648 34.56 
" style="fill:none;stroke:#000000;stroke-linecap:square;stroke-linejoin:miter;stroke-width:0.8;"/>
   </g>
   <g id="patch_11">
    <path d="M 394.363636 133.396364 
L 648 133.396364 
" style="fill:none;stroke:#000000;stroke-linecap:square;stroke-linejoin:miter;stroke-width:0.8;"/>
   </g>
   <g id="patch_12">
    <path d="M 394.363636 34.56 
L 648 34.56 
" style="fill:none;stroke:#000000;stroke-linecap:square;stroke-linejoin:miter;stroke-width:0.8;"/>
   </g>
   <g id="text_11">
    <!-- Cons. Difference -->
    <defs>
     <path d="M 19.671875 64.796875 
L 19.671875 8.109375 
L 31.59375 8.109375 
Q 46.6875 8.109375 53.6875 14.9375 
Q 60.6875 21.78125 60.6875 36.53125 
Q 60.6875 51.171875 53.6875 57.984375 
Q 46.6875 64.796875 31.59375 64.796875 
z
M 9.8125 72.90625 
L 30.078125 72.90625 
Q 51.265625 72.90625 61.171875 64.09375 
Q 71.09375 55.28125 71.09375 36.53125 
Q 71.09375 17.671875 61.125 8.828125 
Q 51.171875 0 30.078125 0 
L 9.8125 0 
z
" id="DejaVuSans-68"/>
     <path d="M 37.109375 75.984375 
L 37.109375 68.5 
L 28.515625 68.5 
Q 23.6875 68.5 21.796875 66.546875 
Q 19.921875 64.59375 19.921875 59.515625 
L 19.921875 54.6875 
L 34.71875 54.6875 
L 34.71875 47.703125 
L 19.921875 47.703125 
L 19.921875 0 
L 10.890625 0 
L 10.890625 47.703125 
L 2.296875 47.703125 
L 2.296875 54.6875 
L 10.890625 54.6875 
L 10.890625 58.5 
Q 10.890625 67.625 15.140625 71.796875 
Q 19.390625 75.984375 28.609375 75.984375 
z
" id="DejaVuSans-102"/>
     <path d="M 56.203125 29.59375 
L 56.203125 25.203125 
L 14.890625 25.203125 
Q 15.484375 15.921875 20.484375 11.0625 
Q 25.484375 6.203125 34.421875 6.203125 
Q 39.59375 6.203125 44.453125 7.46875 
Q 49.3125 8.734375 54.109375 11.28125 
L 54.109375 2.78125 
Q 49.265625 0.734375 44.1875 -0.34375 
Q 39.109375 -1.421875 33.890625 -1.421875 
Q 20.796875 -1.421875 13.15625 6.1875 
Q 5.515625 13.8125 5.515625 26.8125 
Q 5.515625 40.234375 12.765625 48.109375 
Q 20.015625 56 32.328125 56 
Q 43.359375 56 49.78125 48.890625 
Q 56.203125 41.796875 56.203125 29.59375 
z
M 47.21875 32.234375 
Q 47.125 39.59375 43.09375 43.984375 
Q 39.0625 48.390625 32.421875 48.390625 
Q 24.90625 48.390625 20.390625 44.140625 
Q 15.875 39.890625 15.1875 32.171875 
z
" id="DejaVuSans-101"/>
     <path d="M 41.109375 46.296875 
Q 39.59375 47.171875 37.8125 47.578125 
Q 36.03125 48 33.890625 48 
Q 26.265625 48 22.1875 43.046875 
Q 18.109375 38.09375 18.109375 28.8125 
L 18.109375 0 
L 9.078125 0 
L 9.078125 54.6875 
L 18.109375 54.6875 
L 18.109375 46.1875 
Q 20.953125 51.171875 25.484375 53.578125 
Q 30.03125 56 36.53125 56 
Q 37.453125 56 38.578125 55.875 
Q 39.703125 55.765625 41.0625 55.515625 
z
" id="DejaVuSans-114"/>
    </defs>
    <g transform="translate(471.425881 28.56)scale(0.12 -0.12)">
     <use xlink:href="#DejaVuSans-67"/>
     <use x="69.824219" xlink:href="#DejaVuSans-111"/>
     <use x="131.005859" xlink:href="#DejaVuSans-110"/>
     <use x="194.384766" xlink:href="#DejaVuSans-115"/>
     <use x="246.484375" xlink:href="#DejaVuSans-46"/>
     <use x="278.271484" xlink:href="#DejaVuSans-32"/>
     <use x="310.058594" xlink:href="#DejaVuSans-68"/>
     <use x="387.060547" xlink:href="#DejaVuSans-105"/>
     <use x="414.84375" xlink:href="#DejaVuSans-102"/>
     <use x="450.048828" xlink:href="#DejaVuSans-102"/>
     <use x="485.253906" xlink:href="#DejaVuSans-101"/>
     <use x="546.777344" xlink:href="#DejaVuSans-114"/>
     <use x="587.859375" xlink:href="#DejaVuSans-101"/>
     <use x="649.382812" xlink:href="#DejaVuSans-110"/>
     <use x="712.761719" xlink:href="#DejaVuSans-99"/>
     <use x="767.742188" xlink:href="#DejaVuSans-101"/>
    </g>
   </g>
   <g id="legend_2">
    <g id="patch_13">
     <path d="M 547.809375 57.238125 
L 641 57.238125 
Q 643 57.238125 643 55.238125 
L 643 41.56 
Q 643 39.56 641 39.56 
L 547.809375 39.56 
Q 545.809375 39.56 545.809375 41.56 
L 545.809375 55.238125 
Q 545.809375 57.238125 547.809375 57.238125 
z
" style="fill:#ffffff;opacity:0.8;stroke:#cccccc;stroke-linejoin:miter;"/>
    </g>
    <g id="line2d_42">
     <path d="M 549.809375 47.658437 
L 569.809375 47.658437 
" style="fill:none;stroke:#1f77b4;stroke-linecap:square;stroke-width:1.5;"/>
    </g>
    <g id="line2d_43"/>
    <g id="text_12">
     <!-- CGM - HARK -->
     <defs>
      <path d="M 4.890625 31.390625 
L 31.203125 31.390625 
L 31.203125 23.390625 
L 4.890625 23.390625 
z
" id="DejaVuSans-45"/>
     </defs>
     <g transform="translate(577.809375 51.158437)scale(0.1 -0.1)">
      <use xlink:href="#DejaVuSans-67"/>
      <use x="69.824219" xlink:href="#DejaVuSans-71"/>
      <use x="147.314453" xlink:href="#DejaVuSans-77"/>
      <use x="233.59375" xlink:href="#DejaVuSans-32"/>
      <use x="265.380859" xlink:href="#DejaVuSans-45"/>
      <use x="301.464844" xlink:href="#DejaVuSans-32"/>
      <use x="333.251953" xlink:href="#DejaVuSans-72"/>
      <use x="408.447266" xlink:href="#DejaVuSans-65"/>
      <use x="476.855469" xlink:href="#DejaVuSans-82"/>
      <use x="546.337891" xlink:href="#DejaVuSans-75"/>
     </g>
    </g>
   </g>
  </g>
  <g id="axes_3">
   <g id="patch_14">
    <path d="M 90 252 
L 343.636364 252 
L 343.636364 153.163636 
L 90 153.163636 
z
" style="fill:#ffffff;"/>
   </g>
   <g id="matplotlib.axis_5">
    <g id="xtick_11">
     <g id="line2d_44">
      <path clip-path="url(#p327c0aad65)" d="M 99.22314 252 
L 99.22314 153.163636 
" style="fill:none;stroke:#b0b0b0;stroke-linecap:square;stroke-width:0.8;"/>
     </g>
     <g id="line2d_45">
      <g>
       <use style="stroke:#000000;stroke-width:0.8;" x="99.22314" xlink:href="#mbe15c9ff48" y="252"/>
      </g>
     </g>
     <g id="text_13">
      <!-- 0 -->
      <g transform="translate(96.04189 266.598437)scale(0.1 -0.1)">
       <use xlink:href="#DejaVuSans-48"/>
      </g>
     </g>
    </g>
    <g id="xtick_12">
     <g id="line2d_46">
      <path clip-path="url(#p327c0aad65)" d="M 156.867769 252 
L 156.867769 153.163636 
" style="fill:none;stroke:#b0b0b0;stroke-linecap:square;stroke-width:0.8;"/>
     </g>
     <g id="line2d_47">
      <g>
       <use style="stroke:#000000;stroke-width:0.8;" x="156.867769" xlink:href="#mbe15c9ff48" y="252"/>
      </g>
     </g>
     <g id="text_14">
      <!-- 100 -->
      <g transform="translate(147.324019 266.598437)scale(0.1 -0.1)">
       <use xlink:href="#DejaVuSans-49"/>
       <use x="63.623047" xlink:href="#DejaVuSans-48"/>
       <use x="127.246094" xlink:href="#DejaVuSans-48"/>
      </g>
     </g>
    </g>
    <g id="xtick_13">
     <g id="line2d_48">
      <path clip-path="url(#p327c0aad65)" d="M 214.512397 252 
L 214.512397 153.163636 
" style="fill:none;stroke:#b0b0b0;stroke-linecap:square;stroke-width:0.8;"/>
     </g>
     <g id="line2d_49">
      <g>
       <use style="stroke:#000000;stroke-width:0.8;" x="214.512397" xlink:href="#mbe15c9ff48" y="252"/>
      </g>
     </g>
     <g id="text_15">
      <!-- 200 -->
      <g transform="translate(204.968647 266.598437)scale(0.1 -0.1)">
       <use xlink:href="#DejaVuSans-50"/>
       <use x="63.623047" xlink:href="#DejaVuSans-48"/>
       <use x="127.246094" xlink:href="#DejaVuSans-48"/>
      </g>
     </g>
    </g>
    <g id="xtick_14">
     <g id="line2d_50">
      <path clip-path="url(#p327c0aad65)" d="M 272.157025 252 
L 272.157025 153.163636 
" style="fill:none;stroke:#b0b0b0;stroke-linecap:square;stroke-width:0.8;"/>
     </g>
     <g id="line2d_51">
      <g>
       <use style="stroke:#000000;stroke-width:0.8;" x="272.157025" xlink:href="#mbe15c9ff48" y="252"/>
      </g>
     </g>
     <g id="text_16">
      <!-- 300 -->
      <defs>
       <path d="M 40.578125 39.3125 
Q 47.65625 37.796875 51.625 33 
Q 55.609375 28.21875 55.609375 21.1875 
Q 55.609375 10.40625 48.1875 4.484375 
Q 40.765625 -1.421875 27.09375 -1.421875 
Q 22.515625 -1.421875 17.65625 -0.515625 
Q 12.796875 0.390625 7.625 2.203125 
L 7.625 11.71875 
Q 11.71875 9.328125 16.59375 8.109375 
Q 21.484375 6.890625 26.8125 6.890625 
Q 36.078125 6.890625 40.9375 10.546875 
Q 45.796875 14.203125 45.796875 21.1875 
Q 45.796875 27.640625 41.28125 31.265625 
Q 36.765625 34.90625 28.71875 34.90625 
L 20.21875 34.90625 
L 20.21875 43.015625 
L 29.109375 43.015625 
Q 36.375 43.015625 40.234375 45.921875 
Q 44.09375 48.828125 44.09375 54.296875 
Q 44.09375 59.90625 40.109375 62.90625 
Q 36.140625 65.921875 28.71875 65.921875 
Q 24.65625 65.921875 20.015625 65.03125 
Q 15.375 64.15625 9.8125 62.3125 
L 9.8125 71.09375 
Q 15.4375 72.65625 20.34375 73.4375 
Q 25.25 74.21875 29.59375 74.21875 
Q 40.828125 74.21875 47.359375 69.109375 
Q 53.90625 64.015625 53.90625 55.328125 
Q 53.90625 49.265625 50.4375 45.09375 
Q 46.96875 40.921875 40.578125 39.3125 
z
" id="DejaVuSans-51"/>
      </defs>
      <g transform="translate(262.613275 266.598437)scale(0.1 -0.1)">
       <use xlink:href="#DejaVuSans-51"/>
       <use x="63.623047" xlink:href="#DejaVuSans-48"/>
       <use x="127.246094" xlink:href="#DejaVuSans-48"/>
      </g>
     </g>
    </g>
    <g id="xtick_15">
     <g id="line2d_52">
      <path clip-path="url(#p327c0aad65)" d="M 329.801653 252 
L 329.801653 153.163636 
" style="fill:none;stroke:#b0b0b0;stroke-linecap:square;stroke-width:0.8;"/>
     </g>
     <g id="line2d_53">
      <g>
       <use style="stroke:#000000;stroke-width:0.8;" x="329.801653" xlink:href="#mbe15c9ff48" y="252"/>
      </g>
     </g>
     <g id="text_17">
      <!-- 400 -->
      <defs>
       <path d="M 37.796875 64.3125 
L 12.890625 25.390625 
L 37.796875 25.390625 
z
M 35.203125 72.90625 
L 47.609375 72.90625 
L 47.609375 25.390625 
L 58.015625 25.390625 
L 58.015625 17.1875 
L 47.609375 17.1875 
L 47.609375 0 
L 37.796875 0 
L 37.796875 17.1875 
L 4.890625 17.1875 
L 4.890625 26.703125 
z
" id="DejaVuSans-52"/>
      </defs>
      <g transform="translate(320.257903 266.598437)scale(0.1 -0.1)">
       <use xlink:href="#DejaVuSans-52"/>
       <use x="63.623047" xlink:href="#DejaVuSans-48"/>
       <use x="127.246094" xlink:href="#DejaVuSans-48"/>
      </g>
     </g>
    </g>
   </g>
   <g id="matplotlib.axis_6">
    <g id="ytick_8">
     <g id="line2d_54">
      <path clip-path="url(#p327c0aad65)" d="M 90 247.507438 
L 343.636364 247.507438 
" style="fill:none;stroke:#b0b0b0;stroke-linecap:square;stroke-width:0.8;"/>
     </g>
     <g id="line2d_55">
      <g>
       <use style="stroke:#000000;stroke-width:0.8;" x="90" xlink:href="#m4a57f0906f" y="247.507438"/>
      </g>
     </g>
     <g id="text_18">
      <!-- 0.0 -->
      <g transform="translate(67.096875 251.306657)scale(0.1 -0.1)">
       <use xlink:href="#DejaVuSans-48"/>
       <use x="63.623047" xlink:href="#DejaVuSans-46"/>
       <use x="95.410156" xlink:href="#DejaVuSans-48"/>
      </g>
     </g>
    </g>
    <g id="ytick_9">
     <g id="line2d_56">
      <path clip-path="url(#p327c0aad65)" d="M 90 202.581818 
L 343.636364 202.581818 
" style="fill:none;stroke:#b0b0b0;stroke-linecap:square;stroke-width:0.8;"/>
     </g>
     <g id="line2d_57">
      <g>
       <use style="stroke:#000000;stroke-width:0.8;" x="90" xlink:href="#m4a57f0906f" y="202.581818"/>
      </g>
     </g>
     <g id="text_19">
      <!-- 0.5 -->
      <g transform="translate(67.096875 206.381037)scale(0.1 -0.1)">
       <use xlink:href="#DejaVuSans-48"/>
       <use x="63.623047" xlink:href="#DejaVuSans-46"/>
       <use x="95.410156" xlink:href="#DejaVuSans-53"/>
      </g>
     </g>
    </g>
    <g id="ytick_10">
     <g id="line2d_58">
      <path clip-path="url(#p327c0aad65)" d="M 90 157.656198 
L 343.636364 157.656198 
" style="fill:none;stroke:#b0b0b0;stroke-linecap:square;stroke-width:0.8;"/>
     </g>
     <g id="line2d_59">
      <g>
       <use style="stroke:#000000;stroke-width:0.8;" x="90" xlink:href="#m4a57f0906f" y="157.656198"/>
      </g>
     </g>
     <g id="text_20">
      <!-- 1.0 -->
      <g transform="translate(67.096875 161.455417)scale(0.1 -0.1)">
       <use xlink:href="#DejaVuSans-49"/>
       <use x="63.623047" xlink:href="#DejaVuSans-46"/>
       <use x="95.410156" xlink:href="#DejaVuSans-48"/>
      </g>
     </g>
    </g>
   </g>
   <g id="line2d_60">
    <path clip-path="url(#p327c0aad65)" d="M 101.528926 247.507438 
L 109.022727 247.507438 
L 109.599174 157.656198 
L 114.78719 157.656198 
L 115.363636 158.554711 
L 117.092975 175.626446 
L 117.669421 178.321983 
L 118.245868 182.814545 
L 118.822314 184.61157 
L 119.39876 188.20562 
L 119.975207 190.002645 
L 121.128099 195.393719 
L 121.704545 196.292231 
L 122.857438 199.886281 
L 123.433884 200.784793 
L 124.010331 202.581818 
L 127.469008 207.972893 
L 128.045455 210.66843 
L 128.621901 211.566942 
L 129.198347 211.566942 
L 129.774793 212.465455 
L 130.927686 212.465455 
L 131.504132 213.363967 
L 132.080579 213.363967 
L 132.657025 214.262479 
L 133.233471 214.262479 
L 133.809917 215.160992 
L 134.386364 214.262479 
L 134.96281 218.755041 
L 135.539256 222.349091 
L 136.115702 210.66843 
L 137.268595 216.059504 
L 137.845041 221.450579 
L 138.421488 210.66843 
L 138.997934 216.958017 
L 139.57438 216.958017 
L 140.727273 209.769917 
L 141.303719 224.146116 
L 142.456612 220.552066 
L 143.033058 219.653554 
L 143.609504 223.247603 
L 144.18595 223.247603 
L 144.762397 221.450579 
L 145.338843 220.552066 
L 145.915289 220.552066 
L 146.491736 221.450579 
L 149.950413 221.450579 
L 150.52686 222.349091 
L 153.985537 222.349091 
L 154.561983 223.247603 
L 158.020661 223.247603 
L 158.597107 224.146116 
L 163.785124 224.146116 
L 164.36157 225.044628 
L 170.126033 225.044628 
L 170.702479 225.94314 
L 178.772727 225.94314 
L 179.349174 226.841653 
L 190.878099 226.841653 
L 191.454545 227.740165 
L 207.018595 227.740165 
L 207.595041 228.638678 
L 231.805785 228.638678 
L 232.382231 229.53719 
L 273.309917 229.53719 
L 273.886364 230.435702 
L 332.107438 230.435702 
L 332.107438 230.435702 
" style="fill:none;stroke:#1f77b4;stroke-linecap:square;stroke-width:1.5;"/>
   </g>
   <g id="line2d_61">
    <path clip-path="url(#p327c0aad65)" d="M 101.528926 157.656198 
L 115.940083 157.656198 
L 116.516529 159.351125 
L 118.245868 165.122379 
L 119.975207 169.950788 
L 121.704545 174.072691 
L 123.433884 177.716639 
L 125.163223 180.880933 
L 126.892562 183.650862 
L 129.198347 186.845303 
L 131.504132 189.583588 
L 133.809917 191.956593 
L 136.115702 194.032514 
L 138.997934 196.290768 
L 141.880165 198.241518 
L 144.762397 199.947105 
L 148.221074 201.727842 
L 151.679752 203.275585 
L 155.714876 204.839826 
L 160.326446 206.375003 
L 165.514463 207.845808 
L 170.702479 209.104896 
L 177.043388 210.413322 
L 183.960744 211.620782 
L 192.607438 212.875658 
L 201.830579 213.981131 
L 212.783058 215.062553 
L 225.464876 216.078397 
L 241.028926 217.076882 
L 258.322314 217.958837 
L 279.07438 218.79227 
L 303.285124 219.548849 
L 332.107438 220.246589 
L 332.107438 220.246589 
" style="fill:none;stroke:#ff7f0e;stroke-linecap:square;stroke-width:1.5;"/>
   </g>
   <g id="patch_15">
    <path d="M 90 252 
L 90 153.163636 
" style="fill:none;stroke:#000000;stroke-linecap:square;stroke-linejoin:miter;stroke-width:0.8;"/>
   </g>
   <g id="patch_16">
    <path d="M 343.636364 252 
L 343.636364 153.163636 
" style="fill:none;stroke:#000000;stroke-linecap:square;stroke-linejoin:miter;stroke-width:0.8;"/>
   </g>
   <g id="patch_17">
    <path d="M 90 252 
L 343.636364 252 
" style="fill:none;stroke:#000000;stroke-linecap:square;stroke-linejoin:miter;stroke-width:0.8;"/>
   </g>
   <g id="patch_18">
    <path d="M 90 153.163636 
L 343.636364 153.163636 
" style="fill:none;stroke:#000000;stroke-linecap:square;stroke-linejoin:miter;stroke-width:0.8;"/>
   </g>
   <g id="text_21">
    <!-- Risky Sh. Functions -->
    <defs>
     <path d="M 9.078125 75.984375 
L 18.109375 75.984375 
L 18.109375 31.109375 
L 44.921875 54.6875 
L 56.390625 54.6875 
L 27.390625 29.109375 
L 57.625 0 
L 45.90625 0 
L 18.109375 26.703125 
L 18.109375 0 
L 9.078125 0 
z
" id="DejaVuSans-107"/>
     <path d="M 32.171875 -5.078125 
Q 28.375 -14.84375 24.75 -17.8125 
Q 21.140625 -20.796875 15.09375 -20.796875 
L 7.90625 -20.796875 
L 7.90625 -13.28125 
L 13.1875 -13.28125 
Q 16.890625 -13.28125 18.9375 -11.515625 
Q 21 -9.765625 23.484375 -3.21875 
L 25.09375 0.875 
L 2.984375 54.6875 
L 12.5 54.6875 
L 29.59375 11.921875 
L 46.6875 54.6875 
L 56.203125 54.6875 
z
" id="DejaVuSans-121"/>
     <path d="M 53.515625 70.515625 
L 53.515625 60.890625 
Q 47.90625 63.578125 42.921875 64.890625 
Q 37.9375 66.21875 33.296875 66.21875 
Q 25.25 66.21875 20.875 63.09375 
Q 16.5 59.96875 16.5 54.203125 
Q 16.5 49.359375 19.40625 46.890625 
Q 22.3125 44.4375 30.421875 42.921875 
L 36.375 41.703125 
Q 47.40625 39.59375 52.65625 34.296875 
Q 57.90625 29 57.90625 20.125 
Q 57.90625 9.515625 50.796875 4.046875 
Q 43.703125 -1.421875 29.984375 -1.421875 
Q 24.8125 -1.421875 18.96875 -0.25 
Q 13.140625 0.921875 6.890625 3.21875 
L 6.890625 13.375 
Q 12.890625 10.015625 18.65625 8.296875 
Q 24.421875 6.59375 29.984375 6.59375 
Q 38.421875 6.59375 43.015625 9.90625 
Q 47.609375 13.234375 47.609375 19.390625 
Q 47.609375 24.75 44.3125 27.78125 
Q 41.015625 30.8125 33.5 32.328125 
L 27.484375 33.5 
Q 16.453125 35.6875 11.515625 40.375 
Q 6.59375 45.0625 6.59375 53.421875 
Q 6.59375 63.09375 13.40625 68.65625 
Q 20.21875 74.21875 32.171875 74.21875 
Q 37.3125 74.21875 42.625 73.28125 
Q 47.953125 72.359375 53.515625 70.515625 
z
" id="DejaVuSans-83"/>
     <path d="M 54.890625 33.015625 
L 54.890625 0 
L 45.90625 0 
L 45.90625 32.71875 
Q 45.90625 40.484375 42.875 44.328125 
Q 39.84375 48.1875 33.796875 48.1875 
Q 26.515625 48.1875 22.3125 43.546875 
Q 18.109375 38.921875 18.109375 30.90625 
L 18.109375 0 
L 9.078125 0 
L 9.078125 75.984375 
L 18.109375 75.984375 
L 18.109375 46.1875 
Q 21.34375 51.125 25.703125 53.5625 
Q 30.078125 56 35.796875 56 
Q 45.21875 56 50.046875 50.171875 
Q 54.890625 44.34375 54.890625 33.015625 
z
" id="DejaVuSans-104"/>
    </defs>
    <g transform="translate(158.532869 147.163636)scale(0.12 -0.12)">
     <use xlink:href="#DejaVuSans-82"/>
     <use x="69.482422" xlink:href="#DejaVuSans-105"/>
     <use x="97.265625" xlink:href="#DejaVuSans-115"/>
     <use x="149.365234" xlink:href="#DejaVuSans-107"/>
     <use x="207.228516" xlink:href="#DejaVuSans-121"/>
     <use x="266.408203" xlink:href="#DejaVuSans-32"/>
     <use x="298.195312" xlink:href="#DejaVuSans-83"/>
     <use x="361.671875" xlink:href="#DejaVuSans-104"/>
     <use x="425.050781" xlink:href="#DejaVuSans-46"/>
     <use x="456.837891" xlink:href="#DejaVuSans-32"/>
     <use x="488.625" xlink:href="#DejaVuSans-70"/>
     <use x="546.066406" xlink:href="#DejaVuSans-117"/>
     <use x="609.445312" xlink:href="#DejaVuSans-110"/>
     <use x="672.824219" xlink:href="#DejaVuSans-99"/>
     <use x="727.804688" xlink:href="#DejaVuSans-116"/>
     <use x="767.013672" xlink:href="#DejaVuSans-105"/>
     <use x="794.796875" xlink:href="#DejaVuSans-111"/>
     <use x="855.978516" xlink:href="#DejaVuSans-110"/>
     <use x="919.357422" xlink:href="#DejaVuSans-115"/>
    </g>
   </g>
   <g id="legend_3">
    <g id="patch_19">
     <path d="M 276.769176 190.519886 
L 336.636364 190.519886 
Q 338.636364 190.519886 338.636364 188.519886 
L 338.636364 160.163636 
Q 338.636364 158.163636 336.636364 158.163636 
L 276.769176 158.163636 
Q 274.769176 158.163636 274.769176 160.163636 
L 274.769176 188.519886 
Q 274.769176 190.519886 276.769176 190.519886 
z
" style="fill:#ffffff;opacity:0.8;stroke:#cccccc;stroke-linejoin:miter;"/>
    </g>
    <g id="line2d_62">
     <path d="M 278.769176 166.262074 
L 298.769176 166.262074 
" style="fill:none;stroke:#1f77b4;stroke-linecap:square;stroke-width:1.5;"/>
    </g>
    <g id="line2d_63"/>
    <g id="text_22">
     <!-- CGM -->
     <g transform="translate(306.769176 169.762074)scale(0.1 -0.1)">
      <use xlink:href="#DejaVuSans-67"/>
      <use x="69.824219" xlink:href="#DejaVuSans-71"/>
      <use x="147.314453" xlink:href="#DejaVuSans-77"/>
     </g>
    </g>
    <g id="line2d_64">
     <path d="M 278.769176 180.940199 
L 298.769176 180.940199 
" style="fill:none;stroke:#ff7f0e;stroke-linecap:square;stroke-width:1.5;"/>
    </g>
    <g id="line2d_65"/>
    <g id="text_23">
     <!-- HARK -->
     <g transform="translate(306.769176 184.440199)scale(0.1 -0.1)">
      <use xlink:href="#DejaVuSans-72"/>
      <use x="75.195312" xlink:href="#DejaVuSans-65"/>
      <use x="143.603516" xlink:href="#DejaVuSans-82"/>
      <use x="213.085938" xlink:href="#DejaVuSans-75"/>
     </g>
    </g>
   </g>
  </g>
  <g id="axes_4">
   <g id="patch_20">
    <path d="M 394.363636 252 
L 648 252 
L 648 153.163636 
L 394.363636 153.163636 
z
" style="fill:#ffffff;"/>
   </g>
   <g id="matplotlib.axis_7">
    <g id="xtick_16">
     <g id="line2d_66">
      <path clip-path="url(#p9b59f5ace4)" d="M 403.586777 252 
L 403.586777 153.163636 
" style="fill:none;stroke:#b0b0b0;stroke-linecap:square;stroke-width:0.8;"/>
     </g>
     <g id="line2d_67">
      <g>
       <use style="stroke:#000000;stroke-width:0.8;" x="403.586777" xlink:href="#mbe15c9ff48" y="252"/>
      </g>
     </g>
     <g id="text_24">
      <!-- 0 -->
      <g transform="translate(400.405527 266.598437)scale(0.1 -0.1)">
       <use xlink:href="#DejaVuSans-48"/>
      </g>
     </g>
    </g>
    <g id="xtick_17">
     <g id="line2d_68">
      <path clip-path="url(#p9b59f5ace4)" d="M 461.231405 252 
L 461.231405 153.163636 
" style="fill:none;stroke:#b0b0b0;stroke-linecap:square;stroke-width:0.8;"/>
     </g>
     <g id="line2d_69">
      <g>
       <use style="stroke:#000000;stroke-width:0.8;" x="461.231405" xlink:href="#mbe15c9ff48" y="252"/>
      </g>
     </g>
     <g id="text_25">
      <!-- 100 -->
      <g transform="translate(451.687655 266.598437)scale(0.1 -0.1)">
       <use xlink:href="#DejaVuSans-49"/>
       <use x="63.623047" xlink:href="#DejaVuSans-48"/>
       <use x="127.246094" xlink:href="#DejaVuSans-48"/>
      </g>
     </g>
    </g>
    <g id="xtick_18">
     <g id="line2d_70">
      <path clip-path="url(#p9b59f5ace4)" d="M 518.876033 252 
L 518.876033 153.163636 
" style="fill:none;stroke:#b0b0b0;stroke-linecap:square;stroke-width:0.8;"/>
     </g>
     <g id="line2d_71">
      <g>
       <use style="stroke:#000000;stroke-width:0.8;" x="518.876033" xlink:href="#mbe15c9ff48" y="252"/>
      </g>
     </g>
     <g id="text_26">
      <!-- 200 -->
      <g transform="translate(509.332283 266.598437)scale(0.1 -0.1)">
       <use xlink:href="#DejaVuSans-50"/>
       <use x="63.623047" xlink:href="#DejaVuSans-48"/>
       <use x="127.246094" xlink:href="#DejaVuSans-48"/>
      </g>
     </g>
    </g>
    <g id="xtick_19">
     <g id="line2d_72">
      <path clip-path="url(#p9b59f5ace4)" d="M 576.520661 252 
L 576.520661 153.163636 
" style="fill:none;stroke:#b0b0b0;stroke-linecap:square;stroke-width:0.8;"/>
     </g>
     <g id="line2d_73">
      <g>
       <use style="stroke:#000000;stroke-width:0.8;" x="576.520661" xlink:href="#mbe15c9ff48" y="252"/>
      </g>
     </g>
     <g id="text_27">
      <!-- 300 -->
      <g transform="translate(566.976911 266.598437)scale(0.1 -0.1)">
       <use xlink:href="#DejaVuSans-51"/>
       <use x="63.623047" xlink:href="#DejaVuSans-48"/>
       <use x="127.246094" xlink:href="#DejaVuSans-48"/>
      </g>
     </g>
    </g>
    <g id="xtick_20">
     <g id="line2d_74">
      <path clip-path="url(#p9b59f5ace4)" d="M 634.165289 252 
L 634.165289 153.163636 
" style="fill:none;stroke:#b0b0b0;stroke-linecap:square;stroke-width:0.8;"/>
     </g>
     <g id="line2d_75">
      <g>
       <use style="stroke:#000000;stroke-width:0.8;" x="634.165289" xlink:href="#mbe15c9ff48" y="252"/>
      </g>
     </g>
     <g id="text_28">
      <!-- 400 -->
      <g transform="translate(624.621539 266.598437)scale(0.1 -0.1)">
       <use xlink:href="#DejaVuSans-52"/>
       <use x="63.623047" xlink:href="#DejaVuSans-48"/>
       <use x="127.246094" xlink:href="#DejaVuSans-48"/>
      </g>
     </g>
    </g>
   </g>
   <g id="matplotlib.axis_8">
    <g id="ytick_11">
     <g id="line2d_76">
      <path clip-path="url(#p9b59f5ace4)" d="M 394.363636 247.507438 
L 648 247.507438 
" style="fill:none;stroke:#b0b0b0;stroke-linecap:square;stroke-width:0.8;"/>
     </g>
     <g id="line2d_77">
      <g>
       <use style="stroke:#000000;stroke-width:0.8;" x="394.363636" xlink:href="#m4a57f0906f" y="247.507438"/>
      </g>
     </g>
     <g id="text_29">
      <!-- −1.0 -->
      <g transform="translate(363.080824 251.306657)scale(0.1 -0.1)">
       <use xlink:href="#DejaVuSans-8722"/>
       <use x="83.789062" xlink:href="#DejaVuSans-49"/>
       <use x="147.412109" xlink:href="#DejaVuSans-46"/>
       <use x="179.199219" xlink:href="#DejaVuSans-48"/>
      </g>
     </g>
    </g>
    <g id="ytick_12">
     <g id="line2d_78">
      <path clip-path="url(#p9b59f5ace4)" d="M 394.363636 202.581818 
L 648 202.581818 
" style="fill:none;stroke:#b0b0b0;stroke-linecap:square;stroke-width:0.8;"/>
     </g>
     <g id="line2d_79">
      <g>
       <use style="stroke:#000000;stroke-width:0.8;" x="394.363636" xlink:href="#m4a57f0906f" y="202.581818"/>
      </g>
     </g>
     <g id="text_30">
      <!-- −0.5 -->
      <g transform="translate(363.080824 206.381037)scale(0.1 -0.1)">
       <use xlink:href="#DejaVuSans-8722"/>
       <use x="83.789062" xlink:href="#DejaVuSans-48"/>
       <use x="147.412109" xlink:href="#DejaVuSans-46"/>
       <use x="179.199219" xlink:href="#DejaVuSans-53"/>
      </g>
     </g>
    </g>
    <g id="ytick_13">
     <g id="line2d_80">
      <path clip-path="url(#p9b59f5ace4)" d="M 394.363636 157.656198 
L 648 157.656198 
" style="fill:none;stroke:#b0b0b0;stroke-linecap:square;stroke-width:0.8;"/>
     </g>
     <g id="line2d_81">
      <g>
       <use style="stroke:#000000;stroke-width:0.8;" x="394.363636" xlink:href="#m4a57f0906f" y="157.656198"/>
      </g>
     </g>
     <g id="text_31">
      <!-- 0.0 -->
      <g transform="translate(371.460511 161.455417)scale(0.1 -0.1)">
       <use xlink:href="#DejaVuSans-48"/>
       <use x="63.623047" xlink:href="#DejaVuSans-46"/>
       <use x="95.410156" xlink:href="#DejaVuSans-48"/>
      </g>
     </g>
    </g>
   </g>
   <g id="line2d_82">
    <path clip-path="url(#p9b59f5ace4)" d="M 405.892562 247.507438 
L 413.386364 247.507438 
L 413.96281 157.656198 
L 419.150826 157.656198 
L 419.727273 158.554711 
L 420.880165 168.540446 
L 421.456612 171.875634 
L 422.033058 172.658076 
L 422.609504 175.348365 
L 423.18595 175.445447 
L 423.762397 177.431915 
L 424.338843 177.708055 
L 425.491736 180.286245 
L 426.068182 179.875738 
L 427.221074 180.982886 
L 427.797521 180.724353 
L 428.373967 181.417382 
L 429.52686 181.154108 
L 430.679752 181.06653 
L 431.832645 181.131798 
L 432.409091 183.012639 
L 432.985537 183.130856 
L 433.561983 182.377837 
L 434.13843 182.553229 
L 435.291322 181.185941 
L 435.867769 181.436577 
L 436.444215 180.812711 
L 437.020661 181.108336 
L 437.597107 180.525615 
L 438.173554 180.860598 
L 438.75 179.417745 
L 439.326446 183.383322 
L 439.902893 186.467059 
L 440.479339 174.292114 
L 441.632231 178.739603 
L 442.208678 183.679271 
L 442.785124 172.459032 
L 443.36157 178.323447 
L 443.938017 177.910675 
L 445.090909 169.932245 
L 445.667355 183.929933 
L 446.820248 179.60735 
L 447.396694 178.35897 
L 447.97314 181.612285 
L 448.549587 181.280301 
L 449.126033 179.159672 
L 449.702479 177.945584 
L 450.278926 177.637701 
L 450.855372 178.236862 
L 454.31405 176.578759 
L 454.890496 177.222931 
L 458.349174 175.808898 
L 458.92562 176.489249 
L 462.384298 175.266585 
L 462.960744 175.975133 
L 467.572314 174.581468 
L 468.14876 174.421162 
L 468.725207 175.162144 
L 473.913223 173.859411 
L 474.489669 173.72642 
L 475.066116 174.494443 
L 481.407025 173.186016 
L 483.136364 172.863899 
L 483.71281 173.65913 
L 490.630165 172.518353 
L 495.241736 171.85427 
L 495.818182 172.674002 
L 505.617769 171.477984 
L 511.382231 170.875343 
L 511.958678 171.71731 
L 523.487603 170.69741 
L 536.169421 169.782318 
L 536.745868 170.643154 
L 553.46281 169.679463 
L 572.485537 168.815333 
L 577.673554 168.612249 
L 578.25 169.48926 
L 603.03719 168.672992 
L 631.283058 167.957876 
L 636.471074 167.845312 
L 636.471074 167.845312 
" style="fill:none;stroke:#1f77b4;stroke-linecap:square;stroke-width:1.5;"/>
   </g>
   <g id="patch_21">
    <path d="M 394.363636 252 
L 394.363636 153.163636 
" style="fill:none;stroke:#000000;stroke-linecap:square;stroke-linejoin:miter;stroke-width:0.8;"/>
   </g>
   <g id="patch_22">
    <path d="M 648 252 
L 648 153.163636 
" style="fill:none;stroke:#000000;stroke-linecap:square;stroke-linejoin:miter;stroke-width:0.8;"/>
   </g>
   <g id="patch_23">
    <path d="M 394.363636 252 
L 648 252 
" style="fill:none;stroke:#000000;stroke-linecap:square;stroke-linejoin:miter;stroke-width:0.8;"/>
   </g>
   <g id="patch_24">
    <path d="M 394.363636 153.163636 
L 648 153.163636 
" style="fill:none;stroke:#000000;stroke-linecap:square;stroke-linejoin:miter;stroke-width:0.8;"/>
   </g>
   <g id="text_32">
    <!-- Risky Sh. Difference -->
    <g transform="translate(460.712131 147.163636)scale(0.12 -0.12)">
     <use xlink:href="#DejaVuSans-82"/>
     <use x="69.482422" xlink:href="#DejaVuSans-105"/>
     <use x="97.265625" xlink:href="#DejaVuSans-115"/>
     <use x="149.365234" xlink:href="#DejaVuSans-107"/>
     <use x="207.228516" xlink:href="#DejaVuSans-121"/>
     <use x="266.408203" xlink:href="#DejaVuSans-32"/>
     <use x="298.195312" xlink:href="#DejaVuSans-83"/>
     <use x="361.671875" xlink:href="#DejaVuSans-104"/>
     <use x="425.050781" xlink:href="#DejaVuSans-46"/>
     <use x="456.837891" xlink:href="#DejaVuSans-32"/>
     <use x="488.625" xlink:href="#DejaVuSans-68"/>
     <use x="565.626953" xlink:href="#DejaVuSans-105"/>
     <use x="593.410156" xlink:href="#DejaVuSans-102"/>
     <use x="628.615234" xlink:href="#DejaVuSans-102"/>
     <use x="663.820312" xlink:href="#DejaVuSans-101"/>
     <use x="725.34375" xlink:href="#DejaVuSans-114"/>
     <use x="766.425781" xlink:href="#DejaVuSans-101"/>
     <use x="827.949219" xlink:href="#DejaVuSans-110"/>
     <use x="891.328125" xlink:href="#DejaVuSans-99"/>
     <use x="946.308594" xlink:href="#DejaVuSans-101"/>
    </g>
   </g>
   <g id="legend_4">
    <g id="patch_25">
     <path d="M 547.809375 247 
L 641 247 
Q 643 247 643 245 
L 643 231.321875 
Q 643 229.321875 641 229.321875 
L 547.809375 229.321875 
Q 545.809375 229.321875 545.809375 231.321875 
L 545.809375 245 
Q 545.809375 247 547.809375 247 
z
" style="fill:#ffffff;opacity:0.8;stroke:#cccccc;stroke-linejoin:miter;"/>
    </g>
    <g id="line2d_83">
     <path d="M 549.809375 237.420312 
L 569.809375 237.420312 
" style="fill:none;stroke:#1f77b4;stroke-linecap:square;stroke-width:1.5;"/>
    </g>
    <g id="line2d_84"/>
    <g id="text_33">
     <!-- CGM - HARK -->
     <g transform="translate(577.809375 240.920312)scale(0.1 -0.1)">
      <use xlink:href="#DejaVuSans-67"/>
      <use x="69.824219" xlink:href="#DejaVuSans-71"/>
      <use x="147.314453" xlink:href="#DejaVuSans-77"/>
      <use x="233.59375" xlink:href="#DejaVuSans-32"/>
      <use x="265.380859" xlink:href="#DejaVuSans-45"/>
      <use x="301.464844" xlink:href="#DejaVuSans-32"/>
      <use x="333.251953" xlink:href="#DejaVuSans-72"/>
      <use x="408.447266" xlink:href="#DejaVuSans-65"/>
      <use x="476.855469" xlink:href="#DejaVuSans-82"/>
      <use x="546.337891" xlink:href="#DejaVuSans-75"/>
     </g>
    </g>
   </g>
  </g>
  <g id="text_34">
   <!-- Year 98 -->
   <defs>
    <path d="M -0.203125 72.90625 
L 10.40625 72.90625 
L 30.609375 42.921875 
L 50.6875 72.90625 
L 61.28125 72.90625 
L 35.5 34.71875 
L 35.5 0 
L 25.59375 0 
L 25.59375 34.71875 
z
" id="DejaVuSans-89"/>
    <path d="M 34.28125 27.484375 
Q 23.390625 27.484375 19.1875 25 
Q 14.984375 22.515625 14.984375 16.5 
Q 14.984375 11.71875 18.140625 8.90625 
Q 21.296875 6.109375 26.703125 6.109375 
Q 34.1875 6.109375 38.703125 11.40625 
Q 43.21875 16.703125 43.21875 25.484375 
L 43.21875 27.484375 
z
M 52.203125 31.203125 
L 52.203125 0 
L 43.21875 0 
L 43.21875 8.296875 
Q 40.140625 3.328125 35.546875 0.953125 
Q 30.953125 -1.421875 24.3125 -1.421875 
Q 15.921875 -1.421875 10.953125 3.296875 
Q 6 8.015625 6 15.921875 
Q 6 25.140625 12.171875 29.828125 
Q 18.359375 34.515625 30.609375 34.515625 
L 43.21875 34.515625 
L 43.21875 35.40625 
Q 43.21875 41.609375 39.140625 45 
Q 35.0625 48.390625 27.6875 48.390625 
Q 23 48.390625 18.546875 47.265625 
Q 14.109375 46.140625 10.015625 43.890625 
L 10.015625 52.203125 
Q 14.9375 54.109375 19.578125 55.046875 
Q 24.21875 56 28.609375 56 
Q 40.484375 56 46.34375 49.84375 
Q 52.203125 43.703125 52.203125 31.203125 
z
" id="DejaVuSans-97"/>
    <path d="M 10.984375 1.515625 
L 10.984375 10.5 
Q 14.703125 8.734375 18.5 7.8125 
Q 22.3125 6.890625 25.984375 6.890625 
Q 35.75 6.890625 40.890625 13.453125 
Q 46.046875 20.015625 46.78125 33.40625 
Q 43.953125 29.203125 39.59375 26.953125 
Q 35.25 24.703125 29.984375 24.703125 
Q 19.046875 24.703125 12.671875 31.3125 
Q 6.296875 37.9375 6.296875 49.421875 
Q 6.296875 60.640625 12.9375 67.421875 
Q 19.578125 74.21875 30.609375 74.21875 
Q 43.265625 74.21875 49.921875 64.515625 
Q 56.59375 54.828125 56.59375 36.375 
Q 56.59375 19.140625 48.40625 8.859375 
Q 40.234375 -1.421875 26.421875 -1.421875 
Q 22.703125 -1.421875 18.890625 -0.6875 
Q 15.09375 0.046875 10.984375 1.515625 
z
M 30.609375 32.421875 
Q 37.25 32.421875 41.125 36.953125 
Q 45.015625 41.5 45.015625 49.421875 
Q 45.015625 57.28125 41.125 61.84375 
Q 37.25 66.40625 30.609375 66.40625 
Q 23.96875 66.40625 20.09375 61.84375 
Q 16.21875 57.28125 16.21875 49.421875 
Q 16.21875 41.5 20.09375 36.953125 
Q 23.96875 32.421875 30.609375 32.421875 
z
" id="DejaVuSans-57"/>
    <path d="M 31.78125 34.625 
Q 24.75 34.625 20.71875 30.859375 
Q 16.703125 27.09375 16.703125 20.515625 
Q 16.703125 13.921875 20.71875 10.15625 
Q 24.75 6.390625 31.78125 6.390625 
Q 38.8125 6.390625 42.859375 10.171875 
Q 46.921875 13.96875 46.921875 20.515625 
Q 46.921875 27.09375 42.890625 30.859375 
Q 38.875 34.625 31.78125 34.625 
z
M 21.921875 38.8125 
Q 15.578125 40.375 12.03125 44.71875 
Q 8.5 49.078125 8.5 55.328125 
Q 8.5 64.0625 14.71875 69.140625 
Q 20.953125 74.21875 31.78125 74.21875 
Q 42.671875 74.21875 48.875 69.140625 
Q 55.078125 64.0625 55.078125 55.328125 
Q 55.078125 49.078125 51.53125 44.71875 
Q 48 40.375 41.703125 38.8125 
Q 48.828125 37.15625 52.796875 32.3125 
Q 56.78125 27.484375 56.78125 20.515625 
Q 56.78125 9.90625 50.3125 4.234375 
Q 43.84375 -1.421875 31.78125 -1.421875 
Q 19.734375 -1.421875 13.25 4.234375 
Q 6.78125 9.90625 6.78125 20.515625 
Q 6.78125 27.484375 10.78125 32.3125 
Q 14.796875 37.15625 21.921875 38.8125 
z
M 18.3125 54.390625 
Q 18.3125 48.734375 21.84375 45.5625 
Q 25.390625 42.390625 31.78125 42.390625 
Q 38.140625 42.390625 41.71875 45.5625 
Q 45.3125 48.734375 45.3125 54.390625 
Q 45.3125 60.0625 41.71875 63.234375 
Q 38.140625 66.40625 31.78125 66.40625 
Q 25.390625 66.40625 21.84375 63.234375 
Q 18.3125 60.0625 18.3125 54.390625 
z
" id="DejaVuSans-56"/>
   </defs>
   <g transform="translate(336.970312 14.878125)scale(0.12 -0.12)">
    <use xlink:href="#DejaVuSans-89"/>
    <use x="60.880859" xlink:href="#DejaVuSans-101"/>
    <use x="122.404297" xlink:href="#DejaVuSans-97"/>
    <use x="183.683594" xlink:href="#DejaVuSans-114"/>
    <use x="224.796875" xlink:href="#DejaVuSans-32"/>
    <use x="256.583984" xlink:href="#DejaVuSans-57"/>
    <use x="320.207031" xlink:href="#DejaVuSans-56"/>
   </g>
  </g>
 </g>
 <defs>
  <clipPath id="p06057f6822">
   <rect height="98.836364" width="253.636364" x="90" y="34.56"/>
  </clipPath>
  <clipPath id="p13e9314fea">
   <rect height="98.836364" width="253.636364" x="394.363636" y="34.56"/>
  </clipPath>
  <clipPath id="p327c0aad65">
   <rect height="98.836364" width="253.636364" x="90" y="153.163636"/>
  </clipPath>
  <clipPath id="p9b59f5ace4">
   <rect height="98.836364" width="253.636364" x="394.363636" y="153.163636"/>
  </clipPath>
 </defs>
</svg>
