<?xml version="1.0" encoding="utf-8" standalone="no"?>
<!DOCTYPE svg PUBLIC "-//W3C//DTD SVG 1.1//EN"
  "http://www.w3.org/Graphics/SVG/1.1/DTD/svg11.dtd">
<!-- Created with matplotlib (https://matplotlib.org/) -->
<svg height="288pt" version="1.1" viewBox="0 0 432 288" width="432pt" xmlns="http://www.w3.org/2000/svg" xmlns:xlink="http://www.w3.org/1999/xlink">
 <defs>
  <style type="text/css">
*{stroke-linecap:butt;stroke-linejoin:round;}
  </style>
 </defs>
 <g id="figure_1">
  <g id="patch_1">
   <path d="M 0 288 
L 432 288 
L 432 0 
L 0 0 
z
" style="fill:#ffffff;"/>
  </g>
  <g id="axes_1">
   <g id="patch_2">
    <path d="M 54 252 
L 388.8 252 
L 388.8 34.56 
L 54 34.56 
z
" style="fill:#ffffff;"/>
   </g>
   <g id="matplotlib.axis_1">
    <g id="xtick_1">
     <g id="line2d_1">
      <path clip-path="url(#pa51c9dedd7)" d="M 64.4625 252 
L 64.4625 34.56 
" style="fill:none;stroke:#b0b0b0;stroke-linecap:square;stroke-width:0.8;"/>
     </g>
     <g id="line2d_2">
      <defs>
       <path d="M 0 0 
L 0 3.5 
" id="m394dae1e2b" style="stroke:#000000;stroke-width:0.8;"/>
      </defs>
      <g>
       <use style="stroke:#000000;stroke-width:0.8;" x="64.4625" xlink:href="#m394dae1e2b" y="252"/>
      </g>
     </g>
     <g id="text_1">
      <!-- 20 -->
      <defs>
       <path d="M 19.1875 8.296875 
L 53.609375 8.296875 
L 53.609375 0 
L 7.328125 0 
L 7.328125 8.296875 
Q 12.9375 14.109375 22.625 23.890625 
Q 32.328125 33.6875 34.8125 36.53125 
Q 39.546875 41.84375 41.421875 45.53125 
Q 43.3125 49.21875 43.3125 52.78125 
Q 43.3125 58.59375 39.234375 62.25 
Q 35.15625 65.921875 28.609375 65.921875 
Q 23.96875 65.921875 18.8125 64.3125 
Q 13.671875 62.703125 7.8125 59.421875 
L 7.8125 69.390625 
Q 13.765625 71.78125 18.9375 73 
Q 24.125 74.21875 28.421875 74.21875 
Q 39.75 74.21875 46.484375 68.546875 
Q 53.21875 62.890625 53.21875 53.421875 
Q 53.21875 48.921875 51.53125 44.890625 
Q 49.859375 40.875 45.40625 35.40625 
Q 44.1875 33.984375 37.640625 27.21875 
Q 31.109375 20.453125 19.1875 8.296875 
z
" id="DejaVuSans-50"/>
       <path d="M 31.78125 66.40625 
Q 24.171875 66.40625 20.328125 58.90625 
Q 16.5 51.421875 16.5 36.375 
Q 16.5 21.390625 20.328125 13.890625 
Q 24.171875 6.390625 31.78125 6.390625 
Q 39.453125 6.390625 43.28125 13.890625 
Q 47.125 21.390625 47.125 36.375 
Q 47.125 51.421875 43.28125 58.90625 
Q 39.453125 66.40625 31.78125 66.40625 
z
M 31.78125 74.21875 
Q 44.046875 74.21875 50.515625 64.515625 
Q 56.984375 54.828125 56.984375 36.375 
Q 56.984375 17.96875 50.515625 8.265625 
Q 44.046875 -1.421875 31.78125 -1.421875 
Q 19.53125 -1.421875 13.0625 8.265625 
Q 6.59375 17.96875 6.59375 36.375 
Q 6.59375 54.828125 13.0625 64.515625 
Q 19.53125 74.21875 31.78125 74.21875 
z
" id="DejaVuSans-48"/>
      </defs>
      <g transform="translate(58.1 266.598437)scale(0.1 -0.1)">
       <use xlink:href="#DejaVuSans-50"/>
       <use x="63.623047" xlink:href="#DejaVuSans-48"/>
      </g>
     </g>
    </g>
    <g id="xtick_2">
     <g id="line2d_3">
      <path clip-path="url(#pa51c9dedd7)" d="M 112.019318 252 
L 112.019318 34.56 
" style="fill:none;stroke:#b0b0b0;stroke-linecap:square;stroke-width:0.8;"/>
     </g>
     <g id="line2d_4">
      <g>
       <use style="stroke:#000000;stroke-width:0.8;" x="112.019318" xlink:href="#m394dae1e2b" y="252"/>
      </g>
     </g>
     <g id="text_2">
      <!-- 30 -->
      <defs>
       <path d="M 40.578125 39.3125 
Q 47.65625 37.796875 51.625 33 
Q 55.609375 28.21875 55.609375 21.1875 
Q 55.609375 10.40625 48.1875 4.484375 
Q 40.765625 -1.421875 27.09375 -1.421875 
Q 22.515625 -1.421875 17.65625 -0.515625 
Q 12.796875 0.390625 7.625 2.203125 
L 7.625 11.71875 
Q 11.71875 9.328125 16.59375 8.109375 
Q 21.484375 6.890625 26.8125 6.890625 
Q 36.078125 6.890625 40.9375 10.546875 
Q 45.796875 14.203125 45.796875 21.1875 
Q 45.796875 27.640625 41.28125 31.265625 
Q 36.765625 34.90625 28.71875 34.90625 
L 20.21875 34.90625 
L 20.21875 43.015625 
L 29.109375 43.015625 
Q 36.375 43.015625 40.234375 45.921875 
Q 44.09375 48.828125 44.09375 54.296875 
Q 44.09375 59.90625 40.109375 62.90625 
Q 36.140625 65.921875 28.71875 65.921875 
Q 24.65625 65.921875 20.015625 65.03125 
Q 15.375 64.15625 9.8125 62.3125 
L 9.8125 71.09375 
Q 15.4375 72.65625 20.34375 73.4375 
Q 25.25 74.21875 29.59375 74.21875 
Q 40.828125 74.21875 47.359375 69.109375 
Q 53.90625 64.015625 53.90625 55.328125 
Q 53.90625 49.265625 50.4375 45.09375 
Q 46.96875 40.921875 40.578125 39.3125 
z
" id="DejaVuSans-51"/>
      </defs>
      <g transform="translate(105.656818 266.598437)scale(0.1 -0.1)">
       <use xlink:href="#DejaVuSans-51"/>
       <use x="63.623047" xlink:href="#DejaVuSans-48"/>
      </g>
     </g>
    </g>
    <g id="xtick_3">
     <g id="line2d_5">
      <path clip-path="url(#pa51c9dedd7)" d="M 159.576136 252 
L 159.576136 34.56 
" style="fill:none;stroke:#b0b0b0;stroke-linecap:square;stroke-width:0.8;"/>
     </g>
     <g id="line2d_6">
      <g>
       <use style="stroke:#000000;stroke-width:0.8;" x="159.576136" xlink:href="#m394dae1e2b" y="252"/>
      </g>
     </g>
     <g id="text_3">
      <!-- 40 -->
      <defs>
       <path d="M 37.796875 64.3125 
L 12.890625 25.390625 
L 37.796875 25.390625 
z
M 35.203125 72.90625 
L 47.609375 72.90625 
L 47.609375 25.390625 
L 58.015625 25.390625 
L 58.015625 17.1875 
L 47.609375 17.1875 
L 47.609375 0 
L 37.796875 0 
L 37.796875 17.1875 
L 4.890625 17.1875 
L 4.890625 26.703125 
z
" id="DejaVuSans-52"/>
      </defs>
      <g transform="translate(153.213636 266.598437)scale(0.1 -0.1)">
       <use xlink:href="#DejaVuSans-52"/>
       <use x="63.623047" xlink:href="#DejaVuSans-48"/>
      </g>
     </g>
    </g>
    <g id="xtick_4">
     <g id="line2d_7">
      <path clip-path="url(#pa51c9dedd7)" d="M 207.132955 252 
L 207.132955 34.56 
" style="fill:none;stroke:#b0b0b0;stroke-linecap:square;stroke-width:0.8;"/>
     </g>
     <g id="line2d_8">
      <g>
       <use style="stroke:#000000;stroke-width:0.8;" x="207.132955" xlink:href="#m394dae1e2b" y="252"/>
      </g>
     </g>
     <g id="text_4">
      <!-- 50 -->
      <defs>
       <path d="M 10.796875 72.90625 
L 49.515625 72.90625 
L 49.515625 64.59375 
L 19.828125 64.59375 
L 19.828125 46.734375 
Q 21.96875 47.46875 24.109375 47.828125 
Q 26.265625 48.1875 28.421875 48.1875 
Q 40.625 48.1875 47.75 41.5 
Q 54.890625 34.8125 54.890625 23.390625 
Q 54.890625 11.625 47.5625 5.09375 
Q 40.234375 -1.421875 26.90625 -1.421875 
Q 22.3125 -1.421875 17.546875 -0.640625 
Q 12.796875 0.140625 7.71875 1.703125 
L 7.71875 11.625 
Q 12.109375 9.234375 16.796875 8.0625 
Q 21.484375 6.890625 26.703125 6.890625 
Q 35.15625 6.890625 40.078125 11.328125 
Q 45.015625 15.765625 45.015625 23.390625 
Q 45.015625 31 40.078125 35.4375 
Q 35.15625 39.890625 26.703125 39.890625 
Q 22.75 39.890625 18.8125 39.015625 
Q 14.890625 38.140625 10.796875 36.28125 
z
" id="DejaVuSans-53"/>
      </defs>
      <g transform="translate(200.770455 266.598437)scale(0.1 -0.1)">
       <use xlink:href="#DejaVuSans-53"/>
       <use x="63.623047" xlink:href="#DejaVuSans-48"/>
      </g>
     </g>
    </g>
    <g id="xtick_5">
     <g id="line2d_9">
      <path clip-path="url(#pa51c9dedd7)" d="M 254.689773 252 
L 254.689773 34.56 
" style="fill:none;stroke:#b0b0b0;stroke-linecap:square;stroke-width:0.8;"/>
     </g>
     <g id="line2d_10">
      <g>
       <use style="stroke:#000000;stroke-width:0.8;" x="254.689773" xlink:href="#m394dae1e2b" y="252"/>
      </g>
     </g>
     <g id="text_5">
      <!-- 60 -->
      <defs>
       <path d="M 33.015625 40.375 
Q 26.375 40.375 22.484375 35.828125 
Q 18.609375 31.296875 18.609375 23.390625 
Q 18.609375 15.53125 22.484375 10.953125 
Q 26.375 6.390625 33.015625 6.390625 
Q 39.65625 6.390625 43.53125 10.953125 
Q 47.40625 15.53125 47.40625 23.390625 
Q 47.40625 31.296875 43.53125 35.828125 
Q 39.65625 40.375 33.015625 40.375 
z
M 52.59375 71.296875 
L 52.59375 62.3125 
Q 48.875 64.0625 45.09375 64.984375 
Q 41.3125 65.921875 37.59375 65.921875 
Q 27.828125 65.921875 22.671875 59.328125 
Q 17.53125 52.734375 16.796875 39.40625 
Q 19.671875 43.65625 24.015625 45.921875 
Q 28.375 48.1875 33.59375 48.1875 
Q 44.578125 48.1875 50.953125 41.515625 
Q 57.328125 34.859375 57.328125 23.390625 
Q 57.328125 12.15625 50.6875 5.359375 
Q 44.046875 -1.421875 33.015625 -1.421875 
Q 20.359375 -1.421875 13.671875 8.265625 
Q 6.984375 17.96875 6.984375 36.375 
Q 6.984375 53.65625 15.1875 63.9375 
Q 23.390625 74.21875 37.203125 74.21875 
Q 40.921875 74.21875 44.703125 73.484375 
Q 48.484375 72.75 52.59375 71.296875 
z
" id="DejaVuSans-54"/>
      </defs>
      <g transform="translate(248.327273 266.598437)scale(0.1 -0.1)">
       <use xlink:href="#DejaVuSans-54"/>
       <use x="63.623047" xlink:href="#DejaVuSans-48"/>
      </g>
     </g>
    </g>
    <g id="xtick_6">
     <g id="line2d_11">
      <path clip-path="url(#pa51c9dedd7)" d="M 302.246591 252 
L 302.246591 34.56 
" style="fill:none;stroke:#b0b0b0;stroke-linecap:square;stroke-width:0.8;"/>
     </g>
     <g id="line2d_12">
      <g>
       <use style="stroke:#000000;stroke-width:0.8;" x="302.246591" xlink:href="#m394dae1e2b" y="252"/>
      </g>
     </g>
     <g id="text_6">
      <!-- 70 -->
      <defs>
       <path d="M 8.203125 72.90625 
L 55.078125 72.90625 
L 55.078125 68.703125 
L 28.609375 0 
L 18.3125 0 
L 43.21875 64.59375 
L 8.203125 64.59375 
z
" id="DejaVuSans-55"/>
      </defs>
      <g transform="translate(295.884091 266.598437)scale(0.1 -0.1)">
       <use xlink:href="#DejaVuSans-55"/>
       <use x="63.623047" xlink:href="#DejaVuSans-48"/>
      </g>
     </g>
    </g>
    <g id="xtick_7">
     <g id="line2d_13">
      <path clip-path="url(#pa51c9dedd7)" d="M 349.803409 252 
L 349.803409 34.56 
" style="fill:none;stroke:#b0b0b0;stroke-linecap:square;stroke-width:0.8;"/>
     </g>
     <g id="line2d_14">
      <g>
       <use style="stroke:#000000;stroke-width:0.8;" x="349.803409" xlink:href="#m394dae1e2b" y="252"/>
      </g>
     </g>
     <g id="text_7">
      <!-- 80 -->
      <defs>
       <path d="M 31.78125 34.625 
Q 24.75 34.625 20.71875 30.859375 
Q 16.703125 27.09375 16.703125 20.515625 
Q 16.703125 13.921875 20.71875 10.15625 
Q 24.75 6.390625 31.78125 6.390625 
Q 38.8125 6.390625 42.859375 10.171875 
Q 46.921875 13.96875 46.921875 20.515625 
Q 46.921875 27.09375 42.890625 30.859375 
Q 38.875 34.625 31.78125 34.625 
z
M 21.921875 38.8125 
Q 15.578125 40.375 12.03125 44.71875 
Q 8.5 49.078125 8.5 55.328125 
Q 8.5 64.0625 14.71875 69.140625 
Q 20.953125 74.21875 31.78125 74.21875 
Q 42.671875 74.21875 48.875 69.140625 
Q 55.078125 64.0625 55.078125 55.328125 
Q 55.078125 49.078125 51.53125 44.71875 
Q 48 40.375 41.703125 38.8125 
Q 48.828125 37.15625 52.796875 32.3125 
Q 56.78125 27.484375 56.78125 20.515625 
Q 56.78125 9.90625 50.3125 4.234375 
Q 43.84375 -1.421875 31.78125 -1.421875 
Q 19.734375 -1.421875 13.25 4.234375 
Q 6.78125 9.90625 6.78125 20.515625 
Q 6.78125 27.484375 10.78125 32.3125 
Q 14.796875 37.15625 21.921875 38.8125 
z
M 18.3125 54.390625 
Q 18.3125 48.734375 21.84375 45.5625 
Q 25.390625 42.390625 31.78125 42.390625 
Q 38.140625 42.390625 41.71875 45.5625 
Q 45.3125 48.734375 45.3125 54.390625 
Q 45.3125 60.0625 41.71875 63.234375 
Q 38.140625 66.40625 31.78125 66.40625 
Q 25.390625 66.40625 21.84375 63.234375 
Q 18.3125 60.0625 18.3125 54.390625 
z
" id="DejaVuSans-56"/>
      </defs>
      <g transform="translate(343.440909 266.598437)scale(0.1 -0.1)">
       <use xlink:href="#DejaVuSans-56"/>
       <use x="63.623047" xlink:href="#DejaVuSans-48"/>
      </g>
     </g>
    </g>
    <g id="text_8">
     <!-- Age -->
     <defs>
      <path d="M 34.1875 63.1875 
L 20.796875 26.90625 
L 47.609375 26.90625 
z
M 28.609375 72.90625 
L 39.796875 72.90625 
L 67.578125 0 
L 57.328125 0 
L 50.6875 18.703125 
L 17.828125 18.703125 
L 11.1875 0 
L 0.78125 0 
z
" id="DejaVuSans-65"/>
      <path d="M 45.40625 27.984375 
Q 45.40625 37.75 41.375 43.109375 
Q 37.359375 48.484375 30.078125 48.484375 
Q 22.859375 48.484375 18.828125 43.109375 
Q 14.796875 37.75 14.796875 27.984375 
Q 14.796875 18.265625 18.828125 12.890625 
Q 22.859375 7.515625 30.078125 7.515625 
Q 37.359375 7.515625 41.375 12.890625 
Q 45.40625 18.265625 45.40625 27.984375 
z
M 54.390625 6.78125 
Q 54.390625 -7.171875 48.1875 -13.984375 
Q 42 -20.796875 29.203125 -20.796875 
Q 24.46875 -20.796875 20.265625 -20.09375 
Q 16.0625 -19.390625 12.109375 -17.921875 
L 12.109375 -9.1875 
Q 16.0625 -11.328125 19.921875 -12.34375 
Q 23.78125 -13.375 27.78125 -13.375 
Q 36.625 -13.375 41.015625 -8.765625 
Q 45.40625 -4.15625 45.40625 5.171875 
L 45.40625 9.625 
Q 42.625 4.78125 38.28125 2.390625 
Q 33.9375 0 27.875 0 
Q 17.828125 0 11.671875 7.65625 
Q 5.515625 15.328125 5.515625 27.984375 
Q 5.515625 40.671875 11.671875 48.328125 
Q 17.828125 56 27.875 56 
Q 33.9375 56 38.28125 53.609375 
Q 42.625 51.21875 45.40625 46.390625 
L 45.40625 54.6875 
L 54.390625 54.6875 
z
" id="DejaVuSans-103"/>
      <path d="M 56.203125 29.59375 
L 56.203125 25.203125 
L 14.890625 25.203125 
Q 15.484375 15.921875 20.484375 11.0625 
Q 25.484375 6.203125 34.421875 6.203125 
Q 39.59375 6.203125 44.453125 7.46875 
Q 49.3125 8.734375 54.109375 11.28125 
L 54.109375 2.78125 
Q 49.265625 0.734375 44.1875 -0.34375 
Q 39.109375 -1.421875 33.890625 -1.421875 
Q 20.796875 -1.421875 13.15625 6.1875 
Q 5.515625 13.8125 5.515625 26.8125 
Q 5.515625 40.234375 12.765625 48.109375 
Q 20.015625 56 32.328125 56 
Q 43.359375 56 49.78125 48.890625 
Q 56.203125 41.796875 56.203125 29.59375 
z
M 47.21875 32.234375 
Q 47.125 39.59375 43.09375 43.984375 
Q 39.0625 48.390625 32.421875 48.390625 
Q 24.90625 48.390625 20.390625 44.140625 
Q 15.875 39.890625 15.1875 32.171875 
z
" id="DejaVuSans-101"/>
     </defs>
     <g transform="translate(211.728906 280.276563)scale(0.1 -0.1)">
      <use xlink:href="#DejaVuSans-65"/>
      <use x="68.408203" xlink:href="#DejaVuSans-103"/>
      <use x="131.884766" xlink:href="#DejaVuSans-101"/>
     </g>
    </g>
   </g>
   <g id="matplotlib.axis_2">
    <g id="ytick_1">
     <g id="line2d_15">
      <path clip-path="url(#pa51c9dedd7)" d="M 54 246.778152 
L 388.8 246.778152 
" style="fill:none;stroke:#b0b0b0;stroke-linecap:square;stroke-width:0.8;"/>
     </g>
     <g id="line2d_16">
      <defs>
       <path d="M 0 0 
L -3.5 0 
" id="mdf83676271" style="stroke:#000000;stroke-width:0.8;"/>
      </defs>
      <g>
       <use style="stroke:#000000;stroke-width:0.8;" x="54" xlink:href="#mdf83676271" y="246.778152"/>
      </g>
     </g>
     <g id="text_9">
      <!-- 0.3 -->
      <defs>
       <path d="M 10.6875 12.40625 
L 21 12.40625 
L 21 0 
L 10.6875 0 
z
" id="DejaVuSans-46"/>
      </defs>
      <g transform="translate(31.096875 250.57737)scale(0.1 -0.1)">
       <use xlink:href="#DejaVuSans-48"/>
       <use x="63.623047" xlink:href="#DejaVuSans-46"/>
       <use x="95.410156" xlink:href="#DejaVuSans-51"/>
      </g>
     </g>
    </g>
    <g id="ytick_2">
     <g id="line2d_17">
      <path clip-path="url(#pa51c9dedd7)" d="M 54 217.873221 
L 388.8 217.873221 
" style="fill:none;stroke:#b0b0b0;stroke-linecap:square;stroke-width:0.8;"/>
     </g>
     <g id="line2d_18">
      <g>
       <use style="stroke:#000000;stroke-width:0.8;" x="54" xlink:href="#mdf83676271" y="217.873221"/>
      </g>
     </g>
     <g id="text_10">
      <!-- 0.4 -->
      <g transform="translate(31.096875 221.67244)scale(0.1 -0.1)">
       <use xlink:href="#DejaVuSans-48"/>
       <use x="63.623047" xlink:href="#DejaVuSans-46"/>
       <use x="95.410156" xlink:href="#DejaVuSans-52"/>
      </g>
     </g>
    </g>
    <g id="ytick_3">
     <g id="line2d_19">
      <path clip-path="url(#pa51c9dedd7)" d="M 54 188.96829 
L 388.8 188.96829 
" style="fill:none;stroke:#b0b0b0;stroke-linecap:square;stroke-width:0.8;"/>
     </g>
     <g id="line2d_20">
      <g>
       <use style="stroke:#000000;stroke-width:0.8;" x="54" xlink:href="#mdf83676271" y="188.96829"/>
      </g>
     </g>
     <g id="text_11">
      <!-- 0.5 -->
      <g transform="translate(31.096875 192.767509)scale(0.1 -0.1)">
       <use xlink:href="#DejaVuSans-48"/>
       <use x="63.623047" xlink:href="#DejaVuSans-46"/>
       <use x="95.410156" xlink:href="#DejaVuSans-53"/>
      </g>
     </g>
    </g>
    <g id="ytick_4">
     <g id="line2d_21">
      <path clip-path="url(#pa51c9dedd7)" d="M 54 160.063359 
L 388.8 160.063359 
" style="fill:none;stroke:#b0b0b0;stroke-linecap:square;stroke-width:0.8;"/>
     </g>
     <g id="line2d_22">
      <g>
       <use style="stroke:#000000;stroke-width:0.8;" x="54" xlink:href="#mdf83676271" y="160.063359"/>
      </g>
     </g>
     <g id="text_12">
      <!-- 0.6 -->
      <g transform="translate(31.096875 163.862578)scale(0.1 -0.1)">
       <use xlink:href="#DejaVuSans-48"/>
       <use x="63.623047" xlink:href="#DejaVuSans-46"/>
       <use x="95.410156" xlink:href="#DejaVuSans-54"/>
      </g>
     </g>
    </g>
    <g id="ytick_5">
     <g id="line2d_23">
      <path clip-path="url(#pa51c9dedd7)" d="M 54 131.158429 
L 388.8 131.158429 
" style="fill:none;stroke:#b0b0b0;stroke-linecap:square;stroke-width:0.8;"/>
     </g>
     <g id="line2d_24">
      <g>
       <use style="stroke:#000000;stroke-width:0.8;" x="54" xlink:href="#mdf83676271" y="131.158429"/>
      </g>
     </g>
     <g id="text_13">
      <!-- 0.7 -->
      <g transform="translate(31.096875 134.957647)scale(0.1 -0.1)">
       <use xlink:href="#DejaVuSans-48"/>
       <use x="63.623047" xlink:href="#DejaVuSans-46"/>
       <use x="95.410156" xlink:href="#DejaVuSans-55"/>
      </g>
     </g>
    </g>
    <g id="ytick_6">
     <g id="line2d_25">
      <path clip-path="url(#pa51c9dedd7)" d="M 54 102.253498 
L 388.8 102.253498 
" style="fill:none;stroke:#b0b0b0;stroke-linecap:square;stroke-width:0.8;"/>
     </g>
     <g id="line2d_26">
      <g>
       <use style="stroke:#000000;stroke-width:0.8;" x="54" xlink:href="#mdf83676271" y="102.253498"/>
      </g>
     </g>
     <g id="text_14">
      <!-- 0.8 -->
      <g transform="translate(31.096875 106.052717)scale(0.1 -0.1)">
       <use xlink:href="#DejaVuSans-48"/>
       <use x="63.623047" xlink:href="#DejaVuSans-46"/>
       <use x="95.410156" xlink:href="#DejaVuSans-56"/>
      </g>
     </g>
    </g>
    <g id="ytick_7">
     <g id="line2d_27">
      <path clip-path="url(#pa51c9dedd7)" d="M 54 73.348567 
L 388.8 73.348567 
" style="fill:none;stroke:#b0b0b0;stroke-linecap:square;stroke-width:0.8;"/>
     </g>
     <g id="line2d_28">
      <g>
       <use style="stroke:#000000;stroke-width:0.8;" x="54" xlink:href="#mdf83676271" y="73.348567"/>
      </g>
     </g>
     <g id="text_15">
      <!-- 0.9 -->
      <defs>
       <path d="M 10.984375 1.515625 
L 10.984375 10.5 
Q 14.703125 8.734375 18.5 7.8125 
Q 22.3125 6.890625 25.984375 6.890625 
Q 35.75 6.890625 40.890625 13.453125 
Q 46.046875 20.015625 46.78125 33.40625 
Q 43.953125 29.203125 39.59375 26.953125 
Q 35.25 24.703125 29.984375 24.703125 
Q 19.046875 24.703125 12.671875 31.3125 
Q 6.296875 37.9375 6.296875 49.421875 
Q 6.296875 60.640625 12.9375 67.421875 
Q 19.578125 74.21875 30.609375 74.21875 
Q 43.265625 74.21875 49.921875 64.515625 
Q 56.59375 54.828125 56.59375 36.375 
Q 56.59375 19.140625 48.40625 8.859375 
Q 40.234375 -1.421875 26.421875 -1.421875 
Q 22.703125 -1.421875 18.890625 -0.6875 
Q 15.09375 0.046875 10.984375 1.515625 
z
M 30.609375 32.421875 
Q 37.25 32.421875 41.125 36.953125 
Q 45.015625 41.5 45.015625 49.421875 
Q 45.015625 57.28125 41.125 61.84375 
Q 37.25 66.40625 30.609375 66.40625 
Q 23.96875 66.40625 20.09375 61.84375 
Q 16.21875 57.28125 16.21875 49.421875 
Q 16.21875 41.5 20.09375 36.953125 
Q 23.96875 32.421875 30.609375 32.421875 
z
" id="DejaVuSans-57"/>
      </defs>
      <g transform="translate(31.096875 77.147786)scale(0.1 -0.1)">
       <use xlink:href="#DejaVuSans-48"/>
       <use x="63.623047" xlink:href="#DejaVuSans-46"/>
       <use x="95.410156" xlink:href="#DejaVuSans-57"/>
      </g>
     </g>
    </g>
    <g id="ytick_8">
     <g id="line2d_29">
      <path clip-path="url(#pa51c9dedd7)" d="M 54 44.443636 
L 388.8 44.443636 
" style="fill:none;stroke:#b0b0b0;stroke-linecap:square;stroke-width:0.8;"/>
     </g>
     <g id="line2d_30">
      <g>
       <use style="stroke:#000000;stroke-width:0.8;" x="54" xlink:href="#mdf83676271" y="44.443636"/>
      </g>
     </g>
     <g id="text_16">
      <!-- 1.0 -->
      <defs>
       <path d="M 12.40625 8.296875 
L 28.515625 8.296875 
L 28.515625 63.921875 
L 10.984375 60.40625 
L 10.984375 69.390625 
L 28.421875 72.90625 
L 38.28125 72.90625 
L 38.28125 8.296875 
L 54.390625 8.296875 
L 54.390625 0 
L 12.40625 0 
z
" id="DejaVuSans-49"/>
      </defs>
      <g transform="translate(31.096875 48.242855)scale(0.1 -0.1)">
       <use xlink:href="#DejaVuSans-49"/>
       <use x="63.623047" xlink:href="#DejaVuSans-46"/>
       <use x="95.410156" xlink:href="#DejaVuSans-48"/>
      </g>
     </g>
    </g>
    <g id="text_17">
     <!-- Risky share -->
     <defs>
      <path d="M 44.390625 34.1875 
Q 47.5625 33.109375 50.5625 29.59375 
Q 53.5625 26.078125 56.59375 19.921875 
L 66.609375 0 
L 56 0 
L 46.6875 18.703125 
Q 43.0625 26.03125 39.671875 28.421875 
Q 36.28125 30.8125 30.421875 30.8125 
L 19.671875 30.8125 
L 19.671875 0 
L 9.8125 0 
L 9.8125 72.90625 
L 32.078125 72.90625 
Q 44.578125 72.90625 50.734375 67.671875 
Q 56.890625 62.453125 56.890625 51.90625 
Q 56.890625 45.015625 53.6875 40.46875 
Q 50.484375 35.9375 44.390625 34.1875 
z
M 19.671875 64.796875 
L 19.671875 38.921875 
L 32.078125 38.921875 
Q 39.203125 38.921875 42.84375 42.21875 
Q 46.484375 45.515625 46.484375 51.90625 
Q 46.484375 58.296875 42.84375 61.546875 
Q 39.203125 64.796875 32.078125 64.796875 
z
" id="DejaVuSans-82"/>
      <path d="M 9.421875 54.6875 
L 18.40625 54.6875 
L 18.40625 0 
L 9.421875 0 
z
M 9.421875 75.984375 
L 18.40625 75.984375 
L 18.40625 64.59375 
L 9.421875 64.59375 
z
" id="DejaVuSans-105"/>
      <path d="M 44.28125 53.078125 
L 44.28125 44.578125 
Q 40.484375 46.53125 36.375 47.5 
Q 32.28125 48.484375 27.875 48.484375 
Q 21.1875 48.484375 17.84375 46.4375 
Q 14.5 44.390625 14.5 40.28125 
Q 14.5 37.15625 16.890625 35.375 
Q 19.28125 33.59375 26.515625 31.984375 
L 29.59375 31.296875 
Q 39.15625 29.25 43.1875 25.515625 
Q 47.21875 21.78125 47.21875 15.09375 
Q 47.21875 7.46875 41.1875 3.015625 
Q 35.15625 -1.421875 24.609375 -1.421875 
Q 20.21875 -1.421875 15.453125 -0.5625 
Q 10.6875 0.296875 5.421875 2 
L 5.421875 11.28125 
Q 10.40625 8.6875 15.234375 7.390625 
Q 20.0625 6.109375 24.8125 6.109375 
Q 31.15625 6.109375 34.5625 8.28125 
Q 37.984375 10.453125 37.984375 14.40625 
Q 37.984375 18.0625 35.515625 20.015625 
Q 33.0625 21.96875 24.703125 23.78125 
L 21.578125 24.515625 
Q 13.234375 26.265625 9.515625 29.90625 
Q 5.8125 33.546875 5.8125 39.890625 
Q 5.8125 47.609375 11.28125 51.796875 
Q 16.75 56 26.8125 56 
Q 31.78125 56 36.171875 55.265625 
Q 40.578125 54.546875 44.28125 53.078125 
z
" id="DejaVuSans-115"/>
      <path d="M 9.078125 75.984375 
L 18.109375 75.984375 
L 18.109375 31.109375 
L 44.921875 54.6875 
L 56.390625 54.6875 
L 27.390625 29.109375 
L 57.625 0 
L 45.90625 0 
L 18.109375 26.703125 
L 18.109375 0 
L 9.078125 0 
z
" id="DejaVuSans-107"/>
      <path d="M 32.171875 -5.078125 
Q 28.375 -14.84375 24.75 -17.8125 
Q 21.140625 -20.796875 15.09375 -20.796875 
L 7.90625 -20.796875 
L 7.90625 -13.28125 
L 13.1875 -13.28125 
Q 16.890625 -13.28125 18.9375 -11.515625 
Q 21 -9.765625 23.484375 -3.21875 
L 25.09375 0.875 
L 2.984375 54.6875 
L 12.5 54.6875 
L 29.59375 11.921875 
L 46.6875 54.6875 
L 56.203125 54.6875 
z
" id="DejaVuSans-121"/>
      <path id="DejaVuSans-32"/>
      <path d="M 54.890625 33.015625 
L 54.890625 0 
L 45.90625 0 
L 45.90625 32.71875 
Q 45.90625 40.484375 42.875 44.328125 
Q 39.84375 48.1875 33.796875 48.1875 
Q 26.515625 48.1875 22.3125 43.546875 
Q 18.109375 38.921875 18.109375 30.90625 
L 18.109375 0 
L 9.078125 0 
L 9.078125 75.984375 
L 18.109375 75.984375 
L 18.109375 46.1875 
Q 21.34375 51.125 25.703125 53.5625 
Q 30.078125 56 35.796875 56 
Q 45.21875 56 50.046875 50.171875 
Q 54.890625 44.34375 54.890625 33.015625 
z
" id="DejaVuSans-104"/>
      <path d="M 34.28125 27.484375 
Q 23.390625 27.484375 19.1875 25 
Q 14.984375 22.515625 14.984375 16.5 
Q 14.984375 11.71875 18.140625 8.90625 
Q 21.296875 6.109375 26.703125 6.109375 
Q 34.1875 6.109375 38.703125 11.40625 
Q 43.21875 16.703125 43.21875 25.484375 
L 43.21875 27.484375 
z
M 52.203125 31.203125 
L 52.203125 0 
L 43.21875 0 
L 43.21875 8.296875 
Q 40.140625 3.328125 35.546875 0.953125 
Q 30.953125 -1.421875 24.3125 -1.421875 
Q 15.921875 -1.421875 10.953125 3.296875 
Q 6 8.015625 6 15.921875 
Q 6 25.140625 12.171875 29.828125 
Q 18.359375 34.515625 30.609375 34.515625 
L 43.21875 34.515625 
L 43.21875 35.40625 
Q 43.21875 41.609375 39.140625 45 
Q 35.0625 48.390625 27.6875 48.390625 
Q 23 48.390625 18.546875 47.265625 
Q 14.109375 46.140625 10.015625 43.890625 
L 10.015625 52.203125 
Q 14.9375 54.109375 19.578125 55.046875 
Q 24.21875 56 28.609375 56 
Q 40.484375 56 46.34375 49.84375 
Q 52.203125 43.703125 52.203125 31.203125 
z
" id="DejaVuSans-97"/>
      <path d="M 41.109375 46.296875 
Q 39.59375 47.171875 37.8125 47.578125 
Q 36.03125 48 33.890625 48 
Q 26.265625 48 22.1875 43.046875 
Q 18.109375 38.09375 18.109375 28.8125 
L 18.109375 0 
L 9.078125 0 
L 9.078125 54.6875 
L 18.109375 54.6875 
L 18.109375 46.1875 
Q 20.953125 51.171875 25.484375 53.578125 
Q 30.03125 56 36.53125 56 
Q 37.453125 56 38.578125 55.875 
Q 39.703125 55.765625 41.0625 55.515625 
z
" id="DejaVuSans-114"/>
     </defs>
     <g transform="translate(25.017187 172.157344)rotate(-90)scale(0.1 -0.1)">
      <use xlink:href="#DejaVuSans-82"/>
      <use x="69.482422" xlink:href="#DejaVuSans-105"/>
      <use x="97.265625" xlink:href="#DejaVuSans-115"/>
      <use x="149.365234" xlink:href="#DejaVuSans-107"/>
      <use x="207.228516" xlink:href="#DejaVuSans-121"/>
      <use x="266.408203" xlink:href="#DejaVuSans-32"/>
      <use x="298.195312" xlink:href="#DejaVuSans-115"/>
      <use x="350.294922" xlink:href="#DejaVuSans-104"/>
      <use x="413.673828" xlink:href="#DejaVuSans-97"/>
      <use x="474.953125" xlink:href="#DejaVuSans-114"/>
      <use x="516.035156" xlink:href="#DejaVuSans-101"/>
     </g>
    </g>
   </g>
   <g id="line2d_31">
    <defs>
     <path d="M 0 1.5 
C 0.397805 1.5 0.77937 1.341951 1.06066 1.06066 
C 1.341951 0.77937 1.5 0.397805 1.5 0 
C 1.5 -0.397805 1.341951 -0.77937 1.06066 -1.06066 
C 0.77937 -1.341951 0.397805 -1.5 0 -1.5 
C -0.397805 -1.5 -0.77937 -1.341951 -1.06066 -1.06066 
C -1.341951 -0.77937 -1.5 -0.397805 -1.5 0 
C -1.5 0.397805 -1.341951 0.77937 -1.06066 1.06066 
C -0.77937 1.341951 -0.397805 1.5 0 1.5 
z
" id="m8569320600" style="stroke:#1f77b4;"/>
    </defs>
    <g clip-path="url(#pa51c9dedd7)">
     <use style="fill:#1f77b4;stroke:#1f77b4;" x="69.218182" xlink:href="#m8569320600" y="44.443636"/>
     <use style="fill:#1f77b4;stroke:#1f77b4;" x="73.973864" xlink:href="#m8569320600" y="44.443636"/>
     <use style="fill:#1f77b4;stroke:#1f77b4;" x="78.729545" xlink:href="#m8569320600" y="44.443636"/>
     <use style="fill:#1f77b4;stroke:#1f77b4;" x="83.485227" xlink:href="#m8569320600" y="44.443636"/>
     <use style="fill:#1f77b4;stroke:#1f77b4;" x="88.240909" xlink:href="#m8569320600" y="44.443636"/>
     <use style="fill:#1f77b4;stroke:#1f77b4;" x="92.996591" xlink:href="#m8569320600" y="44.443636"/>
     <use style="fill:#1f77b4;stroke:#1f77b4;" x="97.752273" xlink:href="#m8569320600" y="44.443636"/>
     <use style="fill:#1f77b4;stroke:#1f77b4;" x="102.507955" xlink:href="#m8569320600" y="44.443636"/>
     <use style="fill:#1f77b4;stroke:#1f77b4;" x="107.263636" xlink:href="#m8569320600" y="44.443636"/>
     <use style="fill:#1f77b4;stroke:#1f77b4;" x="112.019318" xlink:href="#m8569320600" y="44.443636"/>
     <use style="fill:#1f77b4;stroke:#1f77b4;" x="116.775" xlink:href="#m8569320600" y="44.443636"/>
     <use style="fill:#1f77b4;stroke:#1f77b4;" x="121.530682" xlink:href="#m8569320600" y="44.443636"/>
     <use style="fill:#1f77b4;stroke:#1f77b4;" x="126.286364" xlink:href="#m8569320600" y="44.443636"/>
     <use style="fill:#1f77b4;stroke:#1f77b4;" x="131.042045" xlink:href="#m8569320600" y="44.443636"/>
     <use style="fill:#1f77b4;stroke:#1f77b4;" x="135.797727" xlink:href="#m8569320600" y="65.656962"/>
     <use style="fill:#1f77b4;stroke:#1f77b4;" x="140.553409" xlink:href="#m8569320600" y="44.443636"/>
     <use style="fill:#1f77b4;stroke:#1f77b4;" x="145.309091" xlink:href="#m8569320600" y="56.629837"/>
     <use style="fill:#1f77b4;stroke:#1f77b4;" x="150.064773" xlink:href="#m8569320600" y="92.262289"/>
     <use style="fill:#1f77b4;stroke:#1f77b4;" x="154.820455" xlink:href="#m8569320600" y="102.681678"/>
     <use style="fill:#1f77b4;stroke:#1f77b4;" x="159.576136" xlink:href="#m8569320600" y="116.247758"/>
     <use style="fill:#1f77b4;stroke:#1f77b4;" x="164.331818" xlink:href="#m8569320600" y="147.178231"/>
     <use style="fill:#1f77b4;stroke:#1f77b4;" x="169.0875" xlink:href="#m8569320600" y="167.37867"/>
     <use style="fill:#1f77b4;stroke:#1f77b4;" x="173.843182" xlink:href="#m8569320600" y="176.495807"/>
     <use style="fill:#1f77b4;stroke:#1f77b4;" x="178.598864" xlink:href="#m8569320600" y="181.222852"/>
     <use style="fill:#1f77b4;stroke:#1f77b4;" x="183.354545" xlink:href="#m8569320600" y="177.42533"/>
     <use style="fill:#1f77b4;stroke:#1f77b4;" x="188.110227" xlink:href="#m8569320600" y="183.1538"/>
     <use style="fill:#1f77b4;stroke:#1f77b4;" x="192.865909" xlink:href="#m8569320600" y="185.273233"/>
     <use style="fill:#1f77b4;stroke:#1f77b4;" x="197.621591" xlink:href="#m8569320600" y="198.685132"/>
     <use style="fill:#1f77b4;stroke:#1f77b4;" x="202.377273" xlink:href="#m8569320600" y="198.424504"/>
     <use style="fill:#1f77b4;stroke:#1f77b4;" x="207.132955" xlink:href="#m8569320600" y="206.363364"/>
     <use style="fill:#1f77b4;stroke:#1f77b4;" x="211.888636" xlink:href="#m8569320600" y="209.145263"/>
     <use style="fill:#1f77b4;stroke:#1f77b4;" x="216.644318" xlink:href="#m8569320600" y="203.789647"/>
     <use style="fill:#1f77b4;stroke:#1f77b4;" x="221.4" xlink:href="#m8569320600" y="213.274875"/>
     <use style="fill:#1f77b4;stroke:#1f77b4;" x="226.155682" xlink:href="#m8569320600" y="206.565703"/>
     <use style="fill:#1f77b4;stroke:#1f77b4;" x="230.911364" xlink:href="#m8569320600" y="196.845274"/>
     <use style="fill:#1f77b4;stroke:#1f77b4;" x="235.667045" xlink:href="#m8569320600" y="201.277361"/>
     <use style="fill:#1f77b4;stroke:#1f77b4;" x="240.422727" xlink:href="#m8569320600" y="203.58606"/>
     <use style="fill:#1f77b4;stroke:#1f77b4;" x="245.178409" xlink:href="#m8569320600" y="208.966322"/>
     <use style="fill:#1f77b4;stroke:#1f77b4;" x="249.934091" xlink:href="#m8569320600" y="216.62315"/>
     <use style="fill:#1f77b4;stroke:#1f77b4;" x="254.689773" xlink:href="#m8569320600" y="217.955249"/>
     <use style="fill:#1f77b4;stroke:#1f77b4;" x="259.445455" xlink:href="#m8569320600" y="223.619422"/>
     <use style="fill:#1f77b4;stroke:#1f77b4;" x="264.201136" xlink:href="#m8569320600" y="227.405407"/>
     <use style="fill:#1f77b4;stroke:#1f77b4;" x="268.956818" xlink:href="#m8569320600" y="232.272049"/>
     <use style="fill:#1f77b4;stroke:#1f77b4;" x="273.7125" xlink:href="#m8569320600" y="233.625938"/>
     <use style="fill:#1f77b4;stroke:#1f77b4;" x="278.468182" xlink:href="#m8569320600" y="230.818096"/>
     <use style="fill:#1f77b4;stroke:#1f77b4;" x="283.223864" xlink:href="#m8569320600" y="230.750656"/>
     <use style="fill:#1f77b4;stroke:#1f77b4;" x="287.979545" xlink:href="#m8569320600" y="231.001268"/>
     <use style="fill:#1f77b4;stroke:#1f77b4;" x="292.735227" xlink:href="#m8569320600" y="230.196431"/>
     <use style="fill:#1f77b4;stroke:#1f77b4;" x="297.490909" xlink:href="#m8569320600" y="230.569288"/>
     <use style="fill:#1f77b4;stroke:#1f77b4;" x="302.246591" xlink:href="#m8569320600" y="229.960002"/>
     <use style="fill:#1f77b4;stroke:#1f77b4;" x="307.002273" xlink:href="#m8569320600" y="231.351148"/>
     <use style="fill:#1f77b4;stroke:#1f77b4;" x="311.757955" xlink:href="#m8569320600" y="231.529168"/>
     <use style="fill:#1f77b4;stroke:#1f77b4;" x="316.513636" xlink:href="#m8569320600" y="228.676595"/>
     <use style="fill:#1f77b4;stroke:#1f77b4;" x="321.269318" xlink:href="#m8569320600" y="229.065194"/>
     <use style="fill:#1f77b4;stroke:#1f77b4;" x="326.025" xlink:href="#m8569320600" y="226.40359"/>
     <use style="fill:#1f77b4;stroke:#1f77b4;" x="330.780682" xlink:href="#m8569320600" y="223.28139"/>
     <use style="fill:#1f77b4;stroke:#1f77b4;" x="335.536364" xlink:href="#m8569320600" y="224.677507"/>
     <use style="fill:#1f77b4;stroke:#1f77b4;" x="340.292045" xlink:href="#m8569320600" y="225.654058"/>
     <use style="fill:#1f77b4;stroke:#1f77b4;" x="345.047727" xlink:href="#m8569320600" y="224.164205"/>
     <use style="fill:#1f77b4;stroke:#1f77b4;" x="349.803409" xlink:href="#m8569320600" y="226.389792"/>
     <use style="fill:#1f77b4;stroke:#1f77b4;" x="354.559091" xlink:href="#m8569320600" y="226.179064"/>
     <use style="fill:#1f77b4;stroke:#1f77b4;" x="69.218182" xlink:href="#m8569320600" y="44.443636"/>
     <use style="fill:#1f77b4;stroke:#1f77b4;" x="73.973864" xlink:href="#m8569320600" y="44.443636"/>
     <use style="fill:#1f77b4;stroke:#1f77b4;" x="78.729545" xlink:href="#m8569320600" y="44.443636"/>
     <use style="fill:#1f77b4;stroke:#1f77b4;" x="83.485227" xlink:href="#m8569320600" y="44.443636"/>
     <use style="fill:#1f77b4;stroke:#1f77b4;" x="88.240909" xlink:href="#m8569320600" y="44.443636"/>
     <use style="fill:#1f77b4;stroke:#1f77b4;" x="92.996591" xlink:href="#m8569320600" y="44.443636"/>
     <use style="fill:#1f77b4;stroke:#1f77b4;" x="97.752273" xlink:href="#m8569320600" y="44.443636"/>
     <use style="fill:#1f77b4;stroke:#1f77b4;" x="102.507955" xlink:href="#m8569320600" y="44.443636"/>
     <use style="fill:#1f77b4;stroke:#1f77b4;" x="107.263636" xlink:href="#m8569320600" y="44.443636"/>
     <use style="fill:#1f77b4;stroke:#1f77b4;" x="112.019318" xlink:href="#m8569320600" y="44.443636"/>
     <use style="fill:#1f77b4;stroke:#1f77b4;" x="116.775" xlink:href="#m8569320600" y="44.443636"/>
     <use style="fill:#1f77b4;stroke:#1f77b4;" x="121.530682" xlink:href="#m8569320600" y="44.443636"/>
     <use style="fill:#1f77b4;stroke:#1f77b4;" x="126.286364" xlink:href="#m8569320600" y="44.443636"/>
     <use style="fill:#1f77b4;stroke:#1f77b4;" x="131.042045" xlink:href="#m8569320600" y="44.443636"/>
     <use style="fill:#1f77b4;stroke:#1f77b4;" x="135.797727" xlink:href="#m8569320600" y="44.443636"/>
     <use style="fill:#1f77b4;stroke:#1f77b4;" x="140.553409" xlink:href="#m8569320600" y="44.443636"/>
     <use style="fill:#1f77b4;stroke:#1f77b4;" x="145.309091" xlink:href="#m8569320600" y="44.443636"/>
     <use style="fill:#1f77b4;stroke:#1f77b4;" x="150.064773" xlink:href="#m8569320600" y="44.443636"/>
     <use style="fill:#1f77b4;stroke:#1f77b4;" x="154.820455" xlink:href="#m8569320600" y="46.355256"/>
    </g>
   </g>
   <g id="line2d_32">
    <defs>
     <path d="M 0 1.5 
C 0.397805 1.5 0.77937 1.341951 1.06066 1.06066 
C 1.341951 0.77937 1.5 0.397805 1.5 0 
C 1.5 -0.397805 1.341951 -0.77937 1.06066 -1.06066 
C 0.77937 -1.341951 0.397805 -1.5 0 -1.5 
C -0.397805 -1.5 -0.77937 -1.341951 -1.06066 -1.06066 
C -1.341951 -0.77937 -1.5 -0.397805 -1.5 0 
C -1.5 0.397805 -1.341951 0.77937 -1.06066 1.06066 
C -0.77937 1.341951 -0.397805 1.5 0 1.5 
z
" id="m1014b9461e" style="stroke:#ff7f0e;"/>
    </defs>
    <g clip-path="url(#pa51c9dedd7)">
     <use style="fill:#ff7f0e;stroke:#ff7f0e;" x="69.218182" xlink:href="#m1014b9461e" y="44.443636"/>
     <use style="fill:#ff7f0e;stroke:#ff7f0e;" x="73.973864" xlink:href="#m1014b9461e" y="44.443636"/>
     <use style="fill:#ff7f0e;stroke:#ff7f0e;" x="78.729545" xlink:href="#m1014b9461e" y="44.443636"/>
     <use style="fill:#ff7f0e;stroke:#ff7f0e;" x="83.485227" xlink:href="#m1014b9461e" y="44.443636"/>
     <use style="fill:#ff7f0e;stroke:#ff7f0e;" x="88.240909" xlink:href="#m1014b9461e" y="44.443636"/>
     <use style="fill:#ff7f0e;stroke:#ff7f0e;" x="92.996591" xlink:href="#m1014b9461e" y="44.443636"/>
     <use style="fill:#ff7f0e;stroke:#ff7f0e;" x="97.752273" xlink:href="#m1014b9461e" y="44.443636"/>
     <use style="fill:#ff7f0e;stroke:#ff7f0e;" x="102.507955" xlink:href="#m1014b9461e" y="44.443636"/>
     <use style="fill:#ff7f0e;stroke:#ff7f0e;" x="107.263636" xlink:href="#m1014b9461e" y="44.443636"/>
     <use style="fill:#ff7f0e;stroke:#ff7f0e;" x="112.019318" xlink:href="#m1014b9461e" y="44.443636"/>
     <use style="fill:#ff7f0e;stroke:#ff7f0e;" x="116.775" xlink:href="#m1014b9461e" y="44.443636"/>
     <use style="fill:#ff7f0e;stroke:#ff7f0e;" x="121.530682" xlink:href="#m1014b9461e" y="44.443636"/>
     <use style="fill:#ff7f0e;stroke:#ff7f0e;" x="126.286364" xlink:href="#m1014b9461e" y="44.443636"/>
     <use style="fill:#ff7f0e;stroke:#ff7f0e;" x="131.042045" xlink:href="#m1014b9461e" y="44.443636"/>
     <use style="fill:#ff7f0e;stroke:#ff7f0e;" x="135.797727" xlink:href="#m1014b9461e" y="44.443636"/>
     <use style="fill:#ff7f0e;stroke:#ff7f0e;" x="140.553409" xlink:href="#m1014b9461e" y="44.443636"/>
     <use style="fill:#ff7f0e;stroke:#ff7f0e;" x="145.309091" xlink:href="#m1014b9461e" y="74.101312"/>
     <use style="fill:#ff7f0e;stroke:#ff7f0e;" x="150.064773" xlink:href="#m1014b9461e" y="106.54349"/>
     <use style="fill:#ff7f0e;stroke:#ff7f0e;" x="154.820455" xlink:href="#m1014b9461e" y="142.920529"/>
     <use style="fill:#ff7f0e;stroke:#ff7f0e;" x="159.576136" xlink:href="#m1014b9461e" y="121.8721"/>
     <use style="fill:#ff7f0e;stroke:#ff7f0e;" x="164.331818" xlink:href="#m1014b9461e" y="144.60802"/>
     <use style="fill:#ff7f0e;stroke:#ff7f0e;" x="169.0875" xlink:href="#m1014b9461e" y="143.279763"/>
     <use style="fill:#ff7f0e;stroke:#ff7f0e;" x="173.843182" xlink:href="#m1014b9461e" y="157.236459"/>
     <use style="fill:#ff7f0e;stroke:#ff7f0e;" x="178.598864" xlink:href="#m1014b9461e" y="171.009059"/>
     <use style="fill:#ff7f0e;stroke:#ff7f0e;" x="183.354545" xlink:href="#m1014b9461e" y="173.392718"/>
     <use style="fill:#ff7f0e;stroke:#ff7f0e;" x="188.110227" xlink:href="#m1014b9461e" y="182.322117"/>
     <use style="fill:#ff7f0e;stroke:#ff7f0e;" x="192.865909" xlink:href="#m1014b9461e" y="189.856817"/>
     <use style="fill:#ff7f0e;stroke:#ff7f0e;" x="197.621591" xlink:href="#m1014b9461e" y="202.233718"/>
     <use style="fill:#ff7f0e;stroke:#ff7f0e;" x="202.377273" xlink:href="#m1014b9461e" y="202.456671"/>
     <use style="fill:#ff7f0e;stroke:#ff7f0e;" x="207.132955" xlink:href="#m1014b9461e" y="203.842847"/>
     <use style="fill:#ff7f0e;stroke:#ff7f0e;" x="211.888636" xlink:href="#m1014b9461e" y="206.308149"/>
     <use style="fill:#ff7f0e;stroke:#ff7f0e;" x="216.644318" xlink:href="#m1014b9461e" y="202.220644"/>
     <use style="fill:#ff7f0e;stroke:#ff7f0e;" x="221.4" xlink:href="#m1014b9461e" y="211.424807"/>
     <use style="fill:#ff7f0e;stroke:#ff7f0e;" x="226.155682" xlink:href="#m1014b9461e" y="210.100846"/>
     <use style="fill:#ff7f0e;stroke:#ff7f0e;" x="230.911364" xlink:href="#m1014b9461e" y="206.517535"/>
     <use style="fill:#ff7f0e;stroke:#ff7f0e;" x="235.667045" xlink:href="#m1014b9461e" y="210.055423"/>
     <use style="fill:#ff7f0e;stroke:#ff7f0e;" x="240.422727" xlink:href="#m1014b9461e" y="211.745572"/>
     <use style="fill:#ff7f0e;stroke:#ff7f0e;" x="245.178409" xlink:href="#m1014b9461e" y="216.860976"/>
     <use style="fill:#ff7f0e;stroke:#ff7f0e;" x="249.934091" xlink:href="#m1014b9461e" y="222.59035"/>
     <use style="fill:#ff7f0e;stroke:#ff7f0e;" x="254.689773" xlink:href="#m1014b9461e" y="223.658421"/>
     <use style="fill:#ff7f0e;stroke:#ff7f0e;" x="259.445455" xlink:href="#m1014b9461e" y="225.095796"/>
     <use style="fill:#ff7f0e;stroke:#ff7f0e;" x="264.201136" xlink:href="#m1014b9461e" y="228.468328"/>
     <use style="fill:#ff7f0e;stroke:#ff7f0e;" x="268.956818" xlink:href="#m1014b9461e" y="233.327629"/>
     <use style="fill:#ff7f0e;stroke:#ff7f0e;" x="273.7125" xlink:href="#m1014b9461e" y="231.661743"/>
     <use style="fill:#ff7f0e;stroke:#ff7f0e;" x="278.468182" xlink:href="#m1014b9461e" y="235.032892"/>
     <use style="fill:#ff7f0e;stroke:#ff7f0e;" x="283.223864" xlink:href="#m1014b9461e" y="235.007703"/>
     <use style="fill:#ff7f0e;stroke:#ff7f0e;" x="287.979545" xlink:href="#m1014b9461e" y="235.29666"/>
     <use style="fill:#ff7f0e;stroke:#ff7f0e;" x="292.735227" xlink:href="#m1014b9461e" y="234.638568"/>
     <use style="fill:#ff7f0e;stroke:#ff7f0e;" x="69.218182" xlink:href="#m1014b9461e" y="44.443636"/>
     <use style="fill:#ff7f0e;stroke:#ff7f0e;" x="73.973864" xlink:href="#m1014b9461e" y="44.443636"/>
     <use style="fill:#ff7f0e;stroke:#ff7f0e;" x="78.729545" xlink:href="#m1014b9461e" y="44.443636"/>
     <use style="fill:#ff7f0e;stroke:#ff7f0e;" x="83.485227" xlink:href="#m1014b9461e" y="44.443636"/>
     <use style="fill:#ff7f0e;stroke:#ff7f0e;" x="88.240909" xlink:href="#m1014b9461e" y="44.443636"/>
     <use style="fill:#ff7f0e;stroke:#ff7f0e;" x="92.996591" xlink:href="#m1014b9461e" y="44.443636"/>
     <use style="fill:#ff7f0e;stroke:#ff7f0e;" x="97.752273" xlink:href="#m1014b9461e" y="44.443636"/>
     <use style="fill:#ff7f0e;stroke:#ff7f0e;" x="102.507955" xlink:href="#m1014b9461e" y="44.443636"/>
     <use style="fill:#ff7f0e;stroke:#ff7f0e;" x="107.263636" xlink:href="#m1014b9461e" y="44.443636"/>
     <use style="fill:#ff7f0e;stroke:#ff7f0e;" x="112.019318" xlink:href="#m1014b9461e" y="44.443636"/>
     <use style="fill:#ff7f0e;stroke:#ff7f0e;" x="116.775" xlink:href="#m1014b9461e" y="44.443636"/>
     <use style="fill:#ff7f0e;stroke:#ff7f0e;" x="121.530682" xlink:href="#m1014b9461e" y="44.443636"/>
     <use style="fill:#ff7f0e;stroke:#ff7f0e;" x="126.286364" xlink:href="#m1014b9461e" y="44.443636"/>
     <use style="fill:#ff7f0e;stroke:#ff7f0e;" x="131.042045" xlink:href="#m1014b9461e" y="44.443636"/>
     <use style="fill:#ff7f0e;stroke:#ff7f0e;" x="69.218182" xlink:href="#m1014b9461e" y="44.443636"/>
     <use style="fill:#ff7f0e;stroke:#ff7f0e;" x="73.973864" xlink:href="#m1014b9461e" y="44.443636"/>
     <use style="fill:#ff7f0e;stroke:#ff7f0e;" x="78.729545" xlink:href="#m1014b9461e" y="44.443636"/>
     <use style="fill:#ff7f0e;stroke:#ff7f0e;" x="83.485227" xlink:href="#m1014b9461e" y="44.443636"/>
     <use style="fill:#ff7f0e;stroke:#ff7f0e;" x="88.240909" xlink:href="#m1014b9461e" y="44.443636"/>
     <use style="fill:#ff7f0e;stroke:#ff7f0e;" x="92.996591" xlink:href="#m1014b9461e" y="44.443636"/>
     <use style="fill:#ff7f0e;stroke:#ff7f0e;" x="97.752273" xlink:href="#m1014b9461e" y="44.443636"/>
     <use style="fill:#ff7f0e;stroke:#ff7f0e;" x="102.507955" xlink:href="#m1014b9461e" y="44.443636"/>
     <use style="fill:#ff7f0e;stroke:#ff7f0e;" x="107.263636" xlink:href="#m1014b9461e" y="44.443636"/>
     <use style="fill:#ff7f0e;stroke:#ff7f0e;" x="112.019318" xlink:href="#m1014b9461e" y="44.443636"/>
     <use style="fill:#ff7f0e;stroke:#ff7f0e;" x="116.775" xlink:href="#m1014b9461e" y="44.443636"/>
     <use style="fill:#ff7f0e;stroke:#ff7f0e;" x="121.530682" xlink:href="#m1014b9461e" y="44.443636"/>
     <use style="fill:#ff7f0e;stroke:#ff7f0e;" x="126.286364" xlink:href="#m1014b9461e" y="44.443636"/>
     <use style="fill:#ff7f0e;stroke:#ff7f0e;" x="131.042045" xlink:href="#m1014b9461e" y="44.443636"/>
     <use style="fill:#ff7f0e;stroke:#ff7f0e;" x="135.797727" xlink:href="#m1014b9461e" y="44.443636"/>
     <use style="fill:#ff7f0e;stroke:#ff7f0e;" x="140.553409" xlink:href="#m1014b9461e" y="44.443636"/>
     <use style="fill:#ff7f0e;stroke:#ff7f0e;" x="145.309091" xlink:href="#m1014b9461e" y="45.892179"/>
     <use style="fill:#ff7f0e;stroke:#ff7f0e;" x="150.064773" xlink:href="#m1014b9461e" y="44.443636"/>
    </g>
   </g>
   <g id="line2d_33">
    <defs>
     <path d="M 0 1.5 
C 0.397805 1.5 0.77937 1.341951 1.06066 1.06066 
C 1.341951 0.77937 1.5 0.397805 1.5 0 
C 1.5 -0.397805 1.341951 -0.77937 1.06066 -1.06066 
C 0.77937 -1.341951 0.397805 -1.5 0 -1.5 
C -0.397805 -1.5 -0.77937 -1.341951 -1.06066 -1.06066 
C -1.341951 -0.77937 -1.5 -0.397805 -1.5 0 
C -1.5 0.397805 -1.341951 0.77937 -1.06066 1.06066 
C -0.77937 1.341951 -0.397805 1.5 0 1.5 
z
" id="mcbf0269a54" style="stroke:#2ca02c;"/>
    </defs>
    <g clip-path="url(#pa51c9dedd7)">
     <use style="fill:#2ca02c;stroke:#2ca02c;" x="69.218182" xlink:href="#mcbf0269a54" y="44.443636"/>
     <use style="fill:#2ca02c;stroke:#2ca02c;" x="73.973864" xlink:href="#mcbf0269a54" y="44.443636"/>
     <use style="fill:#2ca02c;stroke:#2ca02c;" x="78.729545" xlink:href="#mcbf0269a54" y="44.443636"/>
     <use style="fill:#2ca02c;stroke:#2ca02c;" x="83.485227" xlink:href="#mcbf0269a54" y="44.443636"/>
     <use style="fill:#2ca02c;stroke:#2ca02c;" x="88.240909" xlink:href="#mcbf0269a54" y="44.443636"/>
     <use style="fill:#2ca02c;stroke:#2ca02c;" x="92.996591" xlink:href="#mcbf0269a54" y="44.443636"/>
     <use style="fill:#2ca02c;stroke:#2ca02c;" x="97.752273" xlink:href="#mcbf0269a54" y="44.443636"/>
     <use style="fill:#2ca02c;stroke:#2ca02c;" x="102.507955" xlink:href="#mcbf0269a54" y="44.443636"/>
     <use style="fill:#2ca02c;stroke:#2ca02c;" x="107.263636" xlink:href="#mcbf0269a54" y="44.443636"/>
     <use style="fill:#2ca02c;stroke:#2ca02c;" x="112.019318" xlink:href="#mcbf0269a54" y="44.443636"/>
     <use style="fill:#2ca02c;stroke:#2ca02c;" x="116.775" xlink:href="#mcbf0269a54" y="44.443636"/>
     <use style="fill:#2ca02c;stroke:#2ca02c;" x="121.530682" xlink:href="#mcbf0269a54" y="44.443636"/>
     <use style="fill:#2ca02c;stroke:#2ca02c;" x="126.286364" xlink:href="#mcbf0269a54" y="44.443636"/>
     <use style="fill:#2ca02c;stroke:#2ca02c;" x="131.042045" xlink:href="#mcbf0269a54" y="44.443636"/>
     <use style="fill:#2ca02c;stroke:#2ca02c;" x="135.797727" xlink:href="#mcbf0269a54" y="50.329311"/>
     <use style="fill:#2ca02c;stroke:#2ca02c;" x="140.553409" xlink:href="#mcbf0269a54" y="44.443636"/>
     <use style="fill:#2ca02c;stroke:#2ca02c;" x="145.309091" xlink:href="#mcbf0269a54" y="44.443636"/>
     <use style="fill:#2ca02c;stroke:#2ca02c;" x="150.064773" xlink:href="#mcbf0269a54" y="51.845587"/>
     <use style="fill:#2ca02c;stroke:#2ca02c;" x="154.820455" xlink:href="#mcbf0269a54" y="101.872527"/>
     <use style="fill:#2ca02c;stroke:#2ca02c;" x="159.576136" xlink:href="#mcbf0269a54" y="88.331378"/>
     <use style="fill:#2ca02c;stroke:#2ca02c;" x="164.331818" xlink:href="#mcbf0269a54" y="111.275982"/>
     <use style="fill:#2ca02c;stroke:#2ca02c;" x="169.0875" xlink:href="#mcbf0269a54" y="112.801269"/>
     <use style="fill:#2ca02c;stroke:#2ca02c;" x="173.843182" xlink:href="#mcbf0269a54" y="112.09328"/>
     <use style="fill:#2ca02c;stroke:#2ca02c;" x="178.598864" xlink:href="#mcbf0269a54" y="125.884115"/>
     <use style="fill:#2ca02c;stroke:#2ca02c;" x="183.354545" xlink:href="#mcbf0269a54" y="143.071264"/>
     <use style="fill:#2ca02c;stroke:#2ca02c;" x="188.110227" xlink:href="#mcbf0269a54" y="147.218377"/>
     <use style="fill:#2ca02c;stroke:#2ca02c;" x="192.865909" xlink:href="#mcbf0269a54" y="154.866442"/>
     <use style="fill:#2ca02c;stroke:#2ca02c;" x="197.621591" xlink:href="#mcbf0269a54" y="175.959325"/>
     <use style="fill:#2ca02c;stroke:#2ca02c;" x="202.377273" xlink:href="#mcbf0269a54" y="187.121369"/>
     <use style="fill:#2ca02c;stroke:#2ca02c;" x="207.132955" xlink:href="#mcbf0269a54" y="195.561535"/>
     <use style="fill:#2ca02c;stroke:#2ca02c;" x="211.888636" xlink:href="#mcbf0269a54" y="193.200311"/>
     <use style="fill:#2ca02c;stroke:#2ca02c;" x="216.644318" xlink:href="#mcbf0269a54" y="200.752445"/>
     <use style="fill:#2ca02c;stroke:#2ca02c;" x="221.4" xlink:href="#mcbf0269a54" y="210.233116"/>
     <use style="fill:#2ca02c;stroke:#2ca02c;" x="226.155682" xlink:href="#mcbf0269a54" y="214.087002"/>
     <use style="fill:#2ca02c;stroke:#2ca02c;" x="230.911364" xlink:href="#mcbf0269a54" y="211.496048"/>
     <use style="fill:#2ca02c;stroke:#2ca02c;" x="235.667045" xlink:href="#mcbf0269a54" y="215.507331"/>
     <use style="fill:#2ca02c;stroke:#2ca02c;" x="240.422727" xlink:href="#mcbf0269a54" y="217.975699"/>
     <use style="fill:#2ca02c;stroke:#2ca02c;" x="245.178409" xlink:href="#mcbf0269a54" y="213.55684"/>
     <use style="fill:#2ca02c;stroke:#2ca02c;" x="249.934091" xlink:href="#mcbf0269a54" y="219.73095"/>
     <use style="fill:#2ca02c;stroke:#2ca02c;" x="254.689773" xlink:href="#mcbf0269a54" y="220.508204"/>
     <use style="fill:#2ca02c;stroke:#2ca02c;" x="259.445455" xlink:href="#mcbf0269a54" y="222.722129"/>
     <use style="fill:#2ca02c;stroke:#2ca02c;" x="69.218182" xlink:href="#mcbf0269a54" y="44.443636"/>
     <use style="fill:#2ca02c;stroke:#2ca02c;" x="73.973864" xlink:href="#mcbf0269a54" y="44.443636"/>
     <use style="fill:#2ca02c;stroke:#2ca02c;" x="78.729545" xlink:href="#mcbf0269a54" y="44.443636"/>
     <use style="fill:#2ca02c;stroke:#2ca02c;" x="83.485227" xlink:href="#mcbf0269a54" y="44.443636"/>
     <use style="fill:#2ca02c;stroke:#2ca02c;" x="88.240909" xlink:href="#mcbf0269a54" y="44.443636"/>
     <use style="fill:#2ca02c;stroke:#2ca02c;" x="92.996591" xlink:href="#mcbf0269a54" y="44.443636"/>
     <use style="fill:#2ca02c;stroke:#2ca02c;" x="97.752273" xlink:href="#mcbf0269a54" y="44.443636"/>
     <use style="fill:#2ca02c;stroke:#2ca02c;" x="102.507955" xlink:href="#mcbf0269a54" y="44.443636"/>
     <use style="fill:#2ca02c;stroke:#2ca02c;" x="107.263636" xlink:href="#mcbf0269a54" y="44.443636"/>
     <use style="fill:#2ca02c;stroke:#2ca02c;" x="112.019318" xlink:href="#mcbf0269a54" y="44.443636"/>
     <use style="fill:#2ca02c;stroke:#2ca02c;" x="116.775" xlink:href="#mcbf0269a54" y="44.443636"/>
     <use style="fill:#2ca02c;stroke:#2ca02c;" x="121.530682" xlink:href="#mcbf0269a54" y="44.443636"/>
     <use style="fill:#2ca02c;stroke:#2ca02c;" x="126.286364" xlink:href="#mcbf0269a54" y="44.443636"/>
     <use style="fill:#2ca02c;stroke:#2ca02c;" x="131.042045" xlink:href="#mcbf0269a54" y="44.443636"/>
     <use style="fill:#2ca02c;stroke:#2ca02c;" x="135.797727" xlink:href="#mcbf0269a54" y="44.443636"/>
     <use style="fill:#2ca02c;stroke:#2ca02c;" x="140.553409" xlink:href="#mcbf0269a54" y="44.443636"/>
     <use style="fill:#2ca02c;stroke:#2ca02c;" x="145.309091" xlink:href="#mcbf0269a54" y="44.443636"/>
     <use style="fill:#2ca02c;stroke:#2ca02c;" x="150.064773" xlink:href="#mcbf0269a54" y="44.443636"/>
     <use style="fill:#2ca02c;stroke:#2ca02c;" x="154.820455" xlink:href="#mcbf0269a54" y="44.443636"/>
     <use style="fill:#2ca02c;stroke:#2ca02c;" x="159.576136" xlink:href="#mcbf0269a54" y="44.443636"/>
     <use style="fill:#2ca02c;stroke:#2ca02c;" x="164.331818" xlink:href="#mcbf0269a54" y="44.443636"/>
     <use style="fill:#2ca02c;stroke:#2ca02c;" x="169.0875" xlink:href="#mcbf0269a54" y="44.443636"/>
     <use style="fill:#2ca02c;stroke:#2ca02c;" x="173.843182" xlink:href="#mcbf0269a54" y="44.443636"/>
     <use style="fill:#2ca02c;stroke:#2ca02c;" x="178.598864" xlink:href="#mcbf0269a54" y="44.443636"/>
     <use style="fill:#2ca02c;stroke:#2ca02c;" x="183.354545" xlink:href="#mcbf0269a54" y="62.91418"/>
     <use style="fill:#2ca02c;stroke:#2ca02c;" x="188.110227" xlink:href="#mcbf0269a54" y="82.435965"/>
     <use style="fill:#2ca02c;stroke:#2ca02c;" x="192.865909" xlink:href="#mcbf0269a54" y="108.717302"/>
     <use style="fill:#2ca02c;stroke:#2ca02c;" x="69.218182" xlink:href="#mcbf0269a54" y="44.443636"/>
     <use style="fill:#2ca02c;stroke:#2ca02c;" x="73.973864" xlink:href="#mcbf0269a54" y="44.443636"/>
     <use style="fill:#2ca02c;stroke:#2ca02c;" x="78.729545" xlink:href="#mcbf0269a54" y="44.443636"/>
     <use style="fill:#2ca02c;stroke:#2ca02c;" x="83.485227" xlink:href="#mcbf0269a54" y="44.443636"/>
     <use style="fill:#2ca02c;stroke:#2ca02c;" x="88.240909" xlink:href="#mcbf0269a54" y="44.443636"/>
     <use style="fill:#2ca02c;stroke:#2ca02c;" x="92.996591" xlink:href="#mcbf0269a54" y="44.443636"/>
     <use style="fill:#2ca02c;stroke:#2ca02c;" x="97.752273" xlink:href="#mcbf0269a54" y="44.443636"/>
     <use style="fill:#2ca02c;stroke:#2ca02c;" x="102.507955" xlink:href="#mcbf0269a54" y="44.443636"/>
     <use style="fill:#2ca02c;stroke:#2ca02c;" x="107.263636" xlink:href="#mcbf0269a54" y="44.443636"/>
     <use style="fill:#2ca02c;stroke:#2ca02c;" x="112.019318" xlink:href="#mcbf0269a54" y="44.443636"/>
     <use style="fill:#2ca02c;stroke:#2ca02c;" x="116.775" xlink:href="#mcbf0269a54" y="44.443636"/>
     <use style="fill:#2ca02c;stroke:#2ca02c;" x="121.530682" xlink:href="#mcbf0269a54" y="44.443636"/>
    </g>
   </g>
   <g id="line2d_34">
    <defs>
     <path d="M 0 1.5 
C 0.397805 1.5 0.77937 1.341951 1.06066 1.06066 
C 1.341951 0.77937 1.5 0.397805 1.5 0 
C 1.5 -0.397805 1.341951 -0.77937 1.06066 -1.06066 
C 0.77937 -1.341951 0.397805 -1.5 0 -1.5 
C -0.397805 -1.5 -0.77937 -1.341951 -1.06066 -1.06066 
C -1.341951 -0.77937 -1.5 -0.397805 -1.5 0 
C -1.5 0.397805 -1.341951 0.77937 -1.06066 1.06066 
C -0.77937 1.341951 -0.397805 1.5 0 1.5 
z
" id="m1c1838b62b" style="stroke:#d62728;"/>
    </defs>
    <g clip-path="url(#pa51c9dedd7)">
     <use style="fill:#d62728;stroke:#d62728;" x="69.218182" xlink:href="#m1c1838b62b" y="44.443636"/>
     <use style="fill:#d62728;stroke:#d62728;" x="73.973864" xlink:href="#m1c1838b62b" y="44.443636"/>
     <use style="fill:#d62728;stroke:#d62728;" x="78.729545" xlink:href="#m1c1838b62b" y="44.443636"/>
     <use style="fill:#d62728;stroke:#d62728;" x="83.485227" xlink:href="#m1c1838b62b" y="44.443636"/>
     <use style="fill:#d62728;stroke:#d62728;" x="88.240909" xlink:href="#m1c1838b62b" y="44.443636"/>
     <use style="fill:#d62728;stroke:#d62728;" x="92.996591" xlink:href="#m1c1838b62b" y="44.443636"/>
     <use style="fill:#d62728;stroke:#d62728;" x="97.752273" xlink:href="#m1c1838b62b" y="44.443636"/>
     <use style="fill:#d62728;stroke:#d62728;" x="102.507955" xlink:href="#m1c1838b62b" y="44.443636"/>
     <use style="fill:#d62728;stroke:#d62728;" x="107.263636" xlink:href="#m1c1838b62b" y="44.443636"/>
     <use style="fill:#d62728;stroke:#d62728;" x="112.019318" xlink:href="#m1c1838b62b" y="44.443636"/>
     <use style="fill:#d62728;stroke:#d62728;" x="116.775" xlink:href="#m1c1838b62b" y="44.443636"/>
     <use style="fill:#d62728;stroke:#d62728;" x="121.530682" xlink:href="#m1c1838b62b" y="68.311048"/>
     <use style="fill:#d62728;stroke:#d62728;" x="126.286364" xlink:href="#m1c1838b62b" y="97.615098"/>
     <use style="fill:#d62728;stroke:#d62728;" x="131.042045" xlink:href="#m1c1838b62b" y="85.138352"/>
     <use style="fill:#d62728;stroke:#d62728;" x="135.797727" xlink:href="#m1c1838b62b" y="129.904886"/>
     <use style="fill:#d62728;stroke:#d62728;" x="140.553409" xlink:href="#m1c1838b62b" y="133.441318"/>
     <use style="fill:#d62728;stroke:#d62728;" x="145.309091" xlink:href="#m1c1838b62b" y="158.321676"/>
     <use style="fill:#d62728;stroke:#d62728;" x="150.064773" xlink:href="#m1c1838b62b" y="168.152996"/>
     <use style="fill:#d62728;stroke:#d62728;" x="154.820455" xlink:href="#m1c1838b62b" y="168.477749"/>
     <use style="fill:#d62728;stroke:#d62728;" x="159.576136" xlink:href="#m1c1838b62b" y="162.667253"/>
     <use style="fill:#d62728;stroke:#d62728;" x="164.331818" xlink:href="#m1c1838b62b" y="180.52186"/>
     <use style="fill:#d62728;stroke:#d62728;" x="169.0875" xlink:href="#m1c1838b62b" y="191.650534"/>
     <use style="fill:#d62728;stroke:#d62728;" x="173.843182" xlink:href="#m1c1838b62b" y="196.962048"/>
     <use style="fill:#d62728;stroke:#d62728;" x="178.598864" xlink:href="#m1c1838b62b" y="204.601586"/>
     <use style="fill:#d62728;stroke:#d62728;" x="183.354545" xlink:href="#m1c1838b62b" y="210.288141"/>
     <use style="fill:#d62728;stroke:#d62728;" x="188.110227" xlink:href="#m1c1838b62b" y="209.775657"/>
     <use style="fill:#d62728;stroke:#d62728;" x="192.865909" xlink:href="#m1c1838b62b" y="213.271807"/>
     <use style="fill:#d62728;stroke:#d62728;" x="197.621591" xlink:href="#m1c1838b62b" y="216.665861"/>
     <use style="fill:#d62728;stroke:#d62728;" x="202.377273" xlink:href="#m1c1838b62b" y="220.305173"/>
     <use style="fill:#d62728;stroke:#d62728;" x="207.132955" xlink:href="#m1c1838b62b" y="220.562586"/>
     <use style="fill:#d62728;stroke:#d62728;" x="211.888636" xlink:href="#m1c1838b62b" y="225.815326"/>
     <use style="fill:#d62728;stroke:#d62728;" x="216.644318" xlink:href="#m1c1838b62b" y="229.368584"/>
     <use style="fill:#d62728;stroke:#d62728;" x="221.4" xlink:href="#m1c1838b62b" y="233.85695"/>
     <use style="fill:#d62728;stroke:#d62728;" x="226.155682" xlink:href="#m1c1838b62b" y="233.081736"/>
     <use style="fill:#d62728;stroke:#d62728;" x="230.911364" xlink:href="#m1c1838b62b" y="234.044953"/>
     <use style="fill:#d62728;stroke:#d62728;" x="235.667045" xlink:href="#m1c1838b62b" y="237.985957"/>
     <use style="fill:#d62728;stroke:#d62728;" x="240.422727" xlink:href="#m1c1838b62b" y="239.289244"/>
     <use style="fill:#d62728;stroke:#d62728;" x="245.178409" xlink:href="#m1c1838b62b" y="236.870582"/>
     <use style="fill:#d62728;stroke:#d62728;" x="249.934091" xlink:href="#m1c1838b62b" y="237.881883"/>
     <use style="fill:#d62728;stroke:#d62728;" x="254.689773" xlink:href="#m1c1838b62b" y="238.437103"/>
     <use style="fill:#d62728;stroke:#d62728;" x="259.445455" xlink:href="#m1c1838b62b" y="237.108834"/>
     <use style="fill:#d62728;stroke:#d62728;" x="264.201136" xlink:href="#m1c1838b62b" y="237.210612"/>
     <use style="fill:#d62728;stroke:#d62728;" x="268.956818" xlink:href="#m1c1838b62b" y="240.789335"/>
     <use style="fill:#d62728;stroke:#d62728;" x="273.7125" xlink:href="#m1c1838b62b" y="239.72723"/>
     <use style="fill:#d62728;stroke:#d62728;" x="278.468182" xlink:href="#m1c1838b62b" y="240.054901"/>
     <use style="fill:#d62728;stroke:#d62728;" x="283.223864" xlink:href="#m1c1838b62b" y="242.116364"/>
     <use style="fill:#d62728;stroke:#d62728;" x="287.979545" xlink:href="#m1c1838b62b" y="237.706742"/>
     <use style="fill:#d62728;stroke:#d62728;" x="292.735227" xlink:href="#m1c1838b62b" y="237.118004"/>
     <use style="fill:#d62728;stroke:#d62728;" x="297.490909" xlink:href="#m1c1838b62b" y="237.397494"/>
     <use style="fill:#d62728;stroke:#d62728;" x="302.246591" xlink:href="#m1c1838b62b" y="236.954953"/>
     <use style="fill:#d62728;stroke:#d62728;" x="307.002273" xlink:href="#m1c1838b62b" y="237.963684"/>
     <use style="fill:#d62728;stroke:#d62728;" x="311.757955" xlink:href="#m1c1838b62b" y="238.105161"/>
     <use style="fill:#d62728;stroke:#d62728;" x="316.513636" xlink:href="#m1c1838b62b" y="236.021409"/>
     <use style="fill:#d62728;stroke:#d62728;" x="321.269318" xlink:href="#m1c1838b62b" y="236.305346"/>
     <use style="fill:#d62728;stroke:#d62728;" x="326.025" xlink:href="#m1c1838b62b" y="234.392293"/>
     <use style="fill:#d62728;stroke:#d62728;" x="330.780682" xlink:href="#m1c1838b62b" y="232.16619"/>
     <use style="fill:#d62728;stroke:#d62728;" x="335.536364" xlink:href="#m1c1838b62b" y="233.162392"/>
     <use style="fill:#d62728;stroke:#d62728;" x="340.292045" xlink:href="#m1c1838b62b" y="233.84722"/>
     <use style="fill:#d62728;stroke:#d62728;" x="345.047727" xlink:href="#m1c1838b62b" y="232.795215"/>
     <use style="fill:#d62728;stroke:#d62728;" x="349.803409" xlink:href="#m1c1838b62b" y="234.382326"/>
     <use style="fill:#d62728;stroke:#d62728;" x="354.559091" xlink:href="#m1c1838b62b" y="234.225928"/>
     <use style="fill:#d62728;stroke:#d62728;" x="359.314773" xlink:href="#m1c1838b62b" y="234.793303"/>
     <use style="fill:#d62728;stroke:#d62728;" x="364.070455" xlink:href="#m1c1838b62b" y="234.009063"/>
     <use style="fill:#d62728;stroke:#d62728;" x="368.826136" xlink:href="#m1c1838b62b" y="230.412594"/>
     <use style="fill:#d62728;stroke:#d62728;" x="373.581818" xlink:href="#m1c1838b62b" y="225.174699"/>
     <use style="fill:#d62728;stroke:#d62728;" x="69.218182" xlink:href="#m1c1838b62b" y="44.443636"/>
     <use style="fill:#d62728;stroke:#d62728;" x="73.973864" xlink:href="#m1c1838b62b" y="44.443636"/>
     <use style="fill:#d62728;stroke:#d62728;" x="78.729545" xlink:href="#m1c1838b62b" y="44.443636"/>
     <use style="fill:#d62728;stroke:#d62728;" x="83.485227" xlink:href="#m1c1838b62b" y="44.443636"/>
     <use style="fill:#d62728;stroke:#d62728;" x="88.240909" xlink:href="#m1c1838b62b" y="44.443636"/>
     <use style="fill:#d62728;stroke:#d62728;" x="92.996591" xlink:href="#m1c1838b62b" y="44.443636"/>
     <use style="fill:#d62728;stroke:#d62728;" x="97.752273" xlink:href="#m1c1838b62b" y="44.443636"/>
     <use style="fill:#d62728;stroke:#d62728;" x="102.507955" xlink:href="#m1c1838b62b" y="44.443636"/>
     <use style="fill:#d62728;stroke:#d62728;" x="107.263636" xlink:href="#m1c1838b62b" y="44.443636"/>
     <use style="fill:#d62728;stroke:#d62728;" x="112.019318" xlink:href="#m1c1838b62b" y="44.443636"/>
     <use style="fill:#d62728;stroke:#d62728;" x="116.775" xlink:href="#m1c1838b62b" y="44.443636"/>
     <use style="fill:#d62728;stroke:#d62728;" x="121.530682" xlink:href="#m1c1838b62b" y="44.443636"/>
     <use style="fill:#d62728;stroke:#d62728;" x="126.286364" xlink:href="#m1c1838b62b" y="44.443636"/>
     <use style="fill:#d62728;stroke:#d62728;" x="131.042045" xlink:href="#m1c1838b62b" y="44.443636"/>
     <use style="fill:#d62728;stroke:#d62728;" x="135.797727" xlink:href="#m1c1838b62b" y="44.443636"/>
    </g>
   </g>
   <g id="line2d_35">
    <defs>
     <path d="M 0 1.5 
C 0.397805 1.5 0.77937 1.341951 1.06066 1.06066 
C 1.341951 0.77937 1.5 0.397805 1.5 0 
C 1.5 -0.397805 1.341951 -0.77937 1.06066 -1.06066 
C 0.77937 -1.341951 0.397805 -1.5 0 -1.5 
C -0.397805 -1.5 -0.77937 -1.341951 -1.06066 -1.06066 
C -1.341951 -0.77937 -1.5 -0.397805 -1.5 0 
C -1.5 0.397805 -1.341951 0.77937 -1.06066 1.06066 
C -0.77937 1.341951 -0.397805 1.5 0 1.5 
z
" id="m052ce637dc" style="stroke:#9467bd;"/>
    </defs>
    <g clip-path="url(#pa51c9dedd7)">
     <use style="fill:#9467bd;stroke:#9467bd;" x="69.218182" xlink:href="#m052ce637dc" y="44.443636"/>
     <use style="fill:#9467bd;stroke:#9467bd;" x="73.973864" xlink:href="#m052ce637dc" y="44.443636"/>
     <use style="fill:#9467bd;stroke:#9467bd;" x="78.729545" xlink:href="#m052ce637dc" y="44.443636"/>
     <use style="fill:#9467bd;stroke:#9467bd;" x="83.485227" xlink:href="#m052ce637dc" y="44.443636"/>
     <use style="fill:#9467bd;stroke:#9467bd;" x="88.240909" xlink:href="#m052ce637dc" y="44.443636"/>
     <use style="fill:#9467bd;stroke:#9467bd;" x="92.996591" xlink:href="#m052ce637dc" y="44.443636"/>
     <use style="fill:#9467bd;stroke:#9467bd;" x="97.752273" xlink:href="#m052ce637dc" y="44.443636"/>
     <use style="fill:#9467bd;stroke:#9467bd;" x="102.507955" xlink:href="#m052ce637dc" y="44.443636"/>
     <use style="fill:#9467bd;stroke:#9467bd;" x="107.263636" xlink:href="#m052ce637dc" y="44.443636"/>
     <use style="fill:#9467bd;stroke:#9467bd;" x="112.019318" xlink:href="#m052ce637dc" y="44.443636"/>
     <use style="fill:#9467bd;stroke:#9467bd;" x="116.775" xlink:href="#m052ce637dc" y="44.443636"/>
     <use style="fill:#9467bd;stroke:#9467bd;" x="121.530682" xlink:href="#m052ce637dc" y="44.443636"/>
     <use style="fill:#9467bd;stroke:#9467bd;" x="126.286364" xlink:href="#m052ce637dc" y="44.443636"/>
     <use style="fill:#9467bd;stroke:#9467bd;" x="131.042045" xlink:href="#m052ce637dc" y="44.443636"/>
     <use style="fill:#9467bd;stroke:#9467bd;" x="135.797727" xlink:href="#m052ce637dc" y="97.217743"/>
     <use style="fill:#9467bd;stroke:#9467bd;" x="140.553409" xlink:href="#m052ce637dc" y="61.499605"/>
     <use style="fill:#9467bd;stroke:#9467bd;" x="145.309091" xlink:href="#m052ce637dc" y="103.565592"/>
     <use style="fill:#9467bd;stroke:#9467bd;" x="150.064773" xlink:href="#m052ce637dc" y="129.19863"/>
     <use style="fill:#9467bd;stroke:#9467bd;" x="154.820455" xlink:href="#m052ce637dc" y="154.892725"/>
     <use style="fill:#9467bd;stroke:#9467bd;" x="159.576136" xlink:href="#m052ce637dc" y="143.486115"/>
     <use style="fill:#9467bd;stroke:#9467bd;" x="164.331818" xlink:href="#m052ce637dc" y="147.443946"/>
     <use style="fill:#9467bd;stroke:#9467bd;" x="169.0875" xlink:href="#m052ce637dc" y="165.145043"/>
     <use style="fill:#9467bd;stroke:#9467bd;" x="173.843182" xlink:href="#m052ce637dc" y="164.090248"/>
     <use style="fill:#9467bd;stroke:#9467bd;" x="178.598864" xlink:href="#m052ce637dc" y="172.36591"/>
     <use style="fill:#9467bd;stroke:#9467bd;" x="183.354545" xlink:href="#m052ce637dc" y="174.668046"/>
     <use style="fill:#9467bd;stroke:#9467bd;" x="188.110227" xlink:href="#m052ce637dc" y="172.810511"/>
     <use style="fill:#9467bd;stroke:#9467bd;" x="192.865909" xlink:href="#m052ce637dc" y="180.692185"/>
     <use style="fill:#9467bd;stroke:#9467bd;" x="197.621591" xlink:href="#m052ce637dc" y="180.684431"/>
     <use style="fill:#9467bd;stroke:#9467bd;" x="202.377273" xlink:href="#m052ce637dc" y="182.546324"/>
     <use style="fill:#9467bd;stroke:#9467bd;" x="207.132955" xlink:href="#m052ce637dc" y="199.619853"/>
     <use style="fill:#9467bd;stroke:#9467bd;" x="211.888636" xlink:href="#m052ce637dc" y="198.289341"/>
     <use style="fill:#9467bd;stroke:#9467bd;" x="216.644318" xlink:href="#m052ce637dc" y="204.316659"/>
     <use style="fill:#9467bd;stroke:#9467bd;" x="221.4" xlink:href="#m052ce637dc" y="204.065052"/>
     <use style="fill:#9467bd;stroke:#9467bd;" x="226.155682" xlink:href="#m052ce637dc" y="202.528992"/>
     <use style="fill:#9467bd;stroke:#9467bd;" x="230.911364" xlink:href="#m052ce637dc" y="203.248447"/>
     <use style="fill:#9467bd;stroke:#9467bd;" x="235.667045" xlink:href="#m052ce637dc" y="207.078841"/>
     <use style="fill:#9467bd;stroke:#9467bd;" x="240.422727" xlink:href="#m052ce637dc" y="204.111445"/>
     <use style="fill:#9467bd;stroke:#9467bd;" x="245.178409" xlink:href="#m052ce637dc" y="198.510289"/>
     <use style="fill:#9467bd;stroke:#9467bd;" x="249.934091" xlink:href="#m052ce637dc" y="195.033755"/>
     <use style="fill:#9467bd;stroke:#9467bd;" x="254.689773" xlink:href="#m052ce637dc" y="202.51371"/>
     <use style="fill:#9467bd;stroke:#9467bd;" x="259.445455" xlink:href="#m052ce637dc" y="204.93677"/>
     <use style="fill:#9467bd;stroke:#9467bd;" x="264.201136" xlink:href="#m052ce637dc" y="204.614358"/>
     <use style="fill:#9467bd;stroke:#9467bd;" x="268.956818" xlink:href="#m052ce637dc" y="203.301018"/>
     <use style="fill:#9467bd;stroke:#9467bd;" x="273.7125" xlink:href="#m052ce637dc" y="191.870856"/>
     <use style="fill:#9467bd;stroke:#9467bd;" x="278.468182" xlink:href="#m052ce637dc" y="184.625496"/>
     <use style="fill:#9467bd;stroke:#9467bd;" x="283.223864" xlink:href="#m052ce637dc" y="183.392941"/>
     <use style="fill:#9467bd;stroke:#9467bd;" x="287.979545" xlink:href="#m052ce637dc" y="171.359736"/>
     <use style="fill:#9467bd;stroke:#9467bd;" x="292.735227" xlink:href="#m052ce637dc" y="167.927398"/>
     <use style="fill:#9467bd;stroke:#9467bd;" x="297.490909" xlink:href="#m052ce637dc" y="169.17758"/>
     <use style="fill:#9467bd;stroke:#9467bd;" x="302.246591" xlink:href="#m052ce637dc" y="166.439353"/>
     <use style="fill:#9467bd;stroke:#9467bd;" x="307.002273" xlink:href="#m052ce637dc" y="171.726885"/>
     <use style="fill:#9467bd;stroke:#9467bd;" x="311.757955" xlink:href="#m052ce637dc" y="172.220562"/>
     <use style="fill:#9467bd;stroke:#9467bd;" x="316.513636" xlink:href="#m052ce637dc" y="160.018359"/>
     <use style="fill:#9467bd;stroke:#9467bd;" x="321.269318" xlink:href="#m052ce637dc" y="161.318185"/>
     <use style="fill:#9467bd;stroke:#9467bd;" x="69.218182" xlink:href="#m052ce637dc" y="44.443636"/>
     <use style="fill:#9467bd;stroke:#9467bd;" x="73.973864" xlink:href="#m052ce637dc" y="44.443636"/>
     <use style="fill:#9467bd;stroke:#9467bd;" x="78.729545" xlink:href="#m052ce637dc" y="44.443636"/>
     <use style="fill:#9467bd;stroke:#9467bd;" x="83.485227" xlink:href="#m052ce637dc" y="44.443636"/>
     <use style="fill:#9467bd;stroke:#9467bd;" x="88.240909" xlink:href="#m052ce637dc" y="44.443636"/>
     <use style="fill:#9467bd;stroke:#9467bd;" x="92.996591" xlink:href="#m052ce637dc" y="44.443636"/>
     <use style="fill:#9467bd;stroke:#9467bd;" x="97.752273" xlink:href="#m052ce637dc" y="44.443636"/>
     <use style="fill:#9467bd;stroke:#9467bd;" x="102.507955" xlink:href="#m052ce637dc" y="44.443636"/>
     <use style="fill:#9467bd;stroke:#9467bd;" x="107.263636" xlink:href="#m052ce637dc" y="44.443636"/>
     <use style="fill:#9467bd;stroke:#9467bd;" x="112.019318" xlink:href="#m052ce637dc" y="44.443636"/>
     <use style="fill:#9467bd;stroke:#9467bd;" x="116.775" xlink:href="#m052ce637dc" y="44.443636"/>
     <use style="fill:#9467bd;stroke:#9467bd;" x="121.530682" xlink:href="#m052ce637dc" y="44.443636"/>
     <use style="fill:#9467bd;stroke:#9467bd;" x="126.286364" xlink:href="#m052ce637dc" y="44.443636"/>
     <use style="fill:#9467bd;stroke:#9467bd;" x="131.042045" xlink:href="#m052ce637dc" y="44.443636"/>
     <use style="fill:#9467bd;stroke:#9467bd;" x="135.797727" xlink:href="#m052ce637dc" y="44.443636"/>
     <use style="fill:#9467bd;stroke:#9467bd;" x="140.553409" xlink:href="#m052ce637dc" y="44.443636"/>
     <use style="fill:#9467bd;stroke:#9467bd;" x="145.309091" xlink:href="#m052ce637dc" y="88.302116"/>
     <use style="fill:#9467bd;stroke:#9467bd;" x="150.064773" xlink:href="#m052ce637dc" y="80.596568"/>
     <use style="fill:#9467bd;stroke:#9467bd;" x="154.820455" xlink:href="#m052ce637dc" y="120.772023"/>
     <use style="fill:#9467bd;stroke:#9467bd;" x="159.576136" xlink:href="#m052ce637dc" y="140.3846"/>
     <use style="fill:#9467bd;stroke:#9467bd;" x="164.331818" xlink:href="#m052ce637dc" y="111.546042"/>
     <use style="fill:#9467bd;stroke:#9467bd;" x="169.0875" xlink:href="#m052ce637dc" y="62.237736"/>
     <use style="fill:#9467bd;stroke:#9467bd;" x="173.843182" xlink:href="#m052ce637dc" y="76.019048"/>
     <use style="fill:#9467bd;stroke:#9467bd;" x="178.598864" xlink:href="#m052ce637dc" y="105.604036"/>
     <use style="fill:#9467bd;stroke:#9467bd;" x="183.354545" xlink:href="#m052ce637dc" y="119.394716"/>
     <use style="fill:#9467bd;stroke:#9467bd;" x="188.110227" xlink:href="#m052ce637dc" y="122.576155"/>
    </g>
   </g>
   <g id="patch_3">
    <path d="M 54 252 
L 54 34.56 
" style="fill:none;stroke:#000000;stroke-linecap:square;stroke-linejoin:miter;stroke-width:0.8;"/>
   </g>
   <g id="patch_4">
    <path d="M 388.8 252 
L 388.8 34.56 
" style="fill:none;stroke:#000000;stroke-linecap:square;stroke-linejoin:miter;stroke-width:0.8;"/>
   </g>
   <g id="patch_5">
    <path d="M 54 252 
L 388.8 252 
" style="fill:none;stroke:#000000;stroke-linecap:square;stroke-linejoin:miter;stroke-width:0.8;"/>
   </g>
   <g id="patch_6">
    <path d="M 54 34.56 
L 388.8 34.56 
" style="fill:none;stroke:#000000;stroke-linecap:square;stroke-linejoin:miter;stroke-width:0.8;"/>
   </g>
   <g id="text_18">
    <!-- Simulated Risky Portfolio Shares -->
    <defs>
     <path d="M 53.515625 70.515625 
L 53.515625 60.890625 
Q 47.90625 63.578125 42.921875 64.890625 
Q 37.9375 66.21875 33.296875 66.21875 
Q 25.25 66.21875 20.875 63.09375 
Q 16.5 59.96875 16.5 54.203125 
Q 16.5 49.359375 19.40625 46.890625 
Q 22.3125 44.4375 30.421875 42.921875 
L 36.375 41.703125 
Q 47.40625 39.59375 52.65625 34.296875 
Q 57.90625 29 57.90625 20.125 
Q 57.90625 9.515625 50.796875 4.046875 
Q 43.703125 -1.421875 29.984375 -1.421875 
Q 24.8125 -1.421875 18.96875 -0.25 
Q 13.140625 0.921875 6.890625 3.21875 
L 6.890625 13.375 
Q 12.890625 10.015625 18.65625 8.296875 
Q 24.421875 6.59375 29.984375 6.59375 
Q 38.421875 6.59375 43.015625 9.90625 
Q 47.609375 13.234375 47.609375 19.390625 
Q 47.609375 24.75 44.3125 27.78125 
Q 41.015625 30.8125 33.5 32.328125 
L 27.484375 33.5 
Q 16.453125 35.6875 11.515625 40.375 
Q 6.59375 45.0625 6.59375 53.421875 
Q 6.59375 63.09375 13.40625 68.65625 
Q 20.21875 74.21875 32.171875 74.21875 
Q 37.3125 74.21875 42.625 73.28125 
Q 47.953125 72.359375 53.515625 70.515625 
z
" id="DejaVuSans-83"/>
     <path d="M 52 44.1875 
Q 55.375 50.25 60.0625 53.125 
Q 64.75 56 71.09375 56 
Q 79.640625 56 84.28125 50.015625 
Q 88.921875 44.046875 88.921875 33.015625 
L 88.921875 0 
L 79.890625 0 
L 79.890625 32.71875 
Q 79.890625 40.578125 77.09375 44.375 
Q 74.3125 48.1875 68.609375 48.1875 
Q 61.625 48.1875 57.5625 43.546875 
Q 53.515625 38.921875 53.515625 30.90625 
L 53.515625 0 
L 44.484375 0 
L 44.484375 32.71875 
Q 44.484375 40.625 41.703125 44.40625 
Q 38.921875 48.1875 33.109375 48.1875 
Q 26.21875 48.1875 22.15625 43.53125 
Q 18.109375 38.875 18.109375 30.90625 
L 18.109375 0 
L 9.078125 0 
L 9.078125 54.6875 
L 18.109375 54.6875 
L 18.109375 46.1875 
Q 21.1875 51.21875 25.484375 53.609375 
Q 29.78125 56 35.6875 56 
Q 41.65625 56 45.828125 52.96875 
Q 50 49.953125 52 44.1875 
z
" id="DejaVuSans-109"/>
     <path d="M 8.5 21.578125 
L 8.5 54.6875 
L 17.484375 54.6875 
L 17.484375 21.921875 
Q 17.484375 14.15625 20.5 10.265625 
Q 23.53125 6.390625 29.59375 6.390625 
Q 36.859375 6.390625 41.078125 11.03125 
Q 45.3125 15.671875 45.3125 23.6875 
L 45.3125 54.6875 
L 54.296875 54.6875 
L 54.296875 0 
L 45.3125 0 
L 45.3125 8.40625 
Q 42.046875 3.421875 37.71875 1 
Q 33.40625 -1.421875 27.6875 -1.421875 
Q 18.265625 -1.421875 13.375 4.4375 
Q 8.5 10.296875 8.5 21.578125 
z
M 31.109375 56 
z
" id="DejaVuSans-117"/>
     <path d="M 9.421875 75.984375 
L 18.40625 75.984375 
L 18.40625 0 
L 9.421875 0 
z
" id="DejaVuSans-108"/>
     <path d="M 18.3125 70.21875 
L 18.3125 54.6875 
L 36.8125 54.6875 
L 36.8125 47.703125 
L 18.3125 47.703125 
L 18.3125 18.015625 
Q 18.3125 11.328125 20.140625 9.421875 
Q 21.96875 7.515625 27.59375 7.515625 
L 36.8125 7.515625 
L 36.8125 0 
L 27.59375 0 
Q 17.1875 0 13.234375 3.875 
Q 9.28125 7.765625 9.28125 18.015625 
L 9.28125 47.703125 
L 2.6875 47.703125 
L 2.6875 54.6875 
L 9.28125 54.6875 
L 9.28125 70.21875 
z
" id="DejaVuSans-116"/>
     <path d="M 45.40625 46.390625 
L 45.40625 75.984375 
L 54.390625 75.984375 
L 54.390625 0 
L 45.40625 0 
L 45.40625 8.203125 
Q 42.578125 3.328125 38.25 0.953125 
Q 33.9375 -1.421875 27.875 -1.421875 
Q 17.96875 -1.421875 11.734375 6.484375 
Q 5.515625 14.40625 5.515625 27.296875 
Q 5.515625 40.1875 11.734375 48.09375 
Q 17.96875 56 27.875 56 
Q 33.9375 56 38.25 53.625 
Q 42.578125 51.265625 45.40625 46.390625 
z
M 14.796875 27.296875 
Q 14.796875 17.390625 18.875 11.75 
Q 22.953125 6.109375 30.078125 6.109375 
Q 37.203125 6.109375 41.296875 11.75 
Q 45.40625 17.390625 45.40625 27.296875 
Q 45.40625 37.203125 41.296875 42.84375 
Q 37.203125 48.484375 30.078125 48.484375 
Q 22.953125 48.484375 18.875 42.84375 
Q 14.796875 37.203125 14.796875 27.296875 
z
" id="DejaVuSans-100"/>
     <path d="M 19.671875 64.796875 
L 19.671875 37.40625 
L 32.078125 37.40625 
Q 38.96875 37.40625 42.71875 40.96875 
Q 46.484375 44.53125 46.484375 51.125 
Q 46.484375 57.671875 42.71875 61.234375 
Q 38.96875 64.796875 32.078125 64.796875 
z
M 9.8125 72.90625 
L 32.078125 72.90625 
Q 44.34375 72.90625 50.609375 67.359375 
Q 56.890625 61.8125 56.890625 51.125 
Q 56.890625 40.328125 50.609375 34.8125 
Q 44.34375 29.296875 32.078125 29.296875 
L 19.671875 29.296875 
L 19.671875 0 
L 9.8125 0 
z
" id="DejaVuSans-80"/>
     <path d="M 30.609375 48.390625 
Q 23.390625 48.390625 19.1875 42.75 
Q 14.984375 37.109375 14.984375 27.296875 
Q 14.984375 17.484375 19.15625 11.84375 
Q 23.34375 6.203125 30.609375 6.203125 
Q 37.796875 6.203125 41.984375 11.859375 
Q 46.1875 17.53125 46.1875 27.296875 
Q 46.1875 37.015625 41.984375 42.703125 
Q 37.796875 48.390625 30.609375 48.390625 
z
M 30.609375 56 
Q 42.328125 56 49.015625 48.375 
Q 55.71875 40.765625 55.71875 27.296875 
Q 55.71875 13.875 49.015625 6.21875 
Q 42.328125 -1.421875 30.609375 -1.421875 
Q 18.84375 -1.421875 12.171875 6.21875 
Q 5.515625 13.875 5.515625 27.296875 
Q 5.515625 40.765625 12.171875 48.375 
Q 18.84375 56 30.609375 56 
z
" id="DejaVuSans-111"/>
     <path d="M 37.109375 75.984375 
L 37.109375 68.5 
L 28.515625 68.5 
Q 23.6875 68.5 21.796875 66.546875 
Q 19.921875 64.59375 19.921875 59.515625 
L 19.921875 54.6875 
L 34.71875 54.6875 
L 34.71875 47.703125 
L 19.921875 47.703125 
L 19.921875 0 
L 10.890625 0 
L 10.890625 47.703125 
L 2.296875 47.703125 
L 2.296875 54.6875 
L 10.890625 54.6875 
L 10.890625 58.5 
Q 10.890625 67.625 15.140625 71.796875 
Q 19.390625 75.984375 28.609375 75.984375 
z
" id="DejaVuSans-102"/>
    </defs>
    <g transform="translate(123.91125 28.56)scale(0.12 -0.12)">
     <use xlink:href="#DejaVuSans-83"/>
     <use x="63.476562" xlink:href="#DejaVuSans-105"/>
     <use x="91.259766" xlink:href="#DejaVuSans-109"/>
     <use x="188.671875" xlink:href="#DejaVuSans-117"/>
     <use x="252.050781" xlink:href="#DejaVuSans-108"/>
     <use x="279.833984" xlink:href="#DejaVuSans-97"/>
     <use x="341.113281" xlink:href="#DejaVuSans-116"/>
     <use x="380.322266" xlink:href="#DejaVuSans-101"/>
     <use x="441.845703" xlink:href="#DejaVuSans-100"/>
     <use x="505.322266" xlink:href="#DejaVuSans-32"/>
     <use x="537.109375" xlink:href="#DejaVuSans-82"/>
     <use x="606.591797" xlink:href="#DejaVuSans-105"/>
     <use x="634.375" xlink:href="#DejaVuSans-115"/>
     <use x="686.474609" xlink:href="#DejaVuSans-107"/>
     <use x="744.337891" xlink:href="#DejaVuSans-121"/>
     <use x="803.517578" xlink:href="#DejaVuSans-32"/>
     <use x="835.304688" xlink:href="#DejaVuSans-80"/>
     <use x="895.560547" xlink:href="#DejaVuSans-111"/>
     <use x="956.742188" xlink:href="#DejaVuSans-114"/>
     <use x="997.855469" xlink:href="#DejaVuSans-116"/>
     <use x="1037.064453" xlink:href="#DejaVuSans-102"/>
     <use x="1072.269531" xlink:href="#DejaVuSans-111"/>
     <use x="1133.451172" xlink:href="#DejaVuSans-108"/>
     <use x="1161.234375" xlink:href="#DejaVuSans-105"/>
     <use x="1189.017578" xlink:href="#DejaVuSans-111"/>
     <use x="1250.199219" xlink:href="#DejaVuSans-32"/>
     <use x="1281.986328" xlink:href="#DejaVuSans-83"/>
     <use x="1345.462891" xlink:href="#DejaVuSans-104"/>
     <use x="1408.841797" xlink:href="#DejaVuSans-97"/>
     <use x="1470.121094" xlink:href="#DejaVuSans-114"/>
     <use x="1511.203125" xlink:href="#DejaVuSans-101"/>
     <use x="1572.726562" xlink:href="#DejaVuSans-115"/>
    </g>
   </g>
  </g>
 </g>
 <defs>
  <clipPath id="pa51c9dedd7">
   <rect height="217.44" width="334.8" x="54" y="34.56"/>
  </clipPath>
 </defs>
</svg>
